  0
SECTION
  2
HEADER
  9
$ACADVER
  1
AC1014
  9
$HANDSEED
  5
FFFF
  9
$INSUNITS
 70
     0
  9
$MEASUREMENT
 70
     1
  0
ENDSEC
  0
SECTION
  2
TABLES
  0
TABLE
  2
VPORT
  5
8
330
0
100
AcDbSymbolTable
 70
     4
  0
VPORT
  5
2E
330
8
100
AcDbSymbolTableRecord
100
AcDbViewportTableRecord
  2
*ACTIVE
 70
     0
 10
0.0
 20
0.0
 11
1.0
 21
1.0
 12
210.0
 22
148.5
 13
0.0
 23
0.0
 14
10.0
 24
10.0
 15
10.0
 25
10.0
 16
0.0
 26
0.0
 36
1.0
 17
0.0
 27
0.0
 37
0.0
 40
341.0
 41
1.24
 42
50.0
 43
0.0
 44
0.0
 50
0.0
 51
0.0
 71
     0
 72
   100
 73
     1
 74
     3
 75
     0
 76
     0
 77
     0
 78
     0
  0
ENDTAB
  0
TABLE
  2
LTYPE
  5
5
330
0
100
AcDbSymbolTable
 70
     1
  0
LTYPE
  5
14
330
5
100
AcDbSymbolTableRecord
100
AcDbLinetypeTableRecord
  2
BYBLOCK
 70
     0
  3

 72
    65
 73
     0
 40
0.0
  0
LTYPE
  5
15
330
5
100
AcDbSymbolTableRecord
100
AcDbLinetypeTableRecord
  2
BYLAYER
 70
     0
  3

 72
    65
 73
     0
 40
0.0
  0
LTYPE
  5
16
330
5
100
AcDbSymbolTableRecord
100
AcDbLinetypeTableRecord
  2
CONTINUOUS
 70
     0
  3
Solid line
 72
    65
 73
     0
 40
0.0
  0
ENDTAB
  0
TABLE
  2
LAYER
  5
2
100
AcDbSymbolTable
 70
1
  0
LAYER
  5
50
100
AcDbSymbolTableRecord
100
AcDbLayerTableRecord
  2
0
 70
0
  6
CONTINUOUS
  0
ENDTAB
  0
TABLE
  2
STYLE
  5
3
330
0
100
AcDbSymbolTable
 70
     1
  0
STYLE
  5
11
330
3
100
AcDbSymbolTableRecord
100
AcDbTextStyleTableRecord
  2
STANDARD
 70
     0
 40
0.0
 41
1.0
 50
0.0
 71
     0
 42
2.5
  3
txt
  4

  0
ENDTAB
  0
TABLE
  2
VIEW
  5
6
330
0
100
AcDbSymbolTable
 70
     0
  0
ENDTAB
  0
TABLE
  2
UCS
  5
7
330
0
100
AcDbSymbolTable
 70
     0
  0
ENDTAB
  0
TABLE
  2
APPID
  5
9
330
0
100
AcDbSymbolTable
 70
     2
  0
APPID
  5
12
330
9
100
AcDbSymbolTableRecord
100
AcDbRegAppTableRecord
  2
ACAD
 70
     0
  0
ENDTAB
  0
TABLE
  2
DIMSTYLE
  5
A
330
0
100
AcDbSymbolTable
 70
     1
  0
DIMSTYLE
105
27
330
A
100
AcDbSymbolTableRecord
100
AcDbDimStyleTableRecord
  2
ISO-25
 70
     0
  3

  4

  5

  6

  7

 40
1.0
 41
2.5
 42
0.625
 43
3.75
 44
1.25
 45
0.0
 46
0.0
 47
0.0
 48
0.0
140
2.5
141
2.5
142
0.0
143
0.03937007874016
144
1.0
145
0.0
146
1.0
147
0.625
 71
     0
 72
     0
 73
     0
 74
     0
 75
     0
 76
     0
 77
     1
 78
     8
170
     0
171
     3
172
     1
173
     0
174
     0
175
     0
176
     0
177
     0
178
     0
270
     2
271
     2
272
     2
273
     2
274
     3
340
11
275
     0
280
     0
281
     0
282
     0
283
     0
284
     8
285
     0
286
     0
287
     3
288
     0
  0
ENDTAB
  0
TABLE
  2
BLOCK_RECORD
  5
1
330
0
100
AcDbSymbolTable
 70
     1
  0
BLOCK_RECORD
  5
1F
330
1
100
AcDbSymbolTableRecord
100
AcDbBlockTableRecord
  2
*MODEL_SPACE
  0
BLOCK_RECORD
  5
1B
330
1
100
AcDbSymbolTableRecord
100
AcDbBlockTableRecord
  2
*PAPER_SPACE
  0
ENDTAB
  0
ENDSEC
  0
SECTION
  2
BLOCKS
  0
BLOCK
  5
20
330
1F
100
AcDbEntity
  8
0
100
AcDbBlockBegin
  2
*MODEL_SPACE
 70
     0
 10
0.0
 20
0.0
 30
0.0
  3
*MODEL_SPACE
  1

  0
ENDBLK
  5
21
330
1F
100
AcDbEntity
  8
0
100
AcDbBlockEnd
  0
BLOCK
  5
1C
330
1B
100
AcDbEntity
 67
     1
  8
0
100
AcDbBlockBegin
  2
*PAPER_SPACE
  1

  0
ENDBLK
  5
1D
330
1B
100
AcDbEntity
 67
     1
  8
0
100
AcDbBlockEnd
  0
ENDSEC
  0
SECTION
  2
ENTITIES
  0
SPLINE
  5
100
100
AcDbEntity
  8
0
 62
7
100
AcDbSpline
 70
8
 71
3
 72
8
 73
4
 74
0
 40
0
 40
0
 40
0
 40
0
 40
1
 40
1
 40
1
 40
1
 10
149.000000
 20
263.200000
 30
0.0
 10
143.000000
 20
262.500000
 30
0.0
 10
139.000000
 20
258.100000
 30
0.0
 10
139.000000
 20
252.300000
 30
0.0
  0
SPLINE
  5
101
100
AcDbEntity
  8
0
 62
7
100
AcDbSpline
 70
8
 71
3
 72
8
 73
4
 74
0
 40
0
 40
0
 40
0
 40
0
 40
1
 40
1
 40
1
 40
1
 10
139.000000
 20
252.300000
 30
0.0
 10
139.000000
 20
241.400000
 30
0.0
 10
157.400000
 20
238.100000
 30
0.0
 10
162.500000
 20
248.000000
 30
0.0
  0
SPLINE
  5
102
100
AcDbEntity
  8
0
 62
7
100
AcDbSpline
 70
8
 71
3
 72
8
 73
4
 74
0
 40
0
 40
0
 40
0
 40
0
 40
1
 40
1
 40
1
 40
1
 10
162.500000
 20
248.000000
 30
0.0
 10
164.700000
 20
252.300000
 30
0.0
 10
164.300000
 20
255.600000
 30
0.0
 10
161.300000
 20
259.000000
 30
0.0
  0
SPLINE
  5
103
100
AcDbEntity
  8
0
 62
7
100
AcDbSpline
 70
8
 71
3
 72
8
 73
4
 74
0
 40
0
 40
0
 40
0
 40
0
 40
1
 40
1
 40
1
 40
1
 10
161.300000
 20
259.000000
 30
0.0
 10
158.400000
 20
262.200000
 30
0.0
 10
153.600000
 20
263.800000
 30
0.0
 10
149.000000
 20
263.200000
 30
0.0
  0
SPLINE
  5
104
100
AcDbEntity
  8
0
 62
7
100
AcDbSpline
 70
8
 71
3
 72
8
 73
4
 74
0
 40
0
 40
0
 40
0
 40
0
 40
1
 40
1
 40
1
 40
1
 10
157.300000
 20
258.100000
 30
0.0
 10
163.300000
 20
252.600000
 30
0.0
 10
159.300000
 20
244.900000
 30
0.0
 10
150.800000
 20
245.700000
 30
0.0
  0
SPLINE
  5
105
100
AcDbEntity
  8
0
 62
7
100
AcDbSpline
 70
8
 71
3
 72
8
 73
4
 74
0
 40
0
 40
0
 40
0
 40
0
 40
1
 40
1
 40
1
 40
1
 10
150.800000
 20
245.700000
 30
0.0
 10
140.800000
 20
246.700000
 30
0.0
 10
139.400000
 20
255.300000
 30
0.0
 10
148.300000
 20
260.900000
 30
0.0
  0
SPLINE
  5
106
100
AcDbEntity
  8
0
 62
7
100
AcDbSpline
 70
8
 71
3
 72
8
 73
4
 74
0
 40
0
 40
0
 40
0
 40
0
 40
1
 40
1
 40
1
 40
1
 10
148.300000
 20
260.900000
 30
0.0
 10
151.700000
 20
263.000000
 30
0.0
 10
151.900000
 20
263.000000
 30
0.0
 10
157.300000
 20
258.100000
 30
0.0
  0
LWPOLYLINE
  5
107
100
AcDbEntity
  8
0
 62
7
100
AcDbPolyline
 90
1
 70
1
 10
149.000000
 20
263.200000
 30
0.0
  0
SPLINE
  5
108
100
AcDbEntity
  8
0
 62
7
100
AcDbSpline
 70
8
 71
3
 72
8
 73
4
 74
0
 40
0
 40
0
 40
0
 40
0
 40
1
 40
1
 40
1
 40
1
 10
125.200000
 20
250.800000
 30
0.0
 10
125.400000
 20
249.300000
 30
0.0
 10
126.200000
 20
248.500000
 30
0.0
 10
127.500000
 20
248.500000
 30
0.0
  0
SPLINE
  5
109
100
AcDbEntity
  8
0
 62
7
100
AcDbSpline
 70
8
 71
3
 72
8
 73
4
 74
0
 40
0
 40
0
 40
0
 40
0
 40
1
 40
1
 40
1
 40
1
 10
127.500000
 20
248.500000
 30
0.0
 10
128.800000
 20
248.500000
 30
0.0
 10
129.600000
 20
249.300000
 30
0.0
 10
129.800000
 20
250.800000
 30
0.0
  0
SPLINE
  5
10a
100
AcDbEntity
  8
0
 62
7
100
AcDbSpline
 70
8
 71
3
 72
8
 73
4
 74
0
 40
0
 40
0
 40
0
 40
0
 40
1
 40
1
 40
1
 40
1
 10
129.800000
 20
250.800000
 30
0.0
 10
130.100000
 20
252.600000
 30
0.0
 10
129.700000
 20
253.000000
 30
0.0
 10
127.500000
 20
253.000000
 30
0.0
  0
SPLINE
  5
10b
100
AcDbEntity
  8
0
 62
7
100
AcDbSpline
 70
8
 71
3
 72
8
 73
4
 74
0
 40
0
 40
0
 40
0
 40
0
 40
1
 40
1
 40
1
 40
1
 10
127.500000
 20
253.000000
 30
0.0
 10
125.300000
 20
253.000000
 30
0.0
 10
124.900000
 20
252.600000
 30
0.0
 10
125.200000
 20
250.800000
 30
0.0
  0
LWPOLYLINE
  5
10c
100
AcDbEntity
  8
0
 62
7
100
AcDbPolyline
 90
1
 70
1
 10
157.300000
 20
258.100000
 30
0.0
  0
SPLINE
  5
10d
100
AcDbEntity
  8
0
 62
7
100
AcDbSpline
 70
8
 71
3
 72
8
 73
4
 74
0
 40
0
 40
0
 40
0
 40
0
 40
1
 40
1
 40
1
 40
1
 10
172.000000
 20
251.100000
 30
0.0
 10
172.000000
 20
248.400000
 30
0.0
 10
173.900000
 20
247.500000
 30
0.0
 10
175.700000
 20
249.300000
 30
0.0
  0
SPLINE
  5
10e
100
AcDbEntity
  8
0
 62
7
100
AcDbSpline
 70
8
 71
3
 72
8
 73
4
 74
0
 40
0
 40
0
 40
0
 40
0
 40
1
 40
1
 40
1
 40
1
 10
175.700000
 20
249.300000
 30
0.0
 10
177.500000
 20
251.100000
 30
0.0
 10
176.600000
 20
253.000000
 30
0.0
 10
173.900000
 20
253.000000
 30
0.0
  0
SPLINE
  5
10f
100
AcDbEntity
  8
0
 62
7
100
AcDbSpline
 70
8
 71
3
 72
8
 73
4
 74
0
 40
0
 40
0
 40
0
 40
0
 40
1
 40
1
 40
1
 40
1
 10
173.900000
 20
253.000000
 30
0.0
 10
172.700000
 20
253.000000
 30
0.0
 10
172.000000
 20
252.300000
 30
0.0
 10
172.000000
 20
251.100000
 30
0.0
  0
LWPOLYLINE
  5
110
100
AcDbEntity
  8
0
 62
7
100
AcDbPolyline
 90
1
 70
1
 10
125.200000
 20
250.800000
 30
0.0
  0
SPLINE
  5
111
100
AcDbEntity
  8
0
 62
7
100
AcDbSpline
 70
8
 71
3
 72
8
 73
4
 74
0
 40
0
 40
0
 40
0
 40
0
 40
1
 40
1
 40
1
 40
1
 10
83.000000
 20
248.100000
 30
0.0
 10
81.700000
 20
245.500000
 30
0.0
 10
82.700000
 20
243.100000
 30
0.0
 10
85.500000
 20
242.400000
 30
0.0
  0
SPLINE
  5
112
100
AcDbEntity
  8
0
 62
7
100
AcDbSpline
 70
8
 71
3
 72
8
 73
4
 74
0
 40
0
 40
0
 40
0
 40
0
 40
1
 40
1
 40
1
 40
1
 10
85.500000
 20
242.400000
 30
0.0
 10
90.200000
 20
241.200000
 30
0.0
 10
93.900000
 20
245.700000
 30
0.0
 10
90.800000
 20
248.800000
 30
0.0
  0
SPLINE
  5
113
100
AcDbEntity
  8
0
 62
7
100
AcDbSpline
 70
8
 71
3
 72
8
 73
4
 74
0
 40
0
 40
0
 40
0
 40
0
 40
1
 40
1
 40
1
 40
1
 10
90.800000
 20
248.800000
 30
0.0
 10
88.900000
 20
250.700000
 30
0.0
 10
84.200000
 20
250.300000
 30
0.0
 10
83.000000
 20
248.100000
 30
0.0
  0
LWPOLYLINE
  5
114
100
AcDbEntity
  8
0
 62
7
100
AcDbPolyline
 90
1
 70
1
 10
172.000000
 20
251.100000
 30
0.0
  0
SPLINE
  5
115
100
AcDbEntity
  8
0
 62
7
100
AcDbSpline
 70
8
 71
3
 72
8
 73
4
 74
0
 40
0
 40
0
 40
0
 40
0
 40
1
 40
1
 40
1
 40
1
 10
209.600000
 20
248.400000
 30
0.0
 10
207.500000
 20
246.400000
 30
0.0
 10
207.600000
 20
244.700000
 30
0.0
 10
209.800000
 20
242.700000
 30
0.0
  0
SPLINE
  5
116
100
AcDbEntity
  8
0
 62
7
100
AcDbSpline
 70
8
 71
3
 72
8
 73
4
 74
0
 40
0
 40
0
 40
0
 40
0
 40
1
 40
1
 40
1
 40
1
 10
209.800000
 20
242.700000
 30
0.0
 10
213.300000
 20
239.500000
 30
0.0
 10
218.000000
 20
241.200000
 30
0.0
 10
218.000000
 20
245.500000
 30
0.0
  0
SPLINE
  5
117
100
AcDbEntity
  8
0
 62
7
100
AcDbSpline
 70
8
 71
3
 72
8
 73
4
 74
0
 40
0
 40
0
 40
0
 40
0
 40
1
 40
1
 40
1
 40
1
 10
218.000000
 20
245.500000
 30
0.0
 10
218.000000
 20
249.800000
 30
0.0
 10
212.700000
 20
251.600000
 30
0.0
 10
209.600000
 20
248.400000
 30
0.0
  0
LWPOLYLINE
  5
118
100
AcDbEntity
  8
0
 62
7
100
AcDbPolyline
 90
1
 70
1
 10
83.000000
 20
248.100000
 30
0.0
  0
SPLINE
  5
119
100
AcDbEntity
  8
0
 62
7
100
AcDbSpline
 70
8
 71
3
 72
8
 73
4
 74
0
 40
0
 40
0
 40
0
 40
0
 40
1
 40
1
 40
1
 40
1
 10
181.200000
 20
247.000000
 30
0.0
 10
178.100000
 20
244.100000
 30
0.0
 10
177.400000
 20
240.500000
 30
0.0
 10
179.500000
 20
237.400000
 30
0.0
  0
SPLINE
  5
11a
100
AcDbEntity
  8
0
 62
7
100
AcDbSpline
 70
8
 71
3
 72
8
 73
4
 74
0
 40
0
 40
0
 40
0
 40
0
 40
1
 40
1
 40
1
 40
1
 10
179.500000
 20
237.400000
 30
0.0
 10
181.100000
 20
234.900000
 30
0.0
 10
181.100000
 20
234.700000
 30
0.0
 10
179.100000
 20
232.600000
 30
0.0
  0
SPLINE
  5
11b
100
AcDbEntity
  8
0
 62
7
100
AcDbSpline
 70
8
 71
3
 72
8
 73
4
 74
0
 40
0
 40
0
 40
0
 40
0
 40
1
 40
1
 40
1
 40
1
 10
179.100000
 20
232.600000
 30
0.0
 10
177.200000
 20
230.500000
 30
0.0
 10
177.000000
 20
229.200000
 30
0.0
 10
177.000000
 20
214.700000
 30
0.0
  0
LWPOLYLINE
  5
11c
100
AcDbEntity
  8
0
 62
7
100
AcDbPolyline
 90
1
 70
1
 10
209.600000
 20
248.400000
 30
0.0
  0
SPLINE
  5
11d
100
AcDbEntity
  8
0
 62
7
100
AcDbSpline
 70
8
 71
3
 72
8
 73
4
 74
0
 40
0
 40
0
 40
0
 40
0
 40
1
 40
1
 40
1
 40
1
 10
170.900000
 20
199.000000
 30
0.0
 10
167.500000
 20
199.000000
 30
0.0
 10
163.000000
 20
198.500000
 30
0.0
 10
160.800000
 20
197.800000
 30
0.0
  0
SPLINE
  5
11e
100
AcDbEntity
  8
0
 62
7
100
AcDbSpline
 70
8
 71
3
 72
8
 73
4
 74
0
 40
0
 40
0
 40
0
 40
0
 40
1
 40
1
 40
1
 40
1
 10
160.800000
 20
197.800000
 30
0.0
 10
155.800000
 20
196.300000
 30
0.0
 10
151.400000
 20
191.300000
 30
0.0
 10
150.500000
 20
186.100000
 30
0.0
  0
SPLINE
  5
11f
100
AcDbEntity
  8
0
 62
7
100
AcDbSpline
 70
8
 71
3
 72
8
 73
4
 74
0
 40
0
 40
0
 40
0
 40
0
 40
1
 40
1
 40
1
 40
1
 10
150.500000
 20
186.100000
 30
0.0
 10
149.600000
 20
180.800000
 30
0.0
 10
146.200000
 20
178.000000
 30
0.0
 10
140.500000
 20
178.000000
 30
0.0
  0
SPLINE
  5
120
100
AcDbEntity
  8
0
 62
7
100
AcDbSpline
 70
8
 71
3
 72
8
 73
4
 74
0
 40
0
 40
0
 40
0
 40
0
 40
1
 40
1
 40
1
 40
1
 10
140.500000
 20
178.000000
 30
0.0
 10
133.300000
 20
178.000000
 30
0.0
 10
133.000000
 20
177.100000
 30
0.0
 10
133.000000
 20
155.900000
 30
0.0
  0
SPLINE
  5
121
100
AcDbEntity
  8
0
 62
7
100
AcDbSpline
 70
8
 71
3
 72
8
 73
4
 74
0
 40
0
 40
0
 40
0
 40
0
 40
1
 40
1
 40
1
 40
1
 10
133.000000
 20
155.900000
 30
0.0
 10
133.000000
 20
145.800000
 30
0.0
 10
132.700000
 20
129.800000
 30
0.0
 10
132.300000
 20
120.300000
 30
0.0
  0
LWPOLYLINE
  5
122
100
AcDbEntity
  8
0
 62
7
100
AcDbPolyline
 90
3
 70
0
 10
177.000000
 20
214.700000
 30
0.0
 10
177.000000
 20
199.000000
 30
0.0
 10
170.900000
 20
199.000000
 30
0.0
  0
SPLINE
  5
123
100
AcDbEntity
  8
0
 62
7
100
AcDbSpline
 70
8
 71
3
 72
8
 73
4
 74
0
 40
0
 40
0
 40
0
 40
0
 40
1
 40
1
 40
1
 40
1
 10
124.000000
 20
108.200000
 30
0.0
 10
124.000000
 20
112.700000
 30
0.0
 10
123.700000
 20
114.000000
 30
0.0
 10
122.500000
 20
114.000000
 30
0.0
  0
SPLINE
  5
124
100
AcDbEntity
  8
0
 62
7
100
AcDbSpline
 70
8
 71
3
 72
8
 73
4
 74
0
 40
0
 40
0
 40
0
 40
0
 40
1
 40
1
 40
1
 40
1
 10
122.500000
 20
114.000000
 30
0.0
 10
121.300000
 20
114.000000
 30
0.0
 10
121.000000
 20
112.700000
 30
0.0
 10
121.000000
 20
108.300000
 30
0.0
  0
LWPOLYLINE
  5
125
100
AcDbEntity
  8
0
 62
7
100
AcDbPolyline
 90
5
 70
0
 10
132.300000
 20
120.300000
 30
0.0
 10
131.700000
 20
103.200000
 30
0.0
 10
127.800000
 20
102.800000
 30
0.0
 10
124.000000
 20
102.400000
 30
0.0
 10
124.000000
 20
108.200000
 30
0.0
  0
SPLINE
  5
126
100
AcDbEntity
  8
0
 62
7
100
AcDbSpline
 70
8
 71
3
 72
8
 73
4
 74
0
 40
0
 40
0
 40
0
 40
0
 40
1
 40
1
 40
1
 40
1
 10
113.900000
 20
170.400000
 30
0.0
 10
125.900000
 20
171.500000
 30
0.0
 10
125.400000
 20
170.300000
 30
0.0
 10
125.800000
 20
199.700000
 30
0.0
  0
LWPOLYLINE
  5
127
100
AcDbEntity
  8
0
 62
7
100
AcDbPolyline
 90
7
 70
0
 10
121.000000
 20
108.300000
 30
0.0
 10
121.000000
 20
102.500000
 30
0.0
 10
113.800000
 20
103.000000
 30
0.0
 10
106.500000
 20
103.500000
 30
0.0
 10
106.200000
 20
136.600000
 30
0.0
 10
106.000000
 20
169.700000
 30
0.0
 10
113.900000
 20
170.400000
 30
0.0
  0
SPLINE
  5
128
100
AcDbEntity
  8
0
 62
7
100
AcDbSpline
 70
8
 71
3
 72
8
 73
4
 74
0
 40
0
 40
0
 40
0
 40
0
 40
1
 40
1
 40
1
 40
1
 10
122.600000
 20
227.900000
 30
0.0
 10
120.000000
 20
230.600000
 30
0.0
 10
119.300000
 20
231.900000
 30
0.0
 10
120.000000
 20
233.000000
 30
0.0
  0
SPLINE
  5
129
100
AcDbEntity
  8
0
 62
7
100
AcDbSpline
 70
8
 71
3
 72
8
 73
4
 74
0
 40
0
 40
0
 40
0
 40
0
 40
1
 40
1
 40
1
 40
1
 10
120.000000
 20
233.000000
 30
0.0
 10
122.600000
 20
237.100000
 30
0.0
 10
119.700000
 20
242.800000
 30
0.0
 10
114.200000
 20
244.500000
 30
0.0
  0
SPLINE
  5
12a
100
AcDbEntity
  8
0
 62
7
100
AcDbSpline
 70
8
 71
3
 72
8
 73
4
 74
0
 40
0
 40
0
 40
0
 40
0
 40
1
 40
1
 40
1
 40
1
 10
114.200000
 20
244.500000
 30
0.0
 10
111.300000
 20
245.400000
 30
0.0
 10
105.200000
 20
243.300000
 30
0.0
 10
104.000000
 20
241.000000
 30
0.0
  0
SPLINE
  5
12b
100
AcDbEntity
  8
0
 62
7
100
AcDbSpline
 70
8
 71
3
 72
8
 73
4
 74
0
 40
0
 40
0
 40
0
 40
0
 40
1
 40
1
 40
1
 40
1
 10
104.000000
 20
241.000000
 30
0.0
 10
101.200000
 20
235.700000
 30
0.0
 10
103.900000
 20
230.700000
 30
0.0
 10
111.100000
 20
227.700000
 30
0.0
  0
SPLINE
  5
12c
100
AcDbEntity
  8
0
 62
7
100
AcDbSpline
 70
8
 71
3
 72
8
 73
4
 74
0
 40
0
 40
0
 40
0
 40
0
 40
1
 40
1
 40
1
 40
1
 10
111.100000
 20
227.700000
 30
0.0
 10
113.100000
 20
226.900000
 30
0.0
 10
115.600000
 20
225.000000
 30
0.0
 10
116.800000
 20
223.500000
 30
0.0
  0
SPLINE
  5
12d
100
AcDbEntity
  8
0
 62
7
100
AcDbSpline
 70
8
 71
3
 72
8
 73
4
 74
0
 40
0
 40
0
 40
0
 40
0
 40
1
 40
1
 40
1
 40
1
 10
116.800000
 20
223.500000
 30
0.0
 10
118.900000
 20
220.900000
 30
0.0
 10
119.000000
 20
219.700000
 30
0.0
 10
119.000000
 20
201.500000
 30
0.0
  0
SPLINE
  5
12e
100
AcDbEntity
  8
0
 62
7
100
AcDbSpline
 70
8
 71
3
 72
8
 73
4
 74
0
 40
0
 40
0
 40
0
 40
0
 40
1
 40
1
 40
1
 40
1
 10
119.000000
 20
201.500000
 30
0.0
 10
119.000000
 20
183.600000
 30
0.0
 10
118.900000
 20
182.100000
 30
0.0
 10
116.900000
 20
179.600000
 30
0.0
  0
SPLINE
  5
12f
100
AcDbEntity
  8
0
 62
7
100
AcDbSpline
 70
8
 71
3
 72
8
 73
4
 74
0
 40
0
 40
0
 40
0
 40
0
 40
1
 40
1
 40
1
 40
1
 10
116.900000
 20
179.600000
 30
0.0
 10
115.000000
 20
177.200000
 30
0.0
 10
114.200000
 20
177.000000
 30
0.0
 10
108.000000
 20
177.000000
 30
0.0
  0
SPLINE
  5
130
100
AcDbEntity
  8
0
 62
7
100
AcDbSpline
 70
8
 71
3
 72
8
 73
4
 74
0
 40
0
 40
0
 40
0
 40
0
 40
1
 40
1
 40
1
 40
1
 10
108.000000
 20
177.000000
 30
0.0
 10
102.200000
 20
177.000000
 30
0.0
 10
100.900000
 20
176.700000
 30
0.0
 10
100.000000
 20
175.100000
 30
0.0
  0
SPLINE
  5
131
100
AcDbEntity
  8
0
 62
7
100
AcDbSpline
 70
8
 71
3
 72
8
 73
4
 74
0
 40
0
 40
0
 40
0
 40
0
 40
1
 40
1
 40
1
 40
1
 10
100.000000
 20
175.100000
 30
0.0
 10
99.400000
 20
173.800000
 30
0.0
 10
99.000000
 20
159.900000
 30
0.0
 10
99.000000
 20
136.600000
 30
0.0
  0
LWPOLYLINE
  5
132
100
AcDbEntity
  8
0
 62
7
100
AcDbPolyline
 90
3
 70
0
 10
125.800000
 20
199.700000
 30
0.0
 10
126.200000
 20
224.300000
 30
0.0
 10
122.600000
 20
227.900000
 30
0.0
  0
SPLINE
  5
133
100
AcDbEntity
  8
0
 62
7
100
AcDbSpline
 70
8
 71
3
 72
8
 73
4
 74
0
 40
0
 40
0
 40
0
 40
0
 40
1
 40
1
 40
1
 40
1
 10
101.600000
 20
98.100000
 30
0.0
 10
104.100000
 20
96.200000
 30
0.0
 10
105.600000
 20
96.000000
 30
0.0
 10
120.400000
 20
96.000000
 30
0.0
  0
LWPOLYLINE
  5
134
100
AcDbEntity
  8
0
 62
7
100
AcDbPolyline
 90
3
 70
0
 10
99.000000
 20
136.600000
 30
0.0
 10
99.000000
 20
100.100000
 30
0.0
 10
101.600000
 20
98.100000
 30
0.0
  0
SPLINE
  5
135
100
AcDbEntity
  8
0
 62
7
100
AcDbSpline
 70
8
 71
3
 72
8
 73
4
 74
0
 40
0
 40
0
 40
0
 40
0
 40
1
 40
1
 40
1
 40
1
 10
157.300000
 20
125.200000
 30
0.0
 10
173.600000
 20
125.400000
 30
0.0
 10
179.100000
 20
125.800000
 30
0.0
 10
180.300000
 20
126.900000
 30
0.0
  0
SPLINE
  5
136
100
AcDbEntity
  8
0
 62
7
100
AcDbSpline
 70
8
 71
3
 72
8
 73
4
 74
0
 40
0
 40
0
 40
0
 40
0
 40
1
 40
1
 40
1
 40
1
 10
180.300000
 20
126.900000
 30
0.0
 10
181.800000
 20
128.100000
 30
0.0
 10
182.000000
 20
130.900000
 30
0.0
 10
182.000000
 20
149.000000
 30
0.0
  0
SPLINE
  5
137
100
AcDbEntity
  8
0
 62
7
100
AcDbSpline
 70
8
 71
3
 72
8
 73
4
 74
0
 40
0
 40
0
 40
0
 40
0
 40
1
 40
1
 40
1
 40
1
 10
182.000000
 20
149.000000
 30
0.0
 10
182.000000
 20
166.700000
 30
0.0
 10
182.200000
 20
169.900000
 30
0.0
 10
183.600000
 20
171.100000
 30
0.0
  0
SPLINE
  5
138
100
AcDbEntity
  8
0
 62
7
100
AcDbSpline
 70
8
 71
3
 72
8
 73
4
 74
0
 40
0
 40
0
 40
0
 40
0
 40
1
 40
1
 40
1
 40
1
 10
183.600000
 20
171.100000
 30
0.0
 10
184.700000
 20
172.000000
 30
0.0
 10
185.000000
 20
173.300000
 30
0.0
 10
184.500000
 20
175.400000
 30
0.0
  0
SPLINE
  5
139
100
AcDbEntity
  8
0
 62
7
100
AcDbSpline
 70
8
 71
3
 72
8
 73
4
 74
0
 40
0
 40
0
 40
0
 40
0
 40
1
 40
1
 40
1
 40
1
 10
184.500000
 20
175.400000
 30
0.0
 10
184.200000
 20
177.100000
 30
0.0
 10
183.600000
 20
180.600000
 30
0.0
 10
183.300000
 20
183.300000
 30
0.0
  0
LWPOLYLINE
  5
13a
100
AcDbEntity
  8
0
 62
7
100
AcDbPolyline
 90
5
 70
0
 10
120.400000
 20
96.000000
 30
0.0
 10
136.500000
 20
96.000000
 30
0.0
 10
136.200000
 20
110.400000
 30
0.0
 10
135.900000
 20
124.900000
 30
0.0
 10
157.300000
 20
125.200000
 30
0.0
  0
SPLINE
  5
13b
100
AcDbEntity
  8
0
 62
7
100
AcDbSpline
 70
8
 71
3
 72
8
 73
4
 74
0
 40
0
 40
0
 40
0
 40
0
 40
1
 40
1
 40
1
 40
1
 10
197.500000
 20
115.500000
 30
0.0
 10
200.500000
 20
115.500000
 30
0.0
 10
201.000000
 20
115.800000
 30
0.0
 10
201.000000
 20
117.900000
 30
0.0
  0
SPLINE
  5
13c
100
AcDbEntity
  8
0
 62
7
100
AcDbSpline
 70
8
 71
3
 72
8
 73
4
 74
0
 40
0
 40
0
 40
0
 40
0
 40
1
 40
1
 40
1
 40
1
 10
201.000000
 20
117.900000
 30
0.0
 10
201.000000
 20
120.000000
 30
0.0
 10
201.300000
 20
120.200000
 30
0.0
 10
204.800000
 20
119.700000
 30
0.0
  0
SPLINE
  5
13d
100
AcDbEntity
  8
0
 62
7
100
AcDbSpline
 70
8
 71
3
 72
8
 73
4
 74
0
 40
0
 40
0
 40
0
 40
0
 40
1
 40
1
 40
1
 40
1
 10
204.800000
 20
119.700000
 30
0.0
 10
206.800000
 20
119.400000
 30
0.0
 10
209.900000
 20
118.800000
 30
0.0
 10
211.600000
 20
118.500000
 30
0.0
  0
SPLINE
  5
13e
100
AcDbEntity
  8
0
 62
7
100
AcDbSpline
 70
8
 71
3
 72
8
 73
4
 74
0
 40
0
 40
0
 40
0
 40
0
 40
1
 40
1
 40
1
 40
1
 10
211.600000
 20
118.500000
 30
0.0
 10
213.700000
 20
118.000000
 30
0.0
 10
215.000000
 20
118.300000
 30
0.0
 10
215.900000
 20
119.400000
 30
0.0
  0
SPLINE
  5
13f
100
AcDbEntity
  8
0
 62
7
100
AcDbSpline
 70
8
 71
3
 72
8
 73
4
 74
0
 40
0
 40
0
 40
0
 40
0
 40
1
 40
1
 40
1
 40
1
 10
215.900000
 20
119.400000
 30
0.0
 10
217.600000
 20
121.400000
 30
0.0
 10
222.400000
 20
121.500000
 30
0.0
 10
224.000000
 20
119.500000
 30
0.0
  0
SPLINE
  5
140
100
AcDbEntity
  8
0
 62
7
100
AcDbSpline
 70
8
 71
3
 72
8
 73
4
 74
0
 40
0
 40
0
 40
0
 40
0
 40
1
 40
1
 40
1
 40
1
 10
224.000000
 20
119.500000
 30
0.0
 10
225.600000
 20
117.500000
 30
0.0
 10
229.400000
 20
117.600000
 30
0.0
 10
231.400000
 20
119.600000
 30
0.0
  0
SPLINE
  5
141
100
AcDbEntity
  8
0
 62
7
100
AcDbSpline
 70
8
 71
3
 72
8
 73
4
 74
0
 40
0
 40
0
 40
0
 40
0
 40
1
 40
1
 40
1
 40
1
 10
231.400000
 20
119.600000
 30
0.0
 10
233.500000
 20
121.600000
 30
0.0
 10
233.400000
 20
123.300000
 30
0.0
 10
231.200000
 20
125.300000
 30
0.0
  0
SPLINE
  5
142
100
AcDbEntity
  8
0
 62
7
100
AcDbSpline
 70
8
 71
3
 72
8
 73
4
 74
0
 40
0
 40
0
 40
0
 40
0
 40
1
 40
1
 40
1
 40
1
 10
231.200000
 20
125.300000
 30
0.0
 10
228.900000
 20
127.400000
 30
0.0
 10
227.000000
 20
127.400000
 30
0.0
 10
224.400000
 20
125.500000
 30
0.0
  0
SPLINE
  5
143
100
AcDbEntity
  8
0
 62
7
100
AcDbSpline
 70
8
 71
3
 72
8
 73
4
 74
0
 40
0
 40
0
 40
0
 40
0
 40
1
 40
1
 40
1
 40
1
 10
224.400000
 20
125.500000
 30
0.0
 10
221.900000
 20
123.600000
 30
0.0
 10
218.500000
 20
123.600000
 30
0.0
 10
215.400000
 20
125.700000
 30
0.0
  0
SPLINE
  5
144
100
AcDbEntity
  8
0
 62
7
100
AcDbSpline
 70
8
 71
3
 72
8
 73
4
 74
0
 40
0
 40
0
 40
0
 40
0
 40
1
 40
1
 40
1
 40
1
 10
215.400000
 20
125.700000
 30
0.0
 10
213.300000
 20
127.100000
 30
0.0
 10
212.300000
 20
127.100000
 30
0.0
 10
209.600000
 20
126.200000
 30
0.0
  0
SPLINE
  5
145
100
AcDbEntity
  8
0
 62
7
100
AcDbSpline
 70
8
 71
3
 72
8
 73
4
 74
0
 40
0
 40
0
 40
0
 40
0
 40
1
 40
1
 40
1
 40
1
 10
209.600000
 20
126.200000
 30
0.0
 10
207.800000
 20
125.500000
 30
0.0
 10
205.200000
 20
125.000000
 30
0.0
 10
203.700000
 20
125.000000
 30
0.0
  0
SPLINE
  5
146
100
AcDbEntity
  8
0
 62
7
100
AcDbSpline
 70
8
 71
3
 72
8
 73
4
 74
0
 40
0
 40
0
 40
0
 40
0
 40
1
 40
1
 40
1
 40
1
 10
203.700000
 20
125.000000
 30
0.0
 10
201.200000
 20
125.000000
 30
0.0
 10
201.000000
 20
125.300000
 30
0.0
 10
201.000000
 20
129.000000
 30
0.0
  0
LWPOLYLINE
  5
147
100
AcDbEntity
  8
0
 62
7
100
AcDbPolyline
 90
7
 70
0
 10
183.300000
 20
183.300000
 30
0.0
 10
182.800000
 20
188.000000
 30
0.0
 10
188.400000
 20
188.000000
 30
0.0
 10
194.000000
 20
188.000000
 30
0.0
 10
194.000000
 20
151.800000
 30
0.0
 10
194.000000
 20
115.500000
 30
0.0
 10
197.500000
 20
115.500000
 30
0.0
  0
SPLINE
  5
148
100
AcDbEntity
  8
0
 62
7
100
AcDbSpline
 70
8
 71
3
 72
8
 73
4
 74
0
 40
0
 40
0
 40
0
 40
0
 40
1
 40
1
 40
1
 40
1
 10
254.200000
 20
130.500000
 30
0.0
 10
260.600000
 20
125.100000
 30
0.0
 10
270.400000
 20
128.700000
 30
0.0
 10
270.400000
 20
136.500000
 30
0.0
  0
SPLINE
  5
149
100
AcDbEntity
  8
0
 62
7
100
AcDbSpline
 70
8
 71
3
 72
8
 73
4
 74
0
 40
0
 40
0
 40
0
 40
0
 40
1
 40
1
 40
1
 40
1
 10
270.400000
 20
136.500000
 30
0.0
 10
270.400000
 20
144.200000
 30
0.0
 10
259.900000
 20
148.100000
 30
0.0
 10
254.100000
 20
142.600000
 30
0.0
  0
SPLINE
  5
14a
100
AcDbEntity
  8
0
 62
7
100
AcDbSpline
 70
8
 71
3
 72
8
 73
4
 74
0
 40
0
 40
0
 40
0
 40
0
 40
1
 40
1
 40
1
 40
1
 10
254.100000
 20
142.600000
 30
0.0
 10
251.500000
 20
140.200000
 30
0.0
 10
251.400000
 20
140.200000
 30
0.0
 10
226.200000
 20
139.800000
 30
0.0
  0
LWPOLYLINE
  5
14b
100
AcDbEntity
  8
0
 62
7
100
AcDbPolyline
 90
5
 70
0
 10
201.000000
 20
129.000000
 30
0.0
 10
201.000000
 20
133.000000
 30
0.0
 10
226.100000
 20
133.000000
 30
0.0
 10
251.200000
 20
133.000000
 30
0.0
 10
254.200000
 20
130.500000
 30
0.0
  0
SPLINE
  5
14c
100
AcDbEntity
  8
0
 62
7
100
AcDbSpline
 70
8
 71
3
 72
8
 73
4
 74
0
 40
0
 40
0
 40
0
 40
0
 40
1
 40
1
 40
1
 40
1
 10
201.000000
 20
164.700000
 30
0.0
 10
201.000000
 20
186.800000
 30
0.0
 10
200.800000
 20
190.100000
 30
0.0
 10
199.300000
 20
191.500000
 30
0.0
  0
SPLINE
  5
14d
100
AcDbEntity
  8
0
 62
7
100
AcDbSpline
 70
8
 71
3
 72
8
 73
4
 74
0
 40
0
 40
0
 40
0
 40
0
 40
1
 40
1
 40
1
 40
1
 10
199.300000
 20
191.500000
 30
0.0
 10
197.000000
 20
193.900000
 30
0.0
 10
193.500000
 20
195.000000
 30
0.0
 10
188.400000
 20
195.000000
 30
0.0
  0
LWPOLYLINE
  5
14e
100
AcDbEntity
  8
0
 62
7
100
AcDbPolyline
 90
3
 70
0
 10
226.200000
 20
139.800000
 30
0.0
 10
201.000000
 20
139.500000
 30
0.0
 10
201.000000
 20
164.700000
 30
0.0
  0
SPLINE
  5
14f
100
AcDbEntity
  8
0
 62
7
100
AcDbSpline
 70
8
 71
3
 72
8
 73
4
 74
0
 40
0
 40
0
 40
0
 40
0
 40
1
 40
1
 40
1
 40
1
 10
187.000000
 20
229.200000
 30
0.0
 10
188.700000
 20
231.200000
 30
0.0
 10
190.900000
 20
233.200000
 30
0.0
 10
192.000000
 20
233.500000
 30
0.0
  0
SPLINE
  5
150
100
AcDbEntity
  8
0
 62
7
100
AcDbSpline
 70
8
 71
3
 72
8
 73
4
 74
0
 40
0
 40
0
 40
0
 40
0
 40
1
 40
1
 40
1
 40
1
 10
192.000000
 20
233.500000
 30
0.0
 10
194.100000
 20
234.200000
 30
0.0
 10
197.000000
 20
238.800000
 30
0.0
 10
197.000000
 20
241.500000
 30
0.0
  0
SPLINE
  5
151
100
AcDbEntity
  8
0
 62
7
100
AcDbSpline
 70
8
 71
3
 72
8
 73
4
 74
0
 40
0
 40
0
 40
0
 40
0
 40
1
 40
1
 40
1
 40
1
 10
197.000000
 20
241.500000
 30
0.0
 10
197.000000
 20
242.400000
 30
0.0
 10
195.700000
 20
244.500000
 30
0.0
 10
194.100000
 20
246.100000
 30
0.0
  0
SPLINE
  5
152
100
AcDbEntity
  8
0
 62
7
100
AcDbSpline
 70
8
 71
3
 72
8
 73
4
 74
0
 40
0
 40
0
 40
0
 40
0
 40
1
 40
1
 40
1
 40
1
 10
194.100000
 20
246.100000
 30
0.0
 10
190.400000
 20
249.700000
 30
0.0
 10
184.600000
 20
250.100000
 30
0.0
 10
181.200000
 20
247.000000
 30
0.0
  0
LWPOLYLINE
  5
153
100
AcDbEntity
  8
0
 62
7
100
AcDbPolyline
 90
5
 70
0
 10
188.400000
 20
195.000000
 30
0.0
 10
184.000000
 20
195.000000
 30
0.0
 10
184.000000
 20
210.300000
 30
0.0
 10
184.000000
 20
225.500000
 30
0.0
 10
187.000000
 20
229.200000
 30
0.0
  0
SPLINE
  5
154
100
AcDbEntity
  8
0
 62
7
100
AcDbSpline
 70
8
 71
3
 72
8
 73
4
 74
0
 40
0
 40
0
 40
0
 40
0
 40
1
 40
1
 40
1
 40
1
 10
191.800000
 20
243.800000
 30
0.0
 10
194.100000
 20
241.800000
 30
0.0
 10
193.000000
 20
239.200000
 30
0.0
 10
187.300000
 20
233.700000
 30
0.0
  0
SPLINE
  5
155
100
AcDbEntity
  8
0
 62
7
100
AcDbSpline
 70
8
 71
3
 72
8
 73
4
 74
0
 40
0
 40
0
 40
0
 40
0
 40
1
 40
1
 40
1
 40
1
 10
187.300000
 20
233.700000
 30
0.0
 10
184.100000
 20
230.600000
 30
0.0
 10
181.400000
 20
228.300000
 30
0.0
 10
181.200000
 20
228.500000
 30
0.0
  0
SPLINE
  5
156
100
AcDbEntity
  8
0
 62
7
100
AcDbSpline
 70
8
 71
3
 72
8
 73
4
 74
0
 40
0
 40
0
 40
0
 40
0
 40
1
 40
1
 40
1
 40
1
 10
181.200000
 20
228.500000
 30
0.0
 10
181.000000
 20
228.700000
 30
0.0
 10
181.500000
 20
230.000000
 30
0.0
 10
182.300000
 20
231.500000
 30
0.0
  0
SPLINE
  5
157
100
AcDbEntity
  8
0
 62
7
100
AcDbSpline
 70
8
 71
3
 72
8
 73
4
 74
0
 40
0
 40
0
 40
0
 40
0
 40
1
 40
1
 40
1
 40
1
 10
182.300000
 20
231.500000
 30
0.0
 10
183.400000
 20
233.600000
 30
0.0
 10
183.400000
 20
235.100000
 30
0.0
 10
182.600000
 20
238.200000
 30
0.0
  0
SPLINE
  5
158
100
AcDbEntity
  8
0
 62
7
100
AcDbSpline
 70
8
 71
3
 72
8
 73
4
 74
0
 40
0
 40
0
 40
0
 40
0
 40
1
 40
1
 40
1
 40
1
 10
182.600000
 20
238.200000
 30
0.0
 10
181.600000
 20
241.900000
 30
0.0
 10
181.700000
 20
242.400000
 30
0.0
 10
183.900000
 20
244.100000
 30
0.0
  0
SPLINE
  5
159
100
AcDbEntity
  8
0
 62
7
100
AcDbSpline
 70
8
 71
3
 72
8
 73
4
 74
0
 40
0
 40
0
 40
0
 40
0
 40
1
 40
1
 40
1
 40
1
 10
183.900000
 20
244.100000
 30
0.0
 10
186.300000
 20
246.000000
 30
0.0
 10
189.100000
 20
245.900000
 30
0.0
 10
191.800000
 20
243.800000
 30
0.0
  0
LWPOLYLINE
  5
15a
100
AcDbEntity
  8
0
 62
7
100
AcDbPolyline
 90
1
 70
1
 10
181.200000
 20
247.000000
 30
0.0
  0
SPLINE
  5
15b
100
AcDbEntity
  8
0
 62
7
100
AcDbSpline
 70
8
 71
3
 72
8
 73
4
 74
0
 40
0
 40
0
 40
0
 40
0
 40
1
 40
1
 40
1
 40
1
 10
116.400000
 20
238.900000
 30
0.0
 10
117.600000
 20
237.100000
 30
0.0
 10
117.700000
 20
230.700000
 30
0.0
 10
116.500000
 20
229.200000
 30
0.0
  0
SPLINE
  5
15c
100
AcDbEntity
  8
0
 62
7
100
AcDbSpline
 70
8
 71
3
 72
8
 73
4
 74
0
 40
0
 40
0
 40
0
 40
0
 40
1
 40
1
 40
1
 40
1
 10
116.500000
 20
229.200000
 30
0.0
 10
115.800000
 20
228.400000
 30
0.0
 10
108.000000
 20
233.200000
 30
0.0
 10
107.100000
 20
234.800000
 30
0.0
  0
SPLINE
  5
15d
100
AcDbEntity
  8
0
 62
7
100
AcDbSpline
 70
8
 71
3
 72
8
 73
4
 74
0
 40
0
 40
0
 40
0
 40
0
 40
1
 40
1
 40
1
 40
1
 10
107.100000
 20
234.800000
 30
0.0
 10
104.500000
 20
239.700000
 30
0.0
 10
113.200000
 20
243.400000
 30
0.0
 10
116.400000
 20
238.900000
 30
0.0
  0
LWPOLYLINE
  5
15e
100
AcDbEntity
  8
0
 62
7
100
AcDbPolyline
 90
1
 70
1
 10
191.800000
 20
243.800000
 30
0.0
  0
SPLINE
  5
15f
100
AcDbEntity
  8
0
 62
7
100
AcDbSpline
 70
8
 71
3
 72
8
 73
4
 74
0
 40
0
 40
0
 40
0
 40
0
 40
1
 40
1
 40
1
 40
1
 10
182.500000
 20
191.200000
 30
0.0
 10
182.100000
 20
190.000000
 30
0.0
 10
181.400000
 20
190.500000
 30
0.0
 10
179.500000
 20
193.000000
 30
0.0
  0
SPLINE
  5
160
100
AcDbEntity
  8
0
 62
7
100
AcDbSpline
 70
8
 71
3
 72
8
 73
4
 74
0
 40
0
 40
0
 40
0
 40
0
 40
1
 40
1
 40
1
 40
1
 10
179.500000
 20
193.000000
 30
0.0
 10
177.600000
 20
195.600000
 30
0.0
 10
177.300000
 20
196.700000
 30
0.0
 10
178.200000
 20
197.700000
 30
0.0
  0
SPLINE
  5
161
100
AcDbEntity
  8
0
 62
7
100
AcDbSpline
 70
8
 71
3
 72
8
 73
4
 74
0
 40
0
 40
0
 40
0
 40
0
 40
1
 40
1
 40
1
 40
1
 10
178.200000
 20
197.700000
 30
0.0
 10
179.100000
 20
198.800000
 30
0.0
 10
179.700000
 20
198.500000
 30
0.0
 10
181.200000
 20
195.900000
 30
0.0
  0
SPLINE
  5
162
100
AcDbEntity
  8
0
 62
7
100
AcDbSpline
 70
8
 71
3
 72
8
 73
4
 74
0
 40
0
 40
0
 40
0
 40
0
 40
1
 40
1
 40
1
 40
1
 10
181.200000
 20
195.900000
 30
0.0
 10
182.300000
 20
194.200000
 30
0.0
 10
182.900000
 20
192.100000
 30
0.0
 10
182.500000
 20
191.200000
 30
0.0
  0
LWPOLYLINE
  5
163
100
AcDbEntity
  8
0
 62
7
100
AcDbPolyline
 90
1
 70
1
 10
116.400000
 20
238.900000
 30
0.0
  0
SPLINE
  5
164
100
AcDbEntity
  8
0
 62
7
100
AcDbSpline
 70
8
 71
3
 72
8
 73
4
 74
0
 40
0
 40
0
 40
0
 40
0
 40
1
 40
1
 40
1
 40
1
 10
177.500000
 20
192.000000
 30
0.0
 10
177.900000
 20
191.400000
 30
0.0
 10
177.800000
 20
188.000000
 30
0.0
 10
177.500000
 20
184.500000
 30
0.0
  0
LWPOLYLINE
  5
165
100
AcDbEntity
  8
0
 62
7
100
AcDbPolyline
 90
1
 70
1
 10
182.500000
 20
191.200000
 30
0.0
  0
SPLINE
  5
166
100
AcDbEntity
  8
0
 62
7
100
AcDbSpline
 70
8
 71
3
 72
8
 73
4
 74
0
 40
0
 40
0
 40
0
 40
0
 40
1
 40
1
 40
1
 40
1
 10
152.400000
 20
180.100000
 30
0.0
 10
153.900000
 20
181.200000
 30
0.0
 10
155.900000
 20
183.900000
 30
0.0
 10
157.000000
 20
186.000000
 30
0.0
  0
SPLINE
  5
167
100
AcDbEntity
  8
0
 62
7
100
AcDbSpline
 70
8
 71
3
 72
8
 73
4
 74
0
 40
0
 40
0
 40
0
 40
0
 40
1
 40
1
 40
1
 40
1
 10
157.000000
 20
186.000000
 30
0.0
 10
159.400000
 20
190.700000
 30
0.0
 10
163.800000
 20
192.600000
 30
0.0
 10
172.700000
 20
192.900000
 30
0.0
  0
SPLINE
  5
168
100
AcDbEntity
  8
0
 62
7
100
AcDbSpline
 70
8
 71
3
 72
8
 73
4
 74
0
 40
0
 40
0
 40
0
 40
0
 40
1
 40
1
 40
1
 40
1
 10
172.700000
 20
192.900000
 30
0.0
 10
175.000000
 20
192.900000
 30
0.0
 10
177.200000
 20
192.500000
 30
0.0
 10
177.500000
 20
192.000000
 30
0.0
  0
LWPOLYLINE
  5
169
100
AcDbEntity
  8
0
 62
7
100
AcDbPolyline
 90
5
 70
0
 10
177.500000
 20
184.500000
 30
0.0
 10
176.800000
 20
178.000000
 30
0.0
 10
163.200000
 20
178.000000
 30
0.0
 10
149.700000
 20
178.000000
 30
0.0
 10
152.400000
 20
180.100000
 30
0.0
  0
SPLINE
  5
16a
100
AcDbEntity
  8
0
 62
7
100
AcDbSpline
 70
8
 71
3
 72
8
 73
4
 74
0
 40
0
 40
0
 40
0
 40
0
 40
1
 40
1
 40
1
 40
1
 10
120.800000
 20
175.800000
 30
0.0
 10
120.100000
 20
175.100000
 30
0.0
 10
118.800000
 20
174.400000
 30
0.0
 10
118.100000
 20
174.200000
 30
0.0
  0
SPLINE
  5
16b
100
AcDbEntity
  8
0
 62
7
100
AcDbSpline
 70
8
 71
3
 72
8
 73
4
 74
0
 40
0
 40
0
 40
0
 40
0
 40
1
 40
1
 40
1
 40
1
 10
118.100000
 20
174.200000
 30
0.0
 10
116.900000
 20
173.900000
 30
0.0
 10
116.900000
 20
174.200000
 30
0.0
 10
118.100000
 20
175.700000
 30
0.0
  0
SPLINE
  5
16c
100
AcDbEntity
  8
0
 62
7
100
AcDbSpline
 70
8
 71
3
 72
8
 73
4
 74
0
 40
0
 40
0
 40
0
 40
0
 40
1
 40
1
 40
1
 40
1
 10
118.100000
 20
175.700000
 30
0.0
 10
118.900000
 20
176.700000
 30
0.0
 10
120.000000
 20
177.800000
 30
0.0
 10
120.500000
 20
178.200000
 30
0.0
  0
SPLINE
  5
16d
100
AcDbEntity
  8
0
 62
7
100
AcDbSpline
 70
8
 71
3
 72
8
 73
4
 74
0
 40
0
 40
0
 40
0
 40
0
 40
1
 40
1
 40
1
 40
1
 10
120.500000
 20
178.200000
 30
0.0
 10
122.100000
 20
179.300000
 30
0.0
 10
122.300000
 20
177.200000
 30
0.0
 10
120.800000
 20
175.800000
 30
0.0
  0
LWPOLYLINE
  5
16e
100
AcDbEntity
  8
0
 62
7
100
AcDbPolyline
 90
1
 70
1
 10
177.500000
 20
192.000000
 30
0.0
  0
SPLINE
  5
16f
100
AcDbEntity
  8
0
 62
7
100
AcDbSpline
 70
8
 71
3
 72
8
 73
4
 74
0
 40
0
 40
0
 40
0
 40
0
 40
1
 40
1
 40
1
 40
1
 10
177.400000
 20
172.100000
 30
0.0
 10
178.800000
 20
170.500000
 30
0.0
 10
179.000000
 20
167.900000
 30
0.0
 10
178.800000
 20
150.400000
 30
0.0
  0
LWPOLYLINE
  5
170
100
AcDbEntity
  8
0
 62
7
100
AcDbPolyline
 90
1
 70
1
 10
120.800000
 20
175.800000
 30
0.0
  0
SPLINE
  5
171
100
AcDbEntity
  8
0
 62
7
100
AcDbSpline
 70
8
 71
3
 72
8
 73
4
 74
0
 40
0
 40
0
 40
0
 40
0
 40
1
 40
1
 40
1
 40
1
 10
137.000000
 20
150.000000
 30
0.0
 10
137.000000
 20
164.200000
 30
0.0
 10
137.400000
 20
170.600000
 30
0.0
 10
138.200000
 20
172.000000
 30
0.0
  0
SPLINE
  5
172
100
AcDbEntity
  8
0
 62
7
100
AcDbSpline
 70
8
 71
3
 72
8
 73
4
 74
0
 40
0
 40
0
 40
0
 40
0
 40
1
 40
1
 40
1
 40
1
 10
138.200000
 20
172.000000
 30
0.0
 10
139.400000
 20
173.900000
 30
0.0
 10
140.600000
 20
174.000000
 30
0.0
 10
157.600000
 20
174.000000
 30
0.0
  0
SPLINE
  5
173
100
AcDbEntity
  8
0
 62
7
100
AcDbSpline
 70
8
 71
3
 72
8
 73
4
 74
0
 40
0
 40
0
 40
0
 40
0
 40
1
 40
1
 40
1
 40
1
 10
157.600000
 20
174.000000
 30
0.0
 10
173.900000
 20
174.000000
 30
0.0
 10
175.900000
 20
173.800000
 30
0.0
 10
177.400000
 20
172.100000
 30
0.0
  0
LWPOLYLINE
  5
174
100
AcDbEntity
  8
0
 62
7
100
AcDbPolyline
 90
5
 70
0
 10
178.800000
 20
150.400000
 30
0.0
 10
178.500000
 20
130.500000
 30
0.0
 10
157.800000
 20
130.200000
 30
0.0
 10
137.000000
 20
130.000000
 30
0.0
 10
137.000000
 20
150.000000
 30
0.0
  0
SPLINE
  5
175
100
AcDbEntity
  8
0
 62
7
100
AcDbSpline
 70
8
 71
3
 72
8
 73
4
 74
0
 40
0
 40
0
 40
0
 40
0
 40
1
 40
1
 40
1
 40
1
 10
265.500000
 20
140.000000
 30
0.0
 10
269.500000
 20
135.600000
 30
0.0
 10
263.200000
 20
128.900000
 30
0.0
 10
257.800000
 20
131.900000
 30
0.0
  0
SPLINE
  5
176
100
AcDbEntity
  8
0
 62
7
100
AcDbSpline
 70
8
 71
3
 72
8
 73
4
 74
0
 40
0
 40
0
 40
0
 40
0
 40
1
 40
1
 40
1
 40
1
 10
257.800000
 20
131.900000
 30
0.0
 10
256.500000
 20
132.600000
 30
0.0
 10
254.600000
 20
133.800000
 30
0.0
 10
253.500000
 20
134.600000
 30
0.0
  0
SPLINE
  5
177
100
AcDbEntity
  8
0
 62
7
100
AcDbSpline
 70
8
 71
3
 72
8
 73
4
 74
0
 40
0
 40
0
 40
0
 40
0
 40
1
 40
1
 40
1
 40
1
 10
253.500000
 20
134.600000
 30
0.0
 10
251.500000
 20
136.100000
 30
0.0
 10
251.600000
 20
136.200000
 30
0.0
 10
255.000000
 20
139.100000
 30
0.0
  0
SPLINE
  5
178
100
AcDbEntity
  8
0
 62
7
100
AcDbSpline
 70
8
 71
3
 72
8
 73
4
 74
0
 40
0
 40
0
 40
0
 40
0
 40
1
 40
1
 40
1
 40
1
 10
255.000000
 20
139.100000
 30
0.0
 10
259.000000
 20
142.500000
 30
0.0
 10
262.900000
 20
142.800000
 30
0.0
 10
265.500000
 20
140.000000
 30
0.0
  0
LWPOLYLINE
  5
179
100
AcDbEntity
  8
0
 62
7
100
AcDbPolyline
 90
1
 70
1
 10
177.400000
 20
172.100000
 30
0.0
  0
SPLINE
  5
17a
100
AcDbEntity
  8
0
 62
7
100
AcDbSpline
 70
8
 71
3
 72
8
 73
4
 74
0
 40
0
 40
0
 40
0
 40
0
 40
1
 40
1
 40
1
 40
1
 10
200.800000
 20
136.200000
 30
0.0
 10
201.000000
 20
135.000000
 30
0.0
 10
200.700000
 20
134.000000
 30
0.0
 10
200.100000
 20
134.000000
 30
0.0
  0
SPLINE
  5
17b
100
AcDbEntity
  8
0
 62
7
100
AcDbSpline
 70
8
 71
3
 72
8
 73
4
 74
0
 40
0
 40
0
 40
0
 40
0
 40
1
 40
1
 40
1
 40
1
 10
200.100000
 20
134.000000
 30
0.0
 10
199.500000
 20
134.000000
 30
0.0
 10
198.700000
 20
133.900000
 30
0.0
 10
198.300000
 20
133.800000
 30
0.0
  0
SPLINE
  5
17c
100
AcDbEntity
  8
0
 62
7
100
AcDbSpline
 70
8
 71
3
 72
8
 73
4
 74
0
 40
0
 40
0
 40
0
 40
0
 40
1
 40
1
 40
1
 40
1
 10
198.300000
 20
133.800000
 30
0.0
 10
197.900000
 20
133.600000
 30
0.0
 10
197.400000
 20
134.800000
 30
0.0
 10
197.300000
 20
136.300000
 30
0.0
  0
SPLINE
  5
17d
100
AcDbEntity
  8
0
 62
7
100
AcDbSpline
 70
8
 71
3
 72
8
 73
4
 74
0
 40
0
 40
0
 40
0
 40
0
 40
1
 40
1
 40
1
 40
1
 10
197.300000
 20
136.300000
 30
0.0
 10
197.200000
 20
138.500000
 30
0.0
 10
197.500000
 20
139.100000
 30
0.0
 10
198.800000
 20
138.800000
 30
0.0
  0
SPLINE
  5
17e
100
AcDbEntity
  8
0
 62
7
100
AcDbSpline
 70
8
 71
3
 72
8
 73
4
 74
0
 40
0
 40
0
 40
0
 40
0
 40
1
 40
1
 40
1
 40
1
 10
198.800000
 20
138.800000
 30
0.0
 10
199.700000
 20
138.600000
 30
0.0
 10
200.600000
 20
137.500000
 30
0.0
 10
200.800000
 20
136.200000
 30
0.0
  0
LWPOLYLINE
  5
17f
100
AcDbEntity
  8
0
 62
7
100
AcDbPolyline
 90
1
 70
1
 10
265.500000
 20
140.000000
 30
0.0
  0
LWPOLYLINE
  5
180
100
AcDbEntity
  8
0
 62
7
100
AcDbPolyline
 90
1
 70
1
 10
200.800000
 20
136.200000
 30
0.0
  0
SPLINE
  5
181
100
AcDbEntity
  8
0
 62
7
100
AcDbSpline
 70
8
 71
3
 72
8
 73
4
 74
0
 40
0
 40
0
 40
0
 40
0
 40
1
 40
1
 40
1
 40
1
 10
145.000000
 20
159.700000
 30
0.0
 10
145.000000
 20
154.700000
 30
0.0
 10
145.200000
 20
154.200000
 30
0.0
 10
150.300000
 20
149.200000
 30
0.0
  0
SPLINE
  5
182
100
AcDbEntity
  8
0
 62
7
100
AcDbSpline
 70
8
 71
3
 72
8
 73
4
 74
0
 40
0
 40
0
 40
0
 40
0
 40
1
 40
1
 40
1
 40
1
 10
150.300000
 20
149.200000
 30
0.0
 10
154.900000
 20
144.600000
 30
0.0
 10
156.100000
 20
144.000000
 30
0.0
 10
159.700000
 20
144.000000
 30
0.0
  0
LWPOLYLINE
  5
183
100
AcDbEntity
  8
0
 62
7
100
AcDbPolyline
 90
11
 70
0
 10
140.000000
 20
160.700000
 30
0.0
 10
140.000000
 20
150.400000
 30
0.0
 10
145.800000
 20
144.700000
 30
0.0
 10
151.600000
 20
139.000000
 30
0.0
 10
160.800000
 20
139.000000
 30
0.0
 10
170.000000
 20
139.000000
 30
0.0
 10
170.000000
 20
152.000000
 30
0.0
 10
170.000000
 20
165.000000
 30
0.0
 10
157.500000
 20
165.000000
 30
0.0
 10
145.000000
 20
165.000000
 30
0.0
 10
145.000000
 20
159.700000
 30
0.0
  0
SPLINE
  5
184
100
AcDbEntity
  8
0
 62
7
100
AcDbSpline
 70
8
 71
3
 72
8
 73
4
 74
0
 40
0
 40
0
 40
0
 40
0
 40
1
 40
1
 40
1
 40
1
 10
164.200000
 20
150.500000
 30
0.0
 10
164.500000
 20
156.600000
 30
0.0
 10
164.400000
 20
157.000000
 30
0.0
 10
162.300000
 20
157.000000
 30
0.0
  0
SPLINE
  5
185
100
AcDbEntity
  8
0
 62
7
100
AcDbSpline
 70
8
 71
3
 72
8
 73
4
 74
0
 40
0
 40
0
 40
0
 40
0
 40
1
 40
1
 40
1
 40
1
 10
162.300000
 20
157.000000
 30
0.0
 10
161.100000
 20
157.000000
 30
0.0
 10
159.800000
 20
157.500000
 30
0.0
 10
159.500000
 20
158.000000
 30
0.0
  0
SPLINE
  5
186
100
AcDbEntity
  8
0
 62
7
100
AcDbSpline
 70
8
 71
3
 72
8
 73
4
 74
0
 40
0
 40
0
 40
0
 40
0
 40
1
 40
1
 40
1
 40
1
 10
159.500000
 20
158.000000
 30
0.0
 10
159.200000
 20
158.600000
 30
0.0
 10
157.600000
 20
159.000000
 30
0.0
 10
156.100000
 20
159.000000
 30
0.0
  0
SPLINE
  5
187
100
AcDbEntity
  8
0
 62
7
100
AcDbSpline
 70
8
 71
3
 72
8
 73
4
 74
0
 40
0
 40
0
 40
0
 40
0
 40
1
 40
1
 40
1
 40
1
 10
156.100000
 20
159.000000
 30
0.0
 10
153.600000
 20
159.000000
 30
0.0
 10
153.400000
 20
158.700000
 30
0.0
 10
153.800000
 20
156.000000
 30
0.0
  0
SPLINE
  5
188
100
AcDbEntity
  8
0
 62
7
100
AcDbSpline
 70
8
 71
3
 72
8
 73
4
 74
0
 40
0
 40
0
 40
0
 40
0
 40
1
 40
1
 40
1
 40
1
 10
153.800000
 20
156.000000
 30
0.0
 10
154.100000
 20
153.600000
 30
0.0
 10
154.700000
 20
153.000000
 30
0.0
 10
156.600000
 20
153.000000
 30
0.0
  0
SPLINE
  5
189
100
AcDbEntity
  8
0
 62
7
100
AcDbSpline
 70
8
 71
3
 72
8
 73
4
 74
0
 40
0
 40
0
 40
0
 40
0
 40
1
 40
1
 40
1
 40
1
 10
156.600000
 20
153.000000
 30
0.0
 10
157.900000
 20
153.000000
 30
0.0
 10
159.000000
 20
153.500000
 30
0.0
 10
159.000000
 20
154.000000
 30
0.0
  0
SPLINE
  5
18a
100
AcDbEntity
  8
0
 62
7
100
AcDbSpline
 70
8
 71
3
 72
8
 73
4
 74
0
 40
0
 40
0
 40
0
 40
0
 40
1
 40
1
 40
1
 40
1
 10
159.000000
 20
154.000000
 30
0.0
 10
159.000000
 20
154.600000
 30
0.0
 10
159.700000
 20
155.000000
 30
0.0
 10
160.500000
 20
155.000000
 30
0.0
  0
SPLINE
  5
18b
100
AcDbEntity
  8
0
 62
7
100
AcDbSpline
 70
8
 71
3
 72
8
 73
4
 74
0
 40
0
 40
0
 40
0
 40
0
 40
1
 40
1
 40
1
 40
1
 10
160.500000
 20
155.000000
 30
0.0
 10
161.600000
 20
155.000000
 30
0.0
 10
162.000000
 20
153.900000
 30
0.0
 10
162.000000
 20
151.000000
 30
0.0
  0
SPLINE
  5
18c
100
AcDbEntity
  8
0
 62
7
100
AcDbSpline
 70
8
 71
3
 72
8
 73
4
 74
0
 40
0
 40
0
 40
0
 40
0
 40
1
 40
1
 40
1
 40
1
 10
162.000000
 20
151.000000
 30
0.0
 10
162.000000
 20
147.100000
 30
0.0
 10
161.900000
 20
147.000000
 30
0.0
 10
158.600000
 20
147.000000
 30
0.0
  0
SPLINE
  5
18d
100
AcDbEntity
  8
0
 62
7
100
AcDbSpline
 70
8
 71
3
 72
8
 73
4
 74
0
 40
0
 40
0
 40
0
 40
0
 40
1
 40
1
 40
1
 40
1
 10
158.600000
 20
147.000000
 30
0.0
 10
154.000000
 20
147.000000
 30
0.0
 10
148.000000
 20
153.600000
 30
0.0
 10
148.000000
 20
158.700000
 30
0.0
  0
LWPOLYLINE
  5
18e
100
AcDbEntity
  8
0
 62
7
100
AcDbPolyline
 90
3
 70
0
 10
159.700000
 20
144.000000
 30
0.0
 10
163.800000
 20
144.000000
 30
0.0
 10
164.200000
 20
150.500000
 30
0.0
  0
SPLINE
  5
18f
100
AcDbEntity
  8
0
 62
7
100
AcDbSpline
 70
8
 71
3
 72
8
 73
4
 74
0
 40
0
 40
0
 40
0
 40
0
 40
1
 40
1
 40
1
 40
1
 10
145.300000
 20
139.400000
 30
0.0
 10
143.400000
 20
141.400000
 30
0.0
 10
141.500000
 20
143.000000
 30
0.0
 10
140.900000
 20
143.000000
 30
0.0
  0
SPLINE
  5
190
100
AcDbEntity
  8
0
 62
7
100
AcDbSpline
 70
8
 71
3
 72
8
 73
4
 74
0
 40
0
 40
0
 40
0
 40
0
 40
1
 40
1
 40
1
 40
1
 10
140.900000
 20
143.000000
 30
0.0
 10
140.400000
 20
143.000000
 30
0.0
 10
140.000000
 20
140.800000
 30
0.0
 10
140.000000
 20
138.000000
 30
0.0
  0
LWPOLYLINE
  5
191
100
AcDbEntity
  8
0
 62
7
100
AcDbPolyline
 90
19
 70
0
 10
148.000000
 20
158.700000
 30
0.0
 10
148.000000
 20
162.000000
 30
0.0
 10
157.500000
 20
162.000000
 30
0.0
 10
167.000000
 20
162.000000
 30
0.0
 10
167.000000
 20
151.500000
 30
0.0
 10
167.000000
 20
141.000000
 30
0.0
 10
159.800000
 20
141.000000
 30
0.0
 10
152.500000
 20
141.000000
 30
0.0
 10
147.300000
 20
146.900000
 30
0.0
 10
142.000000
 20
152.800000
 30
0.0
 10
142.000000
 20
160.400000
 30
0.0
 10
142.000000
 20
168.000000
 30
0.0
 10
157.500000
 20
168.000000
 30
0.0
 10
173.000000
 20
168.000000
 30
0.0
 10
173.000000
 20
151.800000
 30
0.0
 10
173.000000
 20
135.500000
 30
0.0
 10
160.800000
 20
135.700000
 30
0.0
 10
148.600000
 20
135.800000
 30
0.0
 10
145.300000
 20
139.400000
 30
0.0
  0
SPLINE
  5
192
100
AcDbEntity
  8
0
 62
7
100
AcDbSpline
 70
8
 71
3
 72
8
 73
4
 74
0
 40
0
 40
0
 40
0
 40
0
 40
1
 40
1
 40
1
 40
1
 10
59.000000
 20
244.100000
 30
0.0
 10
59.000000
 20
243.000000
 30
0.0
 10
59.600000
 20
242.000000
 30
0.0
 10
60.300000
 20
241.700000
 30
0.0
  0
SPLINE
  5
193
100
AcDbEntity
  8
0
 62
7
100
AcDbSpline
 70
8
 71
3
 72
8
 73
4
 74
0
 40
0
 40
0
 40
0
 40
0
 40
1
 40
1
 40
1
 40
1
 10
60.300000
 20
241.700000
 30
0.0
 10
62.300000
 20
241.000000
 30
0.0
 10
64.000000
 20
242.100000
 30
0.0
 10
64.000000
 20
244.100000
 30
0.0
  0
SPLINE
  5
194
100
AcDbEntity
  8
0
 62
7
100
AcDbSpline
 70
8
 71
3
 72
8
 73
4
 74
0
 40
0
 40
0
 40
0
 40
0
 40
1
 40
1
 40
1
 40
1
 10
64.000000
 20
244.100000
 30
0.0
 10
64.000000
 20
245.500000
 30
0.0
 10
63.300000
 20
246.000000
 30
0.0
 10
61.500000
 20
246.000000
 30
0.0
  0
SPLINE
  5
195
100
AcDbEntity
  8
0
 62
7
100
AcDbSpline
 70
8
 71
3
 72
8
 73
4
 74
0
 40
0
 40
0
 40
0
 40
0
 40
1
 40
1
 40
1
 40
1
 10
61.500000
 20
246.000000
 30
0.0
 10
59.700000
 20
246.000000
 30
0.0
 10
59.000000
 20
245.500000
 30
0.0
 10
59.000000
 20
244.100000
 30
0.0
  0
LWPOLYLINE
  5
196
100
AcDbEntity
  8
0
 62
7
100
AcDbPolyline
 90
10
 70
0
 10
140.000000
 20
138.000000
 30
0.0
 10
140.000000
 20
133.000000
 30
0.0
 10
157.800000
 20
133.000000
 30
0.0
 10
175.500000
 20
133.000000
 30
0.0
 10
175.200000
 20
152.000000
 30
0.0
 10
174.900000
 20
171.000000
 30
0.0
 10
157.500000
 20
171.000000
 30
0.0
 10
140.000000
 20
171.000000
 30
0.0
 10
140.000000
 20
160.700000
 30
0.0
 10
140.000000
 20
160.700000
 30
0.0
  0
SPLINE
  5
197
100
AcDbEntity
  8
0
 62
7
100
AcDbSpline
 70
8
 71
3
 72
8
 73
4
 74
0
 40
0
 40
0
 40
0
 40
0
 40
1
 40
1
 40
1
 40
1
 10
235.400000
 20
244.900000
 30
0.0
 10
235.100000
 20
244.300000
 30
0.0
 10
235.500000
 20
243.100000
 30
0.0
 10
236.400000
 20
242.200000
 30
0.0
  0
SPLINE
  5
198
100
AcDbEntity
  8
0
 62
7
100
AcDbSpline
 70
8
 71
3
 72
8
 73
4
 74
0
 40
0
 40
0
 40
0
 40
0
 40
1
 40
1
 40
1
 40
1
 10
236.400000
 20
242.200000
 30
0.0
 10
237.900000
 20
240.700000
 30
0.0
 10
238.100000
 20
240.700000
 30
0.0
 10
239.600000
 20
242.200000
 30
0.0
  0
SPLINE
  5
199
100
AcDbEntity
  8
0
 62
7
100
AcDbSpline
 70
8
 71
3
 72
8
 73
4
 74
0
 40
0
 40
0
 40
0
 40
0
 40
1
 40
1
 40
1
 40
1
 10
239.600000
 20
242.200000
 30
0.0
 10
241.500000
 20
244.100000
 30
0.0
 10
240.700000
 20
246.000000
 30
0.0
 10
238.000000
 20
246.000000
 30
0.0
  0
SPLINE
  5
19a
100
AcDbEntity
  8
0
 62
7
100
AcDbSpline
 70
8
 71
3
 72
8
 73
4
 74
0
 40
0
 40
0
 40
0
 40
0
 40
1
 40
1
 40
1
 40
1
 10
238.000000
 20
246.000000
 30
0.0
 10
237.000000
 20
246.000000
 30
0.0
 10
235.800000
 20
245.500000
 30
0.0
 10
235.400000
 20
244.900000
 30
0.0
  0
LWPOLYLINE
  5
19b
100
AcDbEntity
  8
0
 62
7
100
AcDbPolyline
 90
1
 70
1
 10
59.000000
 20
244.100000
 30
0.0
  0
SPLINE
  5
19c
100
AcDbEntity
  8
0
 62
7
100
AcDbSpline
 70
8
 71
3
 72
8
 73
4
 74
0
 40
0
 40
0
 40
0
 40
0
 40
1
 40
1
 40
1
 40
1
 10
78.900000
 20
237.600000
 30
0.0
 10
70.800000
 20
234.300000
 30
0.0
 10
66.900000
 20
231.700000
 30
0.0
 10
61.400000
 20
225.800000
 30
0.0
  0
SPLINE
  5
19d
100
AcDbEntity
  8
0
 62
7
100
AcDbSpline
 70
8
 71
3
 72
8
 73
4
 74
0
 40
0
 40
0
 40
0
 40
0
 40
1
 40
1
 40
1
 40
1
 10
61.400000
 20
225.800000
 30
0.0
 10
54.300000
 20
218.100000
 30
0.0
 10
53.500000
 20
217.600000
 30
0.0
 10
50.800000
 20
219.400000
 30
0.0
  0
SPLINE
  5
19e
100
AcDbEntity
  8
0
 62
7
100
AcDbSpline
 70
8
 71
3
 72
8
 73
4
 74
0
 40
0
 40
0
 40
0
 40
0
 40
1
 40
1
 40
1
 40
1
 10
50.800000
 20
219.400000
 30
0.0
 10
49.600000
 20
220.300000
 30
0.0
 10
47.500000
 20
221.000000
 30
0.0
 10
46.200000
 20
221.000000
 30
0.0
  0
SPLINE
  5
19f
100
AcDbEntity
  8
0
 62
7
100
AcDbSpline
 70
8
 71
3
 72
8
 73
4
 74
0
 40
0
 40
0
 40
0
 40
0
 40
1
 40
1
 40
1
 40
1
 10
46.200000
 20
221.000000
 30
0.0
 10
43.500000
 20
221.000000
 30
0.0
 10
39.000000
 20
216.800000
 30
0.0
 10
39.000000
 20
214.300000
 30
0.0
  0
SPLINE
  5
1a0
100
AcDbEntity
  8
0
 62
7
100
AcDbSpline
 70
8
 71
3
 72
8
 73
4
 74
0
 40
0
 40
0
 40
0
 40
0
 40
1
 40
1
 40
1
 40
1
 10
39.000000
 20
214.300000
 30
0.0
 10
39.000000
 20
211.700000
 30
0.0
 10
52.000000
 20
199.000000
 30
0.0
 10
54.600000
 20
199.000000
 30
0.0
  0
SPLINE
  5
1a1
100
AcDbEntity
  8
0
 62
7
100
AcDbSpline
 70
8
 71
3
 72
8
 73
4
 74
0
 40
0
 40
0
 40
0
 40
0
 40
1
 40
1
 40
1
 40
1
 10
54.600000
 20
199.000000
 30
0.0
 10
57.600000
 20
199.000000
 30
0.0
 10
70.000000
 20
210.900000
 30
0.0
 10
70.000000
 20
213.800000
 30
0.0
  0
SPLINE
  5
1a2
100
AcDbEntity
  8
0
 62
7
100
AcDbSpline
 70
8
 71
3
 72
8
 73
4
 74
0
 40
0
 40
0
 40
0
 40
0
 40
1
 40
1
 40
1
 40
1
 10
70.000000
 20
213.800000
 30
0.0
 10
70.000000
 20
216.100000
 30
0.0
 10
66.700000
 20
220.200000
 30
0.0
 10
63.900000
 20
221.300000
 30
0.0
  0
SPLINE
  5
1a3
100
AcDbEntity
  8
0
 62
7
100
AcDbSpline
 70
8
 71
3
 72
8
 73
4
 74
0
 40
0
 40
0
 40
0
 40
0
 40
1
 40
1
 40
1
 40
1
 10
63.900000
 20
221.300000
 30
0.0
 10
62.900000
 20
221.700000
 30
0.0
 10
63.700000
 20
223.000000
 30
0.0
 10
67.000000
 20
225.900000
 30
0.0
  0
SPLINE
  5
1a4
100
AcDbEntity
  8
0
 62
7
100
AcDbSpline
 70
8
 71
3
 72
8
 73
4
 74
0
 40
0
 40
0
 40
0
 40
0
 40
1
 40
1
 40
1
 40
1
 10
67.000000
 20
225.900000
 30
0.0
 10
72.500000
 20
230.800000
 30
0.0
 10
80.200000
 20
234.800000
 30
0.0
 10
86.000000
 20
235.800000
 30
0.0
  0
SPLINE
  5
1a5
100
AcDbEntity
  8
0
 62
7
100
AcDbSpline
 70
8
 71
3
 72
8
 73
4
 74
0
 40
0
 40
0
 40
0
 40
0
 40
1
 40
1
 40
1
 40
1
 10
86.000000
 20
235.800000
 30
0.0
 10
89.100000
 20
236.300000
 30
0.0
 10
90.600000
 20
237.100000
 30
0.0
 10
90.800000
 20
238.300000
 30
0.0
  0
SPLINE
  5
1a6
100
AcDbEntity
  8
0
 62
7
100
AcDbSpline
 70
8
 71
3
 72
8
 73
4
 74
0
 40
0
 40
0
 40
0
 40
0
 40
1
 40
1
 40
1
 40
1
 10
90.800000
 20
238.300000
 30
0.0
 10
91.300000
 20
240.800000
 30
0.0
 10
85.800000
 20
240.500000
 30
0.0
 10
78.900000
 20
237.600000
 30
0.0
  0
LWPOLYLINE
  5
1a7
100
AcDbEntity
  8
0
 62
7
100
AcDbPolyline
 90
1
 70
1
 10
235.400000
 20
244.900000
 30
0.0
  0
SPLINE
  5
1a8
100
AcDbEntity
  8
0
 62
7
100
AcDbSpline
 70
8
 71
3
 72
8
 73
4
 74
0
 40
0
 40
0
 40
0
 40
0
 40
1
 40
1
 40
1
 40
1
 10
63.100000
 20
217.000000
 30
0.0
 10
66.200000
 20
215.300000
 30
0.0
 10
65.300000
 20
212.400000
 30
0.0
 10
60.300000
 20
208.100000
 30
0.0
  0
SPLINE
  5
1a9
100
AcDbEntity
  8
0
 62
7
100
AcDbSpline
 70
8
 71
3
 72
8
 73
4
 74
0
 40
0
 40
0
 40
0
 40
0
 40
1
 40
1
 40
1
 40
1
 10
60.300000
 20
208.100000
 30
0.0
 10
57.600000
 20
205.800000
 30
0.0
 10
55.200000
 20
204.000000
 30
0.0
 10
54.900000
 20
204.000000
 30
0.0
  0
SPLINE
  5
1aa
100
AcDbEntity
  8
0
 62
7
100
AcDbSpline
 70
8
 71
3
 72
8
 73
4
 74
0
 40
0
 40
0
 40
0
 40
0
 40
1
 40
1
 40
1
 40
1
 10
54.900000
 20
204.000000
 30
0.0
 10
54.600000
 20
204.000000
 30
0.0
 10
52.000000
 20
206.200000
 30
0.0
 10
49.000000
 20
208.800000
 30
0.0
  0
SPLINE
  5
1ab
100
AcDbEntity
  8
0
 62
7
100
AcDbSpline
 70
8
 71
3
 72
8
 73
4
 74
0
 40
0
 40
0
 40
0
 40
0
 40
1
 40
1
 40
1
 40
1
 10
49.000000
 20
208.800000
 30
0.0
 10
45.100000
 20
212.300000
 30
0.0
 10
43.800000
 20
214.100000
 30
0.0
 10
44.300000
 20
215.300000
 30
0.0
  0
SPLINE
  5
1ac
100
AcDbEntity
  8
0
 62
7
100
AcDbSpline
 70
8
 71
3
 72
8
 73
4
 74
0
 40
0
 40
0
 40
0
 40
0
 40
1
 40
1
 40
1
 40
1
 10
44.300000
 20
215.300000
 30
0.0
 10
45.200000
 20
217.800000
 30
0.0
 10
47.700000
 20
217.400000
 30
0.0
 10
49.600000
 20
214.500000
 30
0.0
  0
SPLINE
  5
1ad
100
AcDbEntity
  8
0
 62
7
100
AcDbSpline
 70
8
 71
3
 72
8
 73
4
 74
0
 40
0
 40
0
 40
0
 40
0
 40
1
 40
1
 40
1
 40
1
 10
49.600000
 20
214.500000
 30
0.0
 10
51.600000
 20
211.500000
 30
0.0
 10
54.600000
 20
211.200000
 30
0.0
 10
55.300000
 20
214.000000
 30
0.0
  0
SPLINE
  5
1ae
100
AcDbEntity
  8
0
 62
7
100
AcDbSpline
 70
8
 71
3
 72
8
 73
4
 74
0
 40
0
 40
0
 40
0
 40
0
 40
1
 40
1
 40
1
 40
1
 10
55.300000
 20
214.000000
 30
0.0
 10
55.600000
 20
215.100000
 30
0.0
 10
56.900000
 20
216.400000
 30
0.0
 10
58.200000
 20
216.900000
 30
0.0
  0
SPLINE
  5
1af
100
AcDbEntity
  8
0
 62
7
100
AcDbSpline
 70
8
 71
3
 72
8
 73
4
 74
0
 40
0
 40
0
 40
0
 40
0
 40
1
 40
1
 40
1
 40
1
 10
58.200000
 20
216.900000
 30
0.0
 10
61.200000
 20
218.200000
 30
0.0
 10
60.800000
 20
218.200000
 30
0.0
 10
63.100000
 20
217.000000
 30
0.0
  0
LWPOLYLINE
  5
1b0
100
AcDbEntity
  8
0
 62
7
100
AcDbPolyline
 90
1
 70
1
 10
78.900000
 20
237.600000
 30
0.0
  0
SPLINE
  5
1b1
100
AcDbEntity
  8
0
 62
7
100
AcDbSpline
 70
8
 71
3
 72
8
 73
4
 74
0
 40
0
 40
0
 40
0
 40
0
 40
1
 40
1
 40
1
 40
1
 10
135.700000
 20
234.700000
 30
0.0
 10
134.900000
 20
232.600000
 30
0.0
 10
136.500000
 20
230.800000
 30
0.0
 10
138.600000
 20
231.200000
 30
0.0
  0
SPLINE
  5
1b2
100
AcDbEntity
  8
0
 62
7
100
AcDbSpline
 70
8
 71
3
 72
8
 73
4
 74
0
 40
0
 40
0
 40
0
 40
0
 40
1
 40
1
 40
1
 40
1
 10
138.600000
 20
231.200000
 30
0.0
 10
141.300000
 20
231.700000
 30
0.0
 10
141.100000
 20
235.400000
 30
0.0
 10
138.400000
 20
235.800000
 30
0.0
  0
SPLINE
  5
1b3
100
AcDbEntity
  8
0
 62
7
100
AcDbSpline
 70
8
 71
3
 72
8
 73
4
 74
0
 40
0
 40
0
 40
0
 40
0
 40
1
 40
1
 40
1
 40
1
 10
138.400000
 20
235.800000
 30
0.0
 10
137.200000
 20
236.000000
 30
0.0
 10
136.000000
 20
235.500000
 30
0.0
 10
135.700000
 20
234.700000
 30
0.0
  0
LWPOLYLINE
  5
1b4
100
AcDbEntity
  8
0
 62
7
100
AcDbPolyline
 90
1
 70
1
 10
63.100000
 20
217.000000
 30
0.0
  0
SPLINE
  5
1b5
100
AcDbEntity
  8
0
 62
7
100
AcDbSpline
 70
8
 71
3
 72
8
 73
4
 74
0
 40
0
 40
0
 40
0
 40
0
 40
1
 40
1
 40
1
 40
1
 10
160.700000
 20
234.600000
 30
0.0
 10
160.400000
 20
233.800000
 30
0.0
 10
160.800000
 20
232.600000
 30
0.0
 10
161.600000
 20
231.900000
 30
0.0
  0
SPLINE
  5
1b6
100
AcDbEntity
  8
0
 62
7
100
AcDbSpline
 70
8
 71
3
 72
8
 73
4
 74
0
 40
0
 40
0
 40
0
 40
0
 40
1
 40
1
 40
1
 40
1
 10
161.600000
 20
231.900000
 30
0.0
 10
162.800000
 20
230.900000
 30
0.0
 10
163.400000
 20
231.000000
 30
0.0
 10
164.700000
 20
232.200000
 30
0.0
  0
SPLINE
  5
1b7
100
AcDbEntity
  8
0
 62
7
100
AcDbSpline
 70
8
 71
3
 72
8
 73
4
 74
0
 40
0
 40
0
 40
0
 40
0
 40
1
 40
1
 40
1
 40
1
 10
164.700000
 20
232.200000
 30
0.0
 10
165.500000
 20
233.100000
 30
0.0
 10
165.900000
 20
234.300000
 30
0.0
 10
165.600000
 20
234.900000
 30
0.0
  0
SPLINE
  5
1b8
100
AcDbEntity
  8
0
 62
7
100
AcDbSpline
 70
8
 71
3
 72
8
 73
4
 74
0
 40
0
 40
0
 40
0
 40
0
 40
1
 40
1
 40
1
 40
1
 10
165.600000
 20
234.900000
 30
0.0
 10
164.600000
 20
236.500000
 30
0.0
 10
161.300000
 20
236.300000
 30
0.0
 10
160.700000
 20
234.600000
 30
0.0
  0
LWPOLYLINE
  5
1b9
100
AcDbEntity
  8
0
 62
7
100
AcDbPolyline
 90
1
 70
1
 10
135.700000
 20
234.700000
 30
0.0
  0
SPLINE
  5
1ba
100
AcDbEntity
  8
0
 62
7
100
AcDbSpline
 70
8
 71
3
 72
8
 73
4
 74
0
 40
0
 40
0
 40
0
 40
0
 40
1
 40
1
 40
1
 40
1
 10
242.500000
 20
232.400000
 30
0.0
 10
240.900000
 20
231.700000
 30
0.0
 10
237.100000
 20
230.600000
 30
0.0
 10
234.100000
 20
230.000000
 30
0.0
  0
LWPOLYLINE
  5
1bb
100
AcDbEntity
  8
0
 62
7
100
AcDbPolyline
 90
1
 70
1
 10
160.700000
 20
234.600000
 30
0.0
  0
SPLINE
  5
1bc
100
AcDbEntity
  8
0
 62
7
100
AcDbSpline
 70
8
 71
3
 72
8
 73
4
 74
0
 40
0
 40
0
 40
0
 40
0
 40
1
 40
1
 40
1
 40
1
 10
229.200000
 20
219.200000
 30
0.0
 10
229.700000
 20
208.600000
 30
0.0
 10
230.800000
 20
205.300000
 30
0.0
 10
236.100000
 20
200.100000
 30
0.0
  0
SPLINE
  5
1bd
100
AcDbEntity
  8
0
 62
7
100
AcDbSpline
 70
8
 71
3
 72
8
 73
4
 74
0
 40
0
 40
0
 40
0
 40
0
 40
1
 40
1
 40
1
 40
1
 10
236.100000
 20
200.100000
 30
0.0
 10
243.200000
 20
193.000000
 30
0.0
 10
246.300000
 20
192.800000
 30
0.0
 10
253.400000
 20
199.100000
 30
0.0
  0
SPLINE
  5
1be
100
AcDbEntity
  8
0
 62
7
100
AcDbSpline
 70
8
 71
3
 72
8
 73
4
 74
0
 40
0
 40
0
 40
0
 40
0
 40
1
 40
1
 40
1
 40
1
 10
253.400000
 20
199.100000
 30
0.0
 10
259.200000
 20
204.200000
 30
0.0
 10
261.200000
 20
209.100000
 30
0.0
 10
261.800000
 20
219.600000
 30
0.0
  0
LWPOLYLINE
  5
1bf
100
AcDbEntity
  8
0
 62
7
100
AcDbPolyline
 90
3
 70
0
 10
234.100000
 20
230.000000
 30
0.0
 10
228.800000
 20
228.800000
 30
0.0
 10
229.200000
 20
219.200000
 30
0.0
  0
SPLINE
  5
1c0
100
AcDbEntity
  8
0
 62
7
100
AcDbSpline
 70
8
 71
3
 72
8
 73
4
 74
0
 40
0
 40
0
 40
0
 40
0
 40
1
 40
1
 40
1
 40
1
 10
257.900000
 20
229.500000
 30
0.0
 10
255.500000
 20
229.900000
 30
0.0
 10
251.700000
 20
231.000000
 30
0.0
 10
249.500000
 20
231.900000
 30
0.0
  0
SPLINE
  5
1c1
100
AcDbEntity
  8
0
 62
7
100
AcDbSpline
 70
8
 71
3
 72
8
 73
4
 74
0
 40
0
 40
0
 40
0
 40
0
 40
1
 40
1
 40
1
 40
1
 10
249.500000
 20
231.900000
 30
0.0
 10
246.100000
 20
233.400000
 30
0.0
 10
245.000000
 20
233.500000
 30
0.0
 10
242.500000
 20
232.400000
 30
0.0
  0
LWPOLYLINE
  5
1c2
100
AcDbEntity
  8
0
 62
7
100
AcDbPolyline
 90
3
 70
0
 10
261.800000
 20
219.600000
 30
0.0
 10
262.300000
 20
228.800000
 30
0.0
 10
257.900000
 20
229.500000
 30
0.0
  0
LWPOLYLINE
  5
1c3
100
AcDbEntity
  8
0
 62
7
100
AcDbPolyline
 90
1
 70
1
 10
242.500000
 20
232.400000
 30
0.0
  0
SPLINE
  5
1c4
100
AcDbEntity
  8
0
 62
7
100
AcDbSpline
 70
8
 71
3
 72
8
 73
4
 74
0
 40
0
 40
0
 40
0
 40
0
 40
1
 40
1
 40
1
 40
1
 10
256.800000
 20
219.900000
 30
0.0
 10
257.000000
 20
216.900000
 30
0.0
 10
256.700000
 20
212.900000
 30
0.0
 10
256.100000
 20
210.900000
 30
0.0
  0
SPLINE
  5
1c5
100
AcDbEntity
  8
0
 62
7
100
AcDbSpline
 70
8
 71
3
 72
8
 73
4
 74
0
 40
0
 40
0
 40
0
 40
0
 40
1
 40
1
 40
1
 40
1
 10
256.100000
 20
210.900000
 30
0.0
 10
254.900000
 20
207.100000
 30
0.0
 10
247.700000
 20
199.000000
 30
0.0
 10
245.500000
 20
199.000000
 30
0.0
  0
SPLINE
  5
1c6
100
AcDbEntity
  8
0
 62
7
100
AcDbSpline
 70
8
 71
3
 72
8
 73
4
 74
0
 40
0
 40
0
 40
0
 40
0
 40
1
 40
1
 40
1
 40
1
 10
245.500000
 20
199.000000
 30
0.0
 10
244.800000
 20
199.000000
 30
0.0
 10
242.100000
 20
201.000000
 30
0.0
 10
239.700000
 20
203.400000
 30
0.0
  0
SPLINE
  5
1c7
100
AcDbEntity
  8
0
 62
7
100
AcDbSpline
 70
8
 71
3
 72
8
 73
4
 74
0
 40
0
 40
0
 40
0
 40
0
 40
1
 40
1
 40
1
 40
1
 10
239.700000
 20
203.400000
 30
0.0
 10
234.700000
 20
208.200000
 30
0.0
 10
233.700000
 20
211.200000
 30
0.0
 10
234.200000
 20
219.800000
 30
0.0
  0
LWPOLYLINE
  5
1c8
100
AcDbEntity
  8
0
 62
7
100
AcDbPolyline
 90
3
 70
0
 10
252.000000
 20
226.500000
 30
0.0
 10
256.500000
 20
225.300000
 30
0.0
 10
256.800000
 20
219.900000
 30
0.0
  0
SPLINE
  5
1c9
100
AcDbEntity
  8
0
 62
7
100
AcDbSpline
 70
8
 71
3
 72
8
 73
4
 74
0
 40
0
 40
0
 40
0
 40
0
 40
1
 40
1
 40
1
 40
1
 10
239.500000
 20
227.000000
 30
0.0
 10
242.300000
 20
227.900000
 30
0.0
 10
245.200000
 20
228.500000
 30
0.0
 10
246.000000
 20
228.200000
 30
0.0
  0
SPLINE
  5
1ca
100
AcDbEntity
  8
0
 62
7
100
AcDbSpline
 70
8
 71
3
 72
8
 73
4
 74
0
 40
0
 40
0
 40
0
 40
0
 40
1
 40
1
 40
1
 40
1
 10
246.000000
 20
228.200000
 30
0.0
 10
246.800000
 20
227.900000
 30
0.0
 10
249.500000
 20
227.200000
 30
0.0
 10
252.000000
 20
226.500000
 30
0.0
  0
LWPOLYLINE
  5
1cb
100
AcDbEntity
  8
0
 62
7
100
AcDbPolyline
 90
3
 70
0
 10
234.200000
 20
219.800000
 30
0.0
 10
234.500000
 20
225.200000
 30
0.0
 10
239.500000
 20
227.000000
 30
0.0
  0
SPLINE
  5
1cc
100
AcDbEntity
  8
0
 62
7
100
AcDbSpline
 70
8
 71
3
 72
8
 73
4
 74
0
 40
0
 40
0
 40
0
 40
0
 40
1
 40
1
 40
1
 40
1
 10
238.000000
 20
213.500000
 30
0.0
 10
238.000000
 20
212.600000
 30
0.0
 10
238.900000
 20
212.000000
 30
0.0
 10
240.500000
 20
212.000000
 30
0.0
  0
SPLINE
  5
1cd
100
AcDbEntity
  8
0
 62
7
100
AcDbSpline
 70
8
 71
3
 72
8
 73
4
 74
0
 40
0
 40
0
 40
0
 40
0
 40
1
 40
1
 40
1
 40
1
 10
240.500000
 20
212.000000
 30
0.0
 10
242.100000
 20
212.000000
 30
0.0
 10
243.000000
 20
212.600000
 30
0.0
 10
243.000000
 20
213.500000
 30
0.0
  0
SPLINE
  5
1ce
100
AcDbEntity
  8
0
 62
7
100
AcDbSpline
 70
8
 71
3
 72
8
 73
4
 74
0
 40
0
 40
0
 40
0
 40
0
 40
1
 40
1
 40
1
 40
1
 10
243.000000
 20
213.500000
 30
0.0
 10
243.000000
 20
214.400000
 30
0.0
 10
242.100000
 20
215.000000
 30
0.0
 10
240.500000
 20
215.000000
 30
0.0
  0
SPLINE
  5
1cf
100
AcDbEntity
  8
0
 62
7
100
AcDbSpline
 70
8
 71
3
 72
8
 73
4
 74
0
 40
0
 40
0
 40
0
 40
0
 40
1
 40
1
 40
1
 40
1
 10
240.500000
 20
215.000000
 30
0.0
 10
238.900000
 20
215.000000
 30
0.0
 10
238.000000
 20
214.400000
 30
0.0
 10
238.000000
 20
213.500000
 30
0.0
  0
LWPOLYLINE
  5
1d0
100
AcDbEntity
  8
0
 62
7
100
AcDbPolyline
 90
1
 70
1
 10
252.000000
 20
226.500000
 30
0.0
  0
SPLINE
  5
1d1
100
AcDbEntity
  8
0
 62
7
100
AcDbSpline
 70
8
 71
3
 72
8
 73
4
 74
0
 40
0
 40
0
 40
0
 40
0
 40
1
 40
1
 40
1
 40
1
 10
248.000000
 20
213.500000
 30
0.0
 10
248.000000
 20
212.600000
 30
0.0
 10
248.900000
 20
212.000000
 30
0.0
 10
250.500000
 20
212.000000
 30
0.0
  0
SPLINE
  5
1d2
100
AcDbEntity
  8
0
 62
7
100
AcDbSpline
 70
8
 71
3
 72
8
 73
4
 74
0
 40
0
 40
0
 40
0
 40
0
 40
1
 40
1
 40
1
 40
1
 10
250.500000
 20
212.000000
 30
0.0
 10
252.100000
 20
212.000000
 30
0.0
 10
253.000000
 20
212.600000
 30
0.0
 10
253.000000
 20
213.500000
 30
0.0
  0
SPLINE
  5
1d3
100
AcDbEntity
  8
0
 62
7
100
AcDbSpline
 70
8
 71
3
 72
8
 73
4
 74
0
 40
0
 40
0
 40
0
 40
0
 40
1
 40
1
 40
1
 40
1
 10
253.000000
 20
213.500000
 30
0.0
 10
253.000000
 20
214.400000
 30
0.0
 10
252.100000
 20
215.000000
 30
0.0
 10
250.500000
 20
215.000000
 30
0.0
  0
SPLINE
  5
1d4
100
AcDbEntity
  8
0
 62
7
100
AcDbSpline
 70
8
 71
3
 72
8
 73
4
 74
0
 40
0
 40
0
 40
0
 40
0
 40
1
 40
1
 40
1
 40
1
 10
250.500000
 20
215.000000
 30
0.0
 10
248.900000
 20
215.000000
 30
0.0
 10
248.000000
 20
214.400000
 30
0.0
 10
248.000000
 20
213.500000
 30
0.0
  0
LWPOLYLINE
  5
1d5
100
AcDbEntity
  8
0
 62
7
100
AcDbPolyline
 90
1
 70
1
 10
238.000000
 20
213.500000
 30
0.0
  0
LWPOLYLINE
  5
1d6
100
AcDbEntity
  8
0
 62
7
100
AcDbPolyline
 90
1
 70
1
 10
248.000000
 20
213.500000
 30
0.0
  0
SPLINE
  5
1d7
100
AcDbEntity
  8
0
 62
7
100
AcDbSpline
 70
8
 71
3
 72
8
 73
4
 74
0
 40
0
 40
0
 40
0
 40
0
 40
1
 40
1
 40
1
 40
1
 10
42.600000
 20
184.000000
 30
0.0
 10
29.100000
 20
183.600000
 30
0.0
 10
27.500000
 20
183.300000
 30
0.0
 10
27.200000
 20
181.700000
 30
0.0
  0
SPLINE
  5
1d8
100
AcDbEntity
  8
0
 62
7
100
AcDbSpline
 70
8
 71
3
 72
8
 73
4
 74
0
 40
0
 40
0
 40
0
 40
0
 40
1
 40
1
 40
1
 40
1
 10
27.200000
 20
181.700000
 30
0.0
 10
26.400000
 20
177.600000
 30
0.0
 10
28.500000
 20
177.000000
 30
0.0
 10
43.400000
 20
177.000000
 30
0.0
  0
SPLINE
  5
1d9
100
AcDbEntity
  8
0
 62
7
100
AcDbSpline
 70
8
 71
3
 72
8
 73
4
 74
0
 40
0
 40
0
 40
0
 40
0
 40
1
 40
1
 40
1
 40
1
 10
43.400000
 20
177.000000
 30
0.0
 10
60.100000
 20
177.000000
 30
0.0
 10
59.800000
 20
176.900000
 30
0.0
 10
73.500000
 20
188.800000
 30
0.0
  0
SPLINE
  5
1da
100
AcDbEntity
  8
0
 62
7
100
AcDbSpline
 70
8
 71
3
 72
8
 73
4
 74
0
 40
0
 40
0
 40
0
 40
0
 40
1
 40
1
 40
1
 40
1
 10
73.500000
 20
188.800000
 30
0.0
 10
78.700000
 20
193.300000
 30
0.0
 10
83.200000
 20
197.000000
 30
0.0
 10
83.500000
 20
197.000000
 30
0.0
  0
SPLINE
  5
1db
100
AcDbEntity
  8
0
 62
7
100
AcDbSpline
 70
8
 71
3
 72
8
 73
4
 74
0
 40
0
 40
0
 40
0
 40
0
 40
1
 40
1
 40
1
 40
1
 10
83.500000
 20
197.000000
 30
0.0
 10
83.800000
 20
197.000000
 30
0.0
 10
84.000000
 20
186.700000
 30
0.0
 10
84.000000
 20
174.000000
 30
0.0
  0
LWPOLYLINE
  5
1dc
100
AcDbEntity
  8
0
 62
7
100
AcDbPolyline
 90
5
 70
0
 10
84.000000
 20
218.600000
 30
0.0
 10
84.000000
 20
207.200000
 30
0.0
 10
70.800000
 20
195.800000
 30
0.0
 10
57.600000
 20
184.500000
 30
0.0
 10
42.600000
 20
184.000000
 30
0.0
  0
SPLINE
  5
1dd
100
AcDbEntity
  8
0
 62
7
100
AcDbSpline
 70
8
 71
3
 72
8
 73
4
 74
0
 40
0
 40
0
 40
0
 40
0
 40
1
 40
1
 40
1
 40
1
 10
72.100000
 20
151.000000
 30
0.0
 10
62.300000
 20
151.000000
 30
0.0
 10
60.100000
 20
151.300000
 30
0.0
 10
59.600000
 20
152.500000
 30
0.0
  0
SPLINE
  5
1de
100
AcDbEntity
  8
0
 62
7
100
AcDbSpline
 70
8
 71
3
 72
8
 73
4
 74
0
 40
0
 40
0
 40
0
 40
0
 40
1
 40
1
 40
1
 40
1
 10
59.600000
 20
152.500000
 30
0.0
 10
58.800000
 20
154.800000
 30
0.0
 10
52.300000
 20
157.200000
 30
0.0
 10
49.000000
 20
156.500000
 30
0.0
  0
SPLINE
  5
1df
100
AcDbEntity
  8
0
 62
7
100
AcDbSpline
 70
8
 71
3
 72
8
 73
4
 74
0
 40
0
 40
0
 40
0
 40
0
 40
1
 40
1
 40
1
 40
1
 10
49.000000
 20
156.500000
 30
0.0
 10
43.700000
 20
155.300000
 30
0.0
 10
39.900000
 20
149.000000
 30
0.0
 10
42.100000
 20
144.800000
 30
0.0
  0
SPLINE
  5
1e0
100
AcDbEntity
  8
0
 62
7
100
AcDbSpline
 70
8
 71
3
 72
8
 73
4
 74
0
 40
0
 40
0
 40
0
 40
0
 40
1
 40
1
 40
1
 40
1
 10
42.100000
 20
144.800000
 30
0.0
 10
45.200000
 20
138.800000
 30
0.0
 10
52.600000
 20
137.100000
 30
0.0
 10
57.700000
 20
141.400000
 30
0.0
  0
SPLINE
  5
1e1
100
AcDbEntity
  8
0
 62
7
100
AcDbSpline
 70
8
 71
3
 72
8
 73
4
 74
0
 40
0
 40
0
 40
0
 40
0
 40
1
 40
1
 40
1
 40
1
 10
57.700000
 20
141.400000
 30
0.0
 10
60.200000
 20
143.400000
 30
0.0
 10
61.900000
 20
143.800000
 30
0.0
 10
72.300000
 20
144.300000
 30
0.0
  0
LWPOLYLINE
  5
1e2
100
AcDbEntity
  8
0
 62
7
100
AcDbPolyline
 90
3
 70
0
 10
84.000000
 20
174.000000
 30
0.0
 10
84.000000
 20
151.000000
 30
0.0
 10
72.100000
 20
151.000000
 30
0.0
  0
SPLINE
  5
1e3
100
AcDbEntity
  8
0
 62
7
100
AcDbSpline
 70
8
 71
3
 72
8
 73
4
 74
0
 40
0
 40
0
 40
0
 40
0
 40
1
 40
1
 40
1
 40
1
 10
41.300000
 20
130.000000
 30
0.0
 10
37.300000
 20
133.500000
 30
0.0
 10
34.300000
 20
133.800000
 30
0.0
 10
30.600000
 20
130.900000
 30
0.0
  0
SPLINE
  5
1e4
100
AcDbEntity
  8
0
 62
7
100
AcDbSpline
 70
8
 71
3
 72
8
 73
4
 74
0
 40
0
 40
0
 40
0
 40
0
 40
1
 40
1
 40
1
 40
1
 10
30.600000
 20
130.900000
 30
0.0
 10
28.700000
 20
129.400000
 30
0.0
 10
28.000000
 20
127.900000
 30
0.0
 10
28.000000
 20
125.500000
 30
0.0
  0
SPLINE
  5
1e5
100
AcDbEntity
  8
0
 62
7
100
AcDbSpline
 70
8
 71
3
 72
8
 73
4
 74
0
 40
0
 40
0
 40
0
 40
0
 40
1
 40
1
 40
1
 40
1
 10
28.000000
 20
125.500000
 30
0.0
 10
28.000000
 20
120.700000
 30
0.0
 10
31.500000
 20
118.500000
 30
0.0
 10
37.300000
 20
119.500000
 30
0.0
  0
SPLINE
  5
1e6
100
AcDbEntity
  8
0
 62
7
100
AcDbSpline
 70
8
 71
3
 72
8
 73
4
 74
0
 40
0
 40
0
 40
0
 40
0
 40
1
 40
1
 40
1
 40
1
 10
37.300000
 20
119.500000
 30
0.0
 10
42.400000
 20
120.400000
 30
0.0
 10
45.900000
 20
120.500000
 30
0.0
 10
67.300000
 20
120.200000
 30
0.0
  0
LWPOLYLINE
  5
1e7
100
AcDbEntity
  8
0
 62
7
100
AcDbPolyline
 90
7
 70
0
 10
72.300000
 20
144.300000
 30
0.0
 10
84.000000
 20
144.900000
 30
0.0
 10
84.000000
 20
136.000000
 30
0.0
 10
84.000000
 20
127.000000
 30
0.0
 10
64.400000
 20
127.000000
 30
0.0
 10
44.800000
 20
127.000000
 30
0.0
 10
41.300000
 20
130.000000
 30
0.0
  0
SPLINE
  5
1e8
100
AcDbEntity
  8
0
 62
7
100
AcDbSpline
 70
8
 71
3
 72
8
 73
4
 74
0
 40
0
 40
0
 40
0
 40
0
 40
1
 40
1
 40
1
 40
1
 10
88.000000
 20
200.900000
 30
0.0
 10
88.000000
 20
196.700000
 30
0.0
 10
86.800000
 20
196.100000
 30
0.0
 10
83.600000
 20
198.500000
 30
0.0
  0
SPLINE
  5
1e9
100
AcDbEntity
  8
0
 62
7
100
AcDbSpline
 70
8
 71
3
 72
8
 73
4
 74
0
 40
0
 40
0
 40
0
 40
0
 40
1
 40
1
 40
1
 40
1
 10
83.600000
 20
198.500000
 30
0.0
 10
81.800000
 20
199.800000
 30
0.0
 10
81.800000
 20
200.000000
 30
0.0
 10
84.000000
 20
203.000000
 30
0.0
  0
SPLINE
  5
1ea
100
AcDbEntity
  8
0
 62
7
100
AcDbSpline
 70
8
 71
3
 72
8
 73
4
 74
0
 40
0
 40
0
 40
0
 40
0
 40
1
 40
1
 40
1
 40
1
 10
84.000000
 20
203.000000
 30
0.0
 10
86.700000
 20
206.800000
 30
0.0
 10
88.000000
 20
206.100000
 30
0.0
 10
88.000000
 20
200.900000
 30
0.0
  0
LWPOLYLINE
  5
1eb
100
AcDbEntity
  8
0
 62
7
100
AcDbPolyline
 90
12
 70
0
 10
67.300000
 20
120.200000
 30
0.0
 10
84.000000
 20
120.000000
 30
0.0
 10
84.000000
 20
100.500000
 30
0.0
 10
84.000000
 20
81.000000
 30
0.0
 10
87.500000
 20
81.000000
 30
0.0
 10
91.000000
 20
81.000000
 30
0.0
 10
91.000000
 20
155.500000
 30
0.0
 10
91.000000
 20
230.000000
 30
0.0
 10
87.500000
 20
230.000000
 30
0.0
 10
84.000000
 20
230.000000
 30
0.0
 10
84.000000
 20
218.600000
 30
0.0
 10
84.000000
 20
218.600000
 30
0.0
  0
SPLINE
  5
1ec
100
AcDbEntity
  8
0
 62
7
100
AcDbSpline
 70
8
 71
3
 72
8
 73
4
 74
0
 40
0
 40
0
 40
0
 40
0
 40
1
 40
1
 40
1
 40
1
 10
56.800000
 20
151.000000
 30
0.0
 10
61.000000
 20
148.400000
 30
0.0
 10
60.900000
 20
146.800000
 30
0.0
 10
56.100000
 20
144.200000
 30
0.0
  0
SPLINE
  5
1ed
100
AcDbEntity
  8
0
 62
7
100
AcDbSpline
 70
8
 71
3
 72
8
 73
4
 74
0
 40
0
 40
0
 40
0
 40
0
 40
1
 40
1
 40
1
 40
1
 10
56.100000
 20
144.200000
 30
0.0
 10
51.300000
 20
141.500000
 30
0.0
 10
50.200000
 20
141.500000
 30
0.0
 10
47.300000
 20
144.200000
 30
0.0
  0
SPLINE
  5
1ee
100
AcDbEntity
  8
0
 62
7
100
AcDbSpline
 70
8
 71
3
 72
8
 73
4
 74
0
 40
0
 40
0
 40
0
 40
0
 40
1
 40
1
 40
1
 40
1
 10
47.300000
 20
144.200000
 30
0.0
 10
44.400000
 20
146.900000
 30
0.0
 10
44.400000
 20
149.400000
 30
0.0
 10
47.200000
 20
151.400000
 30
0.0
  0
SPLINE
  5
1ef
100
AcDbEntity
  8
0
 62
7
100
AcDbSpline
 70
8
 71
3
 72
8
 73
4
 74
0
 40
0
 40
0
 40
0
 40
0
 40
1
 40
1
 40
1
 40
1
 10
47.200000
 20
151.400000
 30
0.0
 10
50.200000
 20
153.500000
 30
0.0
 10
52.800000
 20
153.400000
 30
0.0
 10
56.800000
 20
151.000000
 30
0.0
  0
LWPOLYLINE
  5
1f0
100
AcDbEntity
  8
0
 62
7
100
AcDbPolyline
 90
1
 70
1
 10
88.000000
 20
200.900000
 30
0.0
  0
SPLINE
  5
1f1
100
AcDbEntity
  8
0
 62
7
100
AcDbSpline
 70
8
 71
3
 72
8
 73
4
 74
0
 40
0
 40
0
 40
0
 40
0
 40
1
 40
1
 40
1
 40
1
 10
88.000000
 20
148.100000
 30
0.0
 10
88.000000
 20
146.400000
 30
0.0
 10
87.500000
 20
144.800000
 30
0.0
 10
86.800000
 20
144.400000
 30
0.0
  0
SPLINE
  5
1f2
100
AcDbEntity
  8
0
 62
7
100
AcDbSpline
 70
8
 71
3
 72
8
 73
4
 74
0
 40
0
 40
0
 40
0
 40
0
 40
1
 40
1
 40
1
 40
1
 10
86.800000
 20
144.400000
 30
0.0
 10
86.100000
 20
144.000000
 30
0.0
 10
86.000000
 20
144.100000
 30
0.0
 10
86.400000
 20
144.800000
 30
0.0
  0
SPLINE
  5
1f3
100
AcDbEntity
  8
0
 62
7
100
AcDbSpline
 70
8
 71
3
 72
8
 73
4
 74
0
 40
0
 40
0
 40
0
 40
0
 40
1
 40
1
 40
1
 40
1
 10
86.400000
 20
144.800000
 30
0.0
 10
86.800000
 20
145.500000
 30
0.0
 10
86.500000
 20
146.000000
 30
0.0
 10
85.600000
 20
146.000000
 30
0.0
  0
SPLINE
  5
1f4
100
AcDbEntity
  8
0
 62
7
100
AcDbSpline
 70
8
 71
3
 72
8
 73
4
 74
0
 40
0
 40
0
 40
0
 40
0
 40
1
 40
1
 40
1
 40
1
 10
85.600000
 20
146.000000
 30
0.0
 10
83.700000
 20
146.000000
 30
0.0
 10
83.500000
 20
148.100000
 30
0.0
 10
85.200000
 20
149.800000
 30
0.0
  0
SPLINE
  5
1f5
100
AcDbEntity
  8
0
 62
7
100
AcDbSpline
 70
8
 71
3
 72
8
 73
4
 74
0
 40
0
 40
0
 40
0
 40
0
 40
1
 40
1
 40
1
 40
1
 10
85.200000
 20
149.800000
 30
0.0
 10
87.100000
 20
151.700000
 30
0.0
 10
88.000000
 20
151.200000
 30
0.0
 10
88.000000
 20
148.100000
 30
0.0
  0
LWPOLYLINE
  5
1f6
100
AcDbEntity
  8
0
 62
7
100
AcDbPolyline
 90
1
 70
1
 10
56.800000
 20
151.000000
 30
0.0
  0
SPLINE
  5
1f7
100
AcDbEntity
  8
0
 62
7
100
AcDbSpline
 70
8
 71
3
 72
8
 73
4
 74
0
 40
0
 40
0
 40
0
 40
0
 40
1
 40
1
 40
1
 40
1
 10
40.100000
 20
126.900000
 30
0.0
 10
42.400000
 20
124.300000
 30
0.0
 10
41.900000
 20
123.400000
 30
0.0
 10
37.900000
 20
122.500000
 30
0.0
  0
SPLINE
  5
1f8
100
AcDbEntity
  8
0
 62
7
100
AcDbSpline
 70
8
 71
3
 72
8
 73
4
 74
0
 40
0
 40
0
 40
0
 40
0
 40
1
 40
1
 40
1
 40
1
 10
37.900000
 20
122.500000
 30
0.0
 10
33.900000
 20
121.600000
 30
0.0
 10
30.500000
 20
124.300000
 30
0.0
 10
32.100000
 20
127.100000
 30
0.0
  0
SPLINE
  5
1f9
100
AcDbEntity
  8
0
 62
7
100
AcDbSpline
 70
8
 71
3
 72
8
 73
4
 74
0
 40
0
 40
0
 40
0
 40
0
 40
1
 40
1
 40
1
 40
1
 10
32.100000
 20
127.100000
 30
0.0
 10
33.400000
 20
129.700000
 30
0.0
 10
37.800000
 20
129.500000
 30
0.0
 10
40.100000
 20
126.900000
 30
0.0
  0
LWPOLYLINE
  5
1fa
100
AcDbEntity
  8
0
 62
7
100
AcDbPolyline
 90
1
 70
1
 10
88.000000
 20
148.100000
 30
0.0
  0
SPLINE
  5
1fb
100
AcDbEntity
  8
0
 62
7
100
AcDbSpline
 70
8
 71
3
 72
8
 73
4
 74
0
 40
0
 40
0
 40
0
 40
0
 40
1
 40
1
 40
1
 40
1
 10
88.000000
 20
123.500000
 30
0.0
 10
88.000000
 20
119.500000
 30
0.0
 10
87.100000
 20
119.100000
 30
0.0
 10
84.400000
 20
122.100000
 30
0.0
  0
SPLINE
  5
1fc
100
AcDbEntity
  8
0
 62
7
100
AcDbSpline
 70
8
 71
3
 72
8
 73
4
 74
0
 40
0
 40
0
 40
0
 40
0
 40
1
 40
1
 40
1
 40
1
 10
84.400000
 20
122.100000
 30
0.0
 10
82.600000
 20
124.100000
 30
0.0
 10
82.600000
 20
124.200000
 30
0.0
 10
84.500000
 20
125.600000
 30
0.0
  0
SPLINE
  5
1fd
100
AcDbEntity
  8
0
 62
7
100
AcDbSpline
 70
8
 71
3
 72
8
 73
4
 74
0
 40
0
 40
0
 40
0
 40
0
 40
1
 40
1
 40
1
 40
1
 10
84.500000
 20
125.600000
 30
0.0
 10
87.400000
 20
127.700000
 30
0.0
 10
88.000000
 20
127.300000
 30
0.0
 10
88.000000
 20
123.500000
 30
0.0
  0
LWPOLYLINE
  5
1fe
100
AcDbEntity
  8
0
 62
7
100
AcDbPolyline
 90
1
 70
1
 10
40.100000
 20
126.900000
 30
0.0
  0
SPLINE
  5
1ff
100
AcDbEntity
  8
0
 62
7
100
AcDbSpline
 70
8
 71
3
 72
8
 73
4
 74
0
 40
0
 40
0
 40
0
 40
0
 40
1
 40
1
 40
1
 40
1
 10
208.000000
 20
227.100000
 30
0.0
 10
206.600000
 20
224.400000
 30
0.0
 10
206.700000
 20
223.400000
 30
0.0
 10
208.600000
 20
221.600000
 30
0.0
  0
SPLINE
  5
200
100
AcDbEntity
  8
0
 62
7
100
AcDbSpline
 70
8
 71
3
 72
8
 73
4
 74
0
 40
0
 40
0
 40
0
 40
0
 40
1
 40
1
 40
1
 40
1
 10
208.600000
 20
221.600000
 30
0.0
 10
210.700000
 20
219.400000
 30
0.0
 10
214.300000
 20
219.600000
 30
0.0
 10
216.500000
 20
222.000000
 30
0.0
  0
SPLINE
  5
201
100
AcDbEntity
  8
0
 62
7
100
AcDbSpline
 70
8
 71
3
 72
8
 73
4
 74
0
 40
0
 40
0
 40
0
 40
0
 40
1
 40
1
 40
1
 40
1
 10
216.500000
 20
222.000000
 30
0.0
 10
218.200000
 20
223.800000
 30
0.0
 10
218.200000
 20
224.100000
 30
0.0
 10
216.600000
 20
226.500000
 30
0.0
  0
SPLINE
  5
202
100
AcDbEntity
  8
0
 62
7
100
AcDbSpline
 70
8
 71
3
 72
8
 73
4
 74
0
 40
0
 40
0
 40
0
 40
0
 40
1
 40
1
 40
1
 40
1
 10
216.600000
 20
226.500000
 30
0.0
 10
214.500000
 20
229.600000
 30
0.0
 10
209.600000
 20
230.000000
 30
0.0
 10
208.000000
 20
227.100000
 30
0.0
  0
LWPOLYLINE
  5
203
100
AcDbEntity
  8
0
 62
7
100
AcDbPolyline
 90
1
 70
1
 10
88.000000
 20
123.500000
 30
0.0
  0
SPLINE
  5
204
100
AcDbEntity
  8
0
 62
7
100
AcDbSpline
 70
8
 71
3
 72
8
 73
4
 74
0
 40
0
 40
0
 40
0
 40
0
 40
1
 40
1
 40
1
 40
1
 10
100.400000
 20
219.500000
 30
0.0
 10
99.500000
 20
217.200000
 30
0.0
 10
100.700000
 20
215.000000
 30
0.0
 10
102.800000
 20
215.000000
 30
0.0
  0
SPLINE
  5
205
100
AcDbEntity
  8
0
 62
7
100
AcDbSpline
 70
8
 71
3
 72
8
 73
4
 74
0
 40
0
 40
0
 40
0
 40
0
 40
1
 40
1
 40
1
 40
1
 10
102.800000
 20
215.000000
 30
0.0
 10
103.900000
 20
215.000000
 30
0.0
 10
105.300000
 20
215.700000
 30
0.0
 10
106.000000
 20
216.500000
 30
0.0
  0
SPLINE
  5
206
100
AcDbEntity
  8
0
 62
7
100
AcDbSpline
 70
8
 71
3
 72
8
 73
4
 74
0
 40
0
 40
0
 40
0
 40
0
 40
1
 40
1
 40
1
 40
1
 10
106.000000
 20
216.500000
 30
0.0
 10
107.600000
 20
218.400000
 30
0.0
 10
105.700000
 20
221.000000
 30
0.0
 10
102.800000
 20
221.000000
 30
0.0
  0
SPLINE
  5
207
100
AcDbEntity
  8
0
 62
7
100
AcDbSpline
 70
8
 71
3
 72
8
 73
4
 74
0
 40
0
 40
0
 40
0
 40
0
 40
1
 40
1
 40
1
 40
1
 10
102.800000
 20
221.000000
 30
0.0
 10
101.800000
 20
221.000000
 30
0.0
 10
100.700000
 20
220.300000
 30
0.0
 10
100.400000
 20
219.500000
 30
0.0
  0
LWPOLYLINE
  5
208
100
AcDbEntity
  8
0
 62
7
100
AcDbPolyline
 90
1
 70
1
 10
208.000000
 20
227.100000
 30
0.0
  0
SPLINE
  5
209
100
AcDbEntity
  8
0
 62
7
100
AcDbSpline
 70
8
 71
3
 72
8
 73
4
 74
0
 40
0
 40
0
 40
0
 40
0
 40
1
 40
1
 40
1
 40
1
 10
193.500000
 20
220.000000
 30
0.0
 10
192.400000
 20
218.300000
 30
0.0
 10
194.000000
 20
215.000000
 30
0.0
 10
195.900000
 20
215.000000
 30
0.0
  0
SPLINE
  5
20a
100
AcDbEntity
  8
0
 62
7
100
AcDbSpline
 70
8
 71
3
 72
8
 73
4
 74
0
 40
0
 40
0
 40
0
 40
0
 40
1
 40
1
 40
1
 40
1
 10
195.900000
 20
215.000000
 30
0.0
 10
198.300000
 20
215.000000
 30
0.0
 10
200.200000
 20
217.300000
 30
0.0
 10
199.400000
 20
219.400000
 30
0.0
  0
SPLINE
  5
20b
100
AcDbEntity
  8
0
 62
7
100
AcDbSpline
 70
8
 71
3
 72
8
 73
4
 74
0
 40
0
 40
0
 40
0
 40
0
 40
1
 40
1
 40
1
 40
1
 10
199.400000
 20
219.400000
 30
0.0
 10
198.700000
 20
221.200000
 30
0.0
 10
194.500000
 20
221.600000
 30
0.0
 10
193.500000
 20
220.000000
 30
0.0
  0
LWPOLYLINE
  5
20c
100
AcDbEntity
  8
0
 62
7
100
AcDbPolyline
 90
1
 70
1
 10
100.400000
 20
219.500000
 30
0.0
  0
SPLINE
  5
20d
100
AcDbEntity
  8
0
 62
7
100
AcDbSpline
 70
8
 71
3
 72
8
 73
4
 74
0
 40
0
 40
0
 40
0
 40
0
 40
1
 40
1
 40
1
 40
1
 10
209.000000
 20
190.800000
 30
0.0
 10
209.400000
 20
176.300000
 30
0.0
 10
209.700000
 20
164.400000
 30
0.0
 10
209.800000
 20
164.300000
 30
0.0
  0
SPLINE
  5
20e
100
AcDbEntity
  8
0
 62
7
100
AcDbSpline
 70
8
 71
3
 72
8
 73
4
 74
0
 40
0
 40
0
 40
0
 40
0
 40
1
 40
1
 40
1
 40
1
 10
209.800000
 20
164.300000
 30
0.0
 10
211.400000
 20
162.500000
 30
0.0
 10
217.100000
 20
161.000000
 30
0.0
 10
222.300000
 20
161.000000
 30
0.0
  0
SPLINE
  5
20f
100
AcDbEntity
  8
0
 62
7
100
AcDbSpline
 70
8
 71
3
 72
8
 73
4
 74
0
 40
0
 40
0
 40
0
 40
0
 40
1
 40
1
 40
1
 40
1
 10
222.300000
 20
161.000000
 30
0.0
 10
228.000000
 20
161.000000
 30
0.0
 10
228.900000
 20
160.700000
 30
0.0
 10
231.500000
 20
158.000000
 30
0.0
  0
SPLINE
  5
210
100
AcDbEntity
  8
0
 62
7
100
AcDbSpline
 70
8
 71
3
 72
8
 73
4
 74
0
 40
0
 40
0
 40
0
 40
0
 40
1
 40
1
 40
1
 40
1
 10
231.500000
 20
158.000000
 30
0.0
 10
237.200000
 20
152.000000
 30
0.0
 10
248.000000
 20
155.200000
 30
0.0
 10
248.000000
 20
162.900000
 30
0.0
  0
SPLINE
  5
211
100
AcDbEntity
  8
0
 62
7
100
AcDbSpline
 70
8
 71
3
 72
8
 73
4
 74
0
 40
0
 40
0
 40
0
 40
0
 40
1
 40
1
 40
1
 40
1
 10
248.000000
 20
162.900000
 30
0.0
 10
248.000000
 20
167.200000
 30
0.0
 10
247.100000
 20
168.900000
 30
0.0
 10
243.900000
 20
170.500000
 30
0.0
  0
SPLINE
  5
212
100
AcDbEntity
  8
0
 62
7
100
AcDbSpline
 70
8
 71
3
 72
8
 73
4
 74
0
 40
0
 40
0
 40
0
 40
0
 40
1
 40
1
 40
1
 40
1
 10
243.900000
 20
170.500000
 30
0.0
 10
240.300000
 20
172.400000
 30
0.0
 10
236.300000
 20
172.400000
 30
0.0
 10
232.600000
 20
170.500000
 30
0.0
  0
SPLINE
  5
213
100
AcDbEntity
  8
0
 62
7
100
AcDbSpline
 70
8
 71
3
 72
8
 73
4
 74
0
 40
0
 40
0
 40
0
 40
0
 40
1
 40
1
 40
1
 40
1
 10
232.600000
 20
170.500000
 30
0.0
 10
230.900000
 20
169.600000
 30
0.0
 10
227.000000
 20
169.000000
 30
0.0
 10
222.900000
 20
169.000000
 30
0.0
  0
LWPOLYLINE
  5
214
100
AcDbEntity
  8
0
 62
7
100
AcDbPolyline
 90
1
 70
1
 10
193.500000
 20
220.000000
 30
0.0
  0
SPLINE
  5
215
100
AcDbEntity
  8
0
 62
7
100
AcDbSpline
 70
8
 71
3
 72
8
 73
4
 74
0
 40
0
 40
0
 40
0
 40
0
 40
1
 40
1
 40
1
 40
1
 10
216.000000
 20
183.000000
 30
0.0
 10
216.000000
 20
190.700000
 30
0.0
 10
216.200000
 20
197.000000
 30
0.0
 10
216.500000
 20
197.000000
 30
0.0
  0
SPLINE
  5
216
100
AcDbEntity
  8
0
 62
7
100
AcDbSpline
 70
8
 71
3
 72
8
 73
4
 74
0
 40
0
 40
0
 40
0
 40
0
 40
1
 40
1
 40
1
 40
1
 10
216.500000
 20
197.000000
 30
0.0
 10
216.800000
 20
197.000000
 30
0.0
 10
220.200000
 20
194.300000
 30
0.0
 10
224.100000
 20
191.000000
 30
0.0
  0
SPLINE
  5
217
100
AcDbEntity
  8
0
 62
7
100
AcDbSpline
 70
8
 71
3
 72
8
 73
4
 74
0
 40
0
 40
0
 40
0
 40
0
 40
1
 40
1
 40
1
 40
1
 10
224.100000
 20
191.000000
 30
0.0
 10
232.900000
 20
183.700000
 30
0.0
 10
239.800000
 20
180.900000
 30
0.0
 10
250.500000
 20
180.200000
 30
0.0
  0
SPLINE
  5
218
100
AcDbEntity
  8
0
 62
7
100
AcDbSpline
 70
8
 71
3
 72
8
 73
4
 74
0
 40
0
 40
0
 40
0
 40
0
 40
1
 40
1
 40
1
 40
1
 10
250.500000
 20
180.200000
 30
0.0
 10
258.100000
 20
179.800000
 30
0.0
 10
258.700000
 20
179.600000
 30
0.0
 10
260.200000
 20
176.900000
 30
0.0
  0
SPLINE
  5
219
100
AcDbEntity
  8
0
 62
7
100
AcDbSpline
 70
8
 71
3
 72
8
 73
4
 74
0
 40
0
 40
0
 40
0
 40
0
 40
1
 40
1
 40
1
 40
1
 10
260.200000
 20
176.900000
 30
0.0
 10
263.900000
 20
170.600000
 30
0.0
 10
274.100000
 20
172.700000
 30
0.0
 10
274.800000
 20
179.900000
 30
0.0
  0
SPLINE
  5
21a
100
AcDbEntity
  8
0
 62
7
100
AcDbSpline
 70
8
 71
3
 72
8
 73
4
 74
0
 40
0
 40
0
 40
0
 40
0
 40
1
 40
1
 40
1
 40
1
 10
274.800000
 20
179.900000
 30
0.0
 10
275.500000
 20
186.400000
 30
0.0
 10
268.700000
 20
189.800000
 30
0.0
 10
262.400000
 20
186.100000
 30
0.0
  0
SPLINE
  5
21b
100
AcDbEntity
  8
0
 62
7
100
AcDbSpline
 70
8
 71
3
 72
8
 73
4
 74
0
 40
0
 40
0
 40
0
 40
0
 40
1
 40
1
 40
1
 40
1
 10
262.400000
 20
186.100000
 30
0.0
 10
257.900000
 20
183.400000
 30
0.0
 10
247.400000
 20
183.200000
 30
0.0
 10
242.700000
 20
185.700000
 30
0.0
  0
SPLINE
  5
21c
100
AcDbEntity
  8
0
 62
7
100
AcDbSpline
 70
8
 71
3
 72
8
 73
4
 74
0
 40
0
 40
0
 40
0
 40
0
 40
1
 40
1
 40
1
 40
1
 10
242.700000
 20
185.700000
 30
0.0
 10
240.900000
 20
186.600000
 30
0.0
 10
234.200000
 20
191.800000
 30
0.0
 10
227.800000
 20
197.300000
 30
0.0
  0
LWPOLYLINE
  5
21d
100
AcDbEntity
  8
0
 62
7
100
AcDbPolyline
 90
3
 70
0
 10
222.900000
 20
169.000000
 30
0.0
 10
216.000000
 20
169.000000
 30
0.0
 10
216.000000
 20
183.000000
 30
0.0
  0
SPLINE
  5
21e
100
AcDbEntity
  8
0
 62
7
100
AcDbSpline
 70
8
 71
3
 72
8
 73
4
 74
0
 40
0
 40
0
 40
0
 40
0
 40
1
 40
1
 40
1
 40
1
 10
217.000000
 20
202.500000
 30
0.0
 10
220.100000
 20
199.300000
 30
0.0
 10
220.200000
 20
199.000000
 30
0.0
 10
218.300000
 20
199.000000
 30
0.0
  0
SPLINE
  5
21f
100
AcDbEntity
  8
0
 62
7
100
AcDbSpline
 70
8
 71
3
 72
8
 73
4
 74
0
 40
0
 40
0
 40
0
 40
0
 40
1
 40
1
 40
1
 40
1
 10
218.300000
 20
199.000000
 30
0.0
 10
217.100000
 20
199.000000
 30
0.0
 10
215.500000
 20
198.300000
 30
0.0
 10
214.600000
 20
197.500000
 30
0.0
  0
SPLINE
  5
220
100
AcDbEntity
  8
0
 62
7
100
AcDbSpline
 70
8
 71
3
 72
8
 73
4
 74
0
 40
0
 40
0
 40
0
 40
0
 40
1
 40
1
 40
1
 40
1
 10
214.600000
 20
197.500000
 30
0.0
 10
212.300000
 20
195.200000
 30
0.0
 10
212.000000
 20
195.600000
 30
0.0
 10
212.000000
 20
201.000000
 30
0.0
  0
SPLINE
  5
221
100
AcDbEntity
  8
0
 62
7
100
AcDbSpline
 70
8
 71
3
 72
8
 73
4
 74
0
 40
0
 40
0
 40
0
 40
0
 40
1
 40
1
 40
1
 40
1
 10
212.000000
 20
201.000000
 30
0.0
 10
212.000000
 20
203.800000
 30
0.0
 10
212.400000
 20
206.000000
 30
0.0
 10
212.800000
 20
206.000000
 30
0.0
  0
SPLINE
  5
222
100
AcDbEntity
  8
0
 62
7
100
AcDbSpline
 70
8
 71
3
 72
8
 73
4
 74
0
 40
0
 40
0
 40
0
 40
0
 40
1
 40
1
 40
1
 40
1
 10
212.800000
 20
206.000000
 30
0.0
 10
213.200000
 20
206.000000
 30
0.0
 10
215.100000
 20
204.400000
 30
0.0
 10
217.000000
 20
202.500000
 30
0.0
  0
LWPOLYLINE
  5
223
100
AcDbEntity
  8
0
 62
7
100
AcDbPolyline
 90
8
 70
0
 10
227.800000
 20
197.300000
 30
0.0
 10
216.000000
 20
207.400000
 30
0.0
 10
216.000000
 20
212.200000
 30
0.0
 10
216.000000
 20
217.000000
 30
0.0
 10
212.300000
 20
217.000000
 30
0.0
 10
208.500000
 20
217.000000
 30
0.0
 10
209.000000
 20
190.800000
 30
0.0
 10
209.000000
 20
190.800000
 30
0.0
  0
SPLINE
  5
224
100
AcDbEntity
  8
0
 62
7
100
AcDbSpline
 70
8
 71
3
 72
8
 73
4
 74
0
 40
0
 40
0
 40
0
 40
0
 40
1
 40
1
 40
1
 40
1
 10
270.900000
 20
182.200000
 30
0.0
 10
272.200000
 20
179.800000
 30
0.0
 10
270.500000
 20
177.000000
 30
0.0
 10
267.700000
 20
177.000000
 30
0.0
  0
SPLINE
  5
225
100
AcDbEntity
  8
0
 62
7
100
AcDbSpline
 70
8
 71
3
 72
8
 73
4
 74
0
 40
0
 40
0
 40
0
 40
0
 40
1
 40
1
 40
1
 40
1
 10
267.700000
 20
177.000000
 30
0.0
 10
265.300000
 20
177.100000
 30
0.0
 10
262.000000
 20
179.200000
 30
0.0
 10
262.000000
 20
180.700000
 30
0.0
  0
SPLINE
  5
226
100
AcDbEntity
  8
0
 62
7
100
AcDbSpline
 70
8
 71
3
 72
8
 73
4
 74
0
 40
0
 40
0
 40
0
 40
0
 40
1
 40
1
 40
1
 40
1
 10
262.000000
 20
180.700000
 30
0.0
 10
262.000000
 20
184.000000
 30
0.0
 10
269.200000
 20
185.300000
 30
0.0
 10
270.900000
 20
182.200000
 30
0.0
  0
LWPOLYLINE
  5
227
100
AcDbEntity
  8
0
 62
7
100
AcDbPolyline
 90
1
 70
1
 10
217.000000
 20
202.500000
 30
0.0
  0
SPLINE
  5
228
100
AcDbEntity
  8
0
 62
7
100
AcDbSpline
 70
8
 71
3
 72
8
 73
4
 74
0
 40
0
 40
0
 40
0
 40
0
 40
1
 40
1
 40
1
 40
1
 10
242.800000
 20
167.000000
 30
0.0
 10
244.000000
 20
165.800000
 30
0.0
 10
245.000000
 20
164.300000
 30
0.0
 10
245.000000
 20
163.500000
 30
0.0
  0
SPLINE
  5
229
100
AcDbEntity
  8
0
 62
7
100
AcDbSpline
 70
8
 71
3
 72
8
 73
4
 74
0
 40
0
 40
0
 40
0
 40
0
 40
1
 40
1
 40
1
 40
1
 10
245.000000
 20
163.500000
 30
0.0
 10
245.000000
 20
161.600000
 30
0.0
 10
241.100000
 20
158.000000
 30
0.0
 10
239.000000
 20
158.000000
 30
0.0
  0
SPLINE
  5
22a
100
AcDbEntity
  8
0
 62
7
100
AcDbSpline
 70
8
 71
3
 72
8
 73
4
 74
0
 40
0
 40
0
 40
0
 40
0
 40
1
 40
1
 40
1
 40
1
 10
239.000000
 20
158.000000
 30
0.0
 10
237.300000
 20
158.000000
 30
0.0
 10
229.000000
 20
163.700000
 30
0.0
 10
229.000000
 20
164.900000
 30
0.0
  0
SPLINE
  5
22b
100
AcDbEntity
  8
0
 62
7
100
AcDbSpline
 70
8
 71
3
 72
8
 73
4
 74
0
 40
0
 40
0
 40
0
 40
0
 40
1
 40
1
 40
1
 40
1
 10
229.000000
 20
164.900000
 30
0.0
 10
229.000000
 20
165.700000
 30
0.0
 10
236.800000
 20
168.800000
 30
0.0
 10
239.100000
 20
168.900000
 30
0.0
  0
SPLINE
  5
22c
100
AcDbEntity
  8
0
 62
7
100
AcDbSpline
 70
8
 71
3
 72
8
 73
4
 74
0
 40
0
 40
0
 40
0
 40
0
 40
1
 40
1
 40
1
 40
1
 10
239.100000
 20
168.900000
 30
0.0
 10
239.900000
 20
169.000000
 30
0.0
 10
241.600000
 20
168.100000
 30
0.0
 10
242.800000
 20
167.000000
 30
0.0
  0
LWPOLYLINE
  5
22d
100
AcDbEntity
  8
0
 62
7
100
AcDbPolyline
 90
1
 70
1
 10
270.900000
 20
182.200000
 30
0.0
  0
SPLINE
  5
22e
100
AcDbEntity
  8
0
 62
7
100
AcDbSpline
 70
8
 71
3
 72
8
 73
4
 74
0
 40
0
 40
0
 40
0
 40
0
 40
1
 40
1
 40
1
 40
1
 10
140.700000
 20
213.200000
 30
0.0
 10
138.300000
 20
210.600000
 30
0.0
 10
138.500000
 20
205.300000
 30
0.0
 10
140.900000
 20
204.000000
 30
0.0
  0
SPLINE
  5
22f
100
AcDbEntity
  8
0
 62
7
100
AcDbSpline
 70
8
 71
3
 72
8
 73
4
 74
0
 40
0
 40
0
 40
0
 40
0
 40
1
 40
1
 40
1
 40
1
 10
140.900000
 20
204.000000
 30
0.0
 10
146.100000
 20
201.300000
 30
0.0
 10
152.000000
 20
204.000000
 30
0.0
 10
152.000000
 20
209.200000
 30
0.0
  0
SPLINE
  5
230
100
AcDbEntity
  8
0
 62
7
100
AcDbSpline
 70
8
 71
3
 72
8
 73
4
 74
0
 40
0
 40
0
 40
0
 40
0
 40
1
 40
1
 40
1
 40
1
 10
152.000000
 20
209.200000
 30
0.0
 10
152.000000
 20
214.400000
 30
0.0
 10
144.200000
 20
217.100000
 30
0.0
 10
140.700000
 20
213.200000
 30
0.0
  0
LWPOLYLINE
  5
231
100
AcDbEntity
  8
0
 62
7
100
AcDbPolyline
 90
1
 70
1
 10
242.800000
 20
167.000000
 30
0.0
  0
SPLINE
  5
232
100
AcDbEntity
  8
0
 62
7
100
AcDbSpline
 70
8
 71
3
 72
8
 73
4
 74
0
 40
0
 40
0
 40
0
 40
0
 40
1
 40
1
 40
1
 40
1
 10
148.000000
 20
208.900000
 30
0.0
 10
148.000000
 20
207.600000
 30
0.0
 10
147.300000
 20
207.000000
 30
0.0
 10
145.600000
 20
207.000000
 30
0.0
  0
SPLINE
  5
233
100
AcDbEntity
  8
0
 62
7
100
AcDbSpline
 70
8
 71
3
 72
8
 73
4
 74
0
 40
0
 40
0
 40
0
 40
0
 40
1
 40
1
 40
1
 40
1
 10
145.600000
 20
207.000000
 30
0.0
 10
142.400000
 20
207.000000
 30
0.0
 10
141.200000
 20
209.000000
 30
0.0
 10
143.400000
 20
210.600000
 30
0.0
  0
SPLINE
  5
234
100
AcDbEntity
  8
0
 62
7
100
AcDbSpline
 70
8
 71
3
 72
8
 73
4
 74
0
 40
0
 40
0
 40
0
 40
0
 40
1
 40
1
 40
1
 40
1
 10
143.400000
 20
210.600000
 30
0.0
 10
145.700000
 20
212.200000
 30
0.0
 10
148.000000
 20
211.300000
 30
0.0
 10
148.000000
 20
208.900000
 30
0.0
  0
LWPOLYLINE
  5
235
100
AcDbEntity
  8
0
 62
7
100
AcDbPolyline
 90
1
 70
1
 10
140.700000
 20
213.200000
 30
0.0
  0
SPLINE
  5
236
100
AcDbEntity
  8
0
 62
7
100
AcDbSpline
 70
8
 71
3
 72
8
 73
4
 74
0
 40
0
 40
0
 40
0
 40
0
 40
1
 40
1
 40
1
 40
1
 10
194.700000
 20
206.300000
 30
0.0
 10
194.300000
 20
206.000000
 30
0.0
 10
194.000000
 20
204.800000
 30
0.0
 10
194.000000
 20
203.800000
 30
0.0
  0
SPLINE
  5
237
100
AcDbEntity
  8
0
 62
7
100
AcDbSpline
 70
8
 71
3
 72
8
 73
4
 74
0
 40
0
 40
0
 40
0
 40
0
 40
1
 40
1
 40
1
 40
1
 10
194.000000
 20
203.800000
 30
0.0
 10
194.000000
 20
201.500000
 30
0.0
 10
197.800000
 20
201.300000
 30
0.0
 10
198.700000
 20
203.600000
 30
0.0
  0
SPLINE
  5
238
100
AcDbEntity
  8
0
 62
7
100
AcDbSpline
 70
8
 71
3
 72
8
 73
4
 74
0
 40
0
 40
0
 40
0
 40
0
 40
1
 40
1
 40
1
 40
1
 10
198.700000
 20
203.600000
 30
0.0
 10
199.500000
 20
205.700000
 30
0.0
 10
196.300000
 20
207.900000
 30
0.0
 10
194.700000
 20
206.300000
 30
0.0
  0
LWPOLYLINE
  5
239
100
AcDbEntity
  8
0
 62
7
100
AcDbPolyline
 90
1
 70
1
 10
148.000000
 20
208.900000
 30
0.0
  0
SPLINE
  5
23a
100
AcDbEntity
  8
0
 62
7
100
AcDbSpline
 70
8
 71
3
 72
8
 73
4
 74
0
 40
0
 40
0
 40
0
 40
0
 40
1
 40
1
 40
1
 40
1
 10
101.200000
 20
202.800000
 30
0.0
 10
99.600000
 20
201.200000
 30
0.0
 10
99.700000
 20
198.900000
 30
0.0
 10
101.500000
 20
196.600000
 30
0.0
  0
SPLINE
  5
23b
100
AcDbEntity
  8
0
 62
7
100
AcDbSpline
 70
8
 71
3
 72
8
 73
4
 74
0
 40
0
 40
0
 40
0
 40
0
 40
1
 40
1
 40
1
 40
1
 10
101.500000
 20
196.600000
 30
0.0
 10
102.400000
 20
195.400000
 30
0.0
 10
103.000000
 20
192.400000
 30
0.0
 10
103.000000
 20
189.300000
 30
0.0
  0
SPLINE
  5
23c
100
AcDbEntity
  8
0
 62
7
100
AcDbSpline
 70
8
 71
3
 72
8
 73
4
 74
0
 40
0
 40
0
 40
0
 40
0
 40
1
 40
1
 40
1
 40
1
 10
103.000000
 20
189.300000
 30
0.0
 10
103.000000
 20
185.300000
 30
0.0
 10
103.400000
 20
184.000000
 30
0.0
 10
104.500000
 20
184.000000
 30
0.0
  0
SPLINE
  5
23d
100
AcDbEntity
  8
0
 62
7
100
AcDbSpline
 70
8
 71
3
 72
8
 73
4
 74
0
 40
0
 40
0
 40
0
 40
0
 40
1
 40
1
 40
1
 40
1
 10
104.500000
 20
184.000000
 30
0.0
 10
105.700000
 20
184.000000
 30
0.0
 10
106.000000
 20
185.300000
 30
0.0
 10
106.000000
 20
189.900000
 30
0.0
  0
SPLINE
  5
23e
100
AcDbEntity
  8
0
 62
7
100
AcDbSpline
 70
8
 71
3
 72
8
 73
4
 74
0
 40
0
 40
0
 40
0
 40
0
 40
1
 40
1
 40
1
 40
1
 10
106.000000
 20
189.900000
 30
0.0
 10
106.000000
 20
193.900000
 30
0.0
 10
106.500000
 20
196.200000
 30
0.0
 10
107.500000
 20
197.000000
 30
0.0
  0
SPLINE
  5
23f
100
AcDbEntity
  8
0
 62
7
100
AcDbSpline
 70
8
 71
3
 72
8
 73
4
 74
0
 40
0
 40
0
 40
0
 40
0
 40
1
 40
1
 40
1
 40
1
 10
107.500000
 20
197.000000
 30
0.0
 10
110.500000
 20
199.500000
 30
0.0
 10
108.600000
 20
204.000000
 30
0.0
 10
104.500000
 20
204.000000
 30
0.0
  0
SPLINE
  5
240
100
AcDbEntity
  8
0
 62
7
100
AcDbSpline
 70
8
 71
3
 72
8
 73
4
 74
0
 40
0
 40
0
 40
0
 40
0
 40
1
 40
1
 40
1
 40
1
 10
104.500000
 20
204.000000
 30
0.0
 10
103.300000
 20
204.000000
 30
0.0
 10
101.900000
 20
203.500000
 30
0.0
 10
101.200000
 20
202.800000
 30
0.0
  0
LWPOLYLINE
  5
241
100
AcDbEntity
  8
0
 62
7
100
AcDbPolyline
 90
1
 70
1
 10
194.700000
 20
206.300000
 30
0.0
  0
SPLINE
  5
242
100
AcDbEntity
  8
0
 62
7
100
AcDbSpline
 70
8
 71
3
 72
8
 73
4
 74
0
 40
0
 40
0
 40
0
 40
0
 40
1
 40
1
 40
1
 40
1
 10
27.700000
 20
196.700000
 30
0.0
 10
25.500000
 20
195.100000
 30
0.0
 10
26.400000
 20
192.000000
 30
0.0
 10
29.100000
 20
192.000000
 30
0.0
  0
SPLINE
  5
243
100
AcDbEntity
  8
0
 62
7
100
AcDbSpline
 70
8
 71
3
 72
8
 73
4
 74
0
 40
0
 40
0
 40
0
 40
0
 40
1
 40
1
 40
1
 40
1
 10
29.100000
 20
192.000000
 30
0.0
 10
31.600000
 20
192.000000
 30
0.0
 10
32.700000
 20
194.800000
 30
0.0
 10
30.800000
 20
196.600000
 30
0.0
  0
SPLINE
  5
244
100
AcDbEntity
  8
0
 62
7
100
AcDbSpline
 70
8
 71
3
 72
8
 73
4
 74
0
 40
0
 40
0
 40
0
 40
0
 40
1
 40
1
 40
1
 40
1
 10
30.800000
 20
196.600000
 30
0.0
 10
29.700000
 20
197.800000
 30
0.0
 10
29.100000
 20
197.800000
 30
0.0
 10
27.700000
 20
196.700000
 30
0.0
  0
LWPOLYLINE
  5
245
100
AcDbEntity
  8
0
 62
7
100
AcDbPolyline
 90
1
 70
1
 10
101.200000
 20
202.800000
 30
0.0
  0
SPLINE
  5
246
100
AcDbEntity
  8
0
 62
7
100
AcDbSpline
 70
8
 71
3
 72
8
 73
4
 74
0
 40
0
 40
0
 40
0
 40
0
 40
1
 40
1
 40
1
 40
1
 10
133.400000
 20
185.500000
 30
0.0
 10
133.000000
 20
184.600000
 30
0.0
 10
133.200000
 20
183.400000
 30
0.0
 10
133.800000
 20
182.800000
 30
0.0
  0
SPLINE
  5
247
100
AcDbEntity
  8
0
 62
7
100
AcDbSpline
 70
8
 71
3
 72
8
 73
4
 74
0
 40
0
 40
0
 40
0
 40
0
 40
1
 40
1
 40
1
 40
1
 10
133.800000
 20
182.800000
 30
0.0
 10
135.300000
 20
181.300000
 30
0.0
 10
138.200000
 20
182.700000
 30
0.0
 10
137.800000
 20
184.700000
 30
0.0
  0
SPLINE
  5
248
100
AcDbEntity
  8
0
 62
7
100
AcDbSpline
 70
8
 71
3
 72
8
 73
4
 74
0
 40
0
 40
0
 40
0
 40
0
 40
1
 40
1
 40
1
 40
1
 10
137.800000
 20
184.700000
 30
0.0
 10
137.400000
 20
187.000000
 30
0.0
 10
134.200000
 20
187.600000
 30
0.0
 10
133.400000
 20
185.500000
 30
0.0
  0
LWPOLYLINE
  5
249
100
AcDbEntity
  8
0
 62
7
100
AcDbPolyline
 90
1
 70
1
 10
27.700000
 20
196.700000
 30
0.0
  0
SPLINE
  5
24a
100
AcDbEntity
  8
0
 62
7
100
AcDbSpline
 70
8
 71
3
 72
8
 73
4
 74
0
 40
0
 40
0
 40
0
 40
0
 40
1
 40
1
 40
1
 40
1
 10
35.200000
 20
169.300000
 30
0.0
 10
33.900000
 20
169.000000
 30
0.0
 10
33.100000
 20
168.300000
 30
0.0
 10
33.300000
 20
167.700000
 30
0.0
  0
SPLINE
  5
24b
100
AcDbEntity
  8
0
 62
7
100
AcDbSpline
 70
8
 71
3
 72
8
 73
4
 74
0
 40
0
 40
0
 40
0
 40
0
 40
1
 40
1
 40
1
 40
1
 10
33.300000
 20
167.700000
 30
0.0
 10
33.800000
 20
166.100000
 30
0.0
 10
65.900000
 20
165.500000
 30
0.0
 10
67.400000
 20
167.000000
 30
0.0
  0
SPLINE
  5
24c
100
AcDbEntity
  8
0
 62
7
100
AcDbSpline
 70
8
 71
3
 72
8
 73
4
 74
0
 40
0
 40
0
 40
0
 40
0
 40
1
 40
1
 40
1
 40
1
 10
67.400000
 20
167.000000
 30
0.0
 10
69.600000
 20
169.200000
 30
0.0
 10
65.300000
 20
170.000000
 30
0.0
 10
51.500000
 20
169.800000
 30
0.0
  0
SPLINE
  5
24d
100
AcDbEntity
  8
0
 62
7
100
AcDbSpline
 70
8
 71
3
 72
8
 73
4
 74
0
 40
0
 40
0
 40
0
 40
0
 40
1
 40
1
 40
1
 40
1
 10
51.500000
 20
169.800000
 30
0.0
 10
43.800000
 20
169.800000
 30
0.0
 10
36.500000
 20
169.500000
 30
0.0
 10
35.200000
 20
169.300000
 30
0.0
  0
LWPOLYLINE
  5
24e
100
AcDbEntity
  8
0
 62
7
100
AcDbPolyline
 90
1
 70
1
 10
133.400000
 20
185.500000
 30
0.0
  0
SPLINE
  5
24f
100
AcDbEntity
  8
0
 62
7
100
AcDbSpline
 70
8
 71
3
 72
8
 73
4
 74
0
 40
0
 40
0
 40
0
 40
0
 40
1
 40
1
 40
1
 40
1
 10
21.000000
 20
162.200000
 30
0.0
 10
18.100000
 20
159.900000
 30
0.0
 10
19.000000
 20
156.300000
 30
0.0
 10
22.700000
 20
155.400000
 30
0.0
  0
SPLINE
  5
250
100
AcDbEntity
  8
0
 62
7
100
AcDbSpline
 70
8
 71
3
 72
8
 73
4
 74
0
 40
0
 40
0
 40
0
 40
0
 40
1
 40
1
 40
1
 40
1
 10
22.700000
 20
155.400000
 30
0.0
 10
28.000000
 20
154.000000
 30
0.0
 10
31.100000
 20
159.400000
 30
0.0
 10
26.800000
 20
162.400000
 30
0.0
  0
SPLINE
  5
251
100
AcDbEntity
  8
0
 62
7
100
AcDbSpline
 70
8
 71
3
 72
8
 73
4
 74
0
 40
0
 40
0
 40
0
 40
0
 40
1
 40
1
 40
1
 40
1
 10
26.800000
 20
162.400000
 30
0.0
 10
24.000000
 20
164.400000
 30
0.0
 10
23.700000
 20
164.400000
 30
0.0
 10
21.000000
 20
162.200000
 30
0.0
  0
LWPOLYLINE
  5
252
100
AcDbEntity
  8
0
 62
7
100
AcDbPolyline
 90
1
 70
1
 10
35.200000
 20
169.300000
 30
0.0
  0
SPLINE
  5
253
100
AcDbEntity
  8
0
 62
7
100
AcDbSpline
 70
8
 71
3
 72
8
 73
4
 74
0
 40
0
 40
0
 40
0
 40
0
 40
1
 40
1
 40
1
 40
1
 10
273.000000
 20
159.500000
 30
0.0
 10
272.100000
 20
158.400000
 30
0.0
 10
269.600000
 20
158.000000
 30
0.0
 10
263.400000
 20
158.000000
 30
0.0
  0
SPLINE
  5
254
100
AcDbEntity
  8
0
 62
7
100
AcDbSpline
 70
8
 71
3
 72
8
 73
4
 74
0
 40
0
 40
0
 40
0
 40
0
 40
1
 40
1
 40
1
 40
1
 10
263.400000
 20
158.000000
 30
0.0
 10
258.800000
 20
158.000000
 30
0.0
 10
255.000000
 20
157.600000
 30
0.0
 10
255.000000
 20
157.100000
 30
0.0
  0
SPLINE
  5
255
100
AcDbEntity
  8
0
 62
7
100
AcDbSpline
 70
8
 71
3
 72
8
 73
4
 74
0
 40
0
 40
0
 40
0
 40
0
 40
1
 40
1
 40
1
 40
1
 10
255.000000
 20
157.100000
 30
0.0
 10
255.000000
 20
155.800000
 30
0.0
 10
258.800000
 20
155.000000
 30
0.0
 10
265.900000
 20
155.000000
 30
0.0
  0
SPLINE
  5
256
100
AcDbEntity
  8
0
 62
7
100
AcDbSpline
 70
8
 71
3
 72
8
 73
4
 74
0
 40
0
 40
0
 40
0
 40
0
 40
1
 40
1
 40
1
 40
1
 10
265.900000
 20
155.000000
 30
0.0
 10
270.600000
 20
155.000000
 30
0.0
 10
272.900000
 20
154.500000
 30
0.0
 10
274.200000
 20
153.300000
 30
0.0
  0
SPLINE
  5
257
100
AcDbEntity
  8
0
 62
7
100
AcDbSpline
 70
8
 71
3
 72
8
 73
4
 74
0
 40
0
 40
0
 40
0
 40
0
 40
1
 40
1
 40
1
 40
1
 10
274.200000
 20
153.300000
 30
0.0
 10
276.000000
 20
151.700000
 30
0.0
 10
276.400000
 20
151.700000
 30
0.0
 10
278.800000
 20
153.100000
 30
0.0
  0
SPLINE
  5
258
100
AcDbEntity
  8
0
 62
7
100
AcDbSpline
 70
8
 71
3
 72
8
 73
4
 74
0
 40
0
 40
0
 40
0
 40
0
 40
1
 40
1
 40
1
 40
1
 10
278.800000
 20
153.100000
 30
0.0
 10
281.900000
 20
154.800000
 30
0.0
 10
282.700000
 20
157.400000
 30
0.0
 10
281.000000
 20
159.500000
 30
0.0
  0
SPLINE
  5
259
100
AcDbEntity
  8
0
 62
7
100
AcDbSpline
 70
8
 71
3
 72
8
 73
4
 74
0
 40
0
 40
0
 40
0
 40
0
 40
1
 40
1
 40
1
 40
1
 10
281.000000
 20
159.500000
 30
0.0
 10
279.400000
 20
161.400000
 30
0.0
 10
274.600000
 20
161.400000
 30
0.0
 10
273.000000
 20
159.500000
 30
0.0
  0
LWPOLYLINE
  5
25a
100
AcDbEntity
  8
0
 62
7
100
AcDbPolyline
 90
1
 70
1
 10
21.000000
 20
162.200000
 30
0.0
  0
SPLINE
  5
25b
100
AcDbEntity
  8
0
 62
7
100
AcDbSpline
 70
8
 71
3
 72
8
 73
4
 74
0
 40
0
 40
0
 40
0
 40
0
 40
1
 40
1
 40
1
 40
1
 10
116.200000
 20
155.700000
 30
0.0
 10
110.400000
 20
149.500000
 30
0.0
 10
117.300000
 20
140.500000
 30
0.0
 10
124.800000
 20
144.400000
 30
0.0
  0
SPLINE
  5
25c
100
AcDbEntity
  8
0
 62
7
100
AcDbSpline
 70
8
 71
3
 72
8
 73
4
 74
0
 40
0
 40
0
 40
0
 40
0
 40
1
 40
1
 40
1
 40
1
 10
124.800000
 20
144.400000
 30
0.0
 10
129.700000
 20
146.900000
 30
0.0
 10
130.400000
 20
151.700000
 30
0.0
 10
126.500000
 20
155.500000
 30
0.0
  0
SPLINE
  5
25d
100
AcDbEntity
  8
0
 62
7
100
AcDbSpline
 70
8
 71
3
 72
8
 73
4
 74
0
 40
0
 40
0
 40
0
 40
0
 40
1
 40
1
 40
1
 40
1
 10
126.500000
 20
155.500000
 30
0.0
 10
123.400000
 20
158.700000
 30
0.0
 10
119.100000
 20
158.800000
 30
0.0
 10
116.200000
 20
155.700000
 30
0.0
  0
LWPOLYLINE
  5
25e
100
AcDbEntity
  8
0
 62
7
100
AcDbPolyline
 90
1
 70
1
 10
273.000000
 20
159.500000
 30
0.0
  0
SPLINE
  5
25f
100
AcDbEntity
  8
0
 62
7
100
AcDbSpline
 70
8
 71
3
 72
8
 73
4
 74
0
 40
0
 40
0
 40
0
 40
0
 40
1
 40
1
 40
1
 40
1
 10
124.800000
 20
151.400000
 30
0.0
 10
125.200000
 20
148.700000
 30
0.0
 10
122.700000
 20
146.700000
 30
0.0
 10
120.000000
 20
147.500000
 30
0.0
  0
SPLINE
  5
260
100
AcDbEntity
  8
0
 62
7
100
AcDbSpline
 70
8
 71
3
 72
8
 73
4
 74
0
 40
0
 40
0
 40
0
 40
0
 40
1
 40
1
 40
1
 40
1
 10
120.000000
 20
147.500000
 30
0.0
 10
118.000000
 20
148.100000
 30
0.0
 10
117.200000
 20
151.900000
 30
0.0
 10
118.700000
 20
153.400000
 30
0.0
  0
SPLINE
  5
261
100
AcDbEntity
  8
0
 62
7
100
AcDbSpline
 70
8
 71
3
 72
8
 73
4
 74
0
 40
0
 40
0
 40
0
 40
0
 40
1
 40
1
 40
1
 40
1
 10
118.700000
 20
153.400000
 30
0.0
 10
120.200000
 20
154.900000
 30
0.0
 10
124.500000
 20
153.500000
 30
0.0
 10
124.800000
 20
151.400000
 30
0.0
  0
LWPOLYLINE
  5
262
100
AcDbEntity
  8
0
 62
7
100
AcDbPolyline
 90
1
 70
1
 10
116.200000
 20
155.700000
 30
0.0
  0
SPLINE
  5
263
100
AcDbEntity
  8
0
 62
7
100
AcDbSpline
 70
8
 71
3
 72
8
 73
4
 74
0
 40
0
 40
0
 40
0
 40
0
 40
1
 40
1
 40
1
 40
1
 10
12.000000
 20
144.000000
 30
0.0
 10
9.400000
 20
141.400000
 30
0.0
 10
9.500000
 20
139.500000
 30
0.0
 10
12.100000
 20
136.900000
 30
0.0
  0
SPLINE
  5
264
100
AcDbEntity
  8
0
 62
7
100
AcDbSpline
 70
8
 71
3
 72
8
 73
4
 74
0
 40
0
 40
0
 40
0
 40
0
 40
1
 40
1
 40
1
 40
1
 10
12.100000
 20
136.900000
 30
0.0
 10
15.300000
 20
133.700000
 30
0.0
 10
22.000000
 20
135.900000
 30
0.0
 10
22.000000
 20
140.100000
 30
0.0
  0
SPLINE
  5
265
100
AcDbEntity
  8
0
 62
7
100
AcDbSpline
 70
8
 71
3
 72
8
 73
4
 74
0
 40
0
 40
0
 40
0
 40
0
 40
1
 40
1
 40
1
 40
1
 10
22.000000
 20
140.100000
 30
0.0
 10
22.000000
 20
142.600000
 30
0.0
 10
18.500000
 20
146.000000
 30
0.0
 10
16.000000
 20
146.000000
 30
0.0
  0
SPLINE
  5
266
100
AcDbEntity
  8
0
 62
7
100
AcDbSpline
 70
8
 71
3
 72
8
 73
4
 74
0
 40
0
 40
0
 40
0
 40
0
 40
1
 40
1
 40
1
 40
1
 10
16.000000
 20
146.000000
 30
0.0
 10
14.900000
 20
146.000000
 30
0.0
 10
13.100000
 20
145.100000
 30
0.0
 10
12.000000
 20
144.000000
 30
0.0
  0
LWPOLYLINE
  5
267
100
AcDbEntity
  8
0
 62
7
100
AcDbPolyline
 90
1
 70
1
 10
124.800000
 20
151.400000
 30
0.0
  0
SPLINE
  5
268
100
AcDbEntity
  8
0
 62
7
100
AcDbSpline
 70
8
 71
3
 72
8
 73
4
 74
0
 40
0
 40
0
 40
0
 40
0
 40
1
 40
1
 40
1
 40
1
 10
288.200000
 20
136.800000
 30
0.0
 10
288.600000
 20
133.700000
 30
0.0
 10
293.500000
 20
133.400000
 30
0.0
 10
293.500000
 20
136.500000
 30
0.0
  0
SPLINE
  5
269
100
AcDbEntity
  8
0
 62
7
100
AcDbSpline
 70
8
 71
3
 72
8
 73
4
 74
0
 40
0
 40
0
 40
0
 40
0
 40
1
 40
1
 40
1
 40
1
 10
293.500000
 20
136.500000
 30
0.0
 10
293.500000
 20
138.000000
 30
0.0
 10
292.700000
 20
138.600000
 30
0.0
 10
290.700000
 20
138.800000
 30
0.0
  0
SPLINE
  5
26a
100
AcDbEntity
  8
0
 62
7
100
AcDbSpline
 70
8
 71
3
 72
8
 73
4
 74
0
 40
0
 40
0
 40
0
 40
0
 40
1
 40
1
 40
1
 40
1
 10
290.700000
 20
138.800000
 30
0.0
 10
288.200000
 20
139.100000
 30
0.0
 10
287.900000
 20
138.800000
 30
0.0
 10
288.200000
 20
136.800000
 30
0.0
  0
LWPOLYLINE
  5
26b
100
AcDbEntity
  8
0
 62
7
100
AcDbPolyline
 90
1
 70
1
 10
12.000000
 20
144.000000
 30
0.0
  0
SPLINE
  5
26c
100
AcDbEntity
  8
0
 62
7
100
AcDbSpline
 70
8
 71
3
 72
8
 73
4
 74
0
 40
0
 40
0
 40
0
 40
0
 40
1
 40
1
 40
1
 40
1
 10
0.400000
 20
123.500000
 30
0.0
 10
-0.400000
 20
121.600000
 30
0.0
 10
0.700000
 20
120.000000
 30
0.0
 10
3.000000
 20
120.000000
 30
0.0
  0
SPLINE
  5
26d
100
AcDbEntity
  8
0
 62
7
100
AcDbSpline
 70
8
 71
3
 72
8
 73
4
 74
0
 40
0
 40
0
 40
0
 40
0
 40
1
 40
1
 40
1
 40
1
 10
3.000000
 20
120.000000
 30
0.0
 10
4.900000
 20
120.000000
 30
0.0
 10
6.000000
 20
121.700000
 30
0.0
 10
5.300000
 20
123.800000
 30
0.0
  0
SPLINE
  5
26e
100
AcDbEntity
  8
0
 62
7
100
AcDbSpline
 70
8
 71
3
 72
8
 73
4
 74
0
 40
0
 40
0
 40
0
 40
0
 40
1
 40
1
 40
1
 40
1
 10
5.300000
 20
123.800000
 30
0.0
 10
4.700000
 20
125.500000
 30
0.0
 10
1.100000
 20
125.300000
 30
0.0
 10
0.400000
 20
123.500000
 30
0.0
  0
LWPOLYLINE
  5
26f
100
AcDbEntity
  8
0
 62
7
100
AcDbPolyline
 90
1
 70
1
 10
288.200000
 20
136.800000
 30
0.0
  0
SPLINE
  5
270
100
AcDbEntity
  8
0
 62
7
100
AcDbSpline
 70
8
 71
3
 72
8
 73
4
 74
0
 40
0
 40
0
 40
0
 40
0
 40
1
 40
1
 40
1
 40
1
 10
294.400000
 20
123.500000
 30
0.0
 10
294.000000
 20
122.600000
 30
0.0
 10
294.200000
 20
121.400000
 30
0.0
 10
294.800000
 20
120.800000
 30
0.0
  0
SPLINE
  5
271
100
AcDbEntity
  8
0
 62
7
100
AcDbSpline
 70
8
 71
3
 72
8
 73
4
 74
0
 40
0
 40
0
 40
0
 40
0
 40
1
 40
1
 40
1
 40
1
 10
294.800000
 20
120.800000
 30
0.0
 10
296.400000
 20
119.200000
 30
0.0
 10
299.500000
 20
120.300000
 30
0.0
 10
299.500000
 20
122.500000
 30
0.0
  0
SPLINE
  5
272
100
AcDbEntity
  8
0
 62
7
100
AcDbSpline
 70
8
 71
3
 72
8
 73
4
 74
0
 40
0
 40
0
 40
0
 40
0
 40
1
 40
1
 40
1
 40
1
 10
299.500000
 20
122.500000
 30
0.0
 10
299.500000
 20
125.100000
 30
0.0
 10
295.300000
 20
125.900000
 30
0.0
 10
294.400000
 20
123.500000
 30
0.0
  0
LWPOLYLINE
  5
273
100
AcDbEntity
  8
0
 62
7
100
AcDbPolyline
 90
1
 70
1
 10
0.400000
 20
123.500000
 30
0.0
  0
SPLINE
  5
274
100
AcDbEntity
  8
0
 62
7
100
AcDbSpline
 70
8
 71
3
 72
8
 73
4
 74
0
 40
0
 40
0
 40
0
 40
0
 40
1
 40
1
 40
1
 40
1
 10
273.300000
 20
121.400000
 30
0.0
 10
272.400000
 20
119.000000
 30
0.0
 10
274.300000
 20
116.500000
 30
0.0
 10
277.000000
 20
116.500000
 30
0.0
  0
SPLINE
  5
275
100
AcDbEntity
  8
0
 62
7
100
AcDbSpline
 70
8
 71
3
 72
8
 73
4
 74
0
 40
0
 40
0
 40
0
 40
0
 40
1
 40
1
 40
1
 40
1
 10
277.000000
 20
116.500000
 30
0.0
 10
280.100000
 20
116.500000
 30
0.0
 10
281.800000
 20
119.300000
 30
0.0
 10
280.100000
 20
121.400000
 30
0.0
  0
SPLINE
  5
276
100
AcDbEntity
  8
0
 62
7
100
AcDbSpline
 70
8
 71
3
 72
8
 73
4
 74
0
 40
0
 40
0
 40
0
 40
0
 40
1
 40
1
 40
1
 40
1
 10
280.100000
 20
121.400000
 30
0.0
 10
278.400000
 20
123.500000
 30
0.0
 10
274.100000
 20
123.500000
 30
0.0
 10
273.300000
 20
121.400000
 30
0.0
  0
LWPOLYLINE
  5
277
100
AcDbEntity
  8
0
 62
7
100
AcDbPolyline
 90
1
 70
1
 10
294.400000
 20
123.500000
 30
0.0
  0
SPLINE
  5
278
100
AcDbEntity
  8
0
 62
7
100
AcDbSpline
 70
8
 71
3
 72
8
 73
4
 74
0
 40
0
 40
0
 40
0
 40
0
 40
1
 40
1
 40
1
 40
1
 10
154.000000
 20
116.300000
 30
0.0
 10
145.100000
 20
113.400000
 30
0.0
 10
142.200000
 20
105.200000
 30
0.0
 10
147.800000
 20
98.900000
 30
0.0
  0
SPLINE
  5
279
100
AcDbEntity
  8
0
 62
7
100
AcDbSpline
 70
8
 71
3
 72
8
 73
4
 74
0
 40
0
 40
0
 40
0
 40
0
 40
1
 40
1
 40
1
 40
1
 10
147.800000
 20
98.900000
 30
0.0
 10
153.200000
 20
92.800000
 30
0.0
 10
164.900000
 20
94.100000
 30
0.0
 10
168.600000
 20
101.100000
 30
0.0
  0
SPLINE
  5
27a
100
AcDbEntity
  8
0
 62
7
100
AcDbSpline
 70
8
 71
3
 72
8
 73
4
 74
0
 40
0
 40
0
 40
0
 40
0
 40
1
 40
1
 40
1
 40
1
 10
168.600000
 20
101.100000
 30
0.0
 10
172.900000
 20
109.400000
 30
0.0
 10
163.300000
 20
119.400000
 30
0.0
 10
154.000000
 20
116.300000
 30
0.0
  0
LWPOLYLINE
  5
27b
100
AcDbEntity
  8
0
 62
7
100
AcDbPolyline
 90
1
 70
1
 10
273.300000
 20
121.400000
 30
0.0
  0
SPLINE
  5
27c
100
AcDbEntity
  8
0
 62
7
100
AcDbSpline
 70
8
 71
3
 72
8
 73
4
 74
0
 40
0
 40
0
 40
0
 40
0
 40
1
 40
1
 40
1
 40
1
 10
163.600000
 20
110.700000
 30
0.0
 10
169.200000
 20
105.900000
 30
0.0
 10
165.600000
 20
98.500000
 30
0.0
 10
157.700000
 20
98.500000
 30
0.0
  0
SPLINE
  5
27d
100
AcDbEntity
  8
0
 62
7
100
AcDbSpline
 70
8
 71
3
 72
8
 73
4
 74
0
 40
0
 40
0
 40
0
 40
0
 40
1
 40
1
 40
1
 40
1
 10
157.700000
 20
98.500000
 30
0.0
 10
153.100000
 20
98.500000
 30
0.0
 10
149.800000
 20
100.800000
 30
0.0
 10
148.500000
 20
104.800000
 30
0.0
  0
SPLINE
  5
27e
100
AcDbEntity
  8
0
 62
7
100
AcDbSpline
 70
8
 71
3
 72
8
 73
4
 74
0
 40
0
 40
0
 40
0
 40
0
 40
1
 40
1
 40
1
 40
1
 10
148.500000
 20
104.800000
 30
0.0
 10
148.000000
 20
106.600000
 30
0.0
 10
148.500000
 20
107.900000
 30
0.0
 10
150.600000
 20
110.100000
 30
0.0
  0
SPLINE
  5
27f
100
AcDbEntity
  8
0
 62
7
100
AcDbSpline
 70
8
 71
3
 72
8
 73
4
 74
0
 40
0
 40
0
 40
0
 40
0
 40
1
 40
1
 40
1
 40
1
 10
150.600000
 20
110.100000
 30
0.0
 10
154.200000
 20
113.800000
 30
0.0
 10
159.600000
 20
114.100000
 30
0.0
 10
163.600000
 20
110.700000
 30
0.0
  0
LWPOLYLINE
  5
280
100
AcDbEntity
  8
0
 62
7
100
AcDbPolyline
 90
1
 70
1
 10
154.000000
 20
116.300000
 30
0.0
  0
SPLINE
  5
281
100
AcDbEntity
  8
0
 62
7
100
AcDbSpline
 70
8
 71
3
 72
8
 73
4
 74
0
 40
0
 40
0
 40
0
 40
0
 40
1
 40
1
 40
1
 40
1
 10
207.800000
 20
110.700000
 30
0.0
 10
204.600000
 20
108.800000
 30
0.0
 10
203.700000
 20
108.700000
 30
0.0
 10
202.000000
 20
109.800000
 30
0.0
  0
SPLINE
  5
282
100
AcDbEntity
  8
0
 62
7
100
AcDbSpline
 70
8
 71
3
 72
8
 73
4
 74
0
 40
0
 40
0
 40
0
 40
0
 40
1
 40
1
 40
1
 40
1
 10
202.000000
 20
109.800000
 30
0.0
 10
199.700000
 20
111.200000
 30
0.0
 10
180.300000
 20
110.400000
 30
0.0
 10
178.300000
 20
108.700000
 30
0.0
  0
SPLINE
  5
283
100
AcDbEntity
  8
0
 62
7
100
AcDbSpline
 70
8
 71
3
 72
8
 73
4
 74
0
 40
0
 40
0
 40
0
 40
0
 40
1
 40
1
 40
1
 40
1
 10
178.300000
 20
108.700000
 30
0.0
 10
177.500000
 20
108.100000
 30
0.0
 10
177.000000
 20
105.300000
 30
0.0
 10
177.000000
 20
101.500000
 30
0.0
  0
SPLINE
  5
284
100
AcDbEntity
  8
0
 62
7
100
AcDbSpline
 70
8
 71
3
 72
8
 73
4
 74
0
 40
0
 40
0
 40
0
 40
0
 40
1
 40
1
 40
1
 40
1
 10
177.000000
 20
101.500000
 30
0.0
 10
177.000000
 20
92.400000
 30
0.0
 10
177.500000
 20
92.100000
 30
0.0
 10
194.500000
 20
91.800000
 30
0.0
  0
LWPOLYLINE
  5
285
100
AcDbEntity
  8
0
 62
7
100
AcDbPolyline
 90
1
 70
1
 10
163.600000
 20
110.700000
 30
0.0
  0
SPLINE
  5
286
100
AcDbEntity
  8
0
 62
7
100
AcDbSpline
 70
8
 71
3
 72
8
 73
4
 74
0
 40
0
 40
0
 40
0
 40
0
 40
1
 40
1
 40
1
 40
1
 10
224.800000
 20
91.600000
 30
0.0
 10
229.600000
 20
91.300000
 30
0.0
 10
235.600000
 20
90.800000
 30
0.0
 10
238.200000
 20
90.400000
 30
0.0
  0
SPLINE
  5
287
100
AcDbEntity
  8
0
 62
7
100
AcDbSpline
 70
8
 71
3
 72
8
 73
4
 74
0
 40
0
 40
0
 40
0
 40
0
 40
1
 40
1
 40
1
 40
1
 10
238.200000
 20
90.400000
 30
0.0
 10
242.600000
 20
89.900000
 30
0.0
 10
243.200000
 20
90.100000
 30
0.0
 10
246.000000
 20
92.800000
 30
0.0
  0
SPLINE
  5
288
100
AcDbEntity
  8
0
 62
7
100
AcDbSpline
 70
8
 71
3
 72
8
 73
4
 74
0
 40
0
 40
0
 40
0
 40
0
 40
1
 40
1
 40
1
 40
1
 10
246.000000
 20
92.800000
 30
0.0
 10
249.800000
 20
96.600000
 30
0.0
 10
250.000000
 20
100.800000
 30
0.0
 10
246.500000
 20
104.300000
 30
0.0
  0
SPLINE
  5
289
100
AcDbEntity
  8
0
 62
7
100
AcDbSpline
 70
8
 71
3
 72
8
 73
4
 74
0
 40
0
 40
0
 40
0
 40
0
 40
1
 40
1
 40
1
 40
1
 10
246.500000
 20
104.300000
 30
0.0
 10
241.400000
 20
109.300000
 30
0.0
 10
233.700000
 20
108.000000
 30
0.0
 10
229.900000
 20
101.500000
 30
0.0
  0
LWPOLYLINE
  5
28a
100
AcDbEntity
  8
0
 62
7
100
AcDbPolyline
 90
9
 70
0
 10
194.500000
 20
91.800000
 30
0.0
 10
208.500000
 20
91.500000
 30
0.0
 10
208.700000
 20
72.100000
 30
0.0
 10
208.900000
 20
52.700000
 30
0.0
 10
212.400000
 20
52.600000
 30
0.0
 10
216.000000
 20
52.500000
 30
0.0
 10
216.000000
 20
72.300000
 30
0.0
 10
216.000000
 20
92.200000
 30
0.0
 10
224.800000
 20
91.600000
 30
0.0
  0
SPLINE
  5
28b
100
AcDbEntity
  8
0
 62
7
100
AcDbSpline
 70
8
 71
3
 72
8
 73
4
 74
0
 40
0
 40
0
 40
0
 40
0
 40
1
 40
1
 40
1
 40
1
 10
193.800000
 20
104.100000
 30
0.0
 10
197.900000
 20
104.000000
 30
0.0
 10
201.000000
 20
104.300000
 30
0.0
 10
201.000000
 20
104.800000
 30
0.0
  0
SPLINE
  5
28c
100
AcDbEntity
  8
0
 62
7
100
AcDbSpline
 70
8
 71
3
 72
8
 73
4
 74
0
 40
0
 40
0
 40
0
 40
0
 40
1
 40
1
 40
1
 40
1
 10
201.000000
 20
104.800000
 30
0.0
 10
201.000000
 20
106.600000
 30
0.0
 10
206.000000
 20
107.100000
 30
0.0
 10
208.300000
 20
105.500000
 30
0.0
  0
SPLINE
  5
28d
100
AcDbEntity
  8
0
 62
7
100
AcDbSpline
 70
8
 71
3
 72
8
 73
4
 74
0
 40
0
 40
0
 40
0
 40
0
 40
1
 40
1
 40
1
 40
1
 10
208.300000
 20
105.500000
 30
0.0
 10
209.500000
 20
104.700000
 30
0.0
 10
211.400000
 20
104.000000
 30
0.0
 10
212.500000
 20
104.000000
 30
0.0
  0
SPLINE
  5
28e
100
AcDbEntity
  8
0
 62
7
100
AcDbSpline
 70
8
 71
3
 72
8
 73
4
 74
0
 40
0
 40
0
 40
0
 40
0
 40
1
 40
1
 40
1
 40
1
 10
212.500000
 20
104.000000
 30
0.0
 10
217.300000
 20
104.000000
 30
0.0
 10
218.700000
 20
109.900000
 30
0.0
 10
214.500000
 20
111.800000
 30
0.0
  0
SPLINE
  5
28f
100
AcDbEntity
  8
0
 62
7
100
AcDbSpline
 70
8
 71
3
 72
8
 73
4
 74
0
 40
0
 40
0
 40
0
 40
0
 40
1
 40
1
 40
1
 40
1
 10
214.500000
 20
111.800000
 30
0.0
 10
211.400000
 20
113.200000
 30
0.0
 10
212.300000
 20
113.400000
 30
0.0
 10
207.800000
 20
110.700000
 30
0.0
  0
LWPOLYLINE
  5
290
100
AcDbEntity
  8
0
 62
7
100
AcDbPolyline
 90
7
 70
0
 10
229.900000
 20
101.500000
 30
0.0
 10
227.800000
 20
98.000000
 30
0.0
 10
207.200000
 20
98.200000
 30
0.0
 10
186.600000
 20
98.500000
 30
0.0
 10
186.600000
 20
101.400000
 30
0.0
 10
186.600000
 20
104.300000
 30
0.0
 10
193.800000
 20
104.100000
 30
0.0
  0
SPLINE
  5
291
100
AcDbEntity
  8
0
 62
7
100
AcDbSpline
 70
8
 71
3
 72
8
 73
4
 74
0
 40
0
 40
0
 40
0
 40
0
 40
1
 40
1
 40
1
 40
1
 10
184.000000
 20
103.200000
 30
0.0
 10
183.600000
 20
101.500000
 30
0.0
 10
183.600000
 20
99.600000
 30
0.0
 10
184.200000
 20
98.600000
 30
0.0
  0
SPLINE
  5
292
100
AcDbEntity
  8
0
 62
7
100
AcDbSpline
 70
8
 71
3
 72
8
 73
4
 74
0
 40
0
 40
0
 40
0
 40
0
 40
1
 40
1
 40
1
 40
1
 10
184.200000
 20
98.600000
 30
0.0
 10
185.800000
 20
95.800000
 30
0.0
 10
183.300000
 20
93.900000
 30
0.0
 10
181.400000
 20
96.500000
 30
0.0
  0
SPLINE
  5
293
100
AcDbEntity
  8
0
 62
7
100
AcDbSpline
 70
8
 71
3
 72
8
 73
4
 74
0
 40
0
 40
0
 40
0
 40
0
 40
1
 40
1
 40
1
 40
1
 10
181.400000
 20
96.500000
 30
0.0
 10
179.600000
 20
98.900000
 30
0.0
 10
179.900000
 20
104.900000
 30
0.0
 10
181.900000
 20
106.000000
 30
0.0
  0
SPLINE
  5
294
100
AcDbEntity
  8
0
 62
7
100
AcDbSpline
 70
8
 71
3
 72
8
 73
4
 74
0
 40
0
 40
0
 40
0
 40
0
 40
1
 40
1
 40
1
 40
1
 10
181.900000
 20
106.000000
 30
0.0
 10
184.200000
 20
107.300000
 30
0.0
 10
184.900000
 20
106.300000
 30
0.0
 10
184.000000
 20
103.200000
 30
0.0
  0
LWPOLYLINE
  5
295
100
AcDbEntity
  8
0
 62
7
100
AcDbPolyline
 90
1
 70
1
 10
207.800000
 20
110.700000
 30
0.0
  0
SPLINE
  5
296
100
AcDbEntity
  8
0
 62
7
100
AcDbSpline
 70
8
 71
3
 72
8
 73
4
 74
0
 40
0
 40
0
 40
0
 40
0
 40
1
 40
1
 40
1
 40
1
 10
243.900000
 20
101.600000
 30
0.0
 10
245.800000
 20
99.600000
 30
0.0
 10
246.000000
 20
98.800000
 30
0.0
 10
245.100000
 20
97.100000
 30
0.0
  0
SPLINE
  5
297
100
AcDbEntity
  8
0
 62
7
100
AcDbSpline
 70
8
 71
3
 72
8
 73
4
 74
0
 40
0
 40
0
 40
0
 40
0
 40
1
 40
1
 40
1
 40
1
 10
245.100000
 20
97.100000
 30
0.0
 10
243.100000
 20
93.500000
 30
0.0
 10
240.400000
 20
92.700000
 30
0.0
 10
234.900000
 20
94.100000
 30
0.0
  0
SPLINE
  5
298
100
AcDbEntity
  8
0
 62
7
100
AcDbSpline
 70
8
 71
3
 72
8
 73
4
 74
0
 40
0
 40
0
 40
0
 40
0
 40
1
 40
1
 40
1
 40
1
 10
234.900000
 20
94.100000
 30
0.0
 10
232.200000
 20
94.800000
 30
0.0
 10
230.000000
 20
95.700000
 30
0.0
 10
230.000000
 20
96.000000
 30
0.0
  0
SPLINE
  5
299
100
AcDbEntity
  8
0
 62
7
100
AcDbSpline
 70
8
 71
3
 72
8
 73
4
 74
0
 40
0
 40
0
 40
0
 40
0
 40
1
 40
1
 40
1
 40
1
 10
230.000000
 20
96.000000
 30
0.0
 10
230.000000
 20
96.400000
 30
0.0
 10
231.500000
 20
98.400000
 30
0.0
 10
233.400000
 20
100.400000
 30
0.0
  0
SPLINE
  5
29a
100
AcDbEntity
  8
0
 62
7
100
AcDbSpline
 70
8
 71
3
 72
8
 73
4
 74
0
 40
0
 40
0
 40
0
 40
0
 40
1
 40
1
 40
1
 40
1
 10
233.400000
 20
100.400000
 30
0.0
 10
237.500000
 20
104.600000
 30
0.0
 10
240.700000
 20
105.000000
 30
0.0
 10
243.900000
 20
101.600000
 30
0.0
  0
LWPOLYLINE
  5
29b
100
AcDbEntity
  8
0
 62
7
100
AcDbPolyline
 90
1
 70
1
 10
184.000000
 20
103.200000
 30
0.0
  0
SPLINE
  5
29c
100
AcDbEntity
  8
0
 62
7
100
AcDbSpline
 70
8
 71
3
 72
8
 73
4
 74
0
 40
0
 40
0
 40
0
 40
0
 40
1
 40
1
 40
1
 40
1
 10
215.000000
 20
93.900000
 30
0.0
 10
215.000000
 20
93.500000
 30
0.0
 10
214.300000
 20
92.700000
 30
0.0
 10
213.500000
 20
92.000000
 30
0.0
  0
SPLINE
  5
29d
100
AcDbEntity
  8
0
 62
7
100
AcDbSpline
 70
8
 71
3
 72
8
 73
4
 74
0
 40
0
 40
0
 40
0
 40
0
 40
1
 40
1
 40
1
 40
1
 10
213.500000
 20
92.000000
 30
0.0
 10
212.300000
 20
91.000000
 30
0.0
 10
211.700000
 20
91.000000
 30
0.0
 10
210.500000
 20
92.000000
 30
0.0
  0
SPLINE
  5
29e
100
AcDbEntity
  8
0
 62
7
100
AcDbSpline
 70
8
 71
3
 72
8
 73
4
 74
0
 40
0
 40
0
 40
0
 40
0
 40
1
 40
1
 40
1
 40
1
 10
210.500000
 20
92.000000
 30
0.0
 10
209.700000
 20
92.700000
 30
0.0
 10
209.300000
 20
93.600000
 30
0.0
 10
209.600000
 20
94.100000
 30
0.0
  0
SPLINE
  5
29f
100
AcDbEntity
  8
0
 62
7
100
AcDbSpline
 70
8
 71
3
 72
8
 73
4
 74
0
 40
0
 40
0
 40
0
 40
0
 40
1
 40
1
 40
1
 40
1
 10
209.600000
 20
94.100000
 30
0.0
 10
210.200000
 20
95.100000
 30
0.0
 10
215.000000
 20
94.900000
 30
0.0
 10
215.000000
 20
93.900000
 30
0.0
  0
LWPOLYLINE
  5
2a0
100
AcDbEntity
  8
0
 62
7
100
AcDbPolyline
 90
1
 70
1
 10
243.900000
 20
101.600000
 30
0.0
  0
SPLINE
  5
2a1
100
AcDbEntity
  8
0
 62
7
100
AcDbSpline
 70
8
 71
3
 72
8
 73
4
 74
0
 40
0
 40
0
 40
0
 40
0
 40
1
 40
1
 40
1
 40
1
 10
31.700000
 20
110.300000
 30
0.0
 10
31.300000
 20
110.000000
 30
0.0
 10
31.000000
 20
108.800000
 30
0.0
 10
31.000000
 20
107.800000
 30
0.0
  0
SPLINE
  5
2a2
100
AcDbEntity
  8
0
 62
7
100
AcDbSpline
 70
8
 71
3
 72
8
 73
4
 74
0
 40
0
 40
0
 40
0
 40
0
 40
1
 40
1
 40
1
 40
1
 10
31.000000
 20
107.800000
 30
0.0
 10
31.000000
 20
106.600000
 30
0.0
 10
30.300000
 20
106.000000
 30
0.0
 10
28.600000
 20
106.000000
 30
0.0
  0
SPLINE
  5
2a3
100
AcDbEntity
  8
0
 62
7
100
AcDbSpline
 70
8
 71
3
 72
8
 73
4
 74
0
 40
0
 40
0
 40
0
 40
0
 40
1
 40
1
 40
1
 40
1
 10
28.600000
 20
106.000000
 30
0.0
 10
25.500000
 20
106.000000
 30
0.0
 10
23.600000
 20
103.800000
 30
0.0
 10
25.200000
 20
102.200000
 30
0.0
  0
SPLINE
  5
2a4
100
AcDbEntity
  8
0
 62
7
100
AcDbSpline
 70
8
 71
3
 72
8
 73
4
 74
0
 40
0
 40
0
 40
0
 40
0
 40
1
 40
1
 40
1
 40
1
 10
25.200000
 20
102.200000
 30
0.0
 10
25.900000
 20
101.500000
 30
0.0
 10
27.400000
 20
101.000000
 30
0.0
 10
28.700000
 20
101.000000
 30
0.0
  0
SPLINE
  5
2a5
100
AcDbEntity
  8
0
 62
7
100
AcDbSpline
 70
8
 71
3
 72
8
 73
4
 74
0
 40
0
 40
0
 40
0
 40
0
 40
1
 40
1
 40
1
 40
1
 10
28.700000
 20
101.000000
 30
0.0
 10
30.300000
 20
101.000000
 30
0.0
 10
31.000000
 20
100.400000
 30
0.0
 10
31.000000
 20
99.100000
 30
0.0
  0
SPLINE
  5
2a6
100
AcDbEntity
  8
0
 62
7
100
AcDbSpline
 70
8
 71
3
 72
8
 73
4
 74
0
 40
0
 40
0
 40
0
 40
0
 40
1
 40
1
 40
1
 40
1
 10
31.000000
 20
99.100000
 30
0.0
 10
31.000000
 20
96.700000
 30
0.0
 10
33.500000
 20
94.600000
 30
0.0
 10
35.500000
 20
95.400000
 30
0.0
  0
SPLINE
  5
2a7
100
AcDbEntity
  8
0
 62
7
100
AcDbSpline
 70
8
 71
3
 72
8
 73
4
 74
0
 40
0
 40
0
 40
0
 40
0
 40
1
 40
1
 40
1
 40
1
 10
35.500000
 20
95.400000
 30
0.0
 10
36.300000
 20
95.700000
 30
0.0
 10
37.000000
 20
97.000000
 30
0.0
 10
37.000000
 20
98.400000
 30
0.0
  0
SPLINE
  5
2a8
100
AcDbEntity
  8
0
 62
7
100
AcDbSpline
 70
8
 71
3
 72
8
 73
4
 74
0
 40
0
 40
0
 40
0
 40
0
 40
1
 40
1
 40
1
 40
1
 10
37.000000
 20
98.400000
 30
0.0
 10
37.000000
 20
100.300000
 30
0.0
 10
37.600000
 20
100.900000
 30
0.0
 10
39.800000
 20
101.200000
 30
0.0
  0
SPLINE
  5
2a9
100
AcDbEntity
  8
0
 62
7
100
AcDbSpline
 70
8
 71
3
 72
8
 73
4
 74
0
 40
0
 40
0
 40
0
 40
0
 40
1
 40
1
 40
1
 40
1
 10
39.800000
 20
101.200000
 30
0.0
 10
43.600000
 20
101.600000
 30
0.0
 10
43.600000
 20
105.400000
 30
0.0
 10
39.800000
 20
105.800000
 30
0.0
  0
SPLINE
  5
2aa
100
AcDbEntity
  8
0
 62
7
100
AcDbSpline
 70
8
 71
3
 72
8
 73
4
 74
0
 40
0
 40
0
 40
0
 40
0
 40
1
 40
1
 40
1
 40
1
 10
39.800000
 20
105.800000
 30
0.0
 10
38.000000
 20
106.000000
 30
0.0
 10
37.000000
 20
106.900000
 30
0.0
 10
36.600000
 20
108.600000
 30
0.0
  0
SPLINE
  5
2ab
100
AcDbEntity
  8
0
 62
7
100
AcDbSpline
 70
8
 71
3
 72
8
 73
4
 74
0
 40
0
 40
0
 40
0
 40
0
 40
1
 40
1
 40
1
 40
1
 10
36.600000
 20
108.600000
 30
0.0
 10
36.000000
 20
110.900000
 30
0.0
 10
33.200000
 20
111.900000
 30
0.0
 10
31.700000
 20
110.300000
 30
0.0
  0
LWPOLYLINE
  5
2ac
100
AcDbEntity
  8
0
 62
7
100
AcDbPolyline
 90
1
 70
1
 10
215.000000
 20
93.900000
 30
0.0
  0
SPLINE
  5
2ad
100
AcDbEntity
  8
0
 62
7
100
AcDbSpline
 70
8
 71
3
 72
8
 73
4
 74
0
 40
0
 40
0
 40
0
 40
0
 40
1
 40
1
 40
1
 40
1
 10
55.600000
 20
104.400000
 30
0.0
 10
50.100000
 20
98.800000
 30
0.0
 10
54.100000
 20
91.000000
 30
0.0
 10
62.600000
 20
91.000000
 30
0.0
  0
SPLINE
  5
2ae
100
AcDbEntity
  8
0
 62
7
100
AcDbSpline
 70
8
 71
3
 72
8
 73
4
 74
0
 40
0
 40
0
 40
0
 40
0
 40
1
 40
1
 40
1
 40
1
 10
62.600000
 20
91.000000
 30
0.0
 10
66.100000
 20
91.000000
 30
0.0
 10
67.300000
 20
91.500000
 30
0.0
 10
69.400000
 20
94.100000
 30
0.0
  0
SPLINE
  5
2af
100
AcDbEntity
  8
0
 62
7
100
AcDbSpline
 70
8
 71
3
 72
8
 73
4
 74
0
 40
0
 40
0
 40
0
 40
0
 40
1
 40
1
 40
1
 40
1
 10
69.400000
 20
94.100000
 30
0.0
 10
72.800000
 20
98.100000
 30
0.0
 10
72.700000
 20
100.500000
 30
0.0
 10
69.100000
 20
104.100000
 30
0.0
  0
SPLINE
  5
2b0
100
AcDbEntity
  8
0
 62
7
100
AcDbSpline
 70
8
 71
3
 72
8
 73
4
 74
0
 40
0
 40
0
 40
0
 40
0
 40
1
 40
1
 40
1
 40
1
 10
69.100000
 20
104.100000
 30
0.0
 10
65.100000
 20
108.000000
 30
0.0
 10
59.400000
 20
108.200000
 30
0.0
 10
55.600000
 20
104.400000
 30
0.0
  0
LWPOLYLINE
  5
2b1
100
AcDbEntity
  8
0
 62
7
100
AcDbPolyline
 90
1
 70
1
 10
31.700000
 20
110.300000
 30
0.0
  0
SPLINE
  5
2b2
100
AcDbEntity
  8
0
 62
7
100
AcDbSpline
 70
8
 71
3
 72
8
 73
4
 74
0
 40
0
 40
0
 40
0
 40
0
 40
1
 40
1
 40
1
 40
1
 10
66.200000
 20
102.300000
 30
0.0
 10
68.600000
 20
100.100000
 30
0.0
 10
68.500000
 20
97.400000
 30
0.0
 10
65.800000
 20
95.600000
 30
0.0
  0
SPLINE
  5
2b3
100
AcDbEntity
  8
0
 62
7
100
AcDbSpline
 70
8
 71
3
 72
8
 73
4
 74
0
 40
0
 40
0
 40
0
 40
0
 40
1
 40
1
 40
1
 40
1
 10
65.800000
 20
95.600000
 30
0.0
 10
62.900000
 20
93.600000
 30
0.0
 10
61.100000
 20
93.600000
 30
0.0
 10
58.800000
 20
95.700000
 30
0.0
  0
SPLINE
  5
2b4
100
AcDbEntity
  8
0
 62
7
100
AcDbSpline
 70
8
 71
3
 72
8
 73
4
 74
0
 40
0
 40
0
 40
0
 40
0
 40
1
 40
1
 40
1
 40
1
 10
58.800000
 20
95.700000
 30
0.0
 10
56.600000
 20
97.700000
 30
0.0
 10
56.500000
 20
100.300000
 30
0.0
 10
58.600000
 20
102.400000
 30
0.0
  0
SPLINE
  5
2b5
100
AcDbEntity
  8
0
 62
7
100
AcDbSpline
 70
8
 71
3
 72
8
 73
4
 74
0
 40
0
 40
0
 40
0
 40
0
 40
1
 40
1
 40
1
 40
1
 10
58.600000
 20
102.400000
 30
0.0
 10
60.600000
 20
104.500000
 30
0.0
 10
63.900000
 20
104.400000
 30
0.0
 10
66.200000
 20
102.300000
 30
0.0
  0
LWPOLYLINE
  5
2b6
100
AcDbEntity
  8
0
 62
7
100
AcDbPolyline
 90
1
 70
1
 10
55.600000
 20
104.400000
 30
0.0
  0
SPLINE
  5
2b7
100
AcDbEntity
  8
0
 62
7
100
AcDbSpline
 70
8
 71
3
 72
8
 73
4
 74
0
 40
0
 40
0
 40
0
 40
0
 40
1
 40
1
 40
1
 40
1
 10
256.100000
 20
106.100000
 30
0.0
 10
255.400000
 20
105.600000
 30
0.0
 10
255.100000
 20
104.700000
 30
0.0
 10
255.400000
 20
104.100000
 30
0.0
  0
SPLINE
  5
2b8
100
AcDbEntity
  8
0
 62
7
100
AcDbSpline
 70
8
 71
3
 72
8
 73
4
 74
0
 40
0
 40
0
 40
0
 40
0
 40
1
 40
1
 40
1
 40
1
 10
255.400000
 20
104.100000
 30
0.0
 10
256.200000
 20
102.900000
 30
0.0
 10
281.200000
 20
102.500000
 30
0.0
 10
282.300000
 20
103.700000
 30
0.0
  0
SPLINE
  5
2b9
100
AcDbEntity
  8
0
 62
7
100
AcDbSpline
 70
8
 71
3
 72
8
 73
4
 74
0
 40
0
 40
0
 40
0
 40
0
 40
1
 40
1
 40
1
 40
1
 10
282.300000
 20
103.700000
 30
0.0
 10
282.700000
 20
104.000000
 30
0.0
 10
282.500000
 20
104.900000
 30
0.0
 10
281.900000
 20
105.700000
 30
0.0
  0
SPLINE
  5
2ba
100
AcDbEntity
  8
0
 62
7
100
AcDbSpline
 70
8
 71
3
 72
8
 73
4
 74
0
 40
0
 40
0
 40
0
 40
0
 40
1
 40
1
 40
1
 40
1
 10
281.900000
 20
105.700000
 30
0.0
 10
280.600000
 20
107.200000
 30
0.0
 10
258.500000
 20
107.600000
 30
0.0
 10
256.100000
 20
106.100000
 30
0.0
  0
LWPOLYLINE
  5
2bb
100
AcDbEntity
  8
0
 62
7
100
AcDbPolyline
 90
1
 70
1
 10
66.200000
 20
102.300000
 30
0.0
  0
SPLINE
  5
2bc
100
AcDbEntity
  8
0
 62
7
100
AcDbSpline
 70
8
 71
3
 72
8
 73
4
 74
0
 40
0
 40
0
 40
0
 40
0
 40
1
 40
1
 40
1
 40
1
 10
24.600000
 20
87.700000
 30
0.0
 10
20.500000
 20
83.600000
 30
0.0
 10
21.200000
 20
79.000000
 30
0.0
 10
26.200000
 20
76.400000
 30
0.0
  0
SPLINE
  5
2bd
100
AcDbEntity
  8
0
 62
7
100
AcDbSpline
 70
8
 71
3
 72
8
 73
4
 74
0
 40
0
 40
0
 40
0
 40
0
 40
1
 40
1
 40
1
 40
1
 10
26.200000
 20
76.400000
 30
0.0
 10
29.700000
 20
74.600000
 30
0.0
 10
35.100000
 20
75.200000
 30
0.0
 10
37.000000
 20
77.500000
 30
0.0
  0
SPLINE
  5
2be
100
AcDbEntity
  8
0
 62
7
100
AcDbSpline
 70
8
 71
3
 72
8
 73
4
 74
0
 40
0
 40
0
 40
0
 40
0
 40
1
 40
1
 40
1
 40
1
 10
37.000000
 20
77.500000
 30
0.0
 10
38.000000
 20
78.700000
 30
0.0
 10
40.800000
 20
79.000000
 30
0.0
 10
49.500000
 20
79.000000
 30
0.0
  0
LWPOLYLINE
  5
2bf
100
AcDbEntity
  8
0
 62
7
100
AcDbPolyline
 90
1
 70
1
 10
256.100000
 20
106.100000
 30
0.0
  0
SPLINE
  5
2c0
100
AcDbEntity
  8
0
 62
7
100
AcDbSpline
 70
8
 71
3
 72
8
 73
4
 74
0
 40
0
 40
0
 40
0
 40
0
 40
1
 40
1
 40
1
 40
1
 10
71.800000
 20
69.800000
 30
0.0
 10
82.600000
 20
60.800000
 30
0.0
 10
82.900000
 20
60.400000
 30
0.0
 10
83.000000
 20
56.500000
 30
0.0
  0
LWPOLYLINE
  5
2c1
100
AcDbEntity
  8
0
 62
7
100
AcDbPolyline
 90
3
 70
0
 10
49.500000
 20
79.000000
 30
0.0
 10
60.700000
 20
79.000000
 30
0.0
 10
71.800000
 20
69.800000
 30
0.0
  0
SPLINE
  5
2c2
100
AcDbEntity
  8
0
 62
7
100
AcDbSpline
 70
8
 71
3
 72
8
 73
4
 74
0
 40
0
 40
0
 40
0
 40
0
 40
1
 40
1
 40
1
 40
1
 10
87.500000
 20
76.000000
 30
0.0
 10
84.300000
 20
76.000000
 30
0.0
 10
84.000000
 20
75.800000
 30
0.0
 10
84.000000
 20
73.000000
 30
0.0
  0
SPLINE
  5
2c3
100
AcDbEntity
  8
0
 62
7
100
AcDbSpline
 70
8
 71
3
 72
8
 73
4
 74
0
 40
0
 40
0
 40
0
 40
0
 40
1
 40
1
 40
1
 40
1
 10
84.000000
 20
73.000000
 30
0.0
 10
84.000000
 20
71.400000
 30
0.0
 10
83.700000
 20
70.000000
 30
0.0
 10
83.300000
 20
70.000000
 30
0.0
  0
SPLINE
  5
2c4
100
AcDbEntity
  8
0
 62
7
100
AcDbSpline
 70
8
 71
3
 72
8
 73
4
 74
0
 40
0
 40
0
 40
0
 40
0
 40
1
 40
1
 40
1
 40
1
 10
83.300000
 20
70.000000
 30
0.0
 10
83.000000
 20
70.000000
 30
0.0
 10
79.400000
 20
72.700000
 30
0.0
 10
75.400000
 20
76.000000
 30
0.0
  0
SPLINE
  5
2c5
100
AcDbEntity
  8
0
 62
7
100
AcDbSpline
 70
8
 71
3
 72
8
 73
4
 74
0
 40
0
 40
0
 40
0
 40
0
 40
1
 40
1
 40
1
 40
1
 10
75.400000
 20
76.000000
 30
0.0
 10
64.800000
 20
84.800000
 30
0.0
 10
64.300000
 20
85.000000
 30
0.0
 10
51.100000
 20
85.000000
 30
0.0
  0
SPLINE
  5
2c6
100
AcDbEntity
  8
0
 62
7
100
AcDbSpline
 70
8
 71
3
 72
8
 73
4
 74
0
 40
0
 40
0
 40
0
 40
0
 40
1
 40
1
 40
1
 40
1
 10
51.100000
 20
85.000000
 30
0.0
 10
40.900000
 20
85.000000
 30
0.0
 10
39.400000
 20
85.200000
 30
0.0
 10
37.400000
 20
87.100000
 30
0.0
  0
SPLINE
  5
2c7
100
AcDbEntity
  8
0
 62
7
100
AcDbSpline
 70
8
 71
3
 72
8
 73
4
 74
0
 40
0
 40
0
 40
0
 40
0
 40
1
 40
1
 40
1
 40
1
 10
37.400000
 20
87.100000
 30
0.0
 10
36.200000
 20
88.200000
 30
0.0
 10
33.400000
 20
89.400000
 30
0.0
 10
31.200000
 20
89.700000
 30
0.0
  0
SPLINE
  5
2c8
100
AcDbEntity
  8
0
 62
7
100
AcDbSpline
 70
8
 71
3
 72
8
 73
4
 74
0
 40
0
 40
0
 40
0
 40
0
 40
1
 40
1
 40
1
 40
1
 10
31.200000
 20
89.700000
 30
0.0
 10
27.800000
 20
90.200000
 30
0.0
 10
26.700000
 20
89.800000
 30
0.0
 10
24.600000
 20
87.700000
 30
0.0
  0
LWPOLYLINE
  5
2c9
100
AcDbEntity
  8
0
 62
7
100
AcDbPolyline
 90
6
 70
0
 10
83.000000
 20
56.500000
 30
0.0
 10
87.000000
 20
52.500000
 30
0.0
 10
91.000000
 20
52.500000
 30
0.0
 10
91.000000
 20
64.300000
 30
0.0
 10
91.000000
 20
76.000000
 30
0.0
 10
87.500000
 20
76.000000
 30
0.0
  0
LWPOLYLINE
  5
2ca
100
AcDbEntity
  8
0
 62
7
100
AcDbPolyline
 90
1
 70
1
 10
24.600000
 20
87.700000
 30
0.0
  0
SPLINE
  5
2cb
100
AcDbEntity
  8
0
 62
7
100
AcDbSpline
 70
8
 71
3
 72
8
 73
4
 74
0
 40
0
 40
0
 40
0
 40
0
 40
1
 40
1
 40
1
 40
1
 10
36.100000
 20
80.900000
 30
0.0
 10
32.100000
 20
77.600000
 30
0.0
 10
26.000000
 20
78.700000
 30
0.0
 10
26.000000
 20
82.600000
 30
0.0
  0
SPLINE
  5
2cc
100
AcDbEntity
  8
0
 62
7
100
AcDbSpline
 70
8
 71
3
 72
8
 73
4
 74
0
 40
0
 40
0
 40
0
 40
0
 40
1
 40
1
 40
1
 40
1
 10
26.000000
 20
82.600000
 30
0.0
 10
26.000000
 20
87.000000
 30
0.0
 10
30.500000
 20
87.700000
 30
0.0
 10
35.900000
 20
84.300000
 30
0.0
  0
LWPOLYLINE
  5
2cd
100
AcDbEntity
  8
0
 62
7
100
AcDbPolyline
 90
3
 70
0
 10
35.900000
 20
84.300000
 30
0.0
 10
38.400000
 20
82.700000
 30
0.0
 10
36.100000
 20
80.900000
 30
0.0
  0
SPLINE
  5
2ce
100
AcDbEntity
  8
0
 62
7
100
AcDbSpline
 70
8
 71
3
 72
8
 73
4
 74
0
 40
0
 40
0
 40
0
 40
0
 40
1
 40
1
 40
1
 40
1
 10
87.900000
 20
65.000000
 30
0.0
 10
87.700000
 20
62.300000
 30
0.0
 10
87.400000
 20
60.000000
 30
0.0
 10
87.100000
 20
60.100000
 30
0.0
  0
SPLINE
  5
2cf
100
AcDbEntity
  8
0
 62
7
100
AcDbSpline
 70
8
 71
3
 72
8
 73
4
 74
0
 40
0
 40
0
 40
0
 40
0
 40
1
 40
1
 40
1
 40
1
 10
87.100000
 20
60.100000
 30
0.0
 10
86.800000
 20
60.100000
 30
0.0
 10
85.000000
 20
61.900000
 30
0.0
 10
83.100000
 20
64.100000
 30
0.0
  0
SPLINE
  5
2d0
100
AcDbEntity
  8
0
 62
7
100
AcDbSpline
 70
8
 71
3
 72
8
 73
4
 74
0
 40
0
 40
0
 40
0
 40
0
 40
1
 40
1
 40
1
 40
1
 10
83.100000
 20
64.100000
 30
0.0
 10
81.300000
 20
66.300000
 30
0.0
 10
80.400000
 20
67.800000
 30
0.0
 10
81.100000
 20
67.500000
 30
0.0
  0
SPLINE
  5
2d1
100
AcDbEntity
  8
0
 62
7
100
AcDbSpline
 70
8
 71
3
 72
8
 73
4
 74
0
 40
0
 40
0
 40
0
 40
0
 40
1
 40
1
 40
1
 40
1
 10
81.100000
 20
67.500000
 30
0.0
 10
81.900000
 20
67.200000
 30
0.0
 10
83.400000
 20
67.600000
 30
0.0
 10
84.500000
 20
68.400000
 30
0.0
  0
SPLINE
  5
2d2
100
AcDbEntity
  8
0
 62
7
100
AcDbSpline
 70
8
 71
3
 72
8
 73
4
 74
0
 40
0
 40
0
 40
0
 40
0
 40
1
 40
1
 40
1
 40
1
 10
84.500000
 20
68.400000
 30
0.0
 10
87.600000
 20
70.800000
 30
0.0
 10
88.100000
 20
70.300000
 30
0.0
 10
87.900000
 20
65.000000
 30
0.0
  0
LWPOLYLINE
  5
2d3
100
AcDbEntity
  8
0
 62
7
100
AcDbPolyline
 90
1
 70
1
 10
35.900000
 20
84.300000
 30
0.0
  0
SPLINE
  5
2d4
100
AcDbEntity
  8
0
 62
7
100
AcDbSpline
 70
8
 71
3
 72
8
 73
4
 74
0
 40
0
 40
0
 40
0
 40
0
 40
1
 40
1
 40
1
 40
1
 10
160.700000
 20
87.300000
 30
0.0
 10
160.300000
 20
87.000000
 30
0.0
 10
160.000000
 20
82.200000
 30
0.0
 10
160.000000
 20
76.800000
 30
0.0
  0
LWPOLYLINE
  5
2d5
100
AcDbEntity
  8
0
 62
7
100
AcDbPolyline
 90
1
 70
1
 10
87.900000
 20
65.000000
 30
0.0
  0
SPLINE
  5
2d6
100
AcDbEntity
  8
0
 62
7
100
AcDbSpline
 70
8
 71
3
 72
8
 73
4
 74
0
 40
0
 40
0
 40
0
 40
0
 40
1
 40
1
 40
1
 40
1
 10
164.900000
 20
67.000000
 30
0.0
 10
170.700000
 20
67.000000
 30
0.0
 10
171.000000
 20
67.500000
 30
0.0
 10
171.000000
 20
76.500000
 30
0.0
  0
SPLINE
  5
2d7
100
AcDbEntity
  8
0
 62
7
100
AcDbSpline
 70
8
 71
3
 72
8
 73
4
 74
0
 40
0
 40
0
 40
0
 40
0
 40
1
 40
1
 40
1
 40
1
 10
171.000000
 20
76.500000
 30
0.0
 10
171.000000
 20
85.900000
 30
0.0
 10
169.900000
 20
88.000000
 30
0.0
 10
165.200000
 20
88.000000
 30
0.0
  0
SPLINE
  5
2d8
100
AcDbEntity
  8
0
 62
7
100
AcDbSpline
 70
8
 71
3
 72
8
 73
4
 74
0
 40
0
 40
0
 40
0
 40
0
 40
1
 40
1
 40
1
 40
1
 10
165.200000
 20
88.000000
 30
0.0
 10
163.100000
 20
88.000000
 30
0.0
 10
161.000000
 20
87.700000
 30
0.0
 10
160.700000
 20
87.300000
 30
0.0
  0
LWPOLYLINE
  5
2d9
100
AcDbEntity
  8
0
 62
7
100
AcDbPolyline
 90
3
 70
0
 10
160.000000
 20
76.800000
 30
0.0
 10
160.000000
 20
67.000000
 30
0.0
 10
164.900000
 20
67.000000
 30
0.0
  0
SPLINE
  5
2da
100
AcDbEntity
  8
0
 62
7
100
AcDbSpline
 70
8
 71
3
 72
8
 73
4
 74
0
 40
0
 40
0
 40
0
 40
0
 40
1
 40
1
 40
1
 40
1
 10
166.800000
 20
82.300000
 30
0.0
 10
169.300000
 20
77.100000
 30
0.0
 10
167.500000
 20
68.500000
 30
0.0
 10
164.400000
 20
71.100000
 30
0.0
  0
SPLINE
  5
2db
100
AcDbEntity
  8
0
 62
7
100
AcDbSpline
 70
8
 71
3
 72
8
 73
4
 74
0
 40
0
 40
0
 40
0
 40
0
 40
1
 40
1
 40
1
 40
1
 10
164.400000
 20
71.100000
 30
0.0
 10
163.000000
 20
72.300000
 30
0.0
 10
162.400000
 20
82.100000
 30
0.0
 10
163.700000
 20
83.300000
 30
0.0
  0
SPLINE
  5
2dc
100
AcDbEntity
  8
0
 62
7
100
AcDbSpline
 70
8
 71
3
 72
8
 73
4
 74
0
 40
0
 40
0
 40
0
 40
0
 40
1
 40
1
 40
1
 40
1
 10
163.700000
 20
83.300000
 30
0.0
 10
164.800000
 20
84.500000
 30
0.0
 10
165.900000
 20
84.100000
 30
0.0
 10
166.800000
 20
82.300000
 30
0.0
  0
LWPOLYLINE
  5
2dd
100
AcDbEntity
  8
0
 62
7
100
AcDbPolyline
 90
1
 70
1
 10
160.700000
 20
87.300000
 30
0.0
  0
SPLINE
  5
2de
100
AcDbEntity
  8
0
 62
7
100
AcDbSpline
 70
8
 71
3
 72
8
 73
4
 74
0
 40
0
 40
0
 40
0
 40
0
 40
1
 40
1
 40
1
 40
1
 10
267.200000
 20
86.000000
 30
0.0
 10
265.400000
 20
84.900000
 30
0.0
 10
262.400000
 20
84.000000
 30
0.0
 10
260.500000
 20
84.000000
 30
0.0
  0
SPLINE
  5
2df
100
AcDbEntity
  8
0
 62
7
100
AcDbSpline
 70
8
 71
3
 72
8
 73
4
 74
0
 40
0
 40
0
 40
0
 40
0
 40
1
 40
1
 40
1
 40
1
 10
260.500000
 20
84.000000
 30
0.0
 10
256.800000
 20
84.000000
 30
0.0
 10
254.900000
 20
82.300000
 30
0.0
 10
257.100000
 20
80.900000
 30
0.0
  0
SPLINE
  5
2e0
100
AcDbEntity
  8
0
 62
7
100
AcDbSpline
 70
8
 71
3
 72
8
 73
4
 74
0
 40
0
 40
0
 40
0
 40
0
 40
1
 40
1
 40
1
 40
1
 10
257.100000
 20
80.900000
 30
0.0
 10
257.900000
 20
80.400000
 30
0.0
 10
260.000000
 20
80.000000
 30
0.0
 10
261.800000
 20
80.000000
 30
0.0
  0
SPLINE
  5
2e1
100
AcDbEntity
  8
0
 62
7
100
AcDbSpline
 70
8
 71
3
 72
8
 73
4
 74
0
 40
0
 40
0
 40
0
 40
0
 40
1
 40
1
 40
1
 40
1
 10
261.800000
 20
80.000000
 30
0.0
 10
263.700000
 20
80.000000
 30
0.0
 10
265.800000
 20
79.200000
 30
0.0
 10
267.000000
 20
78.000000
 30
0.0
  0
SPLINE
  5
2e2
100
AcDbEntity
  8
0
 62
7
100
AcDbSpline
 70
8
 71
3
 72
8
 73
4
 74
0
 40
0
 40
0
 40
0
 40
0
 40
1
 40
1
 40
1
 40
1
 10
267.000000
 20
78.000000
 30
0.0
 10
271.900000
 20
73.100000
 30
0.0
 10
281.000000
 20
78.900000
 30
0.0
 10
277.200000
 20
84.600000
 30
0.0
  0
SPLINE
  5
2e3
100
AcDbEntity
  8
0
 62
7
100
AcDbSpline
 70
8
 71
3
 72
8
 73
4
 74
0
 40
0
 40
0
 40
0
 40
0
 40
1
 40
1
 40
1
 40
1
 10
277.200000
 20
84.600000
 30
0.0
 10
276.400000
 20
85.800000
 30
0.0
 10
272.600000
 20
88.000000
 30
0.0
 10
271.300000
 20
88.000000
 30
0.0
  0
SPLINE
  5
2e4
100
AcDbEntity
  8
0
 62
7
100
AcDbSpline
 70
8
 71
3
 72
8
 73
4
 74
0
 40
0
 40
0
 40
0
 40
0
 40
1
 40
1
 40
1
 40
1
 10
271.300000
 20
88.000000
 30
0.0
 10
270.900000
 20
88.000000
 30
0.0
 10
269.000000
 20
87.100000
 30
0.0
 10
267.200000
 20
86.000000
 30
0.0
  0
LWPOLYLINE
  5
2e5
100
AcDbEntity
  8
0
 62
7
100
AcDbPolyline
 90
1
 70
1
 10
166.800000
 20
82.300000
 30
0.0
  0
SPLINE
  5
2e6
100
AcDbEntity
  8
0
 62
7
100
AcDbSpline
 70
8
 71
3
 72
8
 73
4
 74
0
 40
0
 40
0
 40
0
 40
0
 40
1
 40
1
 40
1
 40
1
 10
273.000000
 20
83.600000
 30
0.0
 10
273.000000
 20
83.400000
 30
0.0
 10
273.300000
 20
82.500000
 30
0.0
 10
273.600000
 20
81.600000
 30
0.0
  0
SPLINE
  5
2e7
100
AcDbEntity
  8
0
 62
7
100
AcDbSpline
 70
8
 71
3
 72
8
 73
4
 74
0
 40
0
 40
0
 40
0
 40
0
 40
1
 40
1
 40
1
 40
1
 10
273.600000
 20
81.600000
 30
0.0
 10
274.100000
 20
80.400000
 30
0.0
 10
273.600000
 20
80.000000
 30
0.0
 10
271.700000
 20
80.000000
 30
0.0
  0
SPLINE
  5
2e8
100
AcDbEntity
  8
0
 62
7
100
AcDbSpline
 70
8
 71
3
 72
8
 73
4
 74
0
 40
0
 40
0
 40
0
 40
0
 40
1
 40
1
 40
1
 40
1
 10
271.700000
 20
80.000000
 30
0.0
 10
268.700000
 20
80.000000
 30
0.0
 10
267.200000
 20
81.800000
 30
0.0
 10
269.100000
 20
83.100000
 30
0.0
  0
SPLINE
  5
2e9
100
AcDbEntity
  8
0
 62
7
100
AcDbSpline
 70
8
 71
3
 72
8
 73
4
 74
0
 40
0
 40
0
 40
0
 40
0
 40
1
 40
1
 40
1
 40
1
 10
269.100000
 20
83.100000
 30
0.0
 10
270.600000
 20
84.000000
 30
0.0
 10
273.000000
 20
84.300000
 30
0.0
 10
273.000000
 20
83.600000
 30
0.0
  0
LWPOLYLINE
  5
2ea
100
AcDbEntity
  8
0
 62
7
100
AcDbPolyline
 90
1
 70
1
 10
267.200000
 20
86.000000
 30
0.0
  0
SPLINE
  5
2eb
100
AcDbEntity
  8
0
 62
7
100
AcDbSpline
 70
8
 71
3
 72
8
 73
4
 74
0
 40
0
 40
0
 40
0
 40
0
 40
1
 40
1
 40
1
 40
1
 10
112.000000
 20
82.200000
 30
0.0
 10
105.400000
 20
78.900000
 30
0.0
 10
105.600000
 20
71.800000
 30
0.0
 10
112.500000
 20
68.000000
 30
0.0
  0
LWPOLYLINE
  5
2ec
100
AcDbEntity
  8
0
 62
7
100
AcDbPolyline
 90
1
 70
1
 10
273.000000
 20
83.600000
 30
0.0
  0
SPLINE
  5
2ed
100
AcDbEntity
  8
0
 62
7
100
AcDbSpline
 70
8
 71
3
 72
8
 73
4
 74
0
 40
0
 40
0
 40
0
 40
0
 40
1
 40
1
 40
1
 40
1
 10
116.000000
 20
52.400000
 30
0.0
 10
116.400000
 20
40.900000
 30
0.0
 10
116.800000
 20
38.500000
 30
0.0
 10
118.000000
 20
38.500000
 30
0.0
  0
SPLINE
  5
2ee
100
AcDbEntity
  8
0
 62
7
100
AcDbSpline
 70
8
 71
3
 72
8
 73
4
 74
0
 40
0
 40
0
 40
0
 40
0
 40
1
 40
1
 40
1
 40
1
 10
118.000000
 20
38.500000
 30
0.0
 10
119.300000
 20
38.500000
 30
0.0
 10
119.500000
 20
40.900000
 30
0.0
 10
119.800000
 20
53.100000
 30
0.0
  0
SPLINE
  5
2ef
100
AcDbEntity
  8
0
 62
7
100
AcDbSpline
 70
8
 71
3
 72
8
 73
4
 74
0
 40
0
 40
0
 40
0
 40
0
 40
1
 40
1
 40
1
 40
1
 10
119.800000
 20
53.100000
 30
0.0
 10
120.000000
 20
67.200000
 30
0.0
 10
120.100000
 20
67.800000
 30
0.0
 10
122.500000
 20
70.000000
 30
0.0
  0
SPLINE
  5
2f0
100
AcDbEntity
  8
0
 62
7
100
AcDbSpline
 70
8
 71
3
 72
8
 73
4
 74
0
 40
0
 40
0
 40
0
 40
0
 40
1
 40
1
 40
1
 40
1
 10
122.500000
 20
70.000000
 30
0.0
 10
127.000000
 20
74.200000
 30
0.0
 10
125.400000
 20
80.800000
 30
0.0
 10
119.300000
 20
83.100000
 30
0.0
  0
LWPOLYLINE
  5
2f1
100
AcDbEntity
  8
0
 62
7
100
AcDbPolyline
 90
3
 70
0
 10
112.500000
 20
68.000000
 30
0.0
 10
115.500000
 20
66.300000
 30
0.0
 10
116.000000
 20
52.400000
 30
0.0
  0
SPLINE
  5
2f2
100
AcDbEntity
  8
0
 62
7
100
AcDbSpline
 70
8
 71
3
 72
8
 73
4
 74
0
 40
0
 40
0
 40
0
 40
0
 40
1
 40
1
 40
1
 40
1
 10
120.600000
 20
77.500000
 30
0.0
 10
122.100000
 20
75.200000
 30
0.0
 10
120.800000
 20
71.500000
 30
0.0
 10
117.900000
 20
69.700000
 30
0.0
  0
SPLINE
  5
2f3
100
AcDbEntity
  8
0
 62
7
100
AcDbSpline
 70
8
 71
3
 72
8
 73
4
 74
0
 40
0
 40
0
 40
0
 40
0
 40
1
 40
1
 40
1
 40
1
 10
117.900000
 20
69.700000
 30
0.0
 10
116.000000
 20
68.500000
 30
0.0
 10
111.000000
 20
72.400000
 30
0.0
 10
111.000000
 20
75.100000
 30
0.0
  0
SPLINE
  5
2f4
100
AcDbEntity
  8
0
 62
7
100
AcDbSpline
 70
8
 71
3
 72
8
 73
4
 74
0
 40
0
 40
0
 40
0
 40
0
 40
1
 40
1
 40
1
 40
1
 10
111.000000
 20
75.100000
 30
0.0
 10
111.000000
 20
79.800000
 30
0.0
 10
118.000000
 20
81.500000
 30
0.0
 10
120.600000
 20
77.500000
 30
0.0
  0
LWPOLYLINE
  5
2f5
100
AcDbEntity
  8
0
 62
7
100
AcDbPolyline
 90
3
 70
0
 10
119.300000
 20
83.100000
 30
0.0
 10
112.000000
 20
82.200000
 30
0.0
 10
112.000000
 20
82.200000
 30
0.0
  0
SPLINE
  5
2f6
100
AcDbEntity
  8
0
 62
7
100
AcDbSpline
 70
8
 71
3
 72
8
 73
4
 74
0
 40
0
 40
0
 40
0
 40
0
 40
1
 40
1
 40
1
 40
1
 10
226.200000
 20
82.500000
 30
0.0
 10
223.500000
 20
80.600000
 30
0.0
 10
223.400000
 20
78.900000
 30
0.0
 10
225.800000
 20
76.700000
 30
0.0
  0
SPLINE
  5
2f7
100
AcDbEntity
  8
0
 62
7
100
AcDbSpline
 70
8
 71
3
 72
8
 73
4
 74
0
 40
0
 40
0
 40
0
 40
0
 40
1
 40
1
 40
1
 40
1
 10
225.800000
 20
76.700000
 30
0.0
 10
228.300000
 20
74.400000
 30
0.0
 10
229.300000
 20
74.600000
 30
0.0
 10
233.000000
 20
77.700000
 30
0.0
  0
SPLINE
  5
2f8
100
AcDbEntity
  8
0
 62
7
100
AcDbSpline
 70
8
 71
3
 72
8
 73
4
 74
0
 40
0
 40
0
 40
0
 40
0
 40
1
 40
1
 40
1
 40
1
 10
233.000000
 20
77.700000
 30
0.0
 10
235.400000
 20
79.600000
 30
0.0
 10
237.600000
 20
80.500000
 30
0.0
 10
241.600000
 20
80.800000
 30
0.0
  0
SPLINE
  5
2f9
100
AcDbEntity
  8
0
 62
7
100
AcDbSpline
 70
8
 71
3
 72
8
 73
4
 74
0
 40
0
 40
0
 40
0
 40
0
 40
1
 40
1
 40
1
 40
1
 10
241.600000
 20
80.800000
 30
0.0
 10
245.500000
 20
81.100000
 30
0.0
 10
247.000000
 20
81.700000
 30
0.0
 10
247.000000
 20
82.700000
 30
0.0
  0
SPLINE
  5
2fa
100
AcDbEntity
  8
0
 62
7
100
AcDbSpline
 70
8
 71
3
 72
8
 73
4
 74
0
 40
0
 40
0
 40
0
 40
0
 40
1
 40
1
 40
1
 40
1
 10
247.000000
 20
82.700000
 30
0.0
 10
247.000000
 20
84.100000
 30
0.0
 10
242.400000
 20
84.200000
 30
0.0
 10
232.500000
 20
82.900000
 30
0.0
  0
SPLINE
  5
2fb
100
AcDbEntity
  8
0
 62
7
100
AcDbSpline
 70
8
 71
3
 72
8
 73
4
 74
0
 40
0
 40
0
 40
0
 40
0
 40
1
 40
1
 40
1
 40
1
 10
232.500000
 20
82.900000
 30
0.0
 10
232.000000
 20
82.800000
 30
0.0
 10
230.800000
 20
83.000000
 30
0.0
 10
230.000000
 20
83.400000
 30
0.0
  0
SPLINE
  5
2fc
100
AcDbEntity
  8
0
 62
7
100
AcDbSpline
 70
8
 71
3
 72
8
 73
4
 74
0
 40
0
 40
0
 40
0
 40
0
 40
1
 40
1
 40
1
 40
1
 10
230.000000
 20
83.400000
 30
0.0
 10
229.200000
 20
83.700000
 30
0.0
 10
227.500000
 20
83.300000
 30
0.0
 10
226.200000
 20
82.500000
 30
0.0
  0
LWPOLYLINE
  5
2fd
100
AcDbEntity
  8
0
 62
7
100
AcDbPolyline
 90
1
 70
1
 10
120.600000
 20
77.500000
 30
0.0
  0
SPLINE
  5
2fe
100
AcDbEntity
  8
0
 62
7
100
AcDbSpline
 70
8
 71
3
 72
8
 73
4
 74
0
 40
0
 40
0
 40
0
 40
0
 40
1
 40
1
 40
1
 40
1
 10
179.300000
 20
81.500000
 30
0.0
 10
176.600000
 20
79.600000
 30
0.0
 10
175.500000
 20
74.800000
 30
0.0
 10
177.000000
 20
72.000000
 30
0.0
  0
SPLINE
  5
2ff
100
AcDbEntity
  8
0
 62
7
100
AcDbSpline
 70
8
 71
3
 72
8
 73
4
 74
0
 40
0
 40
0
 40
0
 40
0
 40
1
 40
1
 40
1
 40
1
 10
177.000000
 20
72.000000
 30
0.0
 10
178.500000
 20
69.300000
 30
0.0
 10
184.500000
 20
66.700000
 30
0.0
 10
187.300000
 20
67.600000
 30
0.0
  0
SPLINE
  5
300
100
AcDbEntity
  8
0
 62
7
100
AcDbSpline
 70
8
 71
3
 72
8
 73
4
 74
0
 40
0
 40
0
 40
0
 40
0
 40
1
 40
1
 40
1
 40
1
 10
187.300000
 20
67.600000
 30
0.0
 10
193.600000
 20
69.500000
 30
0.0
 10
195.800000
 20
75.500000
 30
0.0
 10
191.900000
 20
80.400000
 30
0.0
  0
SPLINE
  5
301
100
AcDbEntity
  8
0
 62
7
100
AcDbSpline
 70
8
 71
3
 72
8
 73
4
 74
0
 40
0
 40
0
 40
0
 40
0
 40
1
 40
1
 40
1
 40
1
 10
191.900000
 20
80.400000
 30
0.0
 10
190.300000
 20
82.500000
 30
0.0
 10
189.000000
 20
83.000000
 30
0.0
 10
185.600000
 20
83.000000
 30
0.0
  0
SPLINE
  5
302
100
AcDbEntity
  8
0
 62
7
100
AcDbSpline
 70
8
 71
3
 72
8
 73
4
 74
0
 40
0
 40
0
 40
0
 40
0
 40
1
 40
1
 40
1
 40
1
 10
185.600000
 20
83.000000
 30
0.0
 10
183.300000
 20
83.000000
 30
0.0
 10
180.500000
 20
82.300000
 30
0.0
 10
179.300000
 20
81.500000
 30
0.0
  0
LWPOLYLINE
  5
303
100
AcDbEntity
  8
0
 62
7
100
AcDbPolyline
 90
1
 70
1
 10
226.200000
 20
82.500000
 30
0.0
  0
SPLINE
  5
304
100
AcDbEntity
  8
0
 62
7
100
AcDbSpline
 70
8
 71
3
 72
8
 73
4
 74
0
 40
0
 40
0
 40
0
 40
0
 40
1
 40
1
 40
1
 40
1
 10
188.800000
 20
78.800000
 30
0.0
 10
189.500000
 20
78.100000
 30
0.0
 10
190.000000
 20
76.700000
 30
0.0
 10
190.000000
 20
75.500000
 30
0.0
  0
SPLINE
  5
305
100
AcDbEntity
  8
0
 62
7
100
AcDbSpline
 70
8
 71
3
 72
8
 73
4
 74
0
 40
0
 40
0
 40
0
 40
0
 40
1
 40
1
 40
1
 40
1
 10
190.000000
 20
75.500000
 30
0.0
 10
190.000000
 20
72.600000
 30
0.0
 10
188.100000
 20
71.000000
 30
0.0
 10
184.800000
 20
71.000000
 30
0.0
  0
SPLINE
  5
306
100
AcDbEntity
  8
0
 62
7
100
AcDbSpline
 70
8
 71
3
 72
8
 73
4
 74
0
 40
0
 40
0
 40
0
 40
0
 40
1
 40
1
 40
1
 40
1
 10
184.800000
 20
71.000000
 30
0.0
 10
180.200000
 20
71.000000
 30
0.0
 10
178.200000
 20
76.800000
 30
0.0
 10
182.300000
 20
78.800000
 30
0.0
  0
SPLINE
  5
307
100
AcDbEntity
  8
0
 62
7
100
AcDbSpline
 70
8
 71
3
 72
8
 73
4
 74
0
 40
0
 40
0
 40
0
 40
0
 40
1
 40
1
 40
1
 40
1
 10
182.300000
 20
78.800000
 30
0.0
 10
185.300000
 20
80.200000
 30
0.0
 10
187.400000
 20
80.200000
 30
0.0
 10
188.800000
 20
78.800000
 30
0.0
  0
LWPOLYLINE
  5
308
100
AcDbEntity
  8
0
 62
7
100
AcDbPolyline
 90
1
 70
1
 10
179.300000
 20
81.500000
 30
0.0
  0
SPLINE
  5
309
100
AcDbEntity
  8
0
 62
7
100
AcDbSpline
 70
8
 71
3
 72
8
 73
4
 74
0
 40
0
 40
0
 40
0
 40
0
 40
1
 40
1
 40
1
 40
1
 10
139.800000
 20
80.300000
 30
0.0
 10
139.500000
 20
79.300000
 30
0.0
 10
139.400000
 20
75.600000
 30
0.0
 10
139.500000
 20
72.000000
 30
0.0
  0
SPLINE
  5
30a
100
AcDbEntity
  8
0
 62
7
100
AcDbSpline
 70
8
 71
3
 72
8
 73
4
 74
0
 40
0
 40
0
 40
0
 40
0
 40
1
 40
1
 40
1
 40
1
 10
139.500000
 20
72.000000
 30
0.0
 10
139.700000
 20
66.900000
 30
0.0
 10
139.300000
 20
64.900000
 30
0.0
 10
137.700000
 20
62.800000
 30
0.0
  0
SPLINE
  5
30b
100
AcDbEntity
  8
0
 62
7
100
AcDbSpline
 70
8
 71
3
 72
8
 73
4
 74
0
 40
0
 40
0
 40
0
 40
0
 40
1
 40
1
 40
1
 40
1
 10
137.700000
 20
62.800000
 30
0.0
 10
136.000000
 20
60.500000
 30
0.0
 10
135.800000
 20
59.600000
 30
0.0
 10
136.800000
 20
57.500000
 30
0.0
  0
SPLINE
  5
30c
100
AcDbEntity
  8
0
 62
7
100
AcDbSpline
 70
8
 71
3
 72
8
 73
4
 74
0
 40
0
 40
0
 40
0
 40
0
 40
1
 40
1
 40
1
 40
1
 10
136.800000
 20
57.500000
 30
0.0
 10
137.800000
 20
55.300000
 30
0.0
 10
138.600000
 20
54.900000
 30
0.0
 10
141.300000
 20
55.200000
 30
0.0
  0
SPLINE
  5
30d
100
AcDbEntity
  8
0
 62
7
100
AcDbSpline
 70
8
 71
3
 72
8
 73
4
 74
0
 40
0
 40
0
 40
0
 40
0
 40
1
 40
1
 40
1
 40
1
 10
141.300000
 20
55.200000
 30
0.0
 10
143.900000
 20
55.400000
 30
0.0
 10
144.600000
 20
56.000000
 30
0.0
 10
144.800000
 20
58.200000
 30
0.0
  0
SPLINE
  5
30e
100
AcDbEntity
  8
0
 62
7
100
AcDbSpline
 70
8
 71
3
 72
8
 73
4
 74
0
 40
0
 40
0
 40
0
 40
0
 40
1
 40
1
 40
1
 40
1
 10
144.800000
 20
58.200000
 30
0.0
 10
145.000000
 20
59.700000
 30
0.0
 10
144.500000
 20
61.900000
 30
0.0
 10
143.800000
 20
63.200000
 30
0.0
  0
SPLINE
  5
30f
100
AcDbEntity
  8
0
 62
7
100
AcDbSpline
 70
8
 71
3
 72
8
 73
4
 74
0
 40
0
 40
0
 40
0
 40
0
 40
1
 40
1
 40
1
 40
1
 10
143.800000
 20
63.200000
 30
0.0
 10
143.100000
 20
64.500000
 30
0.0
 10
142.700000
 20
67.800000
 30
0.0
 10
142.900000
 20
70.700000
 30
0.0
  0
SPLINE
  5
310
100
AcDbEntity
  8
0
 62
7
100
AcDbSpline
 70
8
 71
3
 72
8
 73
4
 74
0
 40
0
 40
0
 40
0
 40
0
 40
1
 40
1
 40
1
 40
1
 10
142.900000
 20
70.700000
 30
0.0
 10
143.400000
 20
78.900000
 30
0.0
 10
141.200000
 20
85.600000
 30
0.0
 10
139.800000
 20
80.300000
 30
0.0
  0
LWPOLYLINE
  5
311
100
AcDbEntity
  8
0
 62
7
100
AcDbPolyline
 90
1
 70
1
 10
188.800000
 20
78.800000
 30
0.0
  0
SPLINE
  5
312
100
AcDbEntity
  8
0
 62
7
100
AcDbSpline
 70
8
 71
3
 72
8
 73
4
 74
0
 40
0
 40
0
 40
0
 40
0
 40
1
 40
1
 40
1
 40
1
 10
240.400000
 20
73.100000
 30
0.0
 10
229.300000
 20
70.300000
 30
0.0
 10
224.500000
 20
57.500000
 30
0.0
 10
231.300000
 20
48.600000
 30
0.0
  0
SPLINE
  5
313
100
AcDbEntity
  8
0
 62
7
100
AcDbSpline
 70
8
 71
3
 72
8
 73
4
 74
0
 40
0
 40
0
 40
0
 40
0
 40
1
 40
1
 40
1
 40
1
 10
231.300000
 20
48.600000
 30
0.0
 10
240.900000
 20
36.100000
 30
0.0
 10
262.000000
 20
42.600000
 30
0.0
 10
262.000000
 20
58.100000
 30
0.0
  0
SPLINE
  5
314
100
AcDbEntity
  8
0
 62
7
100
AcDbSpline
 70
8
 71
3
 72
8
 73
4
 74
0
 40
0
 40
0
 40
0
 40
0
 40
1
 40
1
 40
1
 40
1
 10
262.000000
 20
58.100000
 30
0.0
 10
262.000000
 20
68.000000
 30
0.0
 10
251.000000
 20
75.700000
 30
0.0
 10
240.400000
 20
73.100000
 30
0.0
  0
LWPOLYLINE
  5
315
100
AcDbEntity
  8
0
 62
7
100
AcDbPolyline
 90
1
 70
1
 10
139.800000
 20
80.300000
 30
0.0
  0
SPLINE
  5
316
100
AcDbEntity
  8
0
 62
7
100
AcDbSpline
 70
8
 71
3
 72
8
 73
4
 74
0
 40
0
 40
0
 40
0
 40
0
 40
1
 40
1
 40
1
 40
1
 10
238.800000
 20
66.800000
 30
0.0
 10
237.300000
 20
64.500000
 30
0.0
 10
234.000000
 20
63.100000
 30
0.0
 10
234.000000
 20
64.700000
 30
0.0
  0
SPLINE
  5
317
100
AcDbEntity
  8
0
 62
7
100
AcDbSpline
 70
8
 71
3
 72
8
 73
4
 74
0
 40
0
 40
0
 40
0
 40
0
 40
1
 40
1
 40
1
 40
1
 10
234.000000
 20
64.700000
 30
0.0
 10
234.000000
 20
65.400000
 30
0.0
 10
238.800000
 20
68.900000
 30
0.0
 10
239.900000
 20
69.000000
 30
0.0
  0
SPLINE
  5
318
100
AcDbEntity
  8
0
 62
7
100
AcDbSpline
 70
8
 71
3
 72
8
 73
4
 74
0
 40
0
 40
0
 40
0
 40
0
 40
1
 40
1
 40
1
 40
1
 10
239.900000
 20
69.000000
 30
0.0
 10
240.100000
 20
69.000000
 30
0.0
 10
239.600000
 20
68.000000
 30
0.0
 10
238.800000
 20
66.800000
 30
0.0
  0
LWPOLYLINE
  5
319
100
AcDbEntity
  8
0
 62
7
100
AcDbPolyline
 90
1
 70
1
 10
240.400000
 20
73.100000
 30
0.0
  0
SPLINE
  5
31a
100
AcDbEntity
  8
0
 62
7
100
AcDbSpline
 70
8
 71
3
 72
8
 73
4
 74
0
 40
0
 40
0
 40
0
 40
0
 40
1
 40
1
 40
1
 40
1
 10
248.400000
 20
66.400000
 30
0.0
 10
248.700000
 20
65.500000
 30
0.0
 10
249.000000
 20
64.000000
 30
0.0
 10
249.000000
 20
62.900000
 30
0.0
  0
SPLINE
  5
31b
100
AcDbEntity
  8
0
 62
7
100
AcDbSpline
 70
8
 71
3
 72
8
 73
4
 74
0
 40
0
 40
0
 40
0
 40
0
 40
1
 40
1
 40
1
 40
1
 10
249.000000
 20
62.900000
 30
0.0
 10
249.000000
 20
61.500000
 30
0.0
 10
249.700000
 20
61.000000
 30
0.0
 10
251.900000
 20
61.000000
 30
0.0
  0
SPLINE
  5
31c
100
AcDbEntity
  8
0
 62
7
100
AcDbSpline
 70
8
 71
3
 72
8
 73
4
 74
0
 40
0
 40
0
 40
0
 40
0
 40
1
 40
1
 40
1
 40
1
 10
251.900000
 20
61.000000
 30
0.0
 10
255.100000
 20
61.000000
 30
0.0
 10
257.500000
 20
58.800000
 30
0.0
 10
256.700000
 20
56.600000
 30
0.0
  0
SPLINE
  5
31d
100
AcDbEntity
  8
0
 62
7
100
AcDbSpline
 70
8
 71
3
 72
8
 73
4
 74
0
 40
0
 40
0
 40
0
 40
0
 40
1
 40
1
 40
1
 40
1
 10
256.700000
 20
56.600000
 30
0.0
 10
256.400000
 20
55.800000
 30
0.0
 10
254.500000
 20
54.800000
 30
0.0
 10
252.600000
 20
54.500000
 30
0.0
  0
SPLINE
  5
31e
100
AcDbEntity
  8
0
 62
7
100
AcDbSpline
 70
8
 71
3
 72
8
 73
4
 74
0
 40
0
 40
0
 40
0
 40
0
 40
1
 40
1
 40
1
 40
1
 10
252.600000
 20
54.500000
 30
0.0
 10
249.800000
 20
53.900000
 30
0.0
 10
249.100000
 20
53.300000
 30
0.0
 10
248.800000
 20
51.100000
 30
0.0
  0
SPLINE
  5
31f
100
AcDbEntity
  8
0
 62
7
100
AcDbSpline
 70
8
 71
3
 72
8
 73
4
 74
0
 40
0
 40
0
 40
0
 40
0
 40
1
 40
1
 40
1
 40
1
 10
248.800000
 20
51.100000
 30
0.0
 10
248.600000
 20
49.200000
 30
0.0
 10
247.800000
 20
48.400000
 30
0.0
 10
246.100000
 20
48.200000
 30
0.0
  0
SPLINE
  5
320
100
AcDbEntity
  8
0
 62
7
100
AcDbSpline
 70
8
 71
3
 72
8
 73
4
 74
0
 40
0
 40
0
 40
0
 40
0
 40
1
 40
1
 40
1
 40
1
 10
246.100000
 20
48.200000
 30
0.0
 10
243.300000
 20
47.800000
 30
0.0
 10
241.800000
 20
49.100000
 30
0.0
 10
241.600000
 20
52.200000
 30
0.0
  0
SPLINE
  5
321
100
AcDbEntity
  8
0
 62
7
100
AcDbSpline
 70
8
 71
3
 72
8
 73
4
 74
0
 40
0
 40
0
 40
0
 40
0
 40
1
 40
1
 40
1
 40
1
 10
241.600000
 20
52.200000
 30
0.0
 10
241.500000
 20
54.100000
 30
0.0
 10
240.900000
 20
54.600000
 30
0.0
 10
237.700000
 20
54.800000
 30
0.0
  0
SPLINE
  5
322
100
AcDbEntity
  8
0
 62
7
100
AcDbSpline
 70
8
 71
3
 72
8
 73
4
 74
0
 40
0
 40
0
 40
0
 40
0
 40
1
 40
1
 40
1
 40
1
 10
237.700000
 20
54.800000
 30
0.0
 10
234.200000
 20
55.100000
 30
0.0
 10
233.900000
 20
55.400000
 30
0.0
 10
234.200000
 20
57.800000
 30
0.0
  0
SPLINE
  5
323
100
AcDbEntity
  8
0
 62
7
100
AcDbSpline
 70
8
 71
3
 72
8
 73
4
 74
0
 40
0
 40
0
 40
0
 40
0
 40
1
 40
1
 40
1
 40
1
 10
234.200000
 20
57.800000
 30
0.0
 10
234.500000
 20
60.100000
 30
0.0
 10
235.000000
 20
60.500000
 30
0.0
 10
238.300000
 20
60.800000
 30
0.0
  0
SPLINE
  5
324
100
AcDbEntity
  8
0
 62
7
100
AcDbSpline
 70
8
 71
3
 72
8
 73
4
 74
0
 40
0
 40
0
 40
0
 40
0
 40
1
 40
1
 40
1
 40
1
 10
238.300000
 20
60.800000
 30
0.0
 10
241.600000
 20
61.100000
 30
0.0
 10
242.000000
 20
61.400000
 30
0.0
 10
242.000000
 20
63.900000
 30
0.0
  0
SPLINE
  5
325
100
AcDbEntity
  8
0
 62
7
100
AcDbSpline
 70
8
 71
3
 72
8
 73
4
 74
0
 40
0
 40
0
 40
0
 40
0
 40
1
 40
1
 40
1
 40
1
 10
242.000000
 20
63.900000
 30
0.0
 10
242.000000
 20
65.400000
 30
0.0
 10
242.300000
 20
67.000000
 30
0.0
 10
242.700000
 20
67.300000
 30
0.0
  0
SPLINE
  5
326
100
AcDbEntity
  8
0
 62
7
100
AcDbSpline
 70
8
 71
3
 72
8
 73
4
 74
0
 40
0
 40
0
 40
0
 40
0
 40
1
 40
1
 40
1
 40
1
 10
242.700000
 20
67.300000
 30
0.0
 10
243.900000
 20
68.600000
 30
0.0
 10
247.800000
 20
68.000000
 30
0.0
 10
248.400000
 20
66.400000
 30
0.0
  0
LWPOLYLINE
  5
327
100
AcDbEntity
  8
0
 62
7
100
AcDbPolyline
 90
1
 70
1
 10
238.800000
 20
66.800000
 30
0.0
  0
SPLINE
  5
328
100
AcDbEntity
  8
0
 62
7
100
AcDbSpline
 70
8
 71
3
 72
8
 73
4
 74
0
 40
0
 40
0
 40
0
 40
0
 40
1
 40
1
 40
1
 40
1
 10
254.700000
 20
66.500000
 30
0.0
 10
255.500000
 20
65.600000
 30
0.0
 10
256.000000
 20
64.600000
 30
0.0
 10
255.700000
 20
64.300000
 30
0.0
  0
SPLINE
  5
329
100
AcDbEntity
  8
0
 62
7
100
AcDbSpline
 70
8
 71
3
 72
8
 73
4
 74
0
 40
0
 40
0
 40
0
 40
0
 40
1
 40
1
 40
1
 40
1
 10
255.700000
 20
64.300000
 30
0.0
 10
254.700000
 20
63.300000
 30
0.0
 10
252.000000
 20
64.900000
 30
0.0
 10
252.000000
 20
66.500000
 30
0.0
  0
SPLINE
  5
32a
100
AcDbEntity
  8
0
 62
7
100
AcDbSpline
 70
8
 71
3
 72
8
 73
4
 74
0
 40
0
 40
0
 40
0
 40
0
 40
1
 40
1
 40
1
 40
1
 10
252.000000
 20
66.500000
 30
0.0
 10
252.000000
 20
68.400000
 30
0.0
 10
252.700000
 20
68.400000
 30
0.0
 10
254.700000
 20
66.500000
 30
0.0
  0
LWPOLYLINE
  5
32b
100
AcDbEntity
  8
0
 62
7
100
AcDbPolyline
 90
1
 70
1
 10
248.400000
 20
66.400000
 30
0.0
  0
SPLINE
  5
32c
100
AcDbEntity
  8
0
 62
7
100
AcDbSpline
 70
8
 71
3
 72
8
 73
4
 74
0
 40
0
 40
0
 40
0
 40
0
 40
1
 40
1
 40
1
 40
1
 10
238.100000
 20
49.900000
 30
0.0
 10
239.200000
 20
48.800000
 30
0.0
 10
239.900000
 20
47.600000
 30
0.0
 10
239.600000
 20
47.300000
 30
0.0
  0
SPLINE
  5
32d
100
AcDbEntity
  8
0
 62
7
100
AcDbSpline
 70
8
 71
3
 72
8
 73
4
 74
0
 40
0
 40
0
 40
0
 40
0
 40
1
 40
1
 40
1
 40
1
 10
239.600000
 20
47.300000
 30
0.0
 10
238.900000
 20
46.500000
 30
0.0
 10
234.000000
 20
49.800000
 30
0.0
 10
234.000000
 20
51.000000
 30
0.0
  0
SPLINE
  5
32e
100
AcDbEntity
  8
0
 62
7
100
AcDbSpline
 70
8
 71
3
 72
8
 73
4
 74
0
 40
0
 40
0
 40
0
 40
0
 40
1
 40
1
 40
1
 40
1
 10
234.000000
 20
51.000000
 30
0.0
 10
234.000000
 20
52.600000
 30
0.0
 10
235.900000
 20
52.100000
 30
0.0
 10
238.100000
 20
49.900000
 30
0.0
  0
LWPOLYLINE
  5
32f
100
AcDbEntity
  8
0
 62
7
100
AcDbPolyline
 90
1
 70
1
 10
254.700000
 20
66.500000
 30
0.0
  0
SPLINE
  5
330
100
AcDbEntity
  8
0
 62
7
100
AcDbSpline
 70
8
 71
3
 72
8
 73
4
 74
0
 40
0
 40
0
 40
0
 40
0
 40
1
 40
1
 40
1
 40
1
 10
49.500000
 20
70.800000
 30
0.0
 10
49.800000
 20
70.100000
 30
0.0
 10
52.000000
 20
68.700000
 30
0.0
 10
54.500000
 20
67.700000
 30
0.0
  0
SPLINE
  5
331
100
AcDbEntity
  8
0
 62
7
100
AcDbSpline
 70
8
 71
3
 72
8
 73
4
 74
0
 40
0
 40
0
 40
0
 40
0
 40
1
 40
1
 40
1
 40
1
 10
54.500000
 20
67.700000
 30
0.0
 10
59.800000
 20
65.500000
 30
0.0
 10
67.200000
 20
57.600000
 30
0.0
 10
68.600000
 20
52.800000
 30
0.0
  0
SPLINE
  5
332
100
AcDbEntity
  8
0
 62
7
100
AcDbSpline
 70
8
 71
3
 72
8
 73
4
 74
0
 40
0
 40
0
 40
0
 40
0
 40
1
 40
1
 40
1
 40
1
 10
68.600000
 20
52.800000
 30
0.0
 10
69.800000
 20
48.600000
 30
0.0
 10
73.000000
 20
47.700000
 30
0.0
 10
73.000000
 20
51.500000
 30
0.0
  0
SPLINE
  5
333
100
AcDbEntity
  8
0
 62
7
100
AcDbSpline
 70
8
 71
3
 72
8
 73
4
 74
0
 40
0
 40
0
 40
0
 40
0
 40
1
 40
1
 40
1
 40
1
 10
73.000000
 20
51.500000
 30
0.0
 10
73.000000
 20
56.900000
 30
0.0
 10
65.600000
 20
66.600000
 30
0.0
 10
58.900000
 20
70.100000
 30
0.0
  0
SPLINE
  5
334
100
AcDbEntity
  8
0
 62
7
100
AcDbSpline
 70
8
 71
3
 72
8
 73
4
 74
0
 40
0
 40
0
 40
0
 40
0
 40
1
 40
1
 40
1
 40
1
 10
58.900000
 20
70.100000
 30
0.0
 10
54.500000
 20
72.300000
 30
0.0
 10
48.800000
 20
72.700000
 30
0.0
 10
49.500000
 20
70.800000
 30
0.0
  0
LWPOLYLINE
  5
335
100
AcDbEntity
  8
0
 62
7
100
AcDbPolyline
 90
1
 70
1
 10
238.100000
 20
49.900000
 30
0.0
  0
SPLINE
  5
336
100
AcDbEntity
  8
0
 62
7
100
AcDbSpline
 70
8
 71
3
 72
8
 73
4
 74
0
 40
0
 40
0
 40
0
 40
0
 40
1
 40
1
 40
1
 40
1
 10
46.000000
 20
64.100000
 30
0.0
 10
46.000000
 20
63.600000
 30
0.0
 10
47.300000
 20
62.700000
 30
0.0
 10
48.900000
 20
62.200000
 30
0.0
  0
SPLINE
  5
337
100
AcDbEntity
  8
0
 62
7
100
AcDbSpline
 70
8
 71
3
 72
8
 73
4
 74
0
 40
0
 40
0
 40
0
 40
0
 40
1
 40
1
 40
1
 40
1
 10
48.900000
 20
62.200000
 30
0.0
 10
52.800000
 20
60.800000
 30
0.0
 10
59.500000
 20
54.700000
 30
0.0
 10
61.000000
 20
51.000000
 30
0.0
  0
SPLINE
  5
338
100
AcDbEntity
  8
0
 62
7
100
AcDbSpline
 70
8
 71
3
 72
8
 73
4
 74
0
 40
0
 40
0
 40
0
 40
0
 40
1
 40
1
 40
1
 40
1
 10
61.000000
 20
51.000000
 30
0.0
 10
61.700000
 20
49.300000
 30
0.0
 10
62.900000
 20
48.000000
 30
0.0
 10
63.600000
 20
48.000000
 30
0.0
  0
SPLINE
  5
339
100
AcDbEntity
  8
0
 62
7
100
AcDbSpline
 70
8
 71
3
 72
8
 73
4
 74
0
 40
0
 40
0
 40
0
 40
0
 40
1
 40
1
 40
1
 40
1
 10
63.600000
 20
48.000000
 30
0.0
 10
68.000000
 20
48.000000
 30
0.0
 10
61.200000
 20
58.900000
 30
0.0
 10
54.500000
 20
62.700000
 30
0.0
  0
SPLINE
  5
33a
100
AcDbEntity
  8
0
 62
7
100
AcDbSpline
 70
8
 71
3
 72
8
 73
4
 74
0
 40
0
 40
0
 40
0
 40
0
 40
1
 40
1
 40
1
 40
1
 10
54.500000
 20
62.700000
 30
0.0
 10
50.400000
 20
65.000000
 30
0.0
 10
46.000000
 20
65.700000
 30
0.0
 10
46.000000
 20
64.100000
 30
0.0
  0
LWPOLYLINE
  5
33b
100
AcDbEntity
  8
0
 62
7
100
AcDbPolyline
 90
1
 70
1
 10
49.500000
 20
70.800000
 30
0.0
  0
SPLINE
  5
33c
100
AcDbEntity
  8
0
 62
7
100
AcDbSpline
 70
8
 71
3
 72
8
 73
4
 74
0
 40
0
 40
0
 40
0
 40
0
 40
1
 40
1
 40
1
 40
1
 10
180.600000
 20
63.100000
 30
0.0
 10
179.900000
 20
62.000000
 30
0.0
 10
182.400000
 20
59.800000
 30
0.0
 10
183.300000
 20
60.700000
 30
0.0
  0
SPLINE
  5
33d
100
AcDbEntity
  8
0
 62
7
100
AcDbSpline
 70
8
 71
3
 72
8
 73
4
 74
0
 40
0
 40
0
 40
0
 40
0
 40
1
 40
1
 40
1
 40
1
 10
183.300000
 20
60.700000
 30
0.0
 10
183.700000
 20
61.000000
 30
0.0
 10
184.000000
 20
61.900000
 30
0.0
 10
184.000000
 20
62.700000
 30
0.0
  0
SPLINE
  5
33e
100
AcDbEntity
  8
0
 62
7
100
AcDbSpline
 70
8
 71
3
 72
8
 73
4
 74
0
 40
0
 40
0
 40
0
 40
0
 40
1
 40
1
 40
1
 40
1
 10
184.000000
 20
62.700000
 30
0.0
 10
184.000000
 20
64.200000
 30
0.0
 10
181.400000
 20
64.500000
 30
0.0
 10
180.600000
 20
63.100000
 30
0.0
  0
LWPOLYLINE
  5
33f
100
AcDbEntity
  8
0
 62
7
100
AcDbPolyline
 90
1
 70
1
 10
46.000000
 20
64.100000
 30
0.0
  0
SPLINE
  5
340
100
AcDbEntity
  8
0
 62
7
100
AcDbSpline
 70
8
 71
3
 72
8
 73
4
 74
0
 40
0
 40
0
 40
0
 40
0
 40
1
 40
1
 40
1
 40
1
 10
101.200000
 20
61.800000
 30
0.0
 10
99.600000
 20
60.200000
 30
0.0
 10
99.700000
 20
58.500000
 30
0.0
 10
101.400000
 20
57.100000
 30
0.0
  0
SPLINE
  5
341
100
AcDbEntity
  8
0
 62
7
100
AcDbSpline
 70
8
 71
3
 72
8
 73
4
 74
0
 40
0
 40
0
 40
0
 40
0
 40
1
 40
1
 40
1
 40
1
 10
101.400000
 20
57.100000
 30
0.0
 10
104.400000
 20
54.600000
 30
0.0
 10
108.100000
 20
58.700000
 30
0.0
 10
105.400000
 20
61.500000
 30
0.0
  0
SPLINE
  5
342
100
AcDbEntity
  8
0
 62
7
100
AcDbSpline
 70
8
 71
3
 72
8
 73
4
 74
0
 40
0
 40
0
 40
0
 40
0
 40
1
 40
1
 40
1
 40
1
 10
105.400000
 20
61.500000
 30
0.0
 10
103.500000
 20
63.300000
 30
0.0
 10
102.800000
 20
63.400000
 30
0.0
 10
101.200000
 20
61.800000
 30
0.0
  0
LWPOLYLINE
  5
343
100
AcDbEntity
  8
0
 62
7
100
AcDbPolyline
 90
1
 70
1
 10
180.600000
 20
63.100000
 30
0.0
  0
SPLINE
  5
344
100
AcDbEntity
  8
0
 62
7
100
AcDbSpline
 70
8
 71
3
 72
8
 73
4
 74
0
 40
0
 40
0
 40
0
 40
0
 40
1
 40
1
 40
1
 40
1
 10
194.400000
 20
60.600000
 30
0.0
 10
193.400000
 20
58.000000
 30
0.0
 10
194.800000
 20
55.800000
 30
0.0
 10
197.200000
 20
56.200000
 30
0.0
  0
SPLINE
  5
345
100
AcDbEntity
  8
0
 62
7
100
AcDbSpline
 70
8
 71
3
 72
8
 73
4
 74
0
 40
0
 40
0
 40
0
 40
0
 40
1
 40
1
 40
1
 40
1
 10
197.200000
 20
56.200000
 30
0.0
 10
198.900000
 20
56.400000
 30
0.0
 10
199.500000
 20
57.200000
 30
0.0
 10
199.500000
 20
59.000000
 30
0.0
  0
SPLINE
  5
346
100
AcDbEntity
  8
0
 62
7
100
AcDbSpline
 70
8
 71
3
 72
8
 73
4
 74
0
 40
0
 40
0
 40
0
 40
0
 40
1
 40
1
 40
1
 40
1
 10
199.500000
 20
59.000000
 30
0.0
 10
199.500000
 20
60.800000
 30
0.0
 10
198.900000
 20
61.600000
 30
0.0
 10
197.200000
 20
61.800000
 30
0.0
  0
SPLINE
  5
347
100
AcDbEntity
  8
0
 62
7
100
AcDbSpline
 70
8
 71
3
 72
8
 73
4
 74
0
 40
0
 40
0
 40
0
 40
0
 40
1
 40
1
 40
1
 40
1
 10
197.200000
 20
61.800000
 30
0.0
 10
195.900000
 20
62.000000
 30
0.0
 10
194.700000
 20
61.500000
 30
0.0
 10
194.400000
 20
60.600000
 30
0.0
  0
LWPOLYLINE
  5
348
100
AcDbEntity
  8
0
 62
7
100
AcDbPolyline
 90
1
 70
1
 10
101.200000
 20
61.800000
 30
0.0
  0
SPLINE
  5
349
100
AcDbEntity
  8
0
 62
7
100
AcDbSpline
 70
8
 71
3
 72
8
 73
4
 74
0
 40
0
 40
0
 40
0
 40
0
 40
1
 40
1
 40
1
 40
1
 10
43.500000
 20
58.100000
 30
0.0
 10
43.200000
 20
57.600000
 30
0.0
 10
44.000000
 20
56.800000
 30
0.0
 10
45.200000
 20
56.500000
 30
0.0
  0
SPLINE
  5
34a
100
AcDbEntity
  8
0
 62
7
100
AcDbSpline
 70
8
 71
3
 72
8
 73
4
 74
0
 40
0
 40
0
 40
0
 40
0
 40
1
 40
1
 40
1
 40
1
 10
45.200000
 20
56.500000
 30
0.0
 10
48.200000
 20
55.600000
 30
0.0
 10
53.000000
 20
51.100000
 30
0.0
 10
54.100000
 20
48.100000
 30
0.0
  0
SPLINE
  5
34b
100
AcDbEntity
  8
0
 62
7
100
AcDbSpline
 70
8
 71
3
 72
8
 73
4
 74
0
 40
0
 40
0
 40
0
 40
0
 40
1
 40
1
 40
1
 40
1
 10
54.100000
 20
48.100000
 30
0.0
 10
54.800000
 20
46.300000
 30
0.0
 10
55.400000
 20
46.000000
 30
0.0
 10
56.200000
 20
46.800000
 30
0.0
  0
SPLINE
  5
34c
100
AcDbEntity
  8
0
 62
7
100
AcDbSpline
 70
8
 71
3
 72
8
 73
4
 74
0
 40
0
 40
0
 40
0
 40
0
 40
1
 40
1
 40
1
 40
1
 10
56.200000
 20
46.800000
 30
0.0
 10
57.900000
 20
48.500000
 30
0.0
 10
53.500000
 20
54.700000
 30
0.0
 10
48.900000
 20
57.000000
 30
0.0
  0
SPLINE
  5
34d
100
AcDbEntity
  8
0
 62
7
100
AcDbSpline
 70
8
 71
3
 72
8
 73
4
 74
0
 40
0
 40
0
 40
0
 40
0
 40
1
 40
1
 40
1
 40
1
 10
48.900000
 20
57.000000
 30
0.0
 10
44.500000
 20
59.300000
 30
0.0
 10
44.300000
 20
59.300000
 30
0.0
 10
43.500000
 20
58.100000
 30
0.0
  0
LWPOLYLINE
  5
34e
100
AcDbEntity
  8
0
 62
7
100
AcDbPolyline
 90
1
 70
1
 10
194.400000
 20
60.600000
 30
0.0
  0
SPLINE
  5
34f
100
AcDbEntity
  8
0
 62
7
100
AcDbSpline
 70
8
 71
3
 72
8
 73
4
 74
0
 40
0
 40
0
 40
0
 40
0
 40
1
 40
1
 40
1
 40
1
 10
83.800000
 20
48.900000
 30
0.0
 10
81.200000
 20
47.400000
 30
0.0
 10
81.600000
 20
43.300000
 30
0.0
 10
84.500000
 20
41.400000
 30
0.0
  0
SPLINE
  5
350
100
AcDbEntity
  8
0
 62
7
100
AcDbSpline
 70
8
 71
3
 72
8
 73
4
 74
0
 40
0
 40
0
 40
0
 40
0
 40
1
 40
1
 40
1
 40
1
 10
84.500000
 20
41.400000
 30
0.0
 10
86.800000
 20
39.900000
 30
0.0
 10
87.200000
 20
39.900000
 30
0.0
 10
89.500000
 20
41.400000
 30
0.0
  0
SPLINE
  5
351
100
AcDbEntity
  8
0
 62
7
100
AcDbSpline
 70
8
 71
3
 72
8
 73
4
 74
0
 40
0
 40
0
 40
0
 40
0
 40
1
 40
1
 40
1
 40
1
 10
89.500000
 20
41.400000
 30
0.0
 10
95.400000
 20
45.300000
 30
0.0
 10
89.900000
 20
52.500000
 30
0.0
 10
83.800000
 20
48.900000
 30
0.0
  0
LWPOLYLINE
  5
352
100
AcDbEntity
  8
0
 62
7
100
AcDbPolyline
 90
1
 70
1
 10
43.500000
 20
58.100000
 30
0.0
  0
SPLINE
  5
353
100
AcDbEntity
  8
0
 62
7
100
AcDbSpline
 70
8
 71
3
 72
8
 73
4
 74
0
 40
0
 40
0
 40
0
 40
0
 40
1
 40
1
 40
1
 40
1
 10
208.700000
 20
48.200000
 30
0.0
 10
207.700000
 20
47.200000
 30
0.0
 10
207.000000
 20
45.800000
 30
0.0
 10
207.000000
 20
45.200000
 30
0.0
  0
SPLINE
  5
354
100
AcDbEntity
  8
0
 62
7
100
AcDbSpline
 70
8
 71
3
 72
8
 73
4
 74
0
 40
0
 40
0
 40
0
 40
0
 40
1
 40
1
 40
1
 40
1
 10
207.000000
 20
45.200000
 30
0.0
 10
207.000000
 20
43.500000
 30
0.0
 10
210.700000
 20
40.000000
 30
0.0
 10
212.500000
 20
40.000000
 30
0.0
  0
SPLINE
  5
355
100
AcDbEntity
  8
0
 62
7
100
AcDbSpline
 70
8
 71
3
 72
8
 73
4
 74
0
 40
0
 40
0
 40
0
 40
0
 40
1
 40
1
 40
1
 40
1
 10
212.500000
 20
40.000000
 30
0.0
 10
214.200000
 20
40.000000
 30
0.0
 10
218.000000
 20
43.500000
 30
0.0
 10
218.000000
 20
45.000000
 30
0.0
  0
SPLINE
  5
356
100
AcDbEntity
  8
0
 62
7
100
AcDbSpline
 70
8
 71
3
 72
8
 73
4
 74
0
 40
0
 40
0
 40
0
 40
0
 40
1
 40
1
 40
1
 40
1
 10
218.000000
 20
45.000000
 30
0.0
 10
218.000000
 20
46.700000
 30
0.0
 10
214.100000
 20
50.000000
 30
0.0
 10
212.200000
 20
50.000000
 30
0.0
  0
SPLINE
  5
357
100
AcDbEntity
  8
0
 62
7
100
AcDbSpline
 70
8
 71
3
 72
8
 73
4
 74
0
 40
0
 40
0
 40
0
 40
0
 40
1
 40
1
 40
1
 40
1
 10
212.200000
 20
50.000000
 30
0.0
 10
211.100000
 20
50.000000
 30
0.0
 10
209.600000
 20
49.200000
 30
0.0
 10
208.700000
 20
48.200000
 30
0.0
  0
LWPOLYLINE
  5
358
100
AcDbEntity
  8
0
 62
7
100
AcDbPolyline
 90
1
 70
1
 10
83.800000
 20
48.900000
 30
0.0
  0
SPLINE
  5
359
100
AcDbEntity
  8
0
 62
7
100
AcDbSpline
 70
8
 71
3
 72
8
 73
4
 74
0
 40
0
 40
0
 40
0
 40
0
 40
1
 40
1
 40
1
 40
1
 10
178.600000
 20
45.100000
 30
0.0
 10
175.200000
 20
41.400000
 30
0.0
 10
180.200000
 20
36.600000
 30
0.0
 10
184.600000
 20
39.500000
 30
0.0
  0
SPLINE
  5
35a
100
AcDbEntity
  8
0
 62
7
100
AcDbSpline
 70
8
 71
3
 72
8
 73
4
 74
0
 40
0
 40
0
 40
0
 40
0
 40
1
 40
1
 40
1
 40
1
 10
184.600000
 20
39.500000
 30
0.0
 10
187.500000
 20
41.400000
 30
0.0
 10
187.700000
 20
44.500000
 30
0.0
 10
185.100000
 20
46.000000
 30
0.0
  0
SPLINE
  5
35b
100
AcDbEntity
  8
0
 62
7
100
AcDbSpline
 70
8
 71
3
 72
8
 73
4
 74
0
 40
0
 40
0
 40
0
 40
0
 40
1
 40
1
 40
1
 40
1
 10
185.100000
 20
46.000000
 30
0.0
 10
182.300000
 20
47.500000
 30
0.0
 10
180.500000
 20
47.200000
 30
0.0
 10
178.600000
 20
45.100000
 30
0.0
  0
LWPOLYLINE
  5
35c
100
AcDbEntity
  8
0
 62
7
100
AcDbPolyline
 90
1
 70
1
 10
208.700000
 20
48.200000
 30
0.0
  0
SPLINE
  5
35d
100
AcDbEntity
  8
0
 62
7
100
AcDbSpline
 70
8
 71
3
 72
8
 73
4
 74
0
 40
0
 40
0
 40
0
 40
0
 40
1
 40
1
 40
1
 40
1
 10
29.700000
 20
30.400000
 30
0.0
 10
29.300000
 20
30.000000
 30
0.0
 10
29.000000
 20
23.200000
 30
0.0
 10
29.000000
 20
15.300000
 30
0.0
  0
LWPOLYLINE
  5
35e
100
AcDbEntity
  8
0
 62
7
100
AcDbPolyline
 90
1
 70
1
 10
178.600000
 20
45.100000
 30
0.0
  0
SPLINE
  5
35f
100
AcDbEntity
  8
0
 62
7
100
AcDbSpline
 70
8
 71
3
 72
8
 73
4
 74
0
 40
0
 40
0
 40
0
 40
0
 40
1
 40
1
 40
1
 40
1
 10
33.800000
 20
15.700000
 30
0.0
 10
33.500000
 20
28.100000
 30
0.0
 10
33.300000
 20
30.500000
 30
0.0
 10
32.000000
 20
30.800000
 30
0.0
  0
SPLINE
  5
360
100
AcDbEntity
  8
0
 62
7
100
AcDbSpline
 70
8
 71
3
 72
8
 73
4
 74
0
 40
0
 40
0
 40
0
 40
0
 40
1
 40
1
 40
1
 40
1
 10
32.000000
 20
30.800000
 30
0.0
 10
31.100000
 20
30.900000
 30
0.0
 10
30.100000
 20
30.800000
 30
0.0
 10
29.700000
 20
30.400000
 30
0.0
  0
LWPOLYLINE
  5
361
100
AcDbEntity
  8
0
 62
7
100
AcDbPolyline
 90
5
 70
0
 10
29.000000
 20
15.300000
 30
0.0
 10
29.000000
 20
1.000000
 30
0.0
 10
31.500000
 20
1.000000
 30
0.0
 10
34.100000
 20
1.000000
 30
0.0
 10
33.800000
 20
15.700000
 30
0.0
  0
SPLINE
  5
362
100
AcDbEntity
  8
0
 62
7
100
AcDbSpline
 70
8
 71
3
 72
8
 73
4
 74
0
 40
0
 40
0
 40
0
 40
0
 40
1
 40
1
 40
1
 40
1
 10
45.700000
 20
30.300000
 30
0.0
 10
45.300000
 20
30.000000
 30
0.0
 10
45.000000
 20
23.200000
 30
0.0
 10
45.000000
 20
15.300000
 30
0.0
  0
LWPOLYLINE
  5
363
100
AcDbEntity
  8
0
 62
7
100
AcDbPolyline
 90
1
 70
1
 10
29.700000
 20
30.400000
 30
0.0
  0
SPLINE
  5
364
100
AcDbEntity
  8
0
 62
7
100
AcDbSpline
 70
8
 71
3
 72
8
 73
4
 74
0
 40
0
 40
0
 40
0
 40
0
 40
1
 40
1
 40
1
 40
1
 10
47.500000
 20
1.000000
 30
0.0
 10
49.900000
 20
1.000000
 30
0.0
 10
49.900000
 20
1.100000
 30
0.0
 10
50.200000
 20
10.900000
 30
0.0
  0
LWPOLYLINE
  5
365
100
AcDbEntity
  8
0
 62
7
100
AcDbPolyline
 90
3
 70
0
 10
45.000000
 20
15.300000
 30
0.0
 10
45.000000
 20
1.000000
 30
0.0
 10
47.500000
 20
1.000000
 30
0.0
  0
SPLINE
  5
366
100
AcDbEntity
  8
0
 62
7
100
AcDbSpline
 70
8
 71
3
 72
8
 73
4
 74
0
 40
0
 40
0
 40
0
 40
0
 40
1
 40
1
 40
1
 40
1
 10
56.600000
 20
11.200000
 30
0.0
 10
61.500000
 20
3.400000
 30
0.0
 10
63.200000
 20
1.500000
 30
0.0
 10
65.100000
 20
1.500000
 30
0.0
  0
LWPOLYLINE
  5
367
100
AcDbEntity
  8
0
 62
7
100
AcDbPolyline
 90
3
 70
0
 10
50.200000
 20
10.900000
 30
0.0
 10
50.500000
 20
20.900000
 30
0.0
 10
56.600000
 20
11.200000
 30
0.0
  0
SPLINE
  5
368
100
AcDbEntity
  8
0
 62
7
100
AcDbSpline
 70
8
 71
3
 72
8
 73
4
 74
0
 40
0
 40
0
 40
0
 40
0
 40
1
 40
1
 40
1
 40
1
 10
67.500000
 20
16.000000
 30
0.0
 10
67.500000
 20
30.300000
 30
0.0
 10
67.500000
 20
30.500000
 30
0.0
 10
65.300000
 20
30.800000
 30
0.0
  0
SPLINE
  5
369
100
AcDbEntity
  8
0
 62
7
100
AcDbSpline
 70
8
 71
3
 72
8
 73
4
 74
0
 40
0
 40
0
 40
0
 40
0
 40
1
 40
1
 40
1
 40
1
 10
65.300000
 20
30.800000
 30
0.0
 10
63.000000
 20
31.100000
 30
0.0
 10
63.000000
 20
31.000000
 30
0.0
 10
63.000000
 20
20.400000
 30
0.0
  0
LWPOLYLINE
  5
36a
100
AcDbEntity
  8
0
 62
7
100
AcDbPolyline
 90
3
 70
0
 10
65.100000
 20
1.500000
 30
0.0
 10
67.400000
 20
1.500000
 30
0.0
 10
67.500000
 20
16.000000
 30
0.0
  0
SPLINE
  5
36b
100
AcDbEntity
  8
0
 62
7
100
AcDbSpline
 70
8
 71
3
 72
8
 73
4
 74
0
 40
0
 40
0
 40
0
 40
0
 40
1
 40
1
 40
1
 40
1
 10
56.300000
 20
20.300000
 30
0.0
 10
50.100000
 20
30.100000
 30
0.0
 10
47.700000
 20
32.400000
 30
0.0
 10
45.700000
 20
30.300000
 30
0.0
  0
LWPOLYLINE
  5
36c
100
AcDbEntity
  8
0
 62
7
100
AcDbPolyline
 90
3
 70
0
 10
63.000000
 20
20.400000
 30
0.0
 10
63.000000
 20
9.600000
 30
0.0
 10
56.300000
 20
20.300000
 30
0.0
  0
SPLINE
  5
36d
100
AcDbEntity
  8
0
 62
7
100
AcDbSpline
 70
8
 71
3
 72
8
 73
4
 74
0
 40
0
 40
0
 40
0
 40
0
 40
1
 40
1
 40
1
 40
1
 10
102.000000
 20
27.300000
 30
0.0
 10
96.200000
 20
21.300000
 30
0.0
 10
95.700000
 20
11.400000
 30
0.0
 10
101.100000
 20
4.700000
 30
0.0
  0
SPLINE
  5
36e
100
AcDbEntity
  8
0
 62
7
100
AcDbSpline
 70
8
 71
3
 72
8
 73
4
 74
0
 40
0
 40
0
 40
0
 40
0
 40
1
 40
1
 40
1
 40
1
 10
101.100000
 20
4.700000
 30
0.0
 10
105.600000
 20
-1.100000
 30
0.0
 10
116.400000
 20
-0.700000
 30
0.0
 10
120.000000
 20
5.300000
 30
0.0
  0
SPLINE
  5
36f
100
AcDbEntity
  8
0
 62
7
100
AcDbSpline
 70
8
 71
3
 72
8
 73
4
 74
0
 40
0
 40
0
 40
0
 40
0
 40
1
 40
1
 40
1
 40
1
 10
120.000000
 20
5.300000
 30
0.0
 10
122.800000
 20
9.800000
 30
0.0
 10
122.600000
 20
12.000000
 30
0.0
 10
119.500000
 20
12.000000
 30
0.0
  0
SPLINE
  5
370
100
AcDbEntity
  8
0
 62
7
100
AcDbSpline
 70
8
 71
3
 72
8
 73
4
 74
0
 40
0
 40
0
 40
0
 40
0
 40
1
 40
1
 40
1
 40
1
 10
119.500000
 20
12.000000
 30
0.0
 10
117.700000
 20
12.000000
 30
0.0
 10
117.000000
 20
11.500000
 30
0.0
 10
117.000000
 20
10.200000
 30
0.0
  0
SPLINE
  5
371
100
AcDbEntity
  8
0
 62
7
100
AcDbSpline
 70
8
 71
3
 72
8
 73
4
 74
0
 40
0
 40
0
 40
0
 40
0
 40
1
 40
1
 40
1
 40
1
 10
117.000000
 20
10.200000
 30
0.0
 10
117.000000
 20
5.300000
 30
0.0
 10
108.800000
 20
3.200000
 30
0.0
 10
105.100000
 20
7.200000
 30
0.0
  0
SPLINE
  5
372
100
AcDbEntity
  8
0
 62
7
100
AcDbSpline
 70
8
 71
3
 72
8
 73
4
 74
0
 40
0
 40
0
 40
0
 40
0
 40
1
 40
1
 40
1
 40
1
 10
105.100000
 20
7.200000
 30
0.0
 10
100.400000
 20
12.200000
 30
0.0
 10
101.800000
 20
23.200000
 30
0.0
 10
107.300000
 20
25.800000
 30
0.0
  0
SPLINE
  5
373
100
AcDbEntity
  8
0
 62
7
100
AcDbSpline
 70
8
 71
3
 72
8
 73
4
 74
0
 40
0
 40
0
 40
0
 40
0
 40
1
 40
1
 40
1
 40
1
 10
107.300000
 20
25.800000
 30
0.0
 10
111.100000
 20
27.700000
 30
0.0
 10
115.500000
 20
25.900000
 30
0.0
 10
116.900000
 20
21.900000
 30
0.0
  0
SPLINE
  5
374
100
AcDbEntity
  8
0
 62
7
100
AcDbSpline
 70
8
 71
3
 72
8
 73
4
 74
0
 40
0
 40
0
 40
0
 40
0
 40
1
 40
1
 40
1
 40
1
 10
116.900000
 20
21.900000
 30
0.0
 10
117.600000
 20
19.900000
 30
0.0
 10
118.600000
 20
19.000000
 30
0.0
 10
120.100000
 20
19.000000
 30
0.0
  0
SPLINE
  5
375
100
AcDbEntity
  8
0
 62
7
100
AcDbSpline
 70
8
 71
3
 72
8
 73
4
 74
0
 40
0
 40
0
 40
0
 40
0
 40
1
 40
1
 40
1
 40
1
 10
120.100000
 20
19.000000
 30
0.0
 10
122.000000
 20
19.000000
 30
0.0
 10
122.200000
 20
19.400000
 30
0.0
 10
121.600000
 20
22.300000
 30
0.0
  0
SPLINE
  5
376
100
AcDbEntity
  8
0
 62
7
100
AcDbSpline
 70
8
 71
3
 72
8
 73
4
 74
0
 40
0
 40
0
 40
0
 40
0
 40
1
 40
1
 40
1
 40
1
 10
121.600000
 20
22.300000
 30
0.0
 10
120.700000
 20
27.300000
 30
0.0
 10
115.900000
 20
31.000000
 30
0.0
 10
110.400000
 20
31.000000
 30
0.0
  0
SPLINE
  5
377
100
AcDbEntity
  8
0
 62
7
100
AcDbSpline
 70
8
 71
3
 72
8
 73
4
 74
0
 40
0
 40
0
 40
0
 40
0
 40
1
 40
1
 40
1
 40
1
 10
110.400000
 20
31.000000
 30
0.0
 10
106.400000
 20
31.000000
 30
0.0
 10
105.300000
 20
30.500000
 30
0.0
 10
102.000000
 20
27.300000
 30
0.0
  0
LWPOLYLINE
  5
378
100
AcDbEntity
  8
0
 62
7
100
AcDbPolyline
 90
1
 70
1
 10
45.700000
 20
30.300000
 30
0.0
  0
SPLINE
  5
379
100
AcDbEntity
  8
0
 62
7
100
AcDbSpline
 70
8
 71
3
 72
8
 73
4
 74
0
 40
0
 40
0
 40
0
 40
0
 40
1
 40
1
 40
1
 40
1
 10
128.500000
 20
30.100000
 30
0.0
 10
128.200000
 20
29.600000
 30
0.0
 10
130.200000
 20
25.400000
 30
0.0
 10
133.000000
 20
20.800000
 30
0.0
  0
SPLINE
  5
37a
100
AcDbEntity
  8
0
 62
7
100
AcDbSpline
 70
8
 71
3
 72
8
 73
4
 74
0
 40
0
 40
0
 40
0
 40
0
 40
1
 40
1
 40
1
 40
1
 10
133.000000
 20
20.800000
 30
0.0
 10
137.500000
 20
13.400000
 30
0.0
 10
138.000000
 20
11.900000
 30
0.0
 10
138.000000
 20
6.800000
 30
0.0
  0
SPLINE
  5
37b
100
AcDbEntity
  8
0
 62
7
100
AcDbSpline
 70
8
 71
3
 72
8
 73
4
 74
0
 40
0
 40
0
 40
0
 40
0
 40
1
 40
1
 40
1
 40
1
 10
138.000000
 20
6.800000
 30
0.0
 10
138.000000
 20
1.300000
 30
0.0
 10
138.100000
 20
1.000000
 30
0.0
 10
140.500000
 20
1.000000
 30
0.0
  0
SPLINE
  5
37c
100
AcDbEntity
  8
0
 62
7
100
AcDbSpline
 70
8
 71
3
 72
8
 73
4
 74
0
 40
0
 40
0
 40
0
 40
0
 40
1
 40
1
 40
1
 40
1
 10
140.500000
 20
1.000000
 30
0.0
 10
142.900000
 20
1.000000
 30
0.0
 10
143.000000
 20
1.300000
 30
0.0
 10
143.000000
 20
7.300000
 30
0.0
  0
SPLINE
  5
37d
100
AcDbEntity
  8
0
 62
7
100
AcDbSpline
 70
8
 71
3
 72
8
 73
4
 74
0
 40
0
 40
0
 40
0
 40
0
 40
1
 40
1
 40
1
 40
1
 10
143.000000
 20
7.300000
 30
0.0
 10
143.100000
 20
13.000000
 30
0.0
 10
143.500000
 20
14.200000
 30
0.0
 10
147.900000
 20
21.500000
 30
0.0
  0
SPLINE
  5
37e
100
AcDbEntity
  8
0
 62
7
100
AcDbSpline
 70
8
 71
3
 72
8
 73
4
 74
0
 40
0
 40
0
 40
0
 40
0
 40
1
 40
1
 40
1
 40
1
 10
147.900000
 20
21.500000
 30
0.0
 10
150.600000
 20
25.900000
 30
0.0
 10
152.600000
 20
29.800000
 30
0.0
 10
152.400000
 20
30.200000
 30
0.0
  0
SPLINE
  5
37f
100
AcDbEntity
  8
0
 62
7
100
AcDbSpline
 70
8
 71
3
 72
8
 73
4
 74
0
 40
0
 40
0
 40
0
 40
0
 40
1
 40
1
 40
1
 40
1
 10
152.400000
 20
30.200000
 30
0.0
 10
152.100000
 20
30.700000
 30
0.0
 10
151.000000
 20
31.000000
 30
0.0
 10
150.000000
 20
31.000000
 30
0.0
  0
SPLINE
  5
380
100
AcDbEntity
  8
0
 62
7
100
AcDbSpline
 70
8
 71
3
 72
8
 73
4
 74
0
 40
0
 40
0
 40
0
 40
0
 40
1
 40
1
 40
1
 40
1
 10
150.000000
 20
31.000000
 30
0.0
 10
148.700000
 20
31.000000
 30
0.0
 10
146.900000
 20
28.900000
 30
0.0
 10
144.500000
 20
24.500000
 30
0.0
  0
SPLINE
  5
381
100
AcDbEntity
  8
0
 62
7
100
AcDbSpline
 70
8
 71
3
 72
8
 73
4
 74
0
 40
0
 40
0
 40
0
 40
0
 40
1
 40
1
 40
1
 40
1
 10
144.500000
 20
24.500000
 30
0.0
 10
142.500000
 20
20.900000
 30
0.0
 10
140.700000
 20
18.000000
 30
0.0
 10
140.400000
 20
18.000000
 30
0.0
  0
SPLINE
  5
382
100
AcDbEntity
  8
0
 62
7
100
AcDbSpline
 70
8
 71
3
 72
8
 73
4
 74
0
 40
0
 40
0
 40
0
 40
0
 40
1
 40
1
 40
1
 40
1
 10
140.400000
 20
18.000000
 30
0.0
 10
140.200000
 20
18.000000
 30
0.0
 10
138.400000
 20
20.900000
 30
0.0
 10
136.300000
 20
24.500000
 30
0.0
  0
SPLINE
  5
383
100
AcDbEntity
  8
0
 62
7
100
AcDbSpline
 70
8
 71
3
 72
8
 73
4
 74
0
 40
0
 40
0
 40
0
 40
0
 40
1
 40
1
 40
1
 40
1
 10
136.300000
 20
24.500000
 30
0.0
 10
132.800000
 20
30.600000
 30
0.0
 10
130.100000
 20
32.600000
 30
0.0
 10
128.500000
 20
30.100000
 30
0.0
  0
LWPOLYLINE
  5
384
100
AcDbEntity
  8
0
 62
7
100
AcDbPolyline
 90
1
 70
1
 10
102.000000
 20
27.300000
 30
0.0
  0
SPLINE
  5
385
100
AcDbEntity
  8
0
 62
7
100
AcDbSpline
 70
8
 71
3
 72
8
 73
4
 74
0
 40
0
 40
0
 40
0
 40
0
 40
1
 40
1
 40
1
 40
1
 10
160.800000
 20
30.400000
 30
0.0
 10
160.300000
 20
30.000000
 30
0.0
 10
160.000000
 20
23.200000
 30
0.0
 10
160.000000
 20
15.300000
 30
0.0
  0
LWPOLYLINE
  5
386
100
AcDbEntity
  8
0
 62
7
100
AcDbPolyline
 90
1
 70
1
 10
128.500000
 20
30.100000
 30
0.0
  0
SPLINE
  5
387
100
AcDbEntity
  8
0
 62
7
100
AcDbSpline
 70
8
 71
3
 72
8
 73
4
 74
0
 40
0
 40
0
 40
0
 40
0
 40
1
 40
1
 40
1
 40
1
 10
162.500000
 20
1.000000
 30
0.0
 10
164.900000
 20
1.000000
 30
0.0
 10
165.000000
 20
1.300000
 30
0.0
 10
165.000000
 20
6.400000
 30
0.0
  0
LWPOLYLINE
  5
388
100
AcDbEntity
  8
0
 62
7
100
AcDbPolyline
 90
3
 70
0
 10
160.000000
 20
15.300000
 30
0.0
 10
160.000000
 20
1.000000
 30
0.0
 10
162.500000
 20
1.000000
 30
0.0
  0
SPLINE
  5
389
100
AcDbEntity
  8
0
 62
7
100
AcDbSpline
 70
8
 71
3
 72
8
 73
4
 74
0
 40
0
 40
0
 40
0
 40
0
 40
1
 40
1
 40
1
 40
1
 10
170.800000
 20
12.300000
 30
0.0
 10
175.300000
 20
12.800000
 30
0.0
 10
177.000000
 20
13.500000
 30
0.0
 10
178.800000
 20
15.500000
 30
0.0
  0
SPLINE
  5
38a
100
AcDbEntity
  8
0
 62
7
100
AcDbSpline
 70
8
 71
3
 72
8
 73
4
 74
0
 40
0
 40
0
 40
0
 40
0
 40
1
 40
1
 40
1
 40
1
 10
178.800000
 20
15.500000
 30
0.0
 10
181.800000
 20
19.000000
 30
0.0
 10
181.700000
 20
24.100000
 30
0.0
 10
178.600000
 20
27.700000
 30
0.0
  0
SPLINE
  5
38b
100
AcDbEntity
  8
0
 62
7
100
AcDbSpline
 70
8
 71
3
 72
8
 73
4
 74
0
 40
0
 40
0
 40
0
 40
0
 40
1
 40
1
 40
1
 40
1
 10
178.600000
 20
27.700000
 30
0.0
 10
176.500000
 20
30.200000
 30
0.0
 10
175.400000
 20
30.500000
 30
0.0
 10
168.900000
 20
30.800000
 30
0.0
  0
SPLINE
  5
38c
100
AcDbEntity
  8
0
 62
7
100
AcDbSpline
 70
8
 71
3
 72
8
 73
4
 74
0
 40
0
 40
0
 40
0
 40
0
 40
1
 40
1
 40
1
 40
1
 10
168.900000
 20
30.800000
 30
0.0
 10
164.800000
 20
31.000000
 30
0.0
 10
161.200000
 20
30.800000
 30
0.0
 10
160.800000
 20
30.400000
 30
0.0
  0
LWPOLYLINE
  5
38d
100
AcDbEntity
  8
0
 62
7
100
AcDbPolyline
 90
3
 70
0
 10
165.000000
 20
6.400000
 30
0.0
 10
165.000000
 20
11.700000
 30
0.0
 10
170.800000
 20
12.300000
 30
0.0
  0
SPLINE
  5
38e
100
AcDbEntity
  8
0
 62
7
100
AcDbSpline
 70
8
 71
3
 72
8
 73
4
 74
0
 40
0
 40
0
 40
0
 40
0
 40
1
 40
1
 40
1
 40
1
 10
174.800000
 20
24.800000
 30
0.0
 10
175.500000
 20
24.100000
 30
0.0
 10
176.000000
 20
22.700000
 30
0.0
 10
176.000000
 20
21.500000
 30
0.0
  0
SPLINE
  5
38f
100
AcDbEntity
  8
0
 62
7
100
AcDbSpline
 70
8
 71
3
 72
8
 73
4
 74
0
 40
0
 40
0
 40
0
 40
0
 40
1
 40
1
 40
1
 40
1
 10
176.000000
 20
21.500000
 30
0.0
 10
176.000000
 20
18.300000
 30
0.0
 10
174.000000
 20
17.000000
 30
0.0
 10
169.300000
 20
17.000000
 30
0.0
  0
LWPOLYLINE
  5
390
100
AcDbEntity
  8
0
 62
7
100
AcDbPolyline
 90
1
 70
1
 10
160.800000
 20
30.400000
 30
0.0
  0
SPLINE
  5
391
100
AcDbEntity
  8
0
 62
7
100
AcDbSpline
 70
8
 71
3
 72
8
 73
4
 74
0
 40
0
 40
0
 40
0
 40
0
 40
1
 40
1
 40
1
 40
1
 10
169.300000
 20
26.000000
 30
0.0
 10
171.700000
 20
26.000000
 30
0.0
 10
174.100000
 20
25.500000
 30
0.0
 10
174.800000
 20
24.800000
 30
0.0
  0
LWPOLYLINE
  5
392
100
AcDbEntity
  8
0
 62
7
100
AcDbPolyline
 90
5
 70
0
 10
169.300000
 20
17.000000
 30
0.0
 10
165.000000
 20
17.000000
 30
0.0
 10
165.000000
 20
21.500000
 30
0.0
 10
165.000000
 20
26.000000
 30
0.0
 10
169.300000
 20
26.000000
 30
0.0
  0
SPLINE
  5
393
100
AcDbEntity
  8
0
 62
7
100
AcDbSpline
 70
8
 71
3
 72
8
 73
4
 74
0
 40
0
 40
0
 40
0
 40
0
 40
1
 40
1
 40
1
 40
1
 10
189.700000
 20
30.300000
 30
0.0
 10
189.300000
 20
30.000000
 30
0.0
 10
189.000000
 20
23.200000
 30
0.0
 10
189.000000
 20
15.300000
 30
0.0
  0
LWPOLYLINE
  5
394
100
AcDbEntity
  8
0
 62
7
100
AcDbPolyline
 90
1
 70
1
 10
174.800000
 20
24.800000
 30
0.0
  0
SPLINE
  5
395
100
AcDbEntity
  8
0
 62
7
100
AcDbSpline
 70
8
 71
3
 72
8
 73
4
 74
0
 40
0
 40
0
 40
0
 40
0
 40
1
 40
1
 40
1
 40
1
 10
191.500000
 20
1.000000
 30
0.0
 10
193.900000
 20
1.000000
 30
0.0
 10
194.000000
 20
1.200000
 30
0.0
 10
194.000000
 20
7.500000
 30
0.0
  0
LWPOLYLINE
  5
396
100
AcDbEntity
  8
0
 62
7
100
AcDbPolyline
 90
3
 70
0
 10
189.000000
 20
15.300000
 30
0.0
 10
189.000000
 20
1.000000
 30
0.0
 10
191.500000
 20
1.000000
 30
0.0
  0
SPLINE
  5
397
100
AcDbEntity
  8
0
 62
7
100
AcDbSpline
 70
8
 71
3
 72
8
 73
4
 74
0
 40
0
 40
0
 40
0
 40
0
 40
1
 40
1
 40
1
 40
1
 10
207.000000
 20
7.500000
 30
0.0
 10
207.000000
 20
1.200000
 30
0.0
 10
207.100000
 20
1.000000
 30
0.0
 10
209.500000
 20
1.000000
 30
0.0
  0
LWPOLYLINE
  5
398
100
AcDbEntity
  8
0
 62
7
100
AcDbPolyline
 90
5
 70
0
 10
194.000000
 20
7.500000
 30
0.0
 10
194.000000
 20
14.000000
 30
0.0
 10
200.500000
 20
14.000000
 30
0.0
 10
207.000000
 20
14.000000
 30
0.0
 10
207.000000
 20
7.500000
 30
0.0
  0
SPLINE
  5
399
100
AcDbEntity
  8
0
 62
7
100
AcDbSpline
 70
8
 71
3
 72
8
 73
4
 74
0
 40
0
 40
0
 40
0
 40
0
 40
1
 40
1
 40
1
 40
1
 10
211.800000
 20
15.800000
 30
0.0
 10
211.500000
 20
30.200000
 30
0.0
 10
211.500000
 20
30.500000
 30
0.0
 10
209.300000
 20
30.800000
 30
0.0
  0
SPLINE
  5
39a
100
AcDbEntity
  8
0
 62
7
100
AcDbSpline
 70
8
 71
3
 72
8
 73
4
 74
0
 40
0
 40
0
 40
0
 40
0
 40
1
 40
1
 40
1
 40
1
 10
209.300000
 20
30.800000
 30
0.0
 10
207.100000
 20
31.100000
 30
0.0
 10
207.000000
 20
30.800000
 30
0.0
 10
207.000000
 20
24.600000
 30
0.0
  0
LWPOLYLINE
  5
39b
100
AcDbEntity
  8
0
 62
7
100
AcDbPolyline
 90
3
 70
0
 10
209.500000
 20
1.000000
 30
0.0
 10
212.100000
 20
1.000000
 30
0.0
 10
211.800000
 20
15.800000
 30
0.0
  0
SPLINE
  5
39c
100
AcDbEntity
  8
0
 62
7
100
AcDbSpline
 70
8
 71
3
 72
8
 73
4
 74
0
 40
0
 40
0
 40
0
 40
0
 40
1
 40
1
 40
1
 40
1
 10
194.000000
 20
24.500000
 30
0.0
 10
194.000000
 20
30.100000
 30
0.0
 10
193.800000
 20
31.000000
 30
0.0
 10
192.200000
 20
31.000000
 30
0.0
  0
SPLINE
  5
39d
100
AcDbEntity
  8
0
 62
7
100
AcDbSpline
 70
8
 71
3
 72
8
 73
4
 74
0
 40
0
 40
0
 40
0
 40
0
 40
1
 40
1
 40
1
 40
1
 10
192.200000
 20
31.000000
 30
0.0
 10
191.200000
 20
31.000000
 30
0.0
 10
190.000000
 20
30.700000
 30
0.0
 10
189.700000
 20
30.300000
 30
0.0
  0
LWPOLYLINE
  5
39e
100
AcDbEntity
  8
0
 62
7
100
AcDbPolyline
 90
5
 70
0
 10
207.000000
 20
24.600000
 30
0.0
 10
207.000000
 20
18.000000
 30
0.0
 10
200.500000
 20
18.000000
 30
0.0
 10
194.000000
 20
18.000000
 30
0.0
 10
194.000000
 20
24.500000
 30
0.0
  0
SPLINE
  5
39f
100
AcDbEntity
  8
0
 62
7
100
AcDbSpline
 70
8
 71
3
 72
8
 73
4
 74
0
 40
0
 40
0
 40
0
 40
0
 40
1
 40
1
 40
1
 40
1
 10
223.700000
 20
30.400000
 30
0.0
 10
223.300000
 20
30.000000
 30
0.0
 10
223.000000
 20
23.200000
 30
0.0
 10
223.000000
 20
15.300000
 30
0.0
  0
LWPOLYLINE
  5
3a0
100
AcDbEntity
  8
0
 62
7
100
AcDbPolyline
 90
1
 70
1
 10
189.700000
 20
30.300000
 30
0.0
  0
SPLINE
  5
3a1
100
AcDbEntity
  8
0
 62
7
100
AcDbSpline
 70
8
 71
3
 72
8
 73
4
 74
0
 40
0
 40
0
 40
0
 40
0
 40
1
 40
1
 40
1
 40
1
 10
233.000000
 20
1.000000
 30
0.0
 10
242.300000
 20
1.000000
 30
0.0
 10
243.000000
 20
1.100000
 30
0.0
 10
243.000000
 20
3.000000
 30
0.0
  0
SPLINE
  5
3a2
100
AcDbEntity
  8
0
 62
7
100
AcDbSpline
 70
8
 71
3
 72
8
 73
4
 74
0
 40
0
 40
0
 40
0
 40
0
 40
1
 40
1
 40
1
 40
1
 10
243.000000
 20
3.000000
 30
0.0
 10
243.000000
 20
4.800000
 30
0.0
 10
242.300000
 20
5.000000
 30
0.0
 10
235.500000
 20
5.000000
 30
0.0
  0
LWPOLYLINE
  5
3a3
100
AcDbEntity
  8
0
 62
7
100
AcDbPolyline
 90
3
 70
0
 10
223.000000
 20
15.300000
 30
0.0
 10
223.000000
 20
1.000000
 30
0.0
 10
233.000000
 20
1.000000
 30
0.0
  0
SPLINE
  5
3a4
100
AcDbEntity
  8
0
 62
7
100
AcDbSpline
 70
8
 71
3
 72
8
 73
4
 74
0
 40
0
 40
0
 40
0
 40
0
 40
1
 40
1
 40
1
 40
1
 10
234.700000
 20
14.200000
 30
0.0
 10
240.200000
 20
14.400000
 30
0.0
 10
241.500000
 20
14.800000
 30
0.0
 10
241.800000
 20
16.300000
 30
0.0
  0
SPLINE
  5
3a5
100
AcDbEntity
  8
0
 62
7
100
AcDbSpline
 70
8
 71
3
 72
8
 73
4
 74
0
 40
0
 40
0
 40
0
 40
0
 40
1
 40
1
 40
1
 40
1
 10
241.800000
 20
16.300000
 30
0.0
 10
242.100000
 20
17.800000
 30
0.0
 10
241.300000
 20
18.000000
 30
0.0
 10
235.100000
 20
18.000000
 30
0.0
  0
LWPOLYLINE
  5
3a6
100
AcDbEntity
  8
0
 62
7
100
AcDbPolyline
 90
5
 70
0
 10
235.500000
 20
5.000000
 30
0.0
 10
228.000000
 20
5.000000
 30
0.0
 10
228.000000
 20
9.500000
 30
0.0
 10
228.000000
 20
13.900000
 30
0.0
 10
234.700000
 20
14.200000
 30
0.0
  0
SPLINE
  5
3a7
100
AcDbEntity
  8
0
 62
7
100
AcDbSpline
 70
8
 71
3
 72
8
 73
4
 74
0
 40
0
 40
0
 40
0
 40
0
 40
1
 40
1
 40
1
 40
1
 10
235.300000
 20
26.200000
 30
0.0
 10
241.700000
 20
26.500000
 30
0.0
 10
242.500000
 20
26.700000
 30
0.0
 10
242.500000
 20
28.500000
 30
0.0
  0
SPLINE
  5
3a8
100
AcDbEntity
  8
0
 62
7
100
AcDbSpline
 70
8
 71
3
 72
8
 73
4
 74
0
 40
0
 40
0
 40
0
 40
0
 40
1
 40
1
 40
1
 40
1
 10
242.500000
 20
28.500000
 30
0.0
 10
242.500000
 20
30.300000
 30
0.0
 10
241.700000
 20
30.500000
 30
0.0
 10
233.500000
 20
30.800000
 30
0.0
  0
SPLINE
  5
3a9
100
AcDbEntity
  8
0
 62
7
100
AcDbSpline
 70
8
 71
3
 72
8
 73
4
 74
0
 40
0
 40
0
 40
0
 40
0
 40
1
 40
1
 40
1
 40
1
 10
233.500000
 20
30.800000
 30
0.0
 10
228.500000
 20
30.900000
 30
0.0
 10
224.100000
 20
30.800000
 30
0.0
 10
223.700000
 20
30.400000
 30
0.0
  0
LWPOLYLINE
  5
3aa
100
AcDbEntity
  8
0
 62
7
100
AcDbPolyline
 90
5
 70
0
 10
235.100000
 20
18.000000
 30
0.0
 10
228.000000
 20
18.000000
 30
0.0
 10
228.000000
 20
22.000000
 30
0.0
 10
228.000000
 20
25.900000
 30
0.0
 10
235.300000
 20
26.200000
 30
0.0
  0
LWPOLYLINE
  5
3ab
100
AcDbEntity
  8
0
 62
7
100
AcDbPolyline
 90
1
 70
1
 10
223.700000
 20
30.400000
 30
0.0
  0
SPLINE
  5
3ac
100
AcDbEntity
  8
0
 62
7
100
AcDbSpline
 70
8
 71
3
 72
8
 73
4
 74
0
 40
0
 40
0
 40
0
 40
0
 40
1
 40
1
 40
1
 40
1
 10
255.300000
 20
1.200000
 30
0.0
 10
257.200000
 20
1.500000
 30
0.0
 10
257.500000
 20
2.200000
 30
0.0
 10
257.800000
 20
7.300000
 30
0.0
  0
SPLINE
  5
3ad
100
AcDbEntity
  8
0
 62
7
100
AcDbSpline
 70
8
 71
3
 72
8
 73
4
 74
0
 40
0
 40
0
 40
0
 40
0
 40
1
 40
1
 40
1
 40
1
 10
257.800000
 20
7.300000
 30
0.0
 10
258.100000
 20
12.900000
 30
0.0
 10
258.200000
 20
13.000000
 30
0.0
 10
261.000000
 20
13.000000
 30
0.0
  0
SPLINE
  5
3ae
100
AcDbEntity
  8
0
 62
7
100
AcDbSpline
 70
8
 71
3
 72
8
 73
4
 74
0
 40
0
 40
0
 40
0
 40
0
 40
1
 40
1
 40
1
 40
1
 10
261.000000
 20
13.000000
 30
0.0
 10
263.600000
 20
13.000000
 30
0.0
 10
264.300000
 20
12.300000
 30
0.0
 10
267.000000
 20
7.000000
 30
0.0
  0
SPLINE
  5
3af
100
AcDbEntity
  8
0
 62
7
100
AcDbSpline
 70
8
 71
3
 72
8
 73
4
 74
0
 40
0
 40
0
 40
0
 40
0
 40
1
 40
1
 40
1
 40
1
 10
267.000000
 20
7.000000
 30
0.0
 10
269.500000
 20
2.100000
 30
0.0
 10
270.500000
 20
1.000000
 30
0.0
 10
272.500000
 20
1.000000
 30
0.0
  0
SPLINE
  5
3b0
100
AcDbEntity
  8
0
 62
7
100
AcDbSpline
 70
8
 71
3
 72
8
 73
4
 74
0
 40
0
 40
0
 40
0
 40
0
 40
1
 40
1
 40
1
 40
1
 10
272.500000
 20
1.000000
 30
0.0
 10
273.900000
 20
1.000000
 30
0.0
 10
275.000000
 20
1.200000
 30
0.0
 10
275.000000
 20
1.500000
 30
0.0
  0
SPLINE
  5
3b1
100
AcDbEntity
  8
0
 62
7
100
AcDbSpline
 70
8
 71
3
 72
8
 73
4
 74
0
 40
0
 40
0
 40
0
 40
0
 40
1
 40
1
 40
1
 40
1
 10
275.000000
 20
1.500000
 30
0.0
 10
275.000000
 20
1.800000
 30
0.0
 10
273.600000
 20
4.500000
 30
0.0
 10
272.000000
 20
7.400000
 30
0.0
  0
LWPOLYLINE
  5
3b2
100
AcDbEntity
  8
0
 62
7
100
AcDbPolyline
 90
2
 70
0
 10
253.000000
 20
16.000000
 30
0.0
 10
255.300000
 20
1.200000
 30
0.0
  0
SPLINE
  5
3b3
100
AcDbEntity
  8
0
 62
7
100
AcDbSpline
 70
8
 71
3
 72
8
 73
4
 74
0
 40
0
 40
0
 40
0
 40
0
 40
1
 40
1
 40
1
 40
1
 10
271.500000
 20
15.400000
 30
0.0
 10
274.800000
 20
18.700000
 30
0.0
 10
274.900000
 20
23.900000
 30
0.0
 10
271.600000
 20
27.700000
 30
0.0
  0
SPLINE
  5
3b4
100
AcDbEntity
  8
0
 62
7
100
AcDbSpline
 70
8
 71
3
 72
8
 73
4
 74
0
 40
0
 40
0
 40
0
 40
0
 40
1
 40
1
 40
1
 40
1
 10
271.600000
 20
27.700000
 30
0.0
 10
269.400000
 20
30.200000
 30
0.0
 10
268.500000
 20
30.500000
 30
0.0
 10
261.100000
 20
30.800000
 30
0.0
  0
LWPOLYLINE
  5
3b5
100
AcDbEntity
  8
0
 62
7
100
AcDbPolyline
 90
3
 70
0
 10
272.000000
 20
7.400000
 30
0.0
 10
268.900000
 20
12.800000
 30
0.0
 10
271.500000
 20
15.400000
 30
0.0
  0
SPLINE
  5
3b6
100
AcDbEntity
  8
0
 62
7
100
AcDbSpline
 70
8
 71
3
 72
8
 73
4
 74
0
 40
0
 40
0
 40
0
 40
0
 40
1
 40
1
 40
1
 40
1
 10
268.800000
 20
22.700000
 30
0.0
 10
269.300000
 20
18.700000
 30
0.0
 10
267.400000
 20
17.000000
 30
0.0
 10
262.500000
 20
17.000000
 30
0.0
  0
LWPOLYLINE
  5
3b7
100
AcDbEntity
  8
0
 62
7
100
AcDbPolyline
 90
4
 70
0
 10
261.100000
 20
30.800000
 30
0.0
 10
253.000000
 20
31.200000
 30
0.0
 10
253.000000
 20
16.000000
 30
0.0
 10
253.000000
 20
16.000000
 30
0.0
  0
SPLINE
  5
3b8
100
AcDbEntity
  8
0
 62
7
100
AcDbSpline
 70
8
 71
3
 72
8
 73
4
 74
0
 40
0
 40
0
 40
0
 40
0
 40
1
 40
1
 40
1
 40
1
 10
263.000000
 20
25.800000
 30
0.0
 10
268.200000
 20
25.500000
 30
0.0
 10
268.500000
 20
25.300000
 30
0.0
 10
268.800000
 20
22.700000
 30
0.0
  0
LWPOLYLINE
  5
3b9
100
AcDbEntity
  8
0
 62
7
100
AcDbPolyline
 90
5
 70
0
 10
262.500000
 20
17.000000
 30
0.0
 10
258.200000
 20
17.000000
 30
0.0
 10
257.800000
 20
21.500000
 30
0.0
 10
257.500000
 20
26.100000
 30
0.0
 10
263.000000
 20
25.800000
 30
0.0
  0
SPLINE
  5
3ba
100
AcDbEntity
  8
0
 62
7
100
AcDbSpline
 70
8
 71
3
 72
8
 73
4
 74
0
 40
0
 40
0
 40
0
 40
0
 40
1
 40
1
 40
1
 40
1
 10
78.000000
 20
12.600000
 30
0.0
 10
78.000000
 20
10.300000
 30
0.0
 10
78.300000
 20
10.200000
 30
0.0
 10
83.300000
 20
10.300000
 30
0.0
  0
SPLINE
  5
3bb
100
AcDbEntity
  8
0
 62
7
100
AcDbSpline
 70
8
 71
3
 72
8
 73
4
 74
0
 40
0
 40
0
 40
0
 40
0
 40
1
 40
1
 40
1
 40
1
 10
83.300000
 20
10.300000
 30
0.0
 10
87.800000
 20
10.500000
 30
0.0
 10
88.500000
 20
10.800000
 30
0.0
 10
88.500000
 20
12.500000
 30
0.0
  0
SPLINE
  5
3bc
100
AcDbEntity
  8
0
 62
7
100
AcDbSpline
 70
8
 71
3
 72
8
 73
4
 74
0
 40
0
 40
0
 40
0
 40
0
 40
1
 40
1
 40
1
 40
1
 10
88.500000
 20
12.500000
 30
0.0
 10
88.500000
 20
14.200000
 30
0.0
 10
87.700000
 20
14.500000
 30
0.0
 10
83.300000
 20
14.800000
 30
0.0
  0
SPLINE
  5
3bd
100
AcDbEntity
  8
0
 62
7
100
AcDbSpline
 70
8
 71
3
 72
8
 73
4
 74
0
 40
0
 40
0
 40
0
 40
0
 40
1
 40
1
 40
1
 40
1
 10
83.300000
 20
14.800000
 30
0.0
 10
78.200000
 20
15.100000
 30
0.0
 10
78.000000
 20
15.000000
 30
0.0
 10
78.000000
 20
12.600000
 30
0.0
  0
LWPOLYLINE
  5
3be
100
AcDbEntity
  8
0
 62
7
100
AcDbPolyline
 90
1
 70
1
 10
268.800000
 20
22.700000
 30
0.0
  0
LWPOLYLINE
  5
3bf
100
AcDbEntity
  8
0
 62
7
100
AcDbPolyline
 90
1
 70
1
 10
78.000000
 20
12.600000
 30
0.0
  0
ENDSEC
  0
SECTION
  2
OBJECTS
  0
DICTIONARY
  5
C
330
0
100
AcDbDictionary
  3
ACAD_GROUP
350
D
  3
ACAD_MLINESTYLE
350
17
  0
DICTIONARY
  5
D
330
C
100
AcDbDictionary
  0
DICTIONARY
  5
1A
330
C
100
AcDbDictionary
  0
DICTIONARY
  5
17
330
C
100
AcDbDictionary
  3
STANDARD
350
18
  0
DICTIONARY
  5
19
330
C
100
AcDbDictionary
  0
ENDSEC
  0
EOF
