  0
SECTION
  2
HEADER
  9
$ACADVER
  1
AC1014
  9
$HANDSEED
  5
FFFF
  9
$INSUNITS
 70
     0
  9
$MEASUREMENT
 70
     1
  0
ENDSEC
  0
SECTION
  2
TABLES
  0
TABLE
  2
VPORT
  5
8
330
0
100
AcDbSymbolTable
 70
     4
  0
VPORT
  5
2E
330
8
100
AcDbSymbolTableRecord
100
AcDbViewportTableRecord
  2
*ACTIVE
 70
     0
 10
0.0
 20
0.0
 11
1.0
 21
1.0
 12
210.0
 22
148.5
 13
0.0
 23
0.0
 14
10.0
 24
10.0
 15
10.0
 25
10.0
 16
0.0
 26
0.0
 36
1.0
 17
0.0
 27
0.0
 37
0.0
 40
341.0
 41
1.24
 42
50.0
 43
0.0
 44
0.0
 50
0.0
 51
0.0
 71
     0
 72
   100
 73
     1
 74
     3
 75
     0
 76
     0
 77
     0
 78
     0
  0
ENDTAB
  0
TABLE
  2
LTYPE
  5
5
330
0
100
AcDbSymbolTable
 70
     1
  0
LTYPE
  5
14
330
5
100
AcDbSymbolTableRecord
100
AcDbLinetypeTableRecord
  2
BYBLOCK
 70
     0
  3

 72
    65
 73
     0
 40
0.0
  0
LTYPE
  5
15
330
5
100
AcDbSymbolTableRecord
100
AcDbLinetypeTableRecord
  2
BYLAYER
 70
     0
  3

 72
    65
 73
     0
 40
0.0
  0
LTYPE
  5
16
330
5
100
AcDbSymbolTableRecord
100
AcDbLinetypeTableRecord
  2
CONTINUOUS
 70
     0
  3
Solid line
 72
    65
 73
     0
 40
0.0
  0
ENDTAB
  0
TABLE
  2
LAYER
  5
2
100
AcDbSymbolTable
 70
1
  0
LAYER
  5
50
100
AcDbSymbolTableRecord
100
AcDbLayerTableRecord
  2
0
 70
0
  6
CONTINUOUS
  0
ENDTAB
  0
TABLE
  2
STYLE
  5
3
330
0
100
AcDbSymbolTable
 70
     1
  0
STYLE
  5
11
330
3
100
AcDbSymbolTableRecord
100
AcDbTextStyleTableRecord
  2
STANDARD
 70
     0
 40
0.0
 41
1.0
 50
0.0
 71
     0
 42
2.5
  3
txt
  4

  0
ENDTAB
  0
TABLE
  2
VIEW
  5
6
330
0
100
AcDbSymbolTable
 70
     0
  0
ENDTAB
  0
TABLE
  2
UCS
  5
7
330
0
100
AcDbSymbolTable
 70
     0
  0
ENDTAB
  0
TABLE
  2
APPID
  5
9
330
0
100
AcDbSymbolTable
 70
     2
  0
APPID
  5
12
330
9
100
AcDbSymbolTableRecord
100
AcDbRegAppTableRecord
  2
ACAD
 70
     0
  0
ENDTAB
  0
TABLE
  2
DIMSTYLE
  5
A
330
0
100
AcDbSymbolTable
 70
     1
  0
DIMSTYLE
105
27
330
A
100
AcDbSymbolTableRecord
100
AcDbDimStyleTableRecord
  2
ISO-25
 70
     0
  3

  4

  5

  6

  7

 40
1.0
 41
2.5
 42
0.625
 43
3.75
 44
1.25
 45
0.0
 46
0.0
 47
0.0
 48
0.0
140
2.5
141
2.5
142
0.0
143
0.03937007874016
144
1.0
145
0.0
146
1.0
147
0.625
 71
     0
 72
     0
 73
     0
 74
     0
 75
     0
 76
     0
 77
     1
 78
     8
170
     0
171
     3
172
     1
173
     0
174
     0
175
     0
176
     0
177
     0
178
     0
270
     2
271
     2
272
     2
273
     2
274
     3
340
11
275
     0
280
     0
281
     0
282
     0
283
     0
284
     8
285
     0
286
     0
287
     3
288
     0
  0
ENDTAB
  0
TABLE
  2
BLOCK_RECORD
  5
1
330
0
100
AcDbSymbolTable
 70
     1
  0
BLOCK_RECORD
  5
1F
330
1
100
AcDbSymbolTableRecord
100
AcDbBlockTableRecord
  2
*MODEL_SPACE
  0
BLOCK_RECORD
  5
1B
330
1
100
AcDbSymbolTableRecord
100
AcDbBlockTableRecord
  2
*PAPER_SPACE
  0
ENDTAB
  0
ENDSEC
  0
SECTION
  2
BLOCKS
  0
BLOCK
  5
20
330
1F
100
AcDbEntity
  8
0
100
AcDbBlockBegin
  2
*MODEL_SPACE
 70
     0
 10
0.0
 20
0.0
 30
0.0
  3
*MODEL_SPACE
  1

  0
ENDBLK
  5
21
330
1F
100
AcDbEntity
  8
0
100
AcDbBlockEnd
  0
BLOCK
  5
1C
330
1B
100
AcDbEntity
 67
     1
  8
0
100
AcDbBlockBegin
  2
*PAPER_SPACE
  1

  0
ENDBLK
  5
1D
330
1B
100
AcDbEntity
 67
     1
  8
0
100
AcDbBlockEnd
  0
ENDSEC
  0
SECTION
  2
ENTITIES
  0
SPLINE
  5
100
100
AcDbEntity
  8
0
 62
7
100
AcDbSpline
 70
8
 71
3
 72
8
 73
4
 74
0
 40
0
 40
0
 40
0
 40
0
 40
1
 40
1
 40
1
 40
1
 10
101.500000
 20
253.000000
 30
0.0
 10
64.400000
 20
245.500000
 30
0.0
 10
32.200000
 20
221.200000
 30
0.0
 10
14.900000
 20
187.600000
 30
0.0
  0
SPLINE
  5
101
100
AcDbEntity
  8
0
 62
7
100
AcDbSpline
 70
8
 71
3
 72
8
 73
4
 74
0
 40
0
 40
0
 40
0
 40
0
 40
1
 40
1
 40
1
 40
1
 10
14.900000
 20
187.600000
 30
0.0
 10
5.900000
 20
170.200000
 30
0.0
 10
0.900000
 20
151.800000
 30
0.0
 10
1.100000
 20
136.600000
 30
0.0
  0
SPLINE
  5
102
100
AcDbEntity
  8
0
 62
7
100
AcDbSpline
 70
8
 71
3
 72
8
 73
4
 74
0
 40
0
 40
0
 40
0
 40
0
 40
1
 40
1
 40
1
 40
1
 10
1.100000
 20
136.600000
 30
0.0
 10
1.200000
 20
130.700000
 30
0.0
 10
1.300000
 20
130.000000
 30
0.0
 10
2.100000
 20
132.500000
 30
0.0
  0
SPLINE
  5
103
100
AcDbEntity
  8
0
 62
7
100
AcDbSpline
 70
8
 71
3
 72
8
 73
4
 74
0
 40
0
 40
0
 40
0
 40
0
 40
1
 40
1
 40
1
 40
1
 10
2.100000
 20
132.500000
 30
0.0
 10
2.600000
 20
134.200000
 30
0.0
 10
3.700000
 20
139.800000
 30
0.0
 10
4.500000
 20
145.000000
 30
0.0
  0
SPLINE
  5
104
100
AcDbEntity
  8
0
 62
7
100
AcDbSpline
 70
8
 71
3
 72
8
 73
4
 74
0
 40
0
 40
0
 40
0
 40
0
 40
1
 40
1
 40
1
 40
1
 10
4.500000
 20
145.000000
 30
0.0
 10
9.900000
 20
180.200000
 30
0.0
 10
28.400000
 20
210.400000
 30
0.0
 10
56.500000
 20
229.900000
 30
0.0
  0
SPLINE
  5
105
100
AcDbEntity
  8
0
 62
7
100
AcDbSpline
 70
8
 71
3
 72
8
 73
4
 74
0
 40
0
 40
0
 40
0
 40
0
 40
1
 40
1
 40
1
 40
1
 10
56.500000
 20
229.900000
 30
0.0
 10
71.500000
 20
240.400000
 30
0.0
 10
86.400000
 20
246.400000
 30
0.0
 10
109.000000
 20
251.100000
 30
0.0
  0
SPLINE
  5
106
100
AcDbEntity
  8
0
 62
7
100
AcDbSpline
 70
8
 71
3
 72
8
 73
4
 74
0
 40
0
 40
0
 40
0
 40
0
 40
1
 40
1
 40
1
 40
1
 10
109.000000
 20
251.100000
 30
0.0
 10
123.200000
 20
254.100000
 30
0.0
 10
129.900000
 20
254.500000
 30
0.0
 10
137.300000
 20
252.700000
 30
0.0
  0
SPLINE
  5
107
100
AcDbEntity
  8
0
 62
7
100
AcDbSpline
 70
8
 71
3
 72
8
 73
4
 74
0
 40
0
 40
0
 40
0
 40
0
 40
1
 40
1
 40
1
 40
1
 10
137.300000
 20
252.700000
 30
0.0
 10
140.700000
 20
251.800000
 30
0.0
 10
147.300000
 20
250.400000
 30
0.0
 10
152.000000
 20
249.400000
 30
0.0
  0
SPLINE
  5
108
100
AcDbEntity
  8
0
 62
7
100
AcDbSpline
 70
8
 71
3
 72
8
 73
4
 74
0
 40
0
 40
0
 40
0
 40
0
 40
1
 40
1
 40
1
 40
1
 10
152.000000
 20
249.400000
 30
0.0
 10
163.400000
 20
247.200000
 30
0.0
 10
170.600000
 20
244.700000
 30
0.0
 10
182.200000
 20
239.000000
 30
0.0
  0
SPLINE
  5
109
100
AcDbEntity
  8
0
 62
7
100
AcDbSpline
 70
8
 71
3
 72
8
 73
4
 74
0
 40
0
 40
0
 40
0
 40
0
 40
1
 40
1
 40
1
 40
1
 10
182.200000
 20
239.000000
 30
0.0
 10
192.900000
 20
233.700000
 30
0.0
 10
195.200000
 20
232.100000
 30
0.0
 10
205.500000
 20
223.800000
 30
0.0
  0
SPLINE
  5
10a
100
AcDbEntity
  8
0
 62
7
100
AcDbSpline
 70
8
 71
3
 72
8
 73
4
 74
0
 40
0
 40
0
 40
0
 40
0
 40
1
 40
1
 40
1
 40
1
 10
205.500000
 20
223.800000
 30
0.0
 10
227.800000
 20
205.800000
 30
0.0
 10
242.700000
 20
180.500000
 30
0.0
 10
248.600000
 20
150.400000
 30
0.0
  0
SPLINE
  5
10b
100
AcDbEntity
  8
0
 62
7
100
AcDbSpline
 70
8
 71
3
 72
8
 73
4
 74
0
 40
0
 40
0
 40
0
 40
0
 40
1
 40
1
 40
1
 40
1
 10
248.600000
 20
150.400000
 30
0.0
 10
251.400000
 20
136.000000
 30
0.0
 10
250.500000
 20
111.000000
 30
0.0
 10
246.800000
 20
99.000000
 30
0.0
  0
SPLINE
  5
10c
100
AcDbEntity
  8
0
 62
7
100
AcDbSpline
 70
8
 71
3
 72
8
 73
4
 74
0
 40
0
 40
0
 40
0
 40
0
 40
1
 40
1
 40
1
 40
1
 10
246.800000
 20
99.000000
 30
0.0
 10
243.700000
 20
89.100000
 30
0.0
 10
238.700000
 20
76.500000
 30
0.0
 10
235.500000
 20
70.400000
 30
0.0
  0
SPLINE
  5
10d
100
AcDbEntity
  8
0
 62
7
100
AcDbSpline
 70
8
 71
3
 72
8
 73
4
 74
0
 40
0
 40
0
 40
0
 40
0
 40
1
 40
1
 40
1
 40
1
 10
235.500000
 20
70.400000
 30
0.0
 10
220.600000
 20
42.300000
 30
0.0
 10
192.900000
 20
20.000000
 30
0.0
 10
161.000000
 20
10.500000
 30
0.0
  0
SPLINE
  5
10e
100
AcDbEntity
  8
0
 62
7
100
AcDbSpline
 70
8
 71
3
 72
8
 73
4
 74
0
 40
0
 40
0
 40
0
 40
0
 40
1
 40
1
 40
1
 40
1
 10
161.000000
 20
10.500000
 30
0.0
 10
156.700000
 20
9.200000
 30
0.0
 10
151.600000
 20
7.900000
 30
0.0
 10
149.800000
 20
7.600000
 30
0.0
  0
SPLINE
  5
10f
100
AcDbEntity
  8
0
 62
7
100
AcDbSpline
 70
8
 71
3
 72
8
 73
4
 74
0
 40
0
 40
0
 40
0
 40
0
 40
1
 40
1
 40
1
 40
1
 10
149.800000
 20
7.600000
 30
0.0
 10
148.000000
 20
7.300000
 30
0.0
 10
145.400000
 20
6.800000
 30
0.0
 10
144.000000
 20
6.500000
 30
0.0
  0
SPLINE
  5
110
100
AcDbEntity
  8
0
 62
7
100
AcDbSpline
 70
8
 71
3
 72
8
 73
4
 74
0
 40
0
 40
0
 40
0
 40
0
 40
1
 40
1
 40
1
 40
1
 10
144.000000
 20
6.500000
 30
0.0
 10
136.100000
 20
4.800000
 30
0.0
 10
117.600000
 20
5.300000
 30
0.0
 10
105.200000
 20
7.500000
 30
0.0
  0
SPLINE
  5
111
100
AcDbEntity
  8
0
 62
7
100
AcDbSpline
 70
8
 71
3
 72
8
 73
4
 74
0
 40
0
 40
0
 40
0
 40
0
 40
1
 40
1
 40
1
 40
1
 10
105.200000
 20
7.500000
 30
0.0
 10
74.600000
 20
12.900000
 30
0.0
 10
42.900000
 20
33.300000
 30
0.0
 10
26.000000
 20
58.500000
 30
0.0
  0
SPLINE
  5
112
100
AcDbEntity
  8
0
 62
7
100
AcDbSpline
 70
8
 71
3
 72
8
 73
4
 74
0
 40
0
 40
0
 40
0
 40
0
 40
1
 40
1
 40
1
 40
1
 10
26.000000
 20
58.500000
 30
0.0
 10
20.100000
 20
67.300000
 30
0.0
 10
11.900000
 20
83.300000
 30
0.0
 10
10.100000
 20
89.500000
 30
0.0
  0
SPLINE
  5
113
100
AcDbEntity
  8
0
 62
7
100
AcDbSpline
 70
8
 71
3
 72
8
 73
4
 74
0
 40
0
 40
0
 40
0
 40
0
 40
1
 40
1
 40
1
 40
1
 10
10.100000
 20
89.500000
 30
0.0
 10
6.900000
 20
100.400000
 30
0.0
 10
5.100000
 20
108.300000
 30
0.0
 10
4.000000
 20
115.900000
 30
0.0
  0
SPLINE
  5
114
100
AcDbEntity
  8
0
 62
7
100
AcDbSpline
 70
8
 71
3
 72
8
 73
4
 74
0
 40
0
 40
0
 40
0
 40
0
 40
1
 40
1
 40
1
 40
1
 10
4.000000
 20
115.900000
 30
0.0
 10
2.300000
 20
128.100000
 30
0.0
 10
1.100000
 20
130.100000
 30
0.0
 10
1.100000
 20
120.900000
 30
0.0
  0
SPLINE
  5
115
100
AcDbEntity
  8
0
 62
7
100
AcDbSpline
 70
8
 71
3
 72
8
 73
4
 74
0
 40
0
 40
0
 40
0
 40
0
 40
1
 40
1
 40
1
 40
1
 10
1.100000
 20
120.900000
 30
0.0
 10
0.900000
 20
105.900000
 30
0.0
 10
5.900000
 20
87.700000
 30
0.0
 10
14.900000
 20
70.400000
 30
0.0
  0
SPLINE
  5
116
100
AcDbEntity
  8
0
 62
7
100
AcDbSpline
 70
8
 71
3
 72
8
 73
4
 74
0
 40
0
 40
0
 40
0
 40
0
 40
1
 40
1
 40
1
 40
1
 10
14.900000
 20
70.400000
 30
0.0
 10
45.100000
 20
11.900000
 30
0.0
 10
116.300000
 20
-13.600000
 30
0.0
 10
176.900000
 20
12.500000
 30
0.0
  0
SPLINE
  5
117
100
AcDbEntity
  8
0
 62
7
100
AcDbSpline
 70
8
 71
3
 72
8
 73
4
 74
0
 40
0
 40
0
 40
0
 40
0
 40
1
 40
1
 40
1
 40
1
 10
176.900000
 20
12.500000
 30
0.0
 10
215.400000
 20
28.900000
 30
0.0
 10
242.600000
 20
62.800000
 30
0.0
 10
251.600000
 20
105.200000
 30
0.0
  0
SPLINE
  5
118
100
AcDbEntity
  8
0
 62
7
100
AcDbSpline
 70
8
 71
3
 72
8
 73
4
 74
0
 40
0
 40
0
 40
0
 40
0
 40
1
 40
1
 40
1
 40
1
 10
251.600000
 20
105.200000
 30
0.0
 10
254.000000
 20
116.600000
 30
0.0
 10
254.000000
 20
141.400000
 30
0.0
 10
251.600000
 20
152.800000
 30
0.0
  0
SPLINE
  5
119
100
AcDbEntity
  8
0
 62
7
100
AcDbSpline
 70
8
 71
3
 72
8
 73
4
 74
0
 40
0
 40
0
 40
0
 40
0
 40
1
 40
1
 40
1
 40
1
 10
251.600000
 20
152.800000
 30
0.0
 10
243.300000
 20
192.200000
 30
0.0
 10
219.200000
 20
224.100000
 30
0.0
 10
184.500000
 20
241.900000
 30
0.0
  0
SPLINE
  5
11a
100
AcDbEntity
  8
0
 62
7
100
AcDbSpline
 70
8
 71
3
 72
8
 73
4
 74
0
 40
0
 40
0
 40
0
 40
0
 40
1
 40
1
 40
1
 40
1
 10
184.500000
 20
241.900000
 30
0.0
 10
174.300000
 20
247.100000
 30
0.0
 10
160.800000
 20
251.700000
 30
0.0
 10
150.100000
 20
253.500000
 30
0.0
  0
SPLINE
  5
11b
100
AcDbEntity
  8
0
 62
7
100
AcDbSpline
 70
8
 71
3
 72
8
 73
4
 74
0
 40
0
 40
0
 40
0
 40
0
 40
1
 40
1
 40
1
 40
1
 10
150.100000
 20
253.500000
 30
0.0
 10
138.200000
 20
255.600000
 30
0.0
 10
113.100000
 20
255.400000
 30
0.0
 10
101.500000
 20
253.000000
 30
0.0
  0
SPLINE
  5
11c
100
AcDbEntity
  8
0
 62
7
100
AcDbSpline
 70
8
 71
3
 72
8
 73
4
 74
0
 40
0
 40
0
 40
0
 40
0
 40
1
 40
1
 40
1
 40
1
 10
106.500000
 20
246.400000
 30
0.0
 10
90.300000
 20
243.500000
 30
0.0
 10
71.100000
 20
235.500000
 30
0.0
 10
58.500000
 20
226.500000
 30
0.0
  0
SPLINE
  5
11d
100
AcDbEntity
  8
0
 62
7
100
AcDbSpline
 70
8
 71
3
 72
8
 73
4
 74
0
 40
0
 40
0
 40
0
 40
0
 40
1
 40
1
 40
1
 40
1
 10
58.500000
 20
226.500000
 30
0.0
 10
48.700000
 20
219.400000
 30
0.0
 10
33.900000
 20
204.200000
 30
0.0
 10
27.800000
 20
195.000000
 30
0.0
  0
SPLINE
  5
11e
100
AcDbEntity
  8
0
 62
7
100
AcDbSpline
 70
8
 71
3
 72
8
 73
4
 74
0
 40
0
 40
0
 40
0
 40
0
 40
1
 40
1
 40
1
 40
1
 10
27.800000
 20
195.000000
 30
0.0
 10
13.500000
 20
173.500000
 30
0.0
 10
7.100000
 20
149.900000
 30
0.0
 10
8.300000
 20
123.500000
 30
0.0
  0
SPLINE
  5
11f
100
AcDbEntity
  8
0
 62
7
100
AcDbSpline
 70
8
 71
3
 72
8
 73
4
 74
0
 40
0
 40
0
 40
0
 40
0
 40
1
 40
1
 40
1
 40
1
 10
8.300000
 20
123.500000
 30
0.0
 10
9.000000
 20
108.800000
 30
0.0
 10
10.400000
 20
101.500000
 30
0.0
 10
15.000000
 20
88.500000
 30
0.0
  0
SPLINE
  5
120
100
AcDbEntity
  8
0
 62
7
100
AcDbSpline
 70
8
 71
3
 72
8
 73
4
 74
0
 40
0
 40
0
 40
0
 40
0
 40
1
 40
1
 40
1
 40
1
 10
15.000000
 20
88.500000
 30
0.0
 10
28.000000
 20
52.000000
 30
0.0
 10
57.700000
 20
24.600000
 30
0.0
 10
96.300000
 20
13.800000
 30
0.0
  0
SPLINE
  5
121
100
AcDbEntity
  8
0
 62
7
100
AcDbSpline
 70
8
 71
3
 72
8
 73
4
 74
0
 40
0
 40
0
 40
0
 40
0
 40
1
 40
1
 40
1
 40
1
 10
96.300000
 20
13.800000
 30
0.0
 10
106.500000
 20
11.000000
 30
0.0
 10
108.900000
 20
10.700000
 30
0.0
 10
122.500000
 20
10.600000
 30
0.0
  0
SPLINE
  5
122
100
AcDbEntity
  8
0
 62
7
100
AcDbSpline
 70
8
 71
3
 72
8
 73
4
 74
0
 40
0
 40
0
 40
0
 40
0
 40
1
 40
1
 40
1
 40
1
 10
122.500000
 20
10.600000
 30
0.0
 10
135.600000
 20
10.500000
 30
0.0
 10
145.000000
 20
11.300000
 30
0.0
 10
147.100000
 20
12.600000
 30
0.0
  0
SPLINE
  5
123
100
AcDbEntity
  8
0
 62
7
100
AcDbSpline
 70
8
 71
3
 72
8
 73
4
 74
0
 40
0
 40
0
 40
0
 40
0
 40
1
 40
1
 40
1
 40
1
 10
147.100000
 20
12.600000
 30
0.0
 10
147.500000
 20
12.800000
 30
0.0
 10
150.900000
 20
13.400000
 30
0.0
 10
154.800000
 20
14.000000
 30
0.0
  0
SPLINE
  5
124
100
AcDbEntity
  8
0
 62
7
100
AcDbSpline
 70
8
 71
3
 72
8
 73
4
 74
0
 40
0
 40
0
 40
0
 40
0
 40
1
 40
1
 40
1
 40
1
 10
154.800000
 20
14.000000
 30
0.0
 10
184.600000
 20
18.200000
 30
0.0
 10
217.400000
 20
43.700000
 30
0.0
 10
232.900000
 20
74.600000
 30
0.0
  0
SPLINE
  5
125
100
AcDbEntity
  8
0
 62
7
100
AcDbSpline
 70
8
 71
3
 72
8
 73
4
 74
0
 40
0
 40
0
 40
0
 40
0
 40
1
 40
1
 40
1
 40
1
 10
232.900000
 20
74.600000
 30
0.0
 10
242.800000
 20
94.400000
 30
0.0
 10
246.500000
 20
111.500000
 30
0.0
 10
245.700000
 20
133.500000
 30
0.0
  0
SPLINE
  5
126
100
AcDbEntity
  8
0
 62
7
100
AcDbSpline
 70
8
 71
3
 72
8
 73
4
 74
0
 40
0
 40
0
 40
0
 40
0
 40
1
 40
1
 40
1
 40
1
 10
245.700000
 20
133.500000
 30
0.0
 10
245.400000
 20
141.200000
 30
0.0
 10
244.500000
 20
150.700000
 30
0.0
 10
243.500000
 20
154.500000
 30
0.0
  0
SPLINE
  5
127
100
AcDbEntity
  8
0
 62
7
100
AcDbSpline
 70
8
 71
3
 72
8
 73
4
 74
0
 40
0
 40
0
 40
0
 40
0
 40
1
 40
1
 40
1
 40
1
 10
243.500000
 20
154.500000
 30
0.0
 10
230.400000
 20
210.200000
 30
0.0
 10
182.600000
 20
248.300000
 30
0.0
 10
126.600000
 20
247.900000
 30
0.0
  0
SPLINE
  5
128
100
AcDbEntity
  8
0
 62
7
100
AcDbSpline
 70
8
 71
3
 72
8
 73
4
 74
0
 40
0
 40
0
 40
0
 40
0
 40
1
 40
1
 40
1
 40
1
 10
126.600000
 20
247.900000
 30
0.0
 10
120.000000
 20
247.900000
 30
0.0
 10
110.900000
 20
247.200000
 30
0.0
 10
106.500000
 20
246.400000
 30
0.0
  0
LWPOLYLINE
  5
129
100
AcDbEntity
  8
0
 62
7
100
AcDbPolyline
 90
1
 70
1
 10
101.500000
 20
253.000000
 30
0.0
  0
SPLINE
  5
12a
100
AcDbEntity
  8
0
 62
7
100
AcDbSpline
 70
8
 71
3
 72
8
 73
4
 74
0
 40
0
 40
0
 40
0
 40
0
 40
1
 40
1
 40
1
 40
1
 10
145.000000
 20
243.500000
 30
0.0
 10
191.300000
 20
236.500000
 30
0.0
 10
228.500000
 20
202.000000
 30
0.0
 10
240.300000
 20
155.100000
 30
0.0
  0
SPLINE
  5
12b
100
AcDbEntity
  8
0
 62
7
100
AcDbSpline
 70
8
 71
3
 72
8
 73
4
 74
0
 40
0
 40
0
 40
0
 40
0
 40
1
 40
1
 40
1
 40
1
 10
240.300000
 20
155.100000
 30
0.0
 10
242.100000
 20
147.800000
 30
0.0
 10
242.400000
 20
143.700000
 30
0.0
 10
242.400000
 20
128.500000
 30
0.0
  0
SPLINE
  5
12c
100
AcDbEntity
  8
0
 62
7
100
AcDbSpline
 70
8
 71
3
 72
8
 73
4
 74
0
 40
0
 40
0
 40
0
 40
0
 40
1
 40
1
 40
1
 40
1
 10
242.400000
 20
128.500000
 30
0.0
 10
242.300000
 20
112.500000
 30
0.0
 10
242.100000
 20
109.500000
 30
0.0
 10
239.800000
 20
101.000000
 30
0.0
  0
SPLINE
  5
12d
100
AcDbEntity
  8
0
 62
7
100
AcDbSpline
 70
8
 71
3
 72
8
 73
4
 74
0
 40
0
 40
0
 40
0
 40
0
 40
1
 40
1
 40
1
 40
1
 10
239.800000
 20
101.000000
 30
0.0
 10
234.100000
 20
79.800000
 30
0.0
 10
223.800000
 20
61.700000
 30
0.0
 10
209.000000
 20
47.000000
 30
0.0
  0
SPLINE
  5
12e
100
AcDbEntity
  8
0
 62
7
100
AcDbSpline
 70
8
 71
3
 72
8
 73
4
 74
0
 40
0
 40
0
 40
0
 40
0
 40
1
 40
1
 40
1
 40
1
 10
209.000000
 20
47.000000
 30
0.0
 10
195.100000
 20
33.000000
 30
0.0
 10
180.100000
 20
24.100000
 30
0.0
 10
158.400000
 20
16.900000
 30
0.0
  0
LWPOLYLINE
  5
12f
100
AcDbEntity
  8
0
 62
7
100
AcDbPolyline
 90
1
 70
1
 10
106.500000
 20
246.400000
 30
0.0
  0
SPLINE
  5
130
100
AcDbEntity
  8
0
 62
7
100
AcDbSpline
 70
8
 71
3
 72
8
 73
4
 74
0
 40
0
 40
0
 40
0
 40
0
 40
1
 40
1
 40
1
 40
1
 10
128.500000
 20
13.600000
 30
0.0
 10
110.000000
 20
13.600000
 30
0.0
 10
107.800000
 20
13.800000
 30
0.0
 10
98.700000
 20
16.300000
 30
0.0
  0
SPLINE
  5
131
100
AcDbEntity
  8
0
 62
7
100
AcDbSpline
 70
8
 71
3
 72
8
 73
4
 74
0
 40
0
 40
0
 40
0
 40
0
 40
1
 40
1
 40
1
 40
1
 10
98.700000
 20
16.300000
 30
0.0
 10
68.200000
 20
24.500000
 30
0.0
 10
43.300000
 20
43.100000
 30
0.0
 10
27.300000
 20
69.600000
 30
0.0
  0
SPLINE
  5
132
100
AcDbEntity
  8
0
 62
7
100
AcDbSpline
 70
8
 71
3
 72
8
 73
4
 74
0
 40
0
 40
0
 40
0
 40
0
 40
1
 40
1
 40
1
 40
1
 10
27.300000
 20
69.600000
 30
0.0
 10
8.600000
 20
100.500000
 30
0.0
 10
5.900000
 20
140.600000
 30
0.0
 10
20.100000
 20
174.100000
 30
0.0
  0
SPLINE
  5
133
100
AcDbEntity
  8
0
 62
7
100
AcDbSpline
 70
8
 71
3
 72
8
 73
4
 74
0
 40
0
 40
0
 40
0
 40
0
 40
1
 40
1
 40
1
 40
1
 10
20.100000
 20
174.100000
 30
0.0
 10
41.000000
 20
223.200000
 30
0.0
 10
92.100000
 20
251.600000
 30
0.0
 10
145.000000
 20
243.500000
 30
0.0
  0
LWPOLYLINE
  5
134
100
AcDbEntity
  8
0
 62
7
100
AcDbPolyline
 90
2
 70
0
 10
158.400000
 20
16.900000
 30
0.0
 10
128.500000
 20
13.600000
 30
0.0
  0
LWPOLYLINE
  5
135
100
AcDbEntity
  8
0
 62
7
100
AcDbPolyline
 90
1
 70
1
 10
145.000000
 20
243.500000
 30
0.0
  0
SPLINE
  5
136
100
AcDbEntity
  8
0
 62
7
100
AcDbSpline
 70
8
 71
3
 72
8
 73
4
 74
0
 40
0
 40
0
 40
0
 40
0
 40
1
 40
1
 40
1
 40
1
 10
47.200000
 20
208.600000
 30
0.0
 10
47.000000
 20
206.400000
 30
0.0
 10
47.400000
 20
203.600000
 30
0.0
 10
48.100000
 20
202.300000
 30
0.0
  0
SPLINE
  5
137
100
AcDbEntity
  8
0
 62
7
100
AcDbSpline
 70
8
 71
3
 72
8
 73
4
 74
0
 40
0
 40
0
 40
0
 40
0
 40
1
 40
1
 40
1
 40
1
 10
48.100000
 20
202.300000
 30
0.0
 10
49.200000
 20
200.200000
 30
0.0
 10
49.000000
 20
199.600000
 30
0.0
 10
46.300000
 20
196.700000
 30
0.0
  0
SPLINE
  5
138
100
AcDbEntity
  8
0
 62
7
100
AcDbSpline
 70
8
 71
3
 72
8
 73
4
 74
0
 40
0
 40
0
 40
0
 40
0
 40
1
 40
1
 40
1
 40
1
 10
46.300000
 20
196.700000
 30
0.0
 10
41.300000
 20
191.400000
 30
0.0
 10
41.000000
 20
190.200000
 30
0.0
 10
41.000000
 20
172.800000
 30
0.0
  0
SPLINE
  5
139
100
AcDbEntity
  8
0
 62
7
100
AcDbSpline
 70
8
 71
3
 72
8
 73
4
 74
0
 40
0
 40
0
 40
0
 40
0
 40
1
 40
1
 40
1
 40
1
 10
41.000000
 20
172.800000
 30
0.0
 10
41.000000
 20
158.200000
 30
0.0
 10
41.200000
 20
156.200000
 30
0.0
 10
43.000000
 20
153.200000
 30
0.0
  0
SPLINE
  5
13a
100
AcDbEntity
  8
0
 62
7
100
AcDbSpline
 70
8
 71
3
 72
8
 73
4
 74
0
 40
0
 40
0
 40
0
 40
0
 40
1
 40
1
 40
1
 40
1
 10
43.000000
 20
153.200000
 30
0.0
 10
45.000000
 20
149.900000
 30
0.0
 10
50.100000
 20
147.000000
 30
0.0
 10
54.000000
 20
147.000000
 30
0.0
  0
SPLINE
  5
13b
100
AcDbEntity
  8
0
 62
7
100
AcDbSpline
 70
8
 71
3
 72
8
 73
4
 74
0
 40
0
 40
0
 40
0
 40
0
 40
1
 40
1
 40
1
 40
1
 10
54.000000
 20
147.000000
 30
0.0
 10
57.300000
 20
147.000000
 30
0.0
 10
56.600000
 20
143.400000
 30
0.0
 10
53.100000
 20
142.700000
 30
0.0
  0
SPLINE
  5
13c
100
AcDbEntity
  8
0
 62
7
100
AcDbSpline
 70
8
 71
3
 72
8
 73
4
 74
0
 40
0
 40
0
 40
0
 40
0
 40
1
 40
1
 40
1
 40
1
 10
53.100000
 20
142.700000
 30
0.0
 10
46.600000
 20
141.400000
 30
0.0
 10
41.000000
 20
133.600000
 30
0.0
 10
41.000000
 20
126.000000
 30
0.0
  0
SPLINE
  5
13d
100
AcDbEntity
  8
0
 62
7
100
AcDbSpline
 70
8
 71
3
 72
8
 73
4
 74
0
 40
0
 40
0
 40
0
 40
0
 40
1
 40
1
 40
1
 40
1
 10
41.000000
 20
126.000000
 30
0.0
 10
41.000000
 20
121.700000
 30
0.0
 10
43.100000
 20
116.000000
 30
0.0
 10
45.400000
 20
114.000000
 30
0.0
  0
SPLINE
  5
13e
100
AcDbEntity
  8
0
 62
7
100
AcDbSpline
 70
8
 71
3
 72
8
 73
4
 74
0
 40
0
 40
0
 40
0
 40
0
 40
1
 40
1
 40
1
 40
1
 10
45.400000
 20
114.000000
 30
0.0
 10
46.300000
 20
113.300000
 30
0.0
 10
47.000000
 20
111.300000
 30
0.0
 10
47.000000
 20
109.500000
 30
0.0
  0
SPLINE
  5
13f
100
AcDbEntity
  8
0
 62
7
100
AcDbSpline
 70
8
 71
3
 72
8
 73
4
 74
0
 40
0
 40
0
 40
0
 40
0
 40
1
 40
1
 40
1
 40
1
 10
47.000000
 20
109.500000
 30
0.0
 10
47.000000
 20
105.700000
 30
0.0
 10
49.600000
 20
103.000000
 30
0.0
 10
53.200000
 20
103.000000
 30
0.0
  0
SPLINE
  5
140
100
AcDbEntity
  8
0
 62
7
100
AcDbSpline
 70
8
 71
3
 72
8
 73
4
 74
0
 40
0
 40
0
 40
0
 40
0
 40
1
 40
1
 40
1
 40
1
 10
53.200000
 20
103.000000
 30
0.0
 10
55.300000
 20
103.000000
 30
0.0
 10
55.900000
 20
102.400000
 30
0.0
 10
56.400000
 20
99.600000
 30
0.0
  0
SPLINE
  5
141
100
AcDbEntity
  8
0
 62
7
100
AcDbSpline
 70
8
 71
3
 72
8
 73
4
 74
0
 40
0
 40
0
 40
0
 40
0
 40
1
 40
1
 40
1
 40
1
 10
56.400000
 20
99.600000
 30
0.0
 10
57.400000
 20
94.100000
 30
0.0
 10
62.000000
 20
88.800000
 30
0.0
 10
68.400000
 20
85.700000
 30
0.0
  0
SPLINE
  5
142
100
AcDbEntity
  8
0
 62
7
100
AcDbSpline
 70
8
 71
3
 72
8
 73
4
 74
0
 40
0
 40
0
 40
0
 40
0
 40
1
 40
1
 40
1
 40
1
 10
68.400000
 20
85.700000
 30
0.0
 10
74.300000
 20
82.800000
 30
0.0
 10
77.400000
 20
79.100000
 30
0.0
 10
78.600000
 20
73.500000
 30
0.0
  0
SPLINE
  5
143
100
AcDbEntity
  8
0
 62
7
100
AcDbSpline
 70
8
 71
3
 72
8
 73
4
 74
0
 40
0
 40
0
 40
0
 40
0
 40
1
 40
1
 40
1
 40
1
 10
78.600000
 20
73.500000
 30
0.0
 10
79.600000
 20
68.700000
 30
0.0
 10
83.500000
 20
61.800000
 30
0.0
 10
87.200000
 20
58.300000
 30
0.0
  0
SPLINE
  5
144
100
AcDbEntity
  8
0
 62
7
100
AcDbSpline
 70
8
 71
3
 72
8
 73
4
 74
0
 40
0
 40
0
 40
0
 40
0
 40
1
 40
1
 40
1
 40
1
 10
87.200000
 20
58.300000
 30
0.0
 10
91.500000
 20
54.100000
 30
0.0
 10
96.800000
 20
52.000000
 30
0.0
 10
102.800000
 20
52.000000
 30
0.0
  0
LWPOLYLINE
  5
145
100
AcDbEntity
  8
0
 62
7
100
AcDbPolyline
 90
3
 70
0
 10
53.500000
 20
213.000000
 30
0.0
 10
47.500000
 20
212.500000
 30
0.0
 10
47.200000
 20
208.600000
 30
0.0
  0
SPLINE
  5
146
100
AcDbEntity
  8
0
 62
7
100
AcDbSpline
 70
8
 71
3
 72
8
 73
4
 74
0
 40
0
 40
0
 40
0
 40
0
 40
1
 40
1
 40
1
 40
1
 10
108.300000
 20
46.200000
 30
0.0
 10
110.100000
 20
26.200000
 30
0.0
 10
129.100000
 20
12.300000
 30
0.0
 10
148.800000
 20
16.400000
 30
0.0
  0
SPLINE
  5
147
100
AcDbEntity
  8
0
 62
7
100
AcDbSpline
 70
8
 71
3
 72
8
 73
4
 74
0
 40
0
 40
0
 40
0
 40
0
 40
1
 40
1
 40
1
 40
1
 10
148.800000
 20
16.400000
 30
0.0
 10
158.100000
 20
18.300000
 30
0.0
 10
162.800000
 20
20.900000
 30
0.0
 10
168.300000
 20
27.000000
 30
0.0
  0
SPLINE
  5
148
100
AcDbEntity
  8
0
 62
7
100
AcDbSpline
 70
8
 71
3
 72
8
 73
4
 74
0
 40
0
 40
0
 40
0
 40
0
 40
1
 40
1
 40
1
 40
1
 10
168.300000
 20
27.000000
 30
0.0
 10
174.200000
 20
33.600000
 30
0.0
 10
177.000000
 20
40.900000
 30
0.0
 10
177.000000
 20
50.000000
 30
0.0
  0
SPLINE
  5
149
100
AcDbEntity
  8
0
 62
7
100
AcDbSpline
 70
8
 71
3
 72
8
 73
4
 74
0
 40
0
 40
0
 40
0
 40
0
 40
1
 40
1
 40
1
 40
1
 10
177.000000
 20
50.000000
 30
0.0
 10
177.000000
 20
60.300000
 30
0.0
 10
174.100000
 20
67.000000
 30
0.0
 10
166.500000
 20
74.700000
 30
0.0
  0
SPLINE
  5
14a
100
AcDbEntity
  8
0
 62
7
100
AcDbSpline
 70
8
 71
3
 72
8
 73
4
 74
0
 40
0
 40
0
 40
0
 40
0
 40
1
 40
1
 40
1
 40
1
 10
166.500000
 20
74.700000
 30
0.0
 10
161.200000
 20
80.000000
 30
0.0
 10
159.400000
 20
81.100000
 30
0.0
 10
153.100000
 20
83.000000
 30
0.0
  0
SPLINE
  5
14b
100
AcDbEntity
  8
0
 62
7
100
AcDbSpline
 70
8
 71
3
 72
8
 73
4
 74
0
 40
0
 40
0
 40
0
 40
0
 40
1
 40
1
 40
1
 40
1
 10
153.100000
 20
83.000000
 30
0.0
 10
140.500000
 20
86.900000
 30
0.0
 10
128.400000
 20
84.100000
 30
0.0
 10
118.600000
 20
75.000000
 30
0.0
  0
SPLINE
  5
14c
100
AcDbEntity
  8
0
 62
7
100
AcDbSpline
 70
8
 71
3
 72
8
 73
4
 74
0
 40
0
 40
0
 40
0
 40
0
 40
1
 40
1
 40
1
 40
1
 10
118.600000
 20
75.000000
 30
0.0
 10
114.300000
 20
71.000000
 30
0.0
 10
109.000000
 20
62.000000
 30
0.0
 10
109.000000
 20
58.600000
 30
0.0
  0
SPLINE
  5
14d
100
AcDbEntity
  8
0
 62
7
100
AcDbSpline
 70
8
 71
3
 72
8
 73
4
 74
0
 40
0
 40
0
 40
0
 40
0
 40
1
 40
1
 40
1
 40
1
 10
109.000000
 20
58.600000
 30
0.0
 10
109.000000
 20
57.400000
 30
0.0
 10
107.900000
 20
57.000000
 30
0.0
 10
103.900000
 20
57.000000
 30
0.0
  0
SPLINE
  5
14e
100
AcDbEntity
  8
0
 62
7
100
AcDbSpline
 70
8
 71
3
 72
8
 73
4
 74
0
 40
0
 40
0
 40
0
 40
0
 40
1
 40
1
 40
1
 40
1
 10
103.900000
 20
57.000000
 30
0.0
 10
94.100000
 20
57.000000
 30
0.0
 10
87.500000
 20
62.600000
 30
0.0
 10
83.900000
 20
74.000000
 30
0.0
  0
SPLINE
  5
14f
100
AcDbEntity
  8
0
 62
7
100
AcDbSpline
 70
8
 71
3
 72
8
 73
4
 74
0
 40
0
 40
0
 40
0
 40
0
 40
1
 40
1
 40
1
 40
1
 10
83.900000
 20
74.000000
 30
0.0
 10
82.000000
 20
80.300000
 30
0.0
 10
82.000000
 20
80.500000
 30
0.0
 10
83.800000
 20
83.000000
 30
0.0
  0
SPLINE
  5
150
100
AcDbEntity
  8
0
 62
7
100
AcDbSpline
 70
8
 71
3
 72
8
 73
4
 74
0
 40
0
 40
0
 40
0
 40
0
 40
1
 40
1
 40
1
 40
1
 10
83.800000
 20
83.000000
 30
0.0
 10
84.900000
 20
84.400000
 30
0.0
 10
87.400000
 20
86.400000
 30
0.0
 10
89.500000
 20
87.500000
 30
0.0
  0
SPLINE
  5
151
100
AcDbEntity
  8
0
 62
7
100
AcDbSpline
 70
8
 71
3
 72
8
 73
4
 74
0
 40
0
 40
0
 40
0
 40
0
 40
1
 40
1
 40
1
 40
1
 10
89.500000
 20
87.500000
 30
0.0
 10
95.200000
 20
90.400000
 30
0.0
 10
99.800000
 20
95.500000
 30
0.0
 10
100.600000
 20
99.500000
 30
0.0
  0
SPLINE
  5
152
100
AcDbEntity
  8
0
 62
7
100
AcDbSpline
 70
8
 71
3
 72
8
 73
4
 74
0
 40
0
 40
0
 40
0
 40
0
 40
1
 40
1
 40
1
 40
1
 10
100.600000
 20
99.500000
 30
0.0
 10
101.200000
 20
102.600000
 30
0.0
 10
101.500000
 20
103.000000
 30
0.0
 10
104.500000
 20
103.000000
 30
0.0
  0
SPLINE
  5
153
100
AcDbEntity
  8
0
 62
7
100
AcDbSpline
 70
8
 71
3
 72
8
 73
4
 74
0
 40
0
 40
0
 40
0
 40
0
 40
1
 40
1
 40
1
 40
1
 10
104.500000
 20
103.000000
 30
0.0
 10
108.500000
 20
103.000000
 30
0.0
 10
111.000000
 20
105.600000
 30
0.0
 10
111.000000
 20
109.800000
 30
0.0
  0
SPLINE
  5
154
100
AcDbEntity
  8
0
 62
7
100
AcDbSpline
 70
8
 71
3
 72
8
 73
4
 74
0
 40
0
 40
0
 40
0
 40
0
 40
1
 40
1
 40
1
 40
1
 10
111.000000
 20
109.800000
 30
0.0
 10
111.000000
 20
111.600000
 30
0.0
 10
111.400000
 20
113.000000
 30
0.0
 10
112.000000
 20
113.000000
 30
0.0
  0
SPLINE
  5
155
100
AcDbEntity
  8
0
 62
7
100
AcDbSpline
 70
8
 71
3
 72
8
 73
4
 74
0
 40
0
 40
0
 40
0
 40
0
 40
1
 40
1
 40
1
 40
1
 10
112.000000
 20
113.000000
 30
0.0
 10
112.500000
 20
113.000000
 30
0.0
 10
114.000000
 20
114.600000
 30
0.0
 10
115.200000
 20
116.500000
 30
0.0
  0
SPLINE
  5
156
100
AcDbEntity
  8
0
 62
7
100
AcDbSpline
 70
8
 71
3
 72
8
 73
4
 74
0
 40
0
 40
0
 40
0
 40
0
 40
1
 40
1
 40
1
 40
1
 10
115.200000
 20
116.500000
 30
0.0
 10
118.600000
 20
121.600000
 30
0.0
 10
124.000000
 20
120.900000
 30
0.0
 10
124.000000
 20
115.300000
 30
0.0
  0
SPLINE
  5
157
100
AcDbEntity
  8
0
 62
7
100
AcDbSpline
 70
8
 71
3
 72
8
 73
4
 74
0
 40
0
 40
0
 40
0
 40
0
 40
1
 40
1
 40
1
 40
1
 10
124.000000
 20
115.300000
 30
0.0
 10
124.000000
 20
114.000000
 30
0.0
 10
125.100000
 20
111.800000
 30
0.0
 10
126.500000
 20
110.500000
 30
0.0
  0
SPLINE
  5
158
100
AcDbEntity
  8
0
 62
7
100
AcDbSpline
 70
8
 71
3
 72
8
 73
4
 74
0
 40
0
 40
0
 40
0
 40
0
 40
1
 40
1
 40
1
 40
1
 10
126.500000
 20
110.500000
 30
0.0
 10
128.800000
 20
108.100000
 30
0.0
 10
129.500000
 20
108.000000
 30
0.0
 10
140.500000
 20
108.000000
 30
0.0
  0
LWPOLYLINE
  5
159
100
AcDbEntity
  8
0
 62
7
100
AcDbPolyline
 90
3
 70
0
 10
102.800000
 20
52.000000
 30
0.0
 10
107.700000
 20
52.000000
 30
0.0
 10
108.300000
 20
46.200000
 30
0.0
  0
SPLINE
  5
15a
100
AcDbEntity
  8
0
 62
7
100
AcDbSpline
 70
8
 71
3
 72
8
 73
4
 74
0
 40
0
 40
0
 40
0
 40
0
 40
1
 40
1
 40
1
 40
1
 10
152.000000
 20
103.500000
 30
0.0
 10
152.000000
 20
100.300000
 30
0.0
 10
152.600000
 20
98.400000
 30
0.0
 10
154.000000
 20
97.000000
 30
0.0
  0
SPLINE
  5
15b
100
AcDbEntity
  8
0
 62
7
100
AcDbSpline
 70
8
 71
3
 72
8
 73
4
 74
0
 40
0
 40
0
 40
0
 40
0
 40
1
 40
1
 40
1
 40
1
 10
154.000000
 20
97.000000
 30
0.0
 10
155.900000
 20
95.100000
 30
0.0
 10
157.300000
 20
95.000000
 30
0.0
 10
187.500000
 20
95.000000
 30
0.0
  0
SPLINE
  5
15c
100
AcDbEntity
  8
0
 62
7
100
AcDbSpline
 70
8
 71
3
 72
8
 73
4
 74
0
 40
0
 40
0
 40
0
 40
0
 40
1
 40
1
 40
1
 40
1
 10
187.500000
 20
95.000000
 30
0.0
 10
217.700000
 20
95.000000
 30
0.0
 10
219.100000
 20
95.100000
 30
0.0
 10
221.000000
 20
97.000000
 30
0.0
  0
SPLINE
  5
15d
100
AcDbEntity
  8
0
 62
7
100
AcDbSpline
 70
8
 71
3
 72
8
 73
4
 74
0
 40
0
 40
0
 40
0
 40
0
 40
1
 40
1
 40
1
 40
1
 10
221.000000
 20
97.000000
 30
0.0
 10
222.800000
 20
98.800000
 30
0.0
 10
223.000000
 20
100.300000
 30
0.0
 10
223.000000
 20
114.000000
 30
0.0
  0
SPLINE
  5
15e
100
AcDbEntity
  8
0
 62
7
100
AcDbSpline
 70
8
 71
3
 72
8
 73
4
 74
0
 40
0
 40
0
 40
0
 40
0
 40
1
 40
1
 40
1
 40
1
 10
223.000000
 20
114.000000
 30
0.0
 10
223.000000
 20
133.800000
 30
0.0
 10
223.600000
 20
133.200000
 30
0.0
 10
206.200000
 20
132.900000
 30
0.0
  0
LWPOLYLINE
  5
15f
100
AcDbEntity
  8
0
 62
7
100
AcDbPolyline
 90
3
 70
0
 10
140.500000
 20
108.000000
 30
0.0
 10
152.000000
 20
108.000000
 30
0.0
 10
152.000000
 20
103.500000
 30
0.0
  0
SPLINE
  5
160
100
AcDbEntity
  8
0
 62
7
100
AcDbSpline
 70
8
 71
3
 72
8
 73
4
 74
0
 40
0
 40
0
 40
0
 40
0
 40
1
 40
1
 40
1
 40
1
 10
193.200000
 20
135.100000
 30
0.0
 10
192.500000
 20
140.600000
 30
0.0
 10
188.100000
 20
145.000000
 30
0.0
 10
183.200000
 20
145.000000
 30
0.0
  0
SPLINE
  5
161
100
AcDbEntity
  8
0
 62
7
100
AcDbSpline
 70
8
 71
3
 72
8
 73
4
 74
0
 40
0
 40
0
 40
0
 40
0
 40
1
 40
1
 40
1
 40
1
 10
183.200000
 20
145.000000
 30
0.0
 10
180.500000
 20
145.000000
 30
0.0
 10
178.200000
 20
147.100000
 30
0.0
 10
177.400000
 20
150.300000
 30
0.0
  0
LWPOLYLINE
  5
162
100
AcDbEntity
  8
0
 62
7
100
AcDbPolyline
 90
3
 70
0
 10
206.200000
 20
132.900000
 30
0.0
 10
193.500000
 20
132.700000
 30
0.0
 10
193.200000
 20
135.100000
 30
0.0
  0
SPLINE
  5
163
100
AcDbEntity
  8
0
 62
7
100
AcDbSpline
 70
8
 71
3
 72
8
 73
4
 74
0
 40
0
 40
0
 40
0
 40
0
 40
1
 40
1
 40
1
 40
1
 10
192.200000
 20
153.000000
 30
0.0
 10
205.900000
 20
153.000000
 30
0.0
 10
207.900000
 20
153.200000
 30
0.0
 10
209.300000
 20
154.800000
 30
0.0
  0
SPLINE
  5
164
100
AcDbEntity
  8
0
 62
7
100
AcDbSpline
 70
8
 71
3
 72
8
 73
4
 74
0
 40
0
 40
0
 40
0
 40
0
 40
1
 40
1
 40
1
 40
1
 10
209.300000
 20
154.800000
 30
0.0
 10
210.800000
 20
156.400000
 30
0.0
 10
211.000000
 20
159.800000
 30
0.0
 10
211.000000
 20
181.300000
 30
0.0
  0
SPLINE
  5
165
100
AcDbEntity
  8
0
 62
7
100
AcDbSpline
 70
8
 71
3
 72
8
 73
4
 74
0
 40
0
 40
0
 40
0
 40
0
 40
1
 40
1
 40
1
 40
1
 10
211.000000
 20
181.300000
 30
0.0
 10
211.000000
 20
202.300000
 30
0.0
 10
210.800000
 20
206.100000
 30
0.0
 10
209.400000
 20
207.400000
 30
0.0
  0
SPLINE
  5
166
100
AcDbEntity
  8
0
 62
7
100
AcDbSpline
 70
8
 71
3
 72
8
 73
4
 74
0
 40
0
 40
0
 40
0
 40
0
 40
1
 40
1
 40
1
 40
1
 10
209.400000
 20
207.400000
 30
0.0
 10
208.100000
 20
208.800000
 30
0.0
 10
203.700000
 20
209.000000
 30
0.0
 10
177.100000
 20
209.000000
 30
0.0
  0
SPLINE
  5
167
100
AcDbEntity
  8
0
 62
7
100
AcDbSpline
 70
8
 71
3
 72
8
 73
4
 74
0
 40
0
 40
0
 40
0
 40
0
 40
1
 40
1
 40
1
 40
1
 10
177.100000
 20
209.000000
 30
0.0
 10
148.500000
 20
209.000000
 30
0.0
 10
146.200000
 20
208.900000
 30
0.0
 10
144.700000
 20
207.200000
 30
0.0
  0
SPLINE
  5
168
100
AcDbEntity
  8
0
 62
7
100
AcDbSpline
 70
8
 71
3
 72
8
 73
4
 74
0
 40
0
 40
0
 40
0
 40
0
 40
1
 40
1
 40
1
 40
1
 10
144.700000
 20
207.200000
 30
0.0
 10
143.200000
 20
205.600000
 30
0.0
 10
143.000000
 20
202.200000
 30
0.0
 10
143.000000
 20
180.800000
 30
0.0
  0
SPLINE
  5
169
100
AcDbEntity
  8
0
 62
7
100
AcDbSpline
 70
8
 71
3
 72
8
 73
4
 74
0
 40
0
 40
0
 40
0
 40
0
 40
1
 40
1
 40
1
 40
1
 10
143.000000
 20
180.800000
 30
0.0
 10
143.000000
 20
158.300000
 30
0.0
 10
143.200000
 20
156.200000
 30
0.0
 10
144.800000
 20
154.700000
 30
0.0
  0
SPLINE
  5
16a
100
AcDbEntity
  8
0
 62
7
100
AcDbSpline
 70
8
 71
3
 72
8
 73
4
 74
0
 40
0
 40
0
 40
0
 40
0
 40
1
 40
1
 40
1
 40
1
 10
144.800000
 20
154.700000
 30
0.0
 10
146.300000
 20
153.300000
 30
0.0
 10
149.000000
 20
153.000000
 30
0.0
 10
160.300000
 20
153.000000
 30
0.0
  0
SPLINE
  5
16b
100
AcDbEntity
  8
0
 62
7
100
AcDbSpline
 70
8
 71
3
 72
8
 73
4
 74
0
 40
0
 40
0
 40
0
 40
0
 40
1
 40
1
 40
1
 40
1
 10
160.300000
 20
153.000000
 30
0.0
 10
173.200000
 20
153.000000
 30
0.0
 10
174.000000
 20
152.900000
 30
0.0
 10
174.000000
 20
151.000000
 30
0.0
  0
SPLINE
  5
16c
100
AcDbEntity
  8
0
 62
7
100
AcDbSpline
 70
8
 71
3
 72
8
 73
4
 74
0
 40
0
 40
0
 40
0
 40
0
 40
1
 40
1
 40
1
 40
1
 10
174.000000
 20
151.000000
 30
0.0
 10
174.000000
 20
146.000000
 30
0.0
 10
177.100000
 20
142.900000
 30
0.0
 10
183.300000
 20
141.600000
 30
0.0
  0
SPLINE
  5
16d
100
AcDbEntity
  8
0
 62
7
100
AcDbSpline
 70
8
 71
3
 72
8
 73
4
 74
0
 40
0
 40
0
 40
0
 40
0
 40
1
 40
1
 40
1
 40
1
 10
183.300000
 20
141.600000
 30
0.0
 10
186.900000
 20
140.800000
 30
0.0
 10
190.000000
 20
137.600000
 30
0.0
 10
190.000000
 20
134.800000
 30
0.0
  0
LWPOLYLINE
  5
16e
100
AcDbEntity
  8
0
 62
7
100
AcDbPolyline
 90
3
 70
0
 10
177.400000
 20
150.300000
 30
0.0
 10
176.800000
 20
153.000000
 30
0.0
 10
192.200000
 20
153.000000
 30
0.0
  0
SPLINE
  5
16f
100
AcDbEntity
  8
0
 62
7
100
AcDbSpline
 70
8
 71
3
 72
8
 73
4
 74
0
 40
0
 40
0
 40
0
 40
0
 40
1
 40
1
 40
1
 40
1
 10
173.100000
 20
132.800000
 30
0.0
 10
156.900000
 20
133.100000
 30
0.0
 10
156.000000
 20
133.000000
 30
0.0
 10
154.000000
 20
131.000000
 30
0.0
  0
SPLINE
  5
170
100
AcDbEntity
  8
0
 62
7
100
AcDbSpline
 70
8
 71
3
 72
8
 73
4
 74
0
 40
0
 40
0
 40
0
 40
0
 40
1
 40
1
 40
1
 40
1
 10
154.000000
 20
131.000000
 30
0.0
 10
152.400000
 20
129.400000
 30
0.0
 10
151.900000
 20
127.900000
 30
0.0
 10
152.200000
 20
125.200000
 30
0.0
  0
LWPOLYLINE
  5
171
100
AcDbEntity
  8
0
 62
7
100
AcDbPolyline
 90
3
 70
0
 10
190.000000
 20
134.800000
 30
0.0
 10
190.000000
 20
132.500000
 30
0.0
 10
173.100000
 20
132.800000
 30
0.0
  0
SPLINE
  5
172
100
AcDbEntity
  8
0
 62
7
100
AcDbSpline
 70
8
 71
3
 72
8
 73
4
 74
0
 40
0
 40
0
 40
0
 40
0
 40
1
 40
1
 40
1
 40
1
 10
148.500000
 20
121.400000
 30
0.0
 10
146.300000
 20
121.300000
 30
0.0
 10
142.500000
 20
121.600000
 30
0.0
 10
140.100000
 20
121.900000
 30
0.0
  0
SPLINE
  5
173
100
AcDbEntity
  8
0
 62
7
100
AcDbSpline
 70
8
 71
3
 72
8
 73
4
 74
0
 40
0
 40
0
 40
0
 40
0
 40
1
 40
1
 40
1
 40
1
 10
140.100000
 20
121.900000
 30
0.0
 10
135.900000
 20
122.500000
 30
0.0
 10
135.700000
 20
122.700000
 30
0.0
 10
134.400000
 20
127.000000
 30
0.0
  0
SPLINE
  5
174
100
AcDbEntity
  8
0
 62
7
100
AcDbSpline
 70
8
 71
3
 72
8
 73
4
 74
0
 40
0
 40
0
 40
0
 40
0
 40
1
 40
1
 40
1
 40
1
 10
134.400000
 20
127.000000
 30
0.0
 10
132.600000
 20
132.900000
 30
0.0
 10
130.900000
 20
134.000000
 30
0.0
 10
123.200000
 20
134.000000
 30
0.0
  0
SPLINE
  5
175
100
AcDbEntity
  8
0
 62
7
100
AcDbSpline
 70
8
 71
3
 72
8
 73
4
 74
0
 40
0
 40
0
 40
0
 40
0
 40
1
 40
1
 40
1
 40
1
 10
123.200000
 20
134.000000
 30
0.0
 10
117.000000
 20
134.000000
 30
0.0
 10
116.600000
 20
134.200000
 30
0.0
 10
113.600000
 20
137.600000
 30
0.0
  0
SPLINE
  5
176
100
AcDbEntity
  8
0
 62
7
100
AcDbSpline
 70
8
 71
3
 72
8
 73
4
 74
0
 40
0
 40
0
 40
0
 40
0
 40
1
 40
1
 40
1
 40
1
 10
113.600000
 20
137.600000
 30
0.0
 10
111.900000
 20
139.500000
 30
0.0
 10
108.700000
 20
141.700000
 30
0.0
 10
106.600000
 20
142.400000
 30
0.0
  0
SPLINE
  5
177
100
AcDbEntity
  8
0
 62
7
100
AcDbSpline
 70
8
 71
3
 72
8
 73
4
 74
0
 40
0
 40
0
 40
0
 40
0
 40
1
 40
1
 40
1
 40
1
 10
106.600000
 20
142.400000
 30
0.0
 10
101.300000
 20
144.200000
 30
0.0
 10
101.000000
 20
146.600000
 30
0.0
 10
106.100000
 20
147.300000
 30
0.0
  0
SPLINE
  5
178
100
AcDbEntity
  8
0
 62
7
100
AcDbSpline
 70
8
 71
3
 72
8
 73
4
 74
0
 40
0
 40
0
 40
0
 40
0
 40
1
 40
1
 40
1
 40
1
 10
106.100000
 20
147.300000
 30
0.0
 10
116.100000
 20
148.600000
 30
0.0
 10
118.000000
 20
152.700000
 30
0.0
 10
118.000000
 20
173.000000
 30
0.0
  0
SPLINE
  5
179
100
AcDbEntity
  8
0
 62
7
100
AcDbSpline
 70
8
 71
3
 72
8
 73
4
 74
0
 40
0
 40
0
 40
0
 40
0
 40
1
 40
1
 40
1
 40
1
 10
118.000000
 20
173.000000
 30
0.0
 10
118.000000
 20
189.500000
 30
0.0
 10
117.100000
 20
193.600000
 30
0.0
 10
112.600000
 20
196.500000
 30
0.0
  0
SPLINE
  5
17a
100
AcDbEntity
  8
0
 62
7
100
AcDbSpline
 70
8
 71
3
 72
8
 73
4
 74
0
 40
0
 40
0
 40
0
 40
0
 40
1
 40
1
 40
1
 40
1
 10
112.600000
 20
196.500000
 30
0.0
 10
110.000000
 20
198.200000
 30
0.0
 10
109.200000
 20
201.400000
 30
0.0
 10
111.000000
 20
202.500000
 30
0.0
  0
SPLINE
  5
17b
100
AcDbEntity
  8
0
 62
7
100
AcDbSpline
 70
8
 71
3
 72
8
 73
4
 74
0
 40
0
 40
0
 40
0
 40
0
 40
1
 40
1
 40
1
 40
1
 10
111.000000
 20
202.500000
 30
0.0
 10
112.500000
 20
203.400000
 30
0.0
 10
112.300000
 20
213.000000
 30
0.0
 10
110.800000
 20
213.100000
 30
0.0
  0
SPLINE
  5
17c
100
AcDbEntity
  8
0
 62
7
100
AcDbSpline
 70
8
 71
3
 72
8
 73
4
 74
0
 40
0
 40
0
 40
0
 40
0
 40
1
 40
1
 40
1
 40
1
 10
110.800000
 20
213.100000
 30
0.0
 10
105.600000
 20
213.500000
 30
0.0
 10
90.100000
 20
213.200000
 30
0.0
 10
89.100000
 20
212.600000
 30
0.0
  0
SPLINE
  5
17d
100
AcDbEntity
  8
0
 62
7
100
AcDbSpline
 70
8
 71
3
 72
8
 73
4
 74
0
 40
0
 40
0
 40
0
 40
0
 40
1
 40
1
 40
1
 40
1
 10
89.100000
 20
212.600000
 30
0.0
 10
87.500000
 20
211.600000
 30
0.0
 10
87.700000
 20
204.500000
 30
0.0
 10
89.500000
 20
203.000000
 30
0.0
  0
SPLINE
  5
17e
100
AcDbEntity
  8
0
 62
7
100
AcDbSpline
 70
8
 71
3
 72
8
 73
4
 74
0
 40
0
 40
0
 40
0
 40
0
 40
1
 40
1
 40
1
 40
1
 10
89.500000
 20
203.000000
 30
0.0
 10
91.900000
 20
201.000000
 30
0.0
 10
91.300000
 20
198.900000
 30
0.0
 10
87.300000
 20
195.500000
 30
0.0
  0
LWPOLYLINE
  5
17f
100
AcDbEntity
  8
0
 62
7
100
AcDbPolyline
 90
2
 70
0
 10
152.200000
 20
125.200000
 30
0.0
 10
148.500000
 20
121.400000
 30
0.0
  0
SPLINE
  5
180
100
AcDbEntity
  8
0
 62
7
100
AcDbSpline
 70
8
 71
3
 72
8
 73
4
 74
0
 40
0
 40
0
 40
0
 40
0
 40
1
 40
1
 40
1
 40
1
 10
86.300000
 20
151.500000
 30
0.0
 10
88.600000
 20
149.200000
 30
0.0
 10
91.100000
 20
147.900000
 30
0.0
 10
93.900000
 20
147.400000
 30
0.0
  0
SPLINE
  5
181
100
AcDbEntity
  8
0
 62
7
100
AcDbSpline
 70
8
 71
3
 72
8
 73
4
 74
0
 40
0
 40
0
 40
0
 40
0
 40
1
 40
1
 40
1
 40
1
 10
93.900000
 20
147.400000
 30
0.0
 10
99.100000
 20
146.600000
 30
0.0
 10
99.700000
 20
143.600000
 30
0.0
 10
94.900000
 20
142.600000
 30
0.0
  0
SPLINE
  5
182
100
AcDbEntity
  8
0
 62
7
100
AcDbSpline
 70
8
 71
3
 72
8
 73
4
 74
0
 40
0
 40
0
 40
0
 40
0
 40
1
 40
1
 40
1
 40
1
 10
94.900000
 20
142.600000
 30
0.0
 10
93.200000
 20
142.300000
 30
0.0
 10
90.000000
 20
140.200000
 30
0.0
 10
87.800000
 20
138.000000
 30
0.0
  0
SPLINE
  5
183
100
AcDbEntity
  8
0
 62
7
100
AcDbSpline
 70
8
 71
3
 72
8
 73
4
 74
0
 40
0
 40
0
 40
0
 40
0
 40
1
 40
1
 40
1
 40
1
 10
87.800000
 20
138.000000
 30
0.0
 10
84.300000
 20
134.500000
 30
0.0
 10
83.200000
 20
134.000000
 30
0.0
 10
79.300000
 20
134.000000
 30
0.0
  0
SPLINE
  5
184
100
AcDbEntity
  8
0
 62
7
100
AcDbSpline
 70
8
 71
3
 72
8
 73
4
 74
0
 40
0
 40
0
 40
0
 40
0
 40
1
 40
1
 40
1
 40
1
 10
79.300000
 20
134.000000
 30
0.0
 10
75.500000
 20
134.000000
 30
0.0
 10
74.400000
 20
134.500000
 30
0.0
 10
71.100000
 20
138.000000
 30
0.0
  0
SPLINE
  5
185
100
AcDbEntity
  8
0
 62
7
100
AcDbSpline
 70
8
 71
3
 72
8
 73
4
 74
0
 40
0
 40
0
 40
0
 40
0
 40
1
 40
1
 40
1
 40
1
 10
71.100000
 20
138.000000
 30
0.0
 10
68.900000
 20
140.300000
 30
0.0
 10
66.000000
 20
142.300000
 30
0.0
 10
64.200000
 20
142.600000
 30
0.0
  0
SPLINE
  5
186
100
AcDbEntity
  8
0
 62
7
100
AcDbSpline
 70
8
 71
3
 72
8
 73
4
 74
0
 40
0
 40
0
 40
0
 40
0
 40
1
 40
1
 40
1
 40
1
 10
64.200000
 20
142.600000
 30
0.0
 10
60.500000
 20
143.400000
 30
0.0
 10
59.500000
 20
147.000000
 30
0.0
 10
63.000000
 20
147.000000
 30
0.0
  0
SPLINE
  5
187
100
AcDbEntity
  8
0
 62
7
100
AcDbSpline
 70
8
 71
3
 72
8
 73
4
 74
0
 40
0
 40
0
 40
0
 40
0
 40
1
 40
1
 40
1
 40
1
 10
63.000000
 20
147.000000
 30
0.0
 10
66.900000
 20
147.000000
 30
0.0
 10
72.000000
 20
149.900000
 30
0.0
 10
74.000000
 20
153.200000
 30
0.0
  0
SPLINE
  5
188
100
AcDbEntity
  8
0
 62
7
100
AcDbSpline
 70
8
 71
3
 72
8
 73
4
 74
0
 40
0
 40
0
 40
0
 40
0
 40
1
 40
1
 40
1
 40
1
 10
74.000000
 20
153.200000
 30
0.0
 10
75.800000
 20
156.100000
 30
0.0
 10
76.000000
 20
158.200000
 30
0.0
 10
76.000000
 20
172.200000
 30
0.0
  0
SPLINE
  5
189
100
AcDbEntity
  8
0
 62
7
100
AcDbSpline
 70
8
 71
3
 72
8
 73
4
 74
0
 40
0
 40
0
 40
0
 40
0
 40
1
 40
1
 40
1
 40
1
 10
76.000000
 20
172.200000
 30
0.0
 10
76.000000
 20
180.800000
 30
0.0
 10
75.500000
 20
189.100000
 30
0.0
 10
74.900000
 20
190.700000
 30
0.0
  0
SPLINE
  5
18a
100
AcDbEntity
  8
0
 62
7
100
AcDbSpline
 70
8
 71
3
 72
8
 73
4
 74
0
 40
0
 40
0
 40
0
 40
0
 40
1
 40
1
 40
1
 40
1
 10
74.900000
 20
190.700000
 30
0.0
 10
74.400000
 20
192.200000
 30
0.0
 10
72.500000
 20
195.000000
 30
0.0
 10
70.700000
 20
196.800000
 30
0.0
  0
SPLINE
  5
18b
100
AcDbEntity
  8
0
 62
7
100
AcDbSpline
 70
8
 71
3
 72
8
 73
4
 74
0
 40
0
 40
0
 40
0
 40
0
 40
1
 40
1
 40
1
 40
1
 10
70.700000
 20
196.800000
 30
0.0
 10
68.000000
 20
199.600000
 30
0.0
 10
67.700000
 20
200.300000
 30
0.0
 10
68.800000
 20
202.000000
 30
0.0
  0
SPLINE
  5
18c
100
AcDbEntity
  8
0
 62
7
100
AcDbSpline
 70
8
 71
3
 72
8
 73
4
 74
0
 40
0
 40
0
 40
0
 40
0
 40
1
 40
1
 40
1
 40
1
 10
68.800000
 20
202.000000
 30
0.0
 10
69.400000
 20
203.100000
 30
0.0
 10
70.000000
 20
206.000000
 30
0.0
 10
70.000000
 20
208.500000
 30
0.0
  0
SPLINE
  5
18d
100
AcDbEntity
  8
0
 62
7
100
AcDbSpline
 70
8
 71
3
 72
8
 73
4
 74
0
 40
0
 40
0
 40
0
 40
0
 40
1
 40
1
 40
1
 40
1
 10
70.000000
 20
208.500000
 30
0.0
 10
70.000000
 20
213.400000
 30
0.0
 10
68.700000
 20
214.300000
 30
0.0
 10
62.500000
 20
213.800000
 30
0.0
  0
SPLINE
  5
18e
100
AcDbEntity
  8
0
 62
7
100
AcDbSpline
 70
8
 71
3
 72
8
 73
4
 74
0
 40
0
 40
0
 40
0
 40
0
 40
1
 40
1
 40
1
 40
1
 10
62.500000
 20
213.800000
 30
0.0
 10
60.900000
 20
213.600000
 30
0.0
 10
56.800000
 20
213.300000
 30
0.0
 10
53.500000
 20
213.000000
 30
0.0
  0
LWPOLYLINE
  5
18f
100
AcDbEntity
  8
0
 62
7
100
AcDbPolyline
 90
5
 70
0
 10
87.300000
 20
195.500000
 30
0.0
 10
83.500000
 20
192.200000
 30
0.0
 10
83.200000
 20
173.600000
 30
0.0
 10
82.900000
 20
154.900000
 30
0.0
 10
86.300000
 20
151.500000
 30
0.0
  0
SPLINE
  5
190
100
AcDbEntity
  8
0
 62
7
100
AcDbSpline
 70
8
 71
3
 72
8
 73
4
 74
0
 40
0
 40
0
 40
0
 40
0
 40
1
 40
1
 40
1
 40
1
 10
66.800000
 20
207.500000
 30
0.0
 10
67.100000
 20
204.500000
 30
0.0
 10
65.400000
 20
202.200000
 30
0.0
 10
63.800000
 20
203.800000
 30
0.0
  0
SPLINE
  5
191
100
AcDbEntity
  8
0
 62
7
100
AcDbSpline
 70
8
 71
3
 72
8
 73
4
 74
0
 40
0
 40
0
 40
0
 40
0
 40
1
 40
1
 40
1
 40
1
 10
63.800000
 20
203.800000
 30
0.0
 10
62.300000
 20
205.300000
 30
0.0
 10
56.600000
 20
205.400000
 30
0.0
 10
53.800000
 20
203.900000
 30
0.0
  0
SPLINE
  5
192
100
AcDbEntity
  8
0
 62
7
100
AcDbSpline
 70
8
 71
3
 72
8
 73
4
 74
0
 40
0
 40
0
 40
0
 40
0
 40
1
 40
1
 40
1
 40
1
 10
53.800000
 20
203.900000
 30
0.0
 10
51.400000
 20
202.600000
 30
0.0
 10
50.000000
 20
204.000000
 30
0.0
 10
50.000000
 20
207.800000
 30
0.0
  0
SPLINE
  5
193
100
AcDbEntity
  8
0
 62
7
100
AcDbSpline
 70
8
 71
3
 72
8
 73
4
 74
0
 40
0
 40
0
 40
0
 40
0
 40
1
 40
1
 40
1
 40
1
 10
50.000000
 20
207.800000
 30
0.0
 10
50.000000
 20
210.000000
 30
0.0
 10
50.200000
 20
210.100000
 30
0.0
 10
58.300000
 20
209.800000
 30
0.0
  0
SPLINE
  5
194
100
AcDbEntity
  8
0
 62
7
100
AcDbSpline
 70
8
 71
3
 72
8
 73
4
 74
0
 40
0
 40
0
 40
0
 40
0
 40
1
 40
1
 40
1
 40
1
 10
58.300000
 20
209.800000
 30
0.0
 10
65.600000
 20
209.500000
 30
0.0
 10
66.500000
 20
209.300000
 30
0.0
 10
66.800000
 20
207.500000
 30
0.0
  0
LWPOLYLINE
  5
195
100
AcDbEntity
  8
0
 62
7
100
AcDbPolyline
 90
1
 70
1
 10
53.500000
 20
213.000000
 30
0.0
  0
SPLINE
  5
196
100
AcDbEntity
  8
0
 62
7
100
AcDbSpline
 70
8
 71
3
 72
8
 73
4
 74
0
 40
0
 40
0
 40
0
 40
0
 40
1
 40
1
 40
1
 40
1
 10
108.500000
 20
207.100000
 30
0.0
 10
108.500000
 20
204.700000
 30
0.0
 10
108.300000
 20
204.700000
 30
0.0
 10
100.300000
 20
204.500000
 30
0.0
  0
SPLINE
  5
197
100
AcDbEntity
  8
0
 62
7
100
AcDbSpline
 70
8
 71
3
 72
8
 73
4
 74
0
 40
0
 40
0
 40
0
 40
0
 40
1
 40
1
 40
1
 40
1
 10
100.300000
 20
204.500000
 30
0.0
 10
92.500000
 20
204.400000
 30
0.0
 10
92.000000
 20
204.500000
 30
0.0
 10
92.000000
 20
206.500000
 30
0.0
  0
SPLINE
  5
198
100
AcDbEntity
  8
0
 62
7
100
AcDbSpline
 70
8
 71
3
 72
8
 73
4
 74
0
 40
0
 40
0
 40
0
 40
0
 40
1
 40
1
 40
1
 40
1
 10
92.000000
 20
206.500000
 30
0.0
 10
92.000000
 20
209.800000
 30
0.0
 10
92.800000
 20
210.100000
 30
0.0
 10
101.000000
 20
209.800000
 30
0.0
  0
SPLINE
  5
199
100
AcDbEntity
  8
0
 62
7
100
AcDbSpline
 70
8
 71
3
 72
8
 73
4
 74
0
 40
0
 40
0
 40
0
 40
0
 40
1
 40
1
 40
1
 40
1
 10
101.000000
 20
209.800000
 30
0.0
 10
108.200000
 20
209.500000
 30
0.0
 10
108.500000
 20
209.400000
 30
0.0
 10
108.500000
 20
207.100000
 30
0.0
  0
LWPOLYLINE
  5
19a
100
AcDbEntity
  8
0
 62
7
100
AcDbPolyline
 90
1
 70
1
 10
66.800000
 20
207.500000
 30
0.0
  0
LWPOLYLINE
  5
19b
100
AcDbEntity
  8
0
 62
7
100
AcDbPolyline
 90
1
 70
1
 10
108.500000
 20
207.100000
 30
0.0
  0
SPLINE
  5
19c
100
AcDbEntity
  8
0
 62
7
100
AcDbSpline
 70
8
 71
3
 72
8
 73
4
 74
0
 40
0
 40
0
 40
0
 40
0
 40
1
 40
1
 40
1
 40
1
 10
201.000000
 20
181.000000
 30
0.0
 10
196.700000
 20
181.000000
 30
0.0
 10
196.100000
 20
181.300000
 30
0.0
 10
195.000000
 20
184.000000
 30
0.0
  0
SPLINE
  5
19d
100
AcDbEntity
  8
0
 62
7
100
AcDbSpline
 70
8
 71
3
 72
8
 73
4
 74
0
 40
0
 40
0
 40
0
 40
0
 40
1
 40
1
 40
1
 40
1
 10
195.000000
 20
184.000000
 30
0.0
 10
193.300000
 20
188.000000
 30
0.0
 10
191.500000
 20
189.300000
 30
0.0
 10
188.600000
 20
188.600000
 30
0.0
  0
SPLINE
  5
19e
100
AcDbEntity
  8
0
 62
7
100
AcDbSpline
 70
8
 71
3
 72
8
 73
4
 74
0
 40
0
 40
0
 40
0
 40
0
 40
1
 40
1
 40
1
 40
1
 10
188.600000
 20
188.600000
 30
0.0
 10
186.000000
 20
188.000000
 30
0.0
 10
183.400000
 20
183.300000
 30
0.0
 10
180.500000
 20
174.300000
 30
0.0
  0
SPLINE
  5
19f
100
AcDbEntity
  8
0
 62
7
100
AcDbSpline
 70
8
 71
3
 72
8
 73
4
 74
0
 40
0
 40
0
 40
0
 40
0
 40
1
 40
1
 40
1
 40
1
 10
180.500000
 20
174.300000
 30
0.0
 10
179.500000
 20
171.400000
 30
0.0
 10
178.400000
 20
169.000000
 30
0.0
 10
178.000000
 20
169.000000
 30
0.0
  0
SPLINE
  5
1a0
100
AcDbEntity
  8
0
 62
7
100
AcDbSpline
 70
8
 71
3
 72
8
 73
4
 74
0
 40
0
 40
0
 40
0
 40
0
 40
1
 40
1
 40
1
 40
1
 10
178.000000
 20
169.000000
 30
0.0
 10
177.500000
 20
169.000000
 30
0.0
 10
176.600000
 20
171.600000
 30
0.0
 10
175.900000
 20
174.800000
 30
0.0
  0
SPLINE
  5
1a1
100
AcDbEntity
  8
0
 62
7
100
AcDbSpline
 70
8
 71
3
 72
8
 73
4
 74
0
 40
0
 40
0
 40
0
 40
0
 40
1
 40
1
 40
1
 40
1
 10
175.900000
 20
174.800000
 30
0.0
 10
172.100000
 20
193.400000
 30
0.0
 10
170.500000
 20
197.000000
 30
0.0
 10
166.500000
 20
197.000000
 30
0.0
  0
SPLINE
  5
1a2
100
AcDbEntity
  8
0
 62
7
100
AcDbSpline
 70
8
 71
3
 72
8
 73
4
 74
0
 40
0
 40
0
 40
0
 40
0
 40
1
 40
1
 40
1
 40
1
 10
166.500000
 20
197.000000
 30
0.0
 10
163.200000
 20
197.000000
 30
0.0
 10
160.700000
 20
192.800000
 30
0.0
 10
158.500000
 20
183.900000
 30
0.0
  0
SPLINE
  5
1a3
100
AcDbEntity
  8
0
 62
7
100
AcDbSpline
 70
8
 71
3
 72
8
 73
4
 74
0
 40
0
 40
0
 40
0
 40
0
 40
1
 40
1
 40
1
 40
1
 10
158.500000
 20
183.900000
 30
0.0
 10
157.500000
 20
180.100000
 30
0.0
 10
156.500000
 20
177.000000
 30
0.0
 10
156.100000
 20
177.000000
 30
0.0
  0
SPLINE
  5
1a4
100
AcDbEntity
  8
0
 62
7
100
AcDbSpline
 70
8
 71
3
 72
8
 73
4
 74
0
 40
0
 40
0
 40
0
 40
0
 40
1
 40
1
 40
1
 40
1
 10
156.100000
 20
177.000000
 30
0.0
 10
155.800000
 20
177.000000
 30
0.0
 10
154.800000
 20
178.500000
 30
0.0
 10
154.000000
 20
180.300000
 30
0.0
  0
SPLINE
  5
1a5
100
AcDbEntity
  8
0
 62
7
100
AcDbSpline
 70
8
 71
3
 72
8
 73
4
 74
0
 40
0
 40
0
 40
0
 40
0
 40
1
 40
1
 40
1
 40
1
 10
154.000000
 20
180.300000
 30
0.0
 10
153.100000
 20
182.300000
 30
0.0
 10
151.600000
 20
183.600000
 30
0.0
 10
150.300000
 20
183.800000
 30
0.0
  0
SPLINE
  5
1a6
100
AcDbEntity
  8
0
 62
7
100
AcDbSpline
 70
8
 71
3
 72
8
 73
4
 74
0
 40
0
 40
0
 40
0
 40
0
 40
1
 40
1
 40
1
 40
1
 10
150.300000
 20
183.800000
 30
0.0
 10
148.100000
 20
184.100000
 30
0.0
 10
148.000000
 20
184.600000
 30
0.0
 10
148.000000
 20
193.600000
 30
0.0
  0
LWPOLYLINE
  5
1a7
100
AcDbEntity
  8
0
 62
7
100
AcDbPolyline
 90
3
 70
0
 10
205.900000
 20
192.000000
 30
0.0
 10
205.800000
 20
181.000000
 30
0.0
 10
201.000000
 20
181.000000
 30
0.0
  0
SPLINE
  5
1a8
100
AcDbEntity
  8
0
 62
7
100
AcDbSpline
 70
8
 71
3
 72
8
 73
4
 74
0
 40
0
 40
0
 40
0
 40
0
 40
1
 40
1
 40
1
 40
1
 10
63.000000
 20
199.400000
 30
0.0
 10
63.000000
 20
197.700000
 30
0.0
 10
64.300000
 20
195.700000
 30
0.0
 10
67.000000
 20
193.300000
 30
0.0
  0
LWPOLYLINE
  5
1a9
100
AcDbEntity
  8
0
 62
7
100
AcDbPolyline
 90
6
 70
0
 10
148.000000
 20
193.600000
 30
0.0
 10
148.000000
 20
203.000000
 30
0.0
 10
177.000000
 20
203.000000
 30
0.0
 10
206.000000
 20
203.000000
 30
0.0
 10
205.900000
 20
192.000000
 30
0.0
 10
205.900000
 20
192.000000
 30
0.0
  0
SPLINE
  5
1aa
100
AcDbEntity
  8
0
 62
7
100
AcDbSpline
 70
8
 71
3
 72
8
 73
4
 74
0
 40
0
 40
0
 40
0
 40
0
 40
1
 40
1
 40
1
 40
1
 10
71.000000
 20
173.200000
 30
0.0
 10
71.000000
 20
157.600000
 30
0.0
 10
70.900000
 20
156.500000
 30
0.0
 10
68.800000
 20
154.300000
 30
0.0
  0
SPLINE
  5
1ab
100
AcDbEntity
  8
0
 62
7
100
AcDbSpline
 70
8
 71
3
 72
8
 73
4
 74
0
 40
0
 40
0
 40
0
 40
0
 40
1
 40
1
 40
1
 40
1
 10
68.800000
 20
154.300000
 30
0.0
 10
66.900000
 20
152.300000
 30
0.0
 10
65.700000
 20
152.000000
 30
0.0
 10
58.900000
 20
152.000000
 30
0.0
  0
SPLINE
  5
1ac
100
AcDbEntity
  8
0
 62
7
100
AcDbSpline
 70
8
 71
3
 72
8
 73
4
 74
0
 40
0
 40
0
 40
0
 40
0
 40
1
 40
1
 40
1
 40
1
 10
58.900000
 20
152.000000
 30
0.0
 10
54.600000
 20
152.000000
 30
0.0
 10
50.400000
 20
152.300000
 30
0.0
 10
49.500000
 20
152.600000
 30
0.0
  0
SPLINE
  5
1ad
100
AcDbEntity
  8
0
 62
7
100
AcDbSpline
 70
8
 71
3
 72
8
 73
4
 74
0
 40
0
 40
0
 40
0
 40
0
 40
1
 40
1
 40
1
 40
1
 10
49.500000
 20
152.600000
 30
0.0
 10
45.900000
 20
154.000000
 30
0.0
 10
45.200000
 20
157.900000
 30
0.0
 10
45.700000
 20
174.000000
 30
0.0
  0
LWPOLYLINE
  5
1ae
100
AcDbEntity
  8
0
 62
7
100
AcDbPolyline
 90
3
 70
0
 10
67.000000
 20
193.300000
 30
0.0
 10
71.000000
 20
189.700000
 30
0.0
 10
71.000000
 20
173.200000
 30
0.0
  0
SPLINE
  5
1af
100
AcDbEntity
  8
0
 62
7
100
AcDbSpline
 70
8
 71
3
 72
8
 73
4
 74
0
 40
0
 40
0
 40
0
 40
0
 40
1
 40
1
 40
1
 40
1
 10
50.100000
 20
193.500000
 30
0.0
 10
52.200000
 20
195.800000
 30
0.0
 10
54.000000
 20
198.600000
 30
0.0
 10
54.000000
 20
199.800000
 30
0.0
  0
SPLINE
  5
1b0
100
AcDbEntity
  8
0
 62
7
100
AcDbSpline
 70
8
 71
3
 72
8
 73
4
 74
0
 40
0
 40
0
 40
0
 40
0
 40
1
 40
1
 40
1
 40
1
 10
54.000000
 20
199.800000
 30
0.0
 10
54.000000
 20
201.700000
 30
0.0
 10
54.500000
 20
202.000000
 30
0.0
 10
58.500000
 20
202.000000
 30
0.0
  0
SPLINE
  5
1b1
100
AcDbEntity
  8
0
 62
7
100
AcDbSpline
 70
8
 71
3
 72
8
 73
4
 74
0
 40
0
 40
0
 40
0
 40
0
 40
1
 40
1
 40
1
 40
1
 10
58.500000
 20
202.000000
 30
0.0
 10
62.700000
 20
202.000000
 30
0.0
 10
63.000000
 20
201.800000
 30
0.0
 10
63.000000
 20
199.400000
 30
0.0
  0
LWPOLYLINE
  5
1b2
100
AcDbEntity
  8
0
 62
7
100
AcDbPolyline
 90
3
 70
0
 10
45.700000
 20
174.000000
 30
0.0
 10
46.100000
 20
189.500000
 30
0.0
 10
50.100000
 20
193.500000
 30
0.0
  0
SPLINE
  5
1b3
100
AcDbEntity
  8
0
 62
7
100
AcDbSpline
 70
8
 71
3
 72
8
 73
4
 74
0
 40
0
 40
0
 40
0
 40
0
 40
1
 40
1
 40
1
 40
1
 10
105.000000
 20
199.400000
 30
0.0
 10
105.000000
 20
197.700000
 30
0.0
 10
106.300000
 20
195.700000
 30
0.0
 10
109.000000
 20
193.300000
 30
0.0
  0
LWPOLYLINE
  5
1b4
100
AcDbEntity
  8
0
 62
7
100
AcDbPolyline
 90
1
 70
1
 10
63.000000
 20
199.400000
 30
0.0
  0
SPLINE
  5
1b5
100
AcDbEntity
  8
0
 62
7
100
AcDbSpline
 70
8
 71
3
 72
8
 73
4
 74
0
 40
0
 40
0
 40
0
 40
0
 40
1
 40
1
 40
1
 40
1
 10
113.000000
 20
173.200000
 30
0.0
 10
113.000000
 20
157.600000
 30
0.0
 10
112.900000
 20
156.500000
 30
0.0
 10
110.800000
 20
154.300000
 30
0.0
  0
SPLINE
  5
1b6
100
AcDbEntity
  8
0
 62
7
100
AcDbSpline
 70
8
 71
3
 72
8
 73
4
 74
0
 40
0
 40
0
 40
0
 40
0
 40
1
 40
1
 40
1
 40
1
 10
110.800000
 20
154.300000
 30
0.0
 10
108.900000
 20
152.300000
 30
0.0
 10
107.700000
 20
152.000000
 30
0.0
 10
100.900000
 20
152.000000
 30
0.0
  0
SPLINE
  5
1b7
100
AcDbEntity
  8
0
 62
7
100
AcDbSpline
 70
8
 71
3
 72
8
 73
4
 74
0
 40
0
 40
0
 40
0
 40
0
 40
1
 40
1
 40
1
 40
1
 10
100.900000
 20
152.000000
 30
0.0
 10
91.600000
 20
152.000000
 30
0.0
 10
90.400000
 20
152.400000
 30
0.0
 10
88.500000
 20
156.100000
 30
0.0
  0
SPLINE
  5
1b8
100
AcDbEntity
  8
0
 62
7
100
AcDbSpline
 70
8
 71
3
 72
8
 73
4
 74
0
 40
0
 40
0
 40
0
 40
0
 40
1
 40
1
 40
1
 40
1
 10
88.500000
 20
156.100000
 30
0.0
 10
86.700000
 20
159.500000
 30
0.0
 10
86.500000
 20
186.200000
 30
0.0
 10
88.200000
 20
189.500000
 30
0.0
  0
SPLINE
  5
1b9
100
AcDbEntity
  8
0
 62
7
100
AcDbSpline
 70
8
 71
3
 72
8
 73
4
 74
0
 40
0
 40
0
 40
0
 40
0
 40
1
 40
1
 40
1
 40
1
 10
88.200000
 20
189.500000
 30
0.0
 10
88.800000
 20
190.500000
 30
0.0
 10
90.800000
 20
192.900000
 30
0.0
 10
92.700000
 20
194.600000
 30
0.0
  0
SPLINE
  5
1ba
100
AcDbEntity
  8
0
 62
7
100
AcDbSpline
 70
8
 71
3
 72
8
 73
4
 74
0
 40
0
 40
0
 40
0
 40
0
 40
1
 40
1
 40
1
 40
1
 10
92.700000
 20
194.600000
 30
0.0
 10
95.300000
 20
197.100000
 30
0.0
 10
96.000000
 20
198.400000
 30
0.0
 10
95.500000
 20
199.900000
 30
0.0
  0
SPLINE
  5
1bb
100
AcDbEntity
  8
0
 62
7
100
AcDbSpline
 70
8
 71
3
 72
8
 73
4
 74
0
 40
0
 40
0
 40
0
 40
0
 40
1
 40
1
 40
1
 40
1
 10
95.500000
 20
199.900000
 30
0.0
 10
94.900000
 20
201.800000
 30
0.0
 10
95.300000
 20
202.000000
 30
0.0
 10
99.900000
 20
202.000000
 30
0.0
  0
SPLINE
  5
1bc
100
AcDbEntity
  8
0
 62
7
100
AcDbSpline
 70
8
 71
3
 72
8
 73
4
 74
0
 40
0
 40
0
 40
0
 40
0
 40
1
 40
1
 40
1
 40
1
 10
99.900000
 20
202.000000
 30
0.0
 10
104.700000
 20
202.000000
 30
0.0
 10
105.000000
 20
201.900000
 30
0.0
 10
105.000000
 20
199.400000
 30
0.0
  0
LWPOLYLINE
  5
1bd
100
AcDbEntity
  8
0
 62
7
100
AcDbPolyline
 90
3
 70
0
 10
109.000000
 20
193.300000
 30
0.0
 10
113.000000
 20
189.700000
 30
0.0
 10
113.000000
 20
173.200000
 30
0.0
  0
SPLINE
  5
1be
100
AcDbEntity
  8
0
 62
7
100
AcDbSpline
 70
8
 71
3
 72
8
 73
4
 74
0
 40
0
 40
0
 40
0
 40
0
 40
1
 40
1
 40
1
 40
1
 10
169.900000
 20
179.300000
 30
0.0
 10
172.300000
 20
167.200000
 30
0.0
 10
174.000000
 20
164.000000
 30
0.0
 10
178.100000
 20
164.000000
 30
0.0
  0
SPLINE
  5
1bf
100
AcDbEntity
  8
0
 62
7
100
AcDbSpline
 70
8
 71
3
 72
8
 73
4
 74
0
 40
0
 40
0
 40
0
 40
0
 40
1
 40
1
 40
1
 40
1
 10
178.100000
 20
164.000000
 30
0.0
 10
181.600000
 20
164.000000
 30
0.0
 10
183.000000
 20
166.100000
 30
0.0
 10
186.000000
 20
175.000000
 30
0.0
  0
SPLINE
  5
1c0
100
AcDbEntity
  8
0
 62
7
100
AcDbSpline
 70
8
 71
3
 72
8
 73
4
 74
0
 40
0
 40
0
 40
0
 40
0
 40
1
 40
1
 40
1
 40
1
 10
186.000000
 20
175.000000
 30
0.0
 10
188.700000
 20
183.000000
 30
0.0
 10
189.600000
 20
184.100000
 30
0.0
 10
190.900000
 20
180.700000
 30
0.0
  0
SPLINE
  5
1c1
100
AcDbEntity
  8
0
 62
7
100
AcDbSpline
 70
8
 71
3
 72
8
 73
4
 74
0
 40
0
 40
0
 40
0
 40
0
 40
1
 40
1
 40
1
 40
1
 10
190.900000
 20
180.700000
 30
0.0
 10
192.400000
 20
176.800000
 30
0.0
 10
196.200000
 20
174.800000
 30
0.0
 10
201.200000
 20
175.200000
 30
0.0
  0
LWPOLYLINE
  5
1c2
100
AcDbEntity
  8
0
 62
7
100
AcDbPolyline
 90
1
 70
1
 10
105.000000
 20
199.400000
 30
0.0
  0
SPLINE
  5
1c3
100
AcDbEntity
  8
0
 62
7
100
AcDbSpline
 70
8
 71
3
 72
8
 73
4
 74
0
 40
0
 40
0
 40
0
 40
0
 40
1
 40
1
 40
1
 40
1
 10
148.000000
 20
169.000000
 30
0.0
 10
148.000000
 20
174.500000
 30
0.0
 10
148.300000
 20
179.000000
 30
0.0
 10
148.800000
 20
179.000000
 30
0.0
  0
SPLINE
  5
1c4
100
AcDbEntity
  8
0
 62
7
100
AcDbSpline
 70
8
 71
3
 72
8
 73
4
 74
0
 40
0
 40
0
 40
0
 40
0
 40
1
 40
1
 40
1
 40
1
 10
148.800000
 20
179.000000
 30
0.0
 10
149.200000
 20
179.000000
 30
0.0
 10
150.400000
 20
177.300000
 30
0.0
 10
151.500000
 20
175.200000
 30
0.0
  0
SPLINE
  5
1c5
100
AcDbEntity
  8
0
 62
7
100
AcDbSpline
 70
8
 71
3
 72
8
 73
4
 74
0
 40
0
 40
0
 40
0
 40
0
 40
1
 40
1
 40
1
 40
1
 10
151.500000
 20
175.200000
 30
0.0
 10
152.900000
 20
172.600000
 30
0.0
 10
154.300000
 20
171.400000
 30
0.0
 10
156.200000
 20
171.200000
 30
0.0
  0
SPLINE
  5
1c6
100
AcDbEntity
  8
0
 62
7
100
AcDbSpline
 70
8
 71
3
 72
8
 73
4
 74
0
 40
0
 40
0
 40
0
 40
0
 40
1
 40
1
 40
1
 40
1
 10
156.200000
 20
171.200000
 30
0.0
 10
159.400000
 20
170.800000
 30
0.0
 10
161.000000
 20
173.400000
 30
0.0
 10
163.500000
 20
183.000000
 30
0.0
  0
SPLINE
  5
1c7
100
AcDbEntity
  8
0
 62
7
100
AcDbSpline
 70
8
 71
3
 72
8
 73
4
 74
0
 40
0
 40
0
 40
0
 40
0
 40
1
 40
1
 40
1
 40
1
 10
163.500000
 20
183.000000
 30
0.0
 10
166.300000
 20
194.000000
 30
0.0
 10
167.000000
 20
193.600000
 30
0.0
 10
169.900000
 20
179.300000
 30
0.0
  0
LWPOLYLINE
  5
1c8
100
AcDbEntity
  8
0
 62
7
100
AcDbPolyline
 90
7
 70
0
 10
201.200000
 20
175.200000
 30
0.0
 10
205.500000
 20
175.500000
 30
0.0
 10
205.700000
 20
167.300000
 30
0.0
 10
205.900000
 20
159.000000
 30
0.0
 10
176.900000
 20
159.000000
 30
0.0
 10
148.000000
 20
159.000000
 30
0.0
 10
148.000000
 20
169.000000
 30
0.0
  0
SPLINE
  5
1c9
100
AcDbEntity
  8
0
 62
7
100
AcDbSpline
 70
8
 71
3
 72
8
 73
4
 74
0
 40
0
 40
0
 40
0
 40
0
 40
1
 40
1
 40
1
 40
1
 10
64.000000
 20
137.500000
 30
0.0
 10
73.600000
 20
132.600000
 30
0.0
 10
73.600000
 20
119.400000
 30
0.0
 10
64.000000
 20
114.500000
 30
0.0
  0
SPLINE
  5
1ca
100
AcDbEntity
  8
0
 62
7
100
AcDbSpline
 70
8
 71
3
 72
8
 73
4
 74
0
 40
0
 40
0
 40
0
 40
0
 40
1
 40
1
 40
1
 40
1
 10
64.000000
 20
114.500000
 30
0.0
 10
58.300000
 20
111.500000
 30
0.0
 10
51.200000
 20
113.700000
 30
0.0
 10
47.300000
 20
119.600000
 30
0.0
  0
SPLINE
  5
1cb
100
AcDbEntity
  8
0
 62
7
100
AcDbSpline
 70
8
 71
3
 72
8
 73
4
 74
0
 40
0
 40
0
 40
0
 40
0
 40
1
 40
1
 40
1
 40
1
 10
47.300000
 20
119.600000
 30
0.0
 10
40.700000
 20
129.700000
 30
0.0
 10
53.100000
 20
143.100000
 30
0.0
 10
64.000000
 20
137.500000
 30
0.0
  0
LWPOLYLINE
  5
1cc
100
AcDbEntity
  8
0
 62
7
100
AcDbPolyline
 90
1
 70
1
 10
169.900000
 20
179.300000
 30
0.0
  0
SPLINE
  5
1cd
100
AcDbEntity
  8
0
 62
7
100
AcDbSpline
 70
8
 71
3
 72
8
 73
4
 74
0
 40
0
 40
0
 40
0
 40
0
 40
1
 40
1
 40
1
 40
1
 10
106.000000
 20
137.500000
 30
0.0
 10
110.500000
 20
135.200000
 30
0.0
 10
113.000000
 20
130.900000
 30
0.0
 10
113.000000
 20
125.500000
 30
0.0
  0
SPLINE
  5
1ce
100
AcDbEntity
  8
0
 62
7
100
AcDbSpline
 70
8
 71
3
 72
8
 73
4
 74
0
 40
0
 40
0
 40
0
 40
0
 40
1
 40
1
 40
1
 40
1
 10
113.000000
 20
125.500000
 30
0.0
 10
113.000000
 20
121.500000
 30
0.0
 10
112.500000
 20
120.300000
 30
0.0
 10
109.700000
 20
117.500000
 30
0.0
  0
SPLINE
  5
1cf
100
AcDbEntity
  8
0
 62
7
100
AcDbSpline
 70
8
 71
3
 72
8
 73
4
 74
0
 40
0
 40
0
 40
0
 40
0
 40
1
 40
1
 40
1
 40
1
 10
109.700000
 20
117.500000
 30
0.0
 10
103.700000
 20
111.500000
 30
0.0
 10
96.300000
 20
111.600000
 30
0.0
 10
91.100000
 20
117.500000
 30
0.0
  0
SPLINE
  5
1d0
100
AcDbEntity
  8
0
 62
7
100
AcDbSpline
 70
8
 71
3
 72
8
 73
4
 74
0
 40
0
 40
0
 40
0
 40
0
 40
1
 40
1
 40
1
 40
1
 10
91.100000
 20
117.500000
 30
0.0
 10
85.900000
 20
123.400000
 30
0.0
 10
85.800000
 20
128.200000
 30
0.0
 10
90.700000
 20
134.000000
 30
0.0
  0
SPLINE
  5
1d1
100
AcDbEntity
  8
0
 62
7
100
AcDbSpline
 70
8
 71
3
 72
8
 73
4
 74
0
 40
0
 40
0
 40
0
 40
0
 40
1
 40
1
 40
1
 40
1
 10
90.700000
 20
134.000000
 30
0.0
 10
94.900000
 20
139.100000
 30
0.0
 10
100.500000
 20
140.300000
 30
0.0
 10
106.000000
 20
137.500000
 30
0.0
  0
LWPOLYLINE
  5
1d2
100
AcDbEntity
  8
0
 62
7
100
AcDbPolyline
 90
1
 70
1
 10
64.000000
 20
137.500000
 30
0.0
  0
SPLINE
  5
1d3
100
AcDbEntity
  8
0
 62
7
100
AcDbSpline
 70
8
 71
3
 72
8
 73
4
 74
0
 40
0
 40
0
 40
0
 40
0
 40
1
 40
1
 40
1
 40
1
 10
82.600000
 20
128.500000
 30
0.0
 10
81.700000
 20
125.000000
 30
0.0
 10
83.600000
 20
118.700000
 30
0.0
 10
86.500000
 20
115.200000
 30
0.0
  0
SPLINE
  5
1d4
100
AcDbEntity
  8
0
 62
7
100
AcDbSpline
 70
8
 71
3
 72
8
 73
4
 74
0
 40
0
 40
0
 40
0
 40
0
 40
1
 40
1
 40
1
 40
1
 10
86.500000
 20
115.200000
 30
0.0
 10
88.100000
 20
113.200000
 30
0.0
 10
89.000000
 20
111.000000
 30
0.0
 10
89.000000
 20
108.600000
 30
0.0
  0
SPLINE
  5
1d5
100
AcDbEntity
  8
0
 62
7
100
AcDbSpline
 70
8
 71
3
 72
8
 73
4
 74
0
 40
0
 40
0
 40
0
 40
0
 40
1
 40
1
 40
1
 40
1
 10
89.000000
 20
108.600000
 30
0.0
 10
89.000000
 20
104.800000
 30
0.0
 10
91.000000
 20
103.000000
 30
0.0
 10
95.000000
 20
103.000000
 30
0.0
  0
SPLINE
  5
1d6
100
AcDbEntity
  8
0
 62
7
100
AcDbSpline
 70
8
 71
3
 72
8
 73
4
 74
0
 40
0
 40
0
 40
0
 40
0
 40
1
 40
1
 40
1
 40
1
 10
95.000000
 20
103.000000
 30
0.0
 10
96.900000
 20
103.000000
 30
0.0
 10
97.000000
 20
102.800000
 30
0.0
 10
95.600000
 20
100.300000
 30
0.0
  0
SPLINE
  5
1d7
100
AcDbEntity
  8
0
 62
7
100
AcDbSpline
 70
8
 71
3
 72
8
 73
4
 74
0
 40
0
 40
0
 40
0
 40
0
 40
1
 40
1
 40
1
 40
1
 10
95.600000
 20
100.300000
 30
0.0
 10
93.500000
 20
96.200000
 30
0.0
 10
90.200000
 20
93.400000
 30
0.0
 10
83.900000
 20
90.600000
 30
0.0
  0
SPLINE
  5
1d8
100
AcDbEntity
  8
0
 62
7
100
AcDbSpline
 70
8
 71
3
 72
8
 73
4
 74
0
 40
0
 40
0
 40
0
 40
0
 40
1
 40
1
 40
1
 40
1
 10
83.900000
 20
90.600000
 30
0.0
 10
78.500000
 20
88.100000
 30
0.0
 10
78.200000
 20
88.100000
 30
0.0
 10
73.400000
 20
89.500000
 30
0.0
  0
SPLINE
  5
1d9
100
AcDbEntity
  8
0
 62
7
100
AcDbSpline
 70
8
 71
3
 72
8
 73
4
 74
0
 40
0
 40
0
 40
0
 40
0
 40
1
 40
1
 40
1
 40
1
 10
73.400000
 20
89.500000
 30
0.0
 10
68.500000
 20
90.900000
 30
0.0
 10
64.400000
 20
94.300000
 30
0.0
 10
62.100000
 20
98.700000
 30
0.0
  0
SPLINE
  5
1da
100
AcDbEntity
  8
0
 62
7
100
AcDbSpline
 70
8
 71
3
 72
8
 73
4
 74
0
 40
0
 40
0
 40
0
 40
0
 40
1
 40
1
 40
1
 40
1
 10
62.100000
 20
98.700000
 30
0.0
 10
60.400000
 20
102.100000
 30
0.0
 10
60.800000
 20
103.000000
 30
0.0
 10
63.900000
 20
103.000000
 30
0.0
  0
SPLINE
  5
1db
100
AcDbEntity
  8
0
 62
7
100
AcDbSpline
 70
8
 71
3
 72
8
 73
4
 74
0
 40
0
 40
0
 40
0
 40
0
 40
1
 40
1
 40
1
 40
1
 10
63.900000
 20
103.000000
 30
0.0
 10
67.500000
 20
103.000000
 30
0.0
 10
69.400000
 20
105.200000
 30
0.0
 10
69.200000
 20
109.500000
 30
0.0
  0
SPLINE
  5
1dc
100
AcDbEntity
  8
0
 62
7
100
AcDbSpline
 70
8
 71
3
 72
8
 73
4
 74
0
 40
0
 40
0
 40
0
 40
0
 40
1
 40
1
 40
1
 40
1
 10
69.200000
 20
109.500000
 30
0.0
 10
69.100000
 20
111.500000
 30
0.0
 10
69.600000
 20
113.000000
 30
0.0
 10
70.500000
 20
113.400000
 30
0.0
  0
SPLINE
  5
1dd
100
AcDbEntity
  8
0
 62
7
100
AcDbSpline
 70
8
 71
3
 72
8
 73
4
 74
0
 40
0
 40
0
 40
0
 40
0
 40
1
 40
1
 40
1
 40
1
 10
70.500000
 20
113.400000
 30
0.0
 10
73.200000
 20
114.400000
 30
0.0
 10
76.200000
 20
122.000000
 30
0.0
 10
75.800000
 20
126.600000
 30
0.0
  0
LWPOLYLINE
  5
1de
100
AcDbEntity
  8
0
 62
7
100
AcDbPolyline
 90
1
 70
1
 10
106.000000
 20
137.500000
 30
0.0
  0
SPLINE
  5
1df
100
AcDbEntity
  8
0
 62
7
100
AcDbSpline
 70
8
 71
3
 72
8
 73
4
 74
0
 40
0
 40
0
 40
0
 40
0
 40
1
 40
1
 40
1
 40
1
 10
79.400000
 20
131.000000
 30
0.0
 10
83.000000
 20
131.000000
 30
0.0
 10
83.200000
 20
130.900000
 30
0.0
 10
82.600000
 20
128.500000
 30
0.0
  0
LWPOLYLINE
  5
1e0
100
AcDbEntity
  8
0
 62
7
100
AcDbPolyline
 90
3
 70
0
 10
75.800000
 20
126.600000
 30
0.0
 10
75.500000
 20
131.000000
 30
0.0
 10
79.400000
 20
131.000000
 30
0.0
  0
SPLINE
  5
1e1
100
AcDbEntity
  8
0
 62
7
100
AcDbSpline
 70
8
 71
3
 72
8
 73
4
 74
0
 40
0
 40
0
 40
0
 40
0
 40
1
 40
1
 40
1
 40
1
 10
129.400000
 20
129.400000
 30
0.0
 10
130.300000
 20
128.600000
 30
0.0
 10
131.000000
 20
127.000000
 30
0.0
 10
131.000000
 20
126.000000
 30
0.0
  0
SPLINE
  5
1e2
100
AcDbEntity
  8
0
 62
7
100
AcDbSpline
 70
8
 71
3
 72
8
 73
4
 74
0
 40
0
 40
0
 40
0
 40
0
 40
1
 40
1
 40
1
 40
1
 10
131.000000
 20
126.000000
 30
0.0
 10
131.000000
 20
120.300000
 30
0.0
 10
135.100000
 20
118.000000
 30
0.0
 10
145.200000
 20
118.000000
 30
0.0
  0
LWPOLYLINE
  5
1e3
100
AcDbEntity
  8
0
 62
7
100
AcDbPolyline
 90
1
 70
1
 10
82.600000
 20
128.500000
 30
0.0
  0
SPLINE
  5
1e4
100
AcDbEntity
  8
0
 62
7
100
AcDbSpline
 70
8
 71
3
 72
8
 73
4
 74
0
 40
0
 40
0
 40
0
 40
0
 40
1
 40
1
 40
1
 40
1
 10
141.400000
 20
111.000000
 30
0.0
 10
132.300000
 20
111.000000
 30
0.0
 10
130.700000
 20
111.300000
 30
0.0
 10
129.000000
 20
113.000000
 30
0.0
  0
SPLINE
  5
1e5
100
AcDbEntity
  8
0
 62
7
100
AcDbSpline
 70
8
 71
3
 72
8
 73
4
 74
0
 40
0
 40
0
 40
0
 40
0
 40
1
 40
1
 40
1
 40
1
 10
129.000000
 20
113.000000
 30
0.0
 10
127.900000
 20
114.100000
 30
0.0
 10
127.000000
 20
115.900000
 30
0.0
 10
127.000000
 20
117.000000
 30
0.0
  0
SPLINE
  5
1e6
100
AcDbEntity
  8
0
 62
7
100
AcDbSpline
 70
8
 71
3
 72
8
 73
4
 74
0
 40
0
 40
0
 40
0
 40
0
 40
1
 40
1
 40
1
 40
1
 10
127.000000
 20
117.000000
 30
0.0
 10
127.000000
 20
119.800000
 30
0.0
 10
123.500000
 20
123.000000
 30
0.0
 10
120.500000
 20
123.000000
 30
0.0
  0
SPLINE
  5
1e7
100
AcDbEntity
  8
0
 62
7
100
AcDbSpline
 70
8
 71
3
 72
8
 73
4
 74
0
 40
0
 40
0
 40
0
 40
0
 40
1
 40
1
 40
1
 40
1
 10
120.500000
 20
123.000000
 30
0.0
 10
118.500000
 20
123.000000
 30
0.0
 10
118.000000
 20
123.500000
 30
0.0
 10
118.000000
 20
125.400000
 30
0.0
  0
SPLINE
  5
1e8
100
AcDbEntity
  8
0
 62
7
100
AcDbSpline
 70
8
 71
3
 72
8
 73
4
 74
0
 40
0
 40
0
 40
0
 40
0
 40
1
 40
1
 40
1
 40
1
 10
118.000000
 20
125.400000
 30
0.0
 10
118.000000
 20
126.700000
 30
0.0
 10
117.700000
 20
128.500000
 30
0.0
 10
117.400000
 20
129.400000
 30
0.0
  0
SPLINE
  5
1e9
100
AcDbEntity
  8
0
 62
7
100
AcDbSpline
 70
8
 71
3
 72
8
 73
4
 74
0
 40
0
 40
0
 40
0
 40
0
 40
1
 40
1
 40
1
 40
1
 10
117.400000
 20
129.400000
 30
0.0
 10
116.900000
 20
130.700000
 30
0.0
 10
117.700000
 20
131.000000
 30
0.0
 10
122.300000
 20
131.000000
 30
0.0
  0
SPLINE
  5
1ea
100
AcDbEntity
  8
0
 62
7
100
AcDbSpline
 70
8
 71
3
 72
8
 73
4
 74
0
 40
0
 40
0
 40
0
 40
0
 40
1
 40
1
 40
1
 40
1
 10
122.300000
 20
131.000000
 30
0.0
 10
126.000000
 20
131.000000
 30
0.0
 10
128.400000
 20
130.500000
 30
0.0
 10
129.400000
 20
129.400000
 30
0.0
  0
LWPOLYLINE
  5
1eb
100
AcDbEntity
  8
0
 62
7
100
AcDbPolyline
 90
5
 70
0
 10
145.200000
 20
118.000000
 30
0.0
 10
152.600000
 20
118.000000
 30
0.0
 10
152.200000
 20
114.500000
 30
0.0
 10
151.800000
 20
111.000000
 30
0.0
 10
141.400000
 20
111.000000
 30
0.0
  0
SPLINE
  5
1ec
100
AcDbEntity
  8
0
 62
7
100
AcDbSpline
 70
8
 71
3
 72
8
 73
4
 74
0
 40
0
 40
0
 40
0
 40
0
 40
1
 40
1
 40
1
 40
1
 10
206.700000
 20
129.600000
 30
0.0
 10
212.400000
 20
129.500000
 30
0.0
 10
217.400000
 20
129.000000
 30
0.0
 10
217.900000
 20
128.500000
 30
0.0
  0
SPLINE
  5
1ed
100
AcDbEntity
  8
0
 62
7
100
AcDbSpline
 70
8
 71
3
 72
8
 73
4
 74
0
 40
0
 40
0
 40
0
 40
0
 40
1
 40
1
 40
1
 40
1
 10
217.900000
 20
128.500000
 30
0.0
 10
219.500000
 20
126.900000
 30
0.0
 10
219.700000
 20
101.300000
 30
0.0
 10
218.200000
 20
99.800000
 30
0.0
  0
SPLINE
  5
1ee
100
AcDbEntity
  8
0
 62
7
100
AcDbSpline
 70
8
 71
3
 72
8
 73
4
 74
0
 40
0
 40
0
 40
0
 40
0
 40
1
 40
1
 40
1
 40
1
 10
218.200000
 20
99.800000
 30
0.0
 10
217.200000
 20
98.800000
 30
0.0
 10
210.000000
 20
98.500000
 30
0.0
 10
188.100000
 20
98.300000
 30
0.0
  0
SPLINE
  5
1ef
100
AcDbEntity
  8
0
 62
7
100
AcDbSpline
 70
8
 71
3
 72
8
 73
4
 74
0
 40
0
 40
0
 40
0
 40
0
 40
1
 40
1
 40
1
 40
1
 10
188.100000
 20
98.300000
 30
0.0
 10
156.300000
 20
98.000000
 30
0.0
 10
156.000000
 20
98.100000
 30
0.0
 10
155.500000
 20
104.100000
 30
0.0
  0
SPLINE
  5
1f0
100
AcDbEntity
  8
0
 62
7
100
AcDbSpline
 70
8
 71
3
 72
8
 73
4
 74
0
 40
0
 40
0
 40
0
 40
0
 40
1
 40
1
 40
1
 40
1
 10
155.500000
 20
104.100000
 30
0.0
 10
155.300000
 20
106.000000
 30
0.0
 10
155.000000
 20
107.500000
 30
0.0
 10
154.900000
 20
107.500000
 30
0.0
  0
SPLINE
  5
1f1
100
AcDbEntity
  8
0
 62
7
100
AcDbSpline
 70
8
 71
3
 72
8
 73
4
 74
0
 40
0
 40
0
 40
0
 40
0
 40
1
 40
1
 40
1
 40
1
 10
154.900000
 20
107.500000
 30
0.0
 10
154.300000
 20
107.500000
 30
0.0
 10
154.500000
 20
121.200000
 30
0.0
 10
155.200000
 20
121.600000
 30
0.0
  0
SPLINE
  5
1f2
100
AcDbEntity
  8
0
 62
7
100
AcDbSpline
 70
8
 71
3
 72
8
 73
4
 74
0
 40
0
 40
0
 40
0
 40
0
 40
1
 40
1
 40
1
 40
1
 10
155.200000
 20
121.600000
 30
0.0
 10
155.600000
 20
121.900000
 30
0.0
 10
156.000000
 20
123.500000
 30
0.0
 10
156.000000
 20
125.100000
 30
0.0
  0
SPLINE
  5
1f3
100
AcDbEntity
  8
0
 62
7
100
AcDbSpline
 70
8
 71
3
 72
8
 73
4
 74
0
 40
0
 40
0
 40
0
 40
0
 40
1
 40
1
 40
1
 40
1
 10
156.000000
 20
125.100000
 30
0.0
 10
156.000000
 20
128.300000
 30
0.0
 10
159.200000
 20
130.500000
 30
0.0
 10
162.000000
 20
129.000000
 30
0.0
  0
SPLINE
  5
1f4
100
AcDbEntity
  8
0
 62
7
100
AcDbSpline
 70
8
 71
3
 72
8
 73
4
 74
0
 40
0
 40
0
 40
0
 40
0
 40
1
 40
1
 40
1
 40
1
 10
162.000000
 20
129.000000
 30
0.0
 10
162.800000
 20
128.500000
 30
0.0
 10
164.200000
 20
128.600000
 30
0.0
 10
165.100000
 20
129.000000
 30
0.0
  0
SPLINE
  5
1f5
100
AcDbEntity
  8
0
 62
7
100
AcDbSpline
 70
8
 71
3
 72
8
 73
4
 74
0
 40
0
 40
0
 40
0
 40
0
 40
1
 40
1
 40
1
 40
1
 10
165.100000
 20
129.000000
 30
0.0
 10
165.900000
 20
129.500000
 30
0.0
 10
171.200000
 20
129.800000
 30
0.0
 10
176.700000
 20
129.700000
 30
0.0
  0
SPLINE
  5
1f6
100
AcDbEntity
  8
0
 62
7
100
AcDbSpline
 70
8
 71
3
 72
8
 73
4
 74
0
 40
0
 40
0
 40
0
 40
0
 40
1
 40
1
 40
1
 40
1
 10
176.700000
 20
129.700000
 30
0.0
 10
182.300000
 20
129.500000
 30
0.0
 10
187.700000
 20
129.700000
 30
0.0
 10
188.700000
 20
130.200000
 30
0.0
  0
SPLINE
  5
1f7
100
AcDbEntity
  8
0
 62
7
100
AcDbSpline
 70
8
 71
3
 72
8
 73
4
 74
0
 40
0
 40
0
 40
0
 40
0
 40
1
 40
1
 40
1
 40
1
 10
188.700000
 20
130.200000
 30
0.0
 10
189.700000
 20
130.600000
 30
0.0
 10
191.900000
 20
130.600000
 30
0.0
 10
193.500000
 20
130.300000
 30
0.0
  0
SPLINE
  5
1f8
100
AcDbEntity
  8
0
 62
7
100
AcDbSpline
 70
8
 71
3
 72
8
 73
4
 74
0
 40
0
 40
0
 40
0
 40
0
 40
1
 40
1
 40
1
 40
1
 10
193.500000
 20
130.300000
 30
0.0
 10
195.200000
 20
130.000000
 30
0.0
 10
201.100000
 20
129.600000
 30
0.0
 10
206.700000
 20
129.600000
 30
0.0
  0
LWPOLYLINE
  5
1f9
100
AcDbEntity
  8
0
 62
7
100
AcDbPolyline
 90
1
 70
1
 10
129.400000
 20
129.400000
 30
0.0
  0
SPLINE
  5
1fa
100
AcDbEntity
  8
0
 62
7
100
AcDbSpline
 70
8
 71
3
 72
8
 73
4
 74
0
 40
0
 40
0
 40
0
 40
0
 40
1
 40
1
 40
1
 40
1
 10
66.000000
 20
109.300000
 30
0.0
 10
66.000000
 20
108.600000
 30
0.0
 10
64.300000
 20
107.000000
 30
0.0
 10
62.300000
 20
105.700000
 30
0.0
  0
SPLINE
  5
1fb
100
AcDbEntity
  8
0
 62
7
100
AcDbSpline
 70
8
 71
3
 72
8
 73
4
 74
0
 40
0
 40
0
 40
0
 40
0
 40
1
 40
1
 40
1
 40
1
 10
62.300000
 20
105.700000
 30
0.0
 10
58.800000
 20
103.400000
 30
0.0
 10
58.300000
 20
103.400000
 30
0.0
 10
56.000000
 20
104.800000
 30
0.0
  0
SPLINE
  5
1fc
100
AcDbEntity
  8
0
 62
7
100
AcDbSpline
 70
8
 71
3
 72
8
 73
4
 74
0
 40
0
 40
0
 40
0
 40
0
 40
1
 40
1
 40
1
 40
1
 10
56.000000
 20
104.800000
 30
0.0
 10
52.300000
 20
107.100000
 30
0.0
 10
50.000000
 20
109.200000
 30
0.0
 10
50.400000
 20
109.900000
 30
0.0
  0
SPLINE
  5
1fd
100
AcDbEntity
  8
0
 62
7
100
AcDbSpline
 70
8
 71
3
 72
8
 73
4
 74
0
 40
0
 40
0
 40
0
 40
0
 40
1
 40
1
 40
1
 40
1
 10
50.400000
 20
109.900000
 30
0.0
 10
50.600000
 20
110.200000
 30
0.0
 10
54.200000
 20
110.500000
 30
0.0
 10
58.400000
 20
110.500000
 30
0.0
  0
SPLINE
  5
1fe
100
AcDbEntity
  8
0
 62
7
100
AcDbSpline
 70
8
 71
3
 72
8
 73
4
 74
0
 40
0
 40
0
 40
0
 40
0
 40
1
 40
1
 40
1
 40
1
 10
58.400000
 20
110.500000
 30
0.0
 10
63.800000
 20
110.500000
 30
0.0
 10
66.000000
 20
110.100000
 30
0.0
 10
66.000000
 20
109.300000
 30
0.0
  0
LWPOLYLINE
  5
1ff
100
AcDbEntity
  8
0
 62
7
100
AcDbPolyline
 90
1
 70
1
 10
206.700000
 20
129.600000
 30
0.0
  0
SPLINE
  5
200
100
AcDbEntity
  8
0
 62
7
100
AcDbSpline
 70
8
 71
3
 72
8
 73
4
 74
0
 40
0
 40
0
 40
0
 40
0
 40
1
 40
1
 40
1
 40
1
 10
108.000000
 20
109.900000
 30
0.0
 10
108.000000
 20
109.100000
 30
0.0
 10
105.100000
 20
106.800000
 30
0.0
 10
101.500000
 20
104.800000
 30
0.0
  0
SPLINE
  5
201
100
AcDbEntity
  8
0
 62
7
100
AcDbSpline
 70
8
 71
3
 72
8
 73
4
 74
0
 40
0
 40
0
 40
0
 40
0
 40
1
 40
1
 40
1
 40
1
 10
101.500000
 20
104.800000
 30
0.0
 10
98.500000
 20
103.200000
 30
0.0
 10
98.300000
 20
103.200000
 30
0.0
 10
95.200000
 20
105.600000
 30
0.0
  0
SPLINE
  5
202
100
AcDbEntity
  8
0
 62
7
100
AcDbSpline
 70
8
 71
3
 72
8
 73
4
 74
0
 40
0
 40
0
 40
0
 40
0
 40
1
 40
1
 40
1
 40
1
 10
95.200000
 20
105.600000
 30
0.0
 10
90.100000
 20
109.600000
 30
0.0
 10
91.000000
 20
110.500000
 30
0.0
 10
100.000000
 20
110.500000
 30
0.0
  0
SPLINE
  5
203
100
AcDbEntity
  8
0
 62
7
100
AcDbSpline
 70
8
 71
3
 72
8
 73
4
 74
0
 40
0
 40
0
 40
0
 40
0
 40
1
 40
1
 40
1
 40
1
 10
100.000000
 20
110.500000
 30
0.0
 10
104.400000
 20
110.500000
 30
0.0
 10
108.000000
 20
110.200000
 30
0.0
 10
108.000000
 20
109.900000
 30
0.0
  0
LWPOLYLINE
  5
204
100
AcDbEntity
  8
0
 62
7
100
AcDbPolyline
 90
1
 70
1
 10
66.000000
 20
109.300000
 30
0.0
  0
SPLINE
  5
205
100
AcDbEntity
  8
0
 62
7
100
AcDbSpline
 70
8
 71
3
 72
8
 73
4
 74
0
 40
0
 40
0
 40
0
 40
0
 40
1
 40
1
 40
1
 40
1
 10
154.600000
 20
75.800000
 30
0.0
 10
171.900000
 20
67.700000
 30
0.0
 10
176.400000
 20
44.800000
 30
0.0
 10
163.300000
 20
30.900000
 30
0.0
  0
SPLINE
  5
206
100
AcDbEntity
  8
0
 62
7
100
AcDbSpline
 70
8
 71
3
 72
8
 73
4
 74
0
 40
0
 40
0
 40
0
 40
0
 40
1
 40
1
 40
1
 40
1
 10
163.300000
 20
30.900000
 30
0.0
 10
151.700000
 20
18.500000
 30
0.0
 10
132.900000
 20
18.500000
 30
0.0
 10
121.700000
 20
31.000000
 30
0.0
  0
SPLINE
  5
207
100
AcDbEntity
  8
0
 62
7
100
AcDbSpline
 70
8
 71
3
 72
8
 73
4
 74
0
 40
0
 40
0
 40
0
 40
0
 40
1
 40
1
 40
1
 40
1
 10
121.700000
 20
31.000000
 30
0.0
 10
111.800000
 20
42.000000
 30
0.0
 10
111.700000
 20
57.700000
 30
0.0
 10
121.300000
 20
68.600000
 30
0.0
  0
SPLINE
  5
208
100
AcDbEntity
  8
0
 62
7
100
AcDbSpline
 70
8
 71
3
 72
8
 73
4
 74
0
 40
0
 40
0
 40
0
 40
0
 40
1
 40
1
 40
1
 40
1
 10
121.300000
 20
68.600000
 30
0.0
 10
129.900000
 20
78.300000
 30
0.0
 10
143.100000
 20
81.200000
 30
0.0
 10
154.600000
 20
75.800000
 30
0.0
  0
LWPOLYLINE
  5
209
100
AcDbEntity
  8
0
 62
7
100
AcDbPolyline
 90
1
 70
1
 10
108.000000
 20
109.900000
 30
0.0
  0
SPLINE
  5
20a
100
AcDbEntity
  8
0
 62
7
100
AcDbSpline
 70
8
 71
3
 72
8
 73
4
 74
0
 40
0
 40
0
 40
0
 40
0
 40
1
 40
1
 40
1
 40
1
 10
48.000000
 20
175.000000
 30
0.0
 10
48.800000
 20
174.500000
 30
0.0
 10
53.600000
 20
174.000000
 30
0.0
 10
58.500000
 20
174.000000
 30
0.0
  0
SPLINE
  5
20b
100
AcDbEntity
  8
0
 62
7
100
AcDbSpline
 70
8
 71
3
 72
8
 73
4
 74
0
 40
0
 40
0
 40
0
 40
0
 40
1
 40
1
 40
1
 40
1
 10
58.500000
 20
174.000000
 30
0.0
 10
63.500000
 20
174.000000
 30
0.0
 10
68.200000
 20
174.500000
 30
0.0
 10
69.000000
 20
175.000000
 30
0.0
  0
SPLINE
  5
20c
100
AcDbEntity
  8
0
 62
7
100
AcDbSpline
 70
8
 71
3
 72
8
 73
4
 74
0
 40
0
 40
0
 40
0
 40
0
 40
1
 40
1
 40
1
 40
1
 10
69.000000
 20
175.000000
 30
0.0
 10
70.000000
 20
175.700000
 30
0.0
 10
66.600000
 20
176.000000
 30
0.0
 10
58.500000
 20
176.000000
 30
0.0
  0
SPLINE
  5
20d
100
AcDbEntity
  8
0
 62
7
100
AcDbSpline
 70
8
 71
3
 72
8
 73
4
 74
0
 40
0
 40
0
 40
0
 40
0
 40
1
 40
1
 40
1
 40
1
 10
58.500000
 20
176.000000
 30
0.0
 10
50.400000
 20
176.000000
 30
0.0
 10
47.000000
 20
175.700000
 30
0.0
 10
48.000000
 20
175.000000
 30
0.0
  0
LWPOLYLINE
  5
20e
100
AcDbEntity
  8
0
 62
7
100
AcDbPolyline
 90
1
 70
1
 10
154.600000
 20
75.800000
 30
0.0
  0
SPLINE
  5
20f
100
AcDbEntity
  8
0
 62
7
100
AcDbSpline
 70
8
 71
3
 72
8
 73
4
 74
0
 40
0
 40
0
 40
0
 40
0
 40
1
 40
1
 40
1
 40
1
 10
89.600000
 20
179.200000
 30
0.0
 10
88.900000
 20
178.000000
 30
0.0
 10
108.500000
 20
174.600000
 30
0.0
 10
110.700000
 20
175.500000
 30
0.0
  0
SPLINE
  5
210
100
AcDbEntity
  8
0
 62
7
100
AcDbSpline
 70
8
 71
3
 72
8
 73
4
 74
0
 40
0
 40
0
 40
0
 40
0
 40
1
 40
1
 40
1
 40
1
 10
110.700000
 20
175.500000
 30
0.0
 10
112.300000
 20
176.200000
 30
0.0
 10
112.200000
 20
176.400000
 30
0.0
 10
110.000000
 20
176.700000
 30
0.0
  0
SPLINE
  5
211
100
AcDbEntity
  8
0
 62
7
100
AcDbSpline
 70
8
 71
3
 72
8
 73
4
 74
0
 40
0
 40
0
 40
0
 40
0
 40
1
 40
1
 40
1
 40
1
 10
110.000000
 20
176.700000
 30
0.0
 10
108.600000
 20
176.900000
 30
0.0
 10
104.800000
 20
177.700000
 30
0.0
 10
101.400000
 20
178.500000
 30
0.0
  0
SPLINE
  5
212
100
AcDbEntity
  8
0
 62
7
100
AcDbSpline
 70
8
 71
3
 72
8
 73
4
 74
0
 40
0
 40
0
 40
0
 40
0
 40
1
 40
1
 40
1
 40
1
 10
101.400000
 20
178.500000
 30
0.0
 10
94.600000
 20
180.200000
 30
0.0
 10
90.400000
 20
180.400000
 30
0.0
 10
89.600000
 20
179.200000
 30
0.0
  0
LWPOLYLINE
  5
213
100
AcDbEntity
  8
0
 62
7
100
AcDbPolyline
 90
1
 70
1
 10
48.000000
 20
175.000000
 30
0.0
  0
SPLINE
  5
214
100
AcDbEntity
  8
0
 62
7
100
AcDbSpline
 70
8
 71
3
 72
8
 73
4
 74
0
 40
0
 40
0
 40
0
 40
0
 40
1
 40
1
 40
1
 40
1
 10
53.900000
 20
131.200000
 30
0.0
 10
49.300000
 20
127.400000
 30
0.0
 10
52.300000
 20
119.000000
 30
0.0
 10
58.400000
 20
119.000000
 30
0.0
  0
SPLINE
  5
215
100
AcDbEntity
  8
0
 62
7
100
AcDbSpline
 70
8
 71
3
 72
8
 73
4
 74
0
 40
0
 40
0
 40
0
 40
0
 40
1
 40
1
 40
1
 40
1
 10
58.400000
 20
119.000000
 30
0.0
 10
62.400000
 20
119.000000
 30
0.0
 10
65.000000
 20
121.700000
 30
0.0
 10
65.000000
 20
126.000000
 30
0.0
  0
SPLINE
  5
216
100
AcDbEntity
  8
0
 62
7
100
AcDbSpline
 70
8
 71
3
 72
8
 73
4
 74
0
 40
0
 40
0
 40
0
 40
0
 40
1
 40
1
 40
1
 40
1
 10
65.000000
 20
126.000000
 30
0.0
 10
65.000000
 20
132.300000
 30
0.0
 10
58.900000
 20
135.100000
 30
0.0
 10
53.900000
 20
131.200000
 30
0.0
  0
LWPOLYLINE
  5
217
100
AcDbEntity
  8
0
 62
7
100
AcDbPolyline
 90
1
 70
1
 10
89.600000
 20
179.200000
 30
0.0
  0
SPLINE
  5
218
100
AcDbEntity
  8
0
 62
7
100
AcDbSpline
 70
8
 71
3
 72
8
 73
4
 74
0
 40
0
 40
0
 40
0
 40
0
 40
1
 40
1
 40
1
 40
1
 10
61.100000
 20
127.400000
 30
0.0
 10
62.200000
 20
126.000000
 30
0.0
 10
62.100000
 20
125.600000
 30
0.0
 10
60.500000
 20
124.400000
 30
0.0
  0
SPLINE
  5
219
100
AcDbEntity
  8
0
 62
7
100
AcDbSpline
 70
8
 71
3
 72
8
 73
4
 74
0
 40
0
 40
0
 40
0
 40
0
 40
1
 40
1
 40
1
 40
1
 10
60.500000
 20
124.400000
 30
0.0
 10
58.100000
 20
122.600000
 30
0.0
 10
57.500000
 20
122.600000
 30
0.0
 10
56.000000
 20
124.500000
 30
0.0
  0
SPLINE
  5
21a
100
AcDbEntity
  8
0
 62
7
100
AcDbSpline
 70
8
 71
3
 72
8
 73
4
 74
0
 40
0
 40
0
 40
0
 40
0
 40
1
 40
1
 40
1
 40
1
 10
56.000000
 20
124.500000
 30
0.0
 10
55.000000
 20
125.700000
 30
0.0
 10
55.000000
 20
126.300000
 30
0.0
 10
56.000000
 20
127.500000
 30
0.0
  0
SPLINE
  5
21b
100
AcDbEntity
  8
0
 62
7
100
AcDbSpline
 70
8
 71
3
 72
8
 73
4
 74
0
 40
0
 40
0
 40
0
 40
0
 40
1
 40
1
 40
1
 40
1
 10
56.000000
 20
127.500000
 30
0.0
 10
57.600000
 20
129.400000
 30
0.0
 10
59.400000
 20
129.400000
 30
0.0
 10
61.100000
 20
127.400000
 30
0.0
  0
LWPOLYLINE
  5
21c
100
AcDbEntity
  8
0
 62
7
100
AcDbPolyline
 90
1
 70
1
 10
53.900000
 20
131.200000
 30
0.0
  0
SPLINE
  5
21d
100
AcDbEntity
  8
0
 62
7
100
AcDbSpline
 70
8
 71
3
 72
8
 73
4
 74
0
 40
0
 40
0
 40
0
 40
0
 40
1
 40
1
 40
1
 40
1
 10
95.100000
 20
130.400000
 30
0.0
 10
93.900000
 20
128.900000
 30
0.0
 10
93.000000
 20
127.000000
 30
0.0
 10
93.000000
 20
126.000000
 30
0.0
  0
SPLINE
  5
21e
100
AcDbEntity
  8
0
 62
7
100
AcDbSpline
 70
8
 71
3
 72
8
 73
4
 74
0
 40
0
 40
0
 40
0
 40
0
 40
1
 40
1
 40
1
 40
1
 10
93.000000
 20
126.000000
 30
0.0
 10
93.000000
 20
125.000000
 30
0.0
 10
93.900000
 20
123.100000
 30
0.0
 10
95.100000
 20
121.600000
 30
0.0
  0
SPLINE
  5
21f
100
AcDbEntity
  8
0
 62
7
100
AcDbSpline
 70
8
 71
3
 72
8
 73
4
 74
0
 40
0
 40
0
 40
0
 40
0
 40
1
 40
1
 40
1
 40
1
 10
95.100000
 20
121.600000
 30
0.0
 10
99.100000
 20
116.600000
 30
0.0
 10
107.000000
 20
119.500000
 30
0.0
 10
107.000000
 20
126.000000
 30
0.0
  0
SPLINE
  5
220
100
AcDbEntity
  8
0
 62
7
100
AcDbSpline
 70
8
 71
3
 72
8
 73
4
 74
0
 40
0
 40
0
 40
0
 40
0
 40
1
 40
1
 40
1
 40
1
 10
107.000000
 20
126.000000
 30
0.0
 10
107.000000
 20
132.500000
 30
0.0
 10
99.100000
 20
135.400000
 30
0.0
 10
95.100000
 20
130.400000
 30
0.0
  0
LWPOLYLINE
  5
221
100
AcDbEntity
  8
0
 62
7
100
AcDbPolyline
 90
1
 70
1
 10
61.100000
 20
127.400000
 30
0.0
  0
SPLINE
  5
222
100
AcDbEntity
  8
0
 62
7
100
AcDbSpline
 70
8
 71
3
 72
8
 73
4
 74
0
 40
0
 40
0
 40
0
 40
0
 40
1
 40
1
 40
1
 40
1
 10
102.800000
 20
126.200000
 30
0.0
 10
103.200000
 20
123.400000
 30
0.0
 10
100.400000
 20
122.200000
 30
0.0
 10
98.300000
 20
124.300000
 30
0.0
  0
SPLINE
  5
223
100
AcDbEntity
  8
0
 62
7
100
AcDbSpline
 70
8
 71
3
 72
8
 73
4
 74
0
 40
0
 40
0
 40
0
 40
0
 40
1
 40
1
 40
1
 40
1
 10
98.300000
 20
124.300000
 30
0.0
 10
96.900000
 20
125.600000
 30
0.0
 10
96.900000
 20
126.200000
 30
0.0
 10
98.000000
 20
127.500000
 30
0.0
  0
SPLINE
  5
224
100
AcDbEntity
  8
0
 62
7
100
AcDbSpline
 70
8
 71
3
 72
8
 73
4
 74
0
 40
0
 40
0
 40
0
 40
0
 40
1
 40
1
 40
1
 40
1
 10
98.000000
 20
127.500000
 30
0.0
 10
99.800000
 20
129.700000
 30
0.0
 10
102.400000
 20
129.000000
 30
0.0
 10
102.800000
 20
126.200000
 30
0.0
  0
LWPOLYLINE
  5
225
100
AcDbEntity
  8
0
 62
7
100
AcDbPolyline
 90
1
 70
1
 10
95.100000
 20
130.400000
 30
0.0
  0
SPLINE
  5
226
100
AcDbEntity
  8
0
 62
7
100
AcDbSpline
 70
8
 71
3
 72
8
 73
4
 74
0
 40
0
 40
0
 40
0
 40
0
 40
1
 40
1
 40
1
 40
1
 10
159.200000
 20
125.800000
 30
0.0
 10
158.500000
 20
125.100000
 30
0.0
 10
158.000000
 20
123.700000
 30
0.0
 10
158.000000
 20
122.500000
 30
0.0
  0
SPLINE
  5
227
100
AcDbEntity
  8
0
 62
7
100
AcDbSpline
 70
8
 71
3
 72
8
 73
4
 74
0
 40
0
 40
0
 40
0
 40
0
 40
1
 40
1
 40
1
 40
1
 10
158.000000
 20
122.500000
 30
0.0
 10
158.000000
 20
121.300000
 30
0.0
 10
158.500000
 20
119.900000
 30
0.0
 10
159.200000
 20
119.200000
 30
0.0
  0
SPLINE
  5
228
100
AcDbEntity
  8
0
 62
7
100
AcDbSpline
 70
8
 71
3
 72
8
 73
4
 74
0
 40
0
 40
0
 40
0
 40
0
 40
1
 40
1
 40
1
 40
1
 10
159.200000
 20
119.200000
 30
0.0
 10
159.900000
 20
118.500000
 30
0.0
 10
161.300000
 20
118.000000
 30
0.0
 10
162.500000
 20
118.000000
 30
0.0
  0
SPLINE
  5
229
100
AcDbEntity
  8
0
 62
7
100
AcDbSpline
 70
8
 71
3
 72
8
 73
4
 74
0
 40
0
 40
0
 40
0
 40
0
 40
1
 40
1
 40
1
 40
1
 10
162.500000
 20
118.000000
 30
0.0
 10
163.700000
 20
118.000000
 30
0.0
 10
165.100000
 20
118.500000
 30
0.0
 10
165.800000
 20
119.200000
 30
0.0
  0
SPLINE
  5
22a
100
AcDbEntity
  8
0
 62
7
100
AcDbSpline
 70
8
 71
3
 72
8
 73
4
 74
0
 40
0
 40
0
 40
0
 40
0
 40
1
 40
1
 40
1
 40
1
 10
165.800000
 20
119.200000
 30
0.0
 10
166.500000
 20
119.900000
 30
0.0
 10
167.000000
 20
121.300000
 30
0.0
 10
167.000000
 20
122.500000
 30
0.0
  0
SPLINE
  5
22b
100
AcDbEntity
  8
0
 62
7
100
AcDbSpline
 70
8
 71
3
 72
8
 73
4
 74
0
 40
0
 40
0
 40
0
 40
0
 40
1
 40
1
 40
1
 40
1
 10
167.000000
 20
122.500000
 30
0.0
 10
167.000000
 20
123.700000
 30
0.0
 10
166.500000
 20
125.100000
 30
0.0
 10
165.800000
 20
125.800000
 30
0.0
  0
SPLINE
  5
22c
100
AcDbEntity
  8
0
 62
7
100
AcDbSpline
 70
8
 71
3
 72
8
 73
4
 74
0
 40
0
 40
0
 40
0
 40
0
 40
1
 40
1
 40
1
 40
1
 10
165.800000
 20
125.800000
 30
0.0
 10
165.100000
 20
126.500000
 30
0.0
 10
163.700000
 20
127.000000
 30
0.0
 10
162.500000
 20
127.000000
 30
0.0
  0
SPLINE
  5
22d
100
AcDbEntity
  8
0
 62
7
100
AcDbSpline
 70
8
 71
3
 72
8
 73
4
 74
0
 40
0
 40
0
 40
0
 40
0
 40
1
 40
1
 40
1
 40
1
 10
162.500000
 20
127.000000
 30
0.0
 10
161.300000
 20
127.000000
 30
0.0
 10
159.900000
 20
126.500000
 30
0.0
 10
159.200000
 20
125.800000
 30
0.0
  0
LWPOLYLINE
  5
22e
100
AcDbEntity
  8
0
 62
7
100
AcDbPolyline
 90
1
 70
1
 10
102.800000
 20
126.200000
 30
0.0
  0
SPLINE
  5
22f
100
AcDbEntity
  8
0
 62
7
100
AcDbSpline
 70
8
 71
3
 72
8
 73
4
 74
0
 40
0
 40
0
 40
0
 40
0
 40
1
 40
1
 40
1
 40
1
 10
165.400000
 20
123.800000
 30
0.0
 10
166.200000
 20
122.400000
 30
0.0
 10
166.100000
 20
121.700000
 30
0.0
 10
164.800000
 20
120.400000
 30
0.0
  0
SPLINE
  5
230
100
AcDbEntity
  8
0
 62
7
100
AcDbSpline
 70
8
 71
3
 72
8
 73
4
 74
0
 40
0
 40
0
 40
0
 40
0
 40
1
 40
1
 40
1
 40
1
 10
164.800000
 20
120.400000
 30
0.0
 10
161.800000
 20
117.400000
 30
0.0
 10
157.300000
 20
121.300000
 30
0.0
 10
160.000000
 20
124.600000
 30
0.0
  0
SPLINE
  5
231
100
AcDbEntity
  8
0
 62
7
100
AcDbSpline
 70
8
 71
3
 72
8
 73
4
 74
0
 40
0
 40
0
 40
0
 40
0
 40
1
 40
1
 40
1
 40
1
 10
160.000000
 20
124.600000
 30
0.0
 10
161.600000
 20
126.400000
 30
0.0
 10
163.900000
 20
126.100000
 30
0.0
 10
165.400000
 20
123.800000
 30
0.0
  0
LWPOLYLINE
  5
232
100
AcDbEntity
  8
0
 62
7
100
AcDbPolyline
 90
1
 70
1
 10
159.200000
 20
125.800000
 30
0.0
  0
SPLINE
  5
233
100
AcDbEntity
  8
0
 62
7
100
AcDbSpline
 70
8
 71
3
 72
8
 73
4
 74
0
 40
0
 40
0
 40
0
 40
0
 40
1
 40
1
 40
1
 40
1
 10
181.100000
 20
122.100000
 30
0.0
 10
174.100000
 20
118.400000
 30
0.0
 10
172.900000
 20
110.900000
 30
0.0
 10
178.500000
 20
105.300000
 30
0.0
  0
SPLINE
  5
234
100
AcDbEntity
  8
0
 62
7
100
AcDbSpline
 70
8
 71
3
 72
8
 73
4
 74
0
 40
0
 40
0
 40
0
 40
0
 40
1
 40
1
 40
1
 40
1
 10
178.500000
 20
105.300000
 30
0.0
 10
181.800000
 20
102.000000
 30
0.0
 10
182.200000
 20
101.800000
 30
0.0
 10
187.200000
 20
102.400000
 30
0.0
  0
SPLINE
  5
235
100
AcDbEntity
  8
0
 62
7
100
AcDbSpline
 70
8
 71
3
 72
8
 73
4
 74
0
 40
0
 40
0
 40
0
 40
0
 40
1
 40
1
 40
1
 40
1
 10
187.200000
 20
102.400000
 30
0.0
 10
194.500000
 20
103.300000
 30
0.0
 10
197.600000
 20
103.300000
 30
0.0
 10
203.700000
 20
102.500000
 30
0.0
  0
SPLINE
  5
236
100
AcDbEntity
  8
0
 62
7
100
AcDbSpline
 70
8
 71
3
 72
8
 73
4
 74
0
 40
0
 40
0
 40
0
 40
0
 40
1
 40
1
 40
1
 40
1
 10
203.700000
 20
102.500000
 30
0.0
 10
207.800000
 20
101.900000
 30
0.0
 10
209.500000
 20
102.100000
 30
0.0
 10
211.400000
 20
103.400000
 30
0.0
  0
SPLINE
  5
237
100
AcDbEntity
  8
0
 62
7
100
AcDbSpline
 70
8
 71
3
 72
8
 73
4
 74
0
 40
0
 40
0
 40
0
 40
0
 40
1
 40
1
 40
1
 40
1
 10
211.400000
 20
103.400000
 30
0.0
 10
215.800000
 20
106.200000
 30
0.0
 10
217.500000
 20
111.300000
 30
0.0
 10
215.700000
 20
116.500000
 30
0.0
  0
SPLINE
  5
238
100
AcDbEntity
  8
0
 62
7
100
AcDbSpline
 70
8
 71
3
 72
8
 73
4
 74
0
 40
0
 40
0
 40
0
 40
0
 40
1
 40
1
 40
1
 40
1
 10
215.700000
 20
116.500000
 30
0.0
 10
213.500000
 20
122.800000
 30
0.0
 10
207.100000
 20
125.200000
 30
0.0
 10
200.200000
 20
122.500000
 30
0.0
  0
SPLINE
  5
239
100
AcDbEntity
  8
0
 62
7
100
AcDbSpline
 70
8
 71
3
 72
8
 73
4
 74
0
 40
0
 40
0
 40
0
 40
0
 40
1
 40
1
 40
1
 40
1
 10
200.200000
 20
122.500000
 30
0.0
 10
196.900000
 20
121.100000
 30
0.0
 10
195.400000
 20
121.000000
 30
0.0
 10
193.200000
 20
121.900000
 30
0.0
  0
SPLINE
  5
23a
100
AcDbEntity
  8
0
 62
7
100
AcDbSpline
 70
8
 71
3
 72
8
 73
4
 74
0
 40
0
 40
0
 40
0
 40
0
 40
1
 40
1
 40
1
 40
1
 10
193.200000
 20
121.900000
 30
0.0
 10
188.200000
 20
123.900000
 30
0.0
 10
184.600000
 20
123.900000
 30
0.0
 10
181.100000
 20
122.100000
 30
0.0
  0
LWPOLYLINE
  5
23b
100
AcDbEntity
  8
0
 62
7
100
AcDbPolyline
 90
1
 70
1
 10
165.400000
 20
123.800000
 30
0.0
  0
LWPOLYLINE
  5
23c
100
AcDbEntity
  8
0
 62
7
100
AcDbPolyline
 90
1
 70
1
 10
181.100000
 20
122.100000
 30
0.0
  0
SPLINE
  5
23d
100
AcDbEntity
  8
0
 62
7
100
AcDbSpline
 70
8
 71
3
 72
8
 73
4
 74
0
 40
0
 40
0
 40
0
 40
0
 40
1
 40
1
 40
1
 40
1
 10
199.100000
 20
119.400000
 30
0.0
 10
204.200000
 20
123.700000
 30
0.0
 10
210.800000
 20
122.300000
 30
0.0
 10
213.900000
 20
116.300000
 30
0.0
  0
SPLINE
  5
23e
100
AcDbEntity
  8
0
 62
7
100
AcDbSpline
 70
8
 71
3
 72
8
 73
4
 74
0
 40
0
 40
0
 40
0
 40
0
 40
1
 40
1
 40
1
 40
1
 10
213.900000
 20
116.300000
 30
0.0
 10
215.800000
 20
112.600000
 30
0.0
 10
215.100000
 20
109.900000
 30
0.0
 10
211.500000
 20
106.300000
 30
0.0
  0
SPLINE
  5
23f
100
AcDbEntity
  8
0
 62
7
100
AcDbSpline
 70
8
 71
3
 72
8
 73
4
 74
0
 40
0
 40
0
 40
0
 40
0
 40
1
 40
1
 40
1
 40
1
 10
211.500000
 20
106.300000
 30
0.0
 10
208.400000
 20
103.200000
 30
0.0
 10
207.500000
 20
102.800000
 30
0.0
 10
204.300000
 20
103.300000
 30
0.0
  0
SPLINE
  5
240
100
AcDbEntity
  8
0
 62
7
100
AcDbSpline
 70
8
 71
3
 72
8
 73
4
 74
0
 40
0
 40
0
 40
0
 40
0
 40
1
 40
1
 40
1
 40
1
 10
204.300000
 20
103.300000
 30
0.0
 10
202.300000
 20
103.700000
 30
0.0
 10
199.500000
 20
105.100000
 30
0.0
 10
198.000000
 20
106.500000
 30
0.0
  0
SPLINE
  5
241
100
AcDbEntity
  8
0
 62
7
100
AcDbSpline
 70
8
 71
3
 72
8
 73
4
 74
0
 40
0
 40
0
 40
0
 40
0
 40
1
 40
1
 40
1
 40
1
 10
198.000000
 20
106.500000
 30
0.0
 10
195.700000
 20
108.700000
 30
0.0
 10
195.200000
 20
108.900000
 30
0.0
 10
194.600000
 20
107.500000
 30
0.0
  0
SPLINE
  5
242
100
AcDbEntity
  8
0
 62
7
100
AcDbSpline
 70
8
 71
3
 72
8
 73
4
 74
0
 40
0
 40
0
 40
0
 40
0
 40
1
 40
1
 40
1
 40
1
 10
194.600000
 20
107.500000
 30
0.0
 10
193.700000
 20
105.200000
 30
0.0
 10
187.300000
 20
102.800000
 30
0.0
 10
183.900000
 20
103.500000
 30
0.0
  0
SPLINE
  5
243
100
AcDbEntity
  8
0
 62
7
100
AcDbSpline
 70
8
 71
3
 72
8
 73
4
 74
0
 40
0
 40
0
 40
0
 40
0
 40
1
 40
1
 40
1
 40
1
 10
183.900000
 20
103.500000
 30
0.0
 10
179.900000
 20
104.400000
 30
0.0
 10
177.000000
 20
108.400000
 30
0.0
 10
177.000000
 20
113.000000
 30
0.0
  0
SPLINE
  5
244
100
AcDbEntity
  8
0
 62
7
100
AcDbSpline
 70
8
 71
3
 72
8
 73
4
 74
0
 40
0
 40
0
 40
0
 40
0
 40
1
 40
1
 40
1
 40
1
 10
177.000000
 20
113.000000
 30
0.0
 10
177.000000
 20
116.000000
 30
0.0
 10
177.600000
 20
117.400000
 30
0.0
 10
180.100000
 20
119.400000
 30
0.0
  0
SPLINE
  5
245
100
AcDbEntity
  8
0
 62
7
100
AcDbSpline
 70
8
 71
3
 72
8
 73
4
 74
0
 40
0
 40
0
 40
0
 40
0
 40
1
 40
1
 40
1
 40
1
 10
180.100000
 20
119.400000
 30
0.0
 10
184.100000
 20
122.800000
 30
0.0
 10
188.900000
 20
122.800000
 30
0.0
 10
192.900000
 20
119.400000
 30
0.0
  0
LWPOLYLINE
  5
246
100
AcDbEntity
  8
0
 62
7
100
AcDbPolyline
 90
3
 70
0
 10
192.900000
 20
119.400000
 30
0.0
 10
196.000000
 20
116.800000
 30
0.0
 10
199.100000
 20
119.400000
 30
0.0
  0
SPLINE
  5
247
100
AcDbEntity
  8
0
 62
7
100
AcDbSpline
 70
8
 71
3
 72
8
 73
4
 74
0
 40
0
 40
0
 40
0
 40
0
 40
1
 40
1
 40
1
 40
1
 10
182.000000
 20
116.000000
 30
0.0
 10
180.900000
 20
114.900000
 30
0.0
 10
180.000000
 20
113.300000
 30
0.0
 10
180.000000
 20
112.500000
 30
0.0
  0
SPLINE
  5
248
100
AcDbEntity
  8
0
 62
7
100
AcDbSpline
 70
8
 71
3
 72
8
 73
4
 74
0
 40
0
 40
0
 40
0
 40
0
 40
1
 40
1
 40
1
 40
1
 10
180.000000
 20
112.500000
 30
0.0
 10
180.000000
 20
110.400000
 30
0.0
 10
183.600000
 20
107.000000
 30
0.0
 10
185.900000
 20
107.000000
 30
0.0
  0
SPLINE
  5
249
100
AcDbEntity
  8
0
 62
7
100
AcDbSpline
 70
8
 71
3
 72
8
 73
4
 74
0
 40
0
 40
0
 40
0
 40
0
 40
1
 40
1
 40
1
 40
1
 10
185.900000
 20
107.000000
 30
0.0
 10
188.200000
 20
107.000000
 30
0.0
 10
193.000000
 20
110.700000
 30
0.0
 10
193.000000
 20
112.500000
 30
0.0
  0
SPLINE
  5
24a
100
AcDbEntity
  8
0
 62
7
100
AcDbSpline
 70
8
 71
3
 72
8
 73
4
 74
0
 40
0
 40
0
 40
0
 40
0
 40
1
 40
1
 40
1
 40
1
 10
193.000000
 20
112.500000
 30
0.0
 10
193.000000
 20
114.300000
 30
0.0
 10
188.200000
 20
118.000000
 30
0.0
 10
185.900000
 20
118.000000
 30
0.0
  0
SPLINE
  5
24b
100
AcDbEntity
  8
0
 62
7
100
AcDbSpline
 70
8
 71
3
 72
8
 73
4
 74
0
 40
0
 40
0
 40
0
 40
0
 40
1
 40
1
 40
1
 40
1
 10
185.900000
 20
118.000000
 30
0.0
 10
184.800000
 20
118.000000
 30
0.0
 10
183.100000
 20
117.100000
 30
0.0
 10
182.000000
 20
116.000000
 30
0.0
  0
LWPOLYLINE
  5
24c
100
AcDbEntity
  8
0
 62
7
100
AcDbPolyline
 90
1
 70
1
 10
192.900000
 20
119.400000
 30
0.0
  0
SPLINE
  5
24d
100
AcDbEntity
  8
0
 62
7
100
AcDbSpline
 70
8
 71
3
 72
8
 73
4
 74
0
 40
0
 40
0
 40
0
 40
0
 40
1
 40
1
 40
1
 40
1
 10
188.800000
 20
112.200000
 30
0.0
 10
188.400000
 20
110.000000
 30
0.0
 10
184.200000
 20
109.400000
 30
0.0
 10
183.400000
 20
111.400000
 30
0.0
  0
SPLINE
  5
24e
100
AcDbEntity
  8
0
 62
7
100
AcDbSpline
 70
8
 71
3
 72
8
 73
4
 74
0
 40
0
 40
0
 40
0
 40
0
 40
1
 40
1
 40
1
 40
1
 10
183.400000
 20
111.400000
 30
0.0
 10
183.000000
 20
112.300000
 30
0.0
 10
183.300000
 20
113.700000
 30
0.0
 10
184.000000
 20
114.500000
 30
0.0
  0
SPLINE
  5
24f
100
AcDbEntity
  8
0
 62
7
100
AcDbSpline
 70
8
 71
3
 72
8
 73
4
 74
0
 40
0
 40
0
 40
0
 40
0
 40
1
 40
1
 40
1
 40
1
 10
184.000000
 20
114.500000
 30
0.0
 10
185.600000
 20
116.400000
 30
0.0
 10
189.300000
 20
114.600000
 30
0.0
 10
188.800000
 20
112.200000
 30
0.0
  0
LWPOLYLINE
  5
250
100
AcDbEntity
  8
0
 62
7
100
AcDbPolyline
 90
1
 70
1
 10
182.000000
 20
116.000000
 30
0.0
  0
SPLINE
  5
251
100
AcDbEntity
  8
0
 62
7
100
AcDbSpline
 70
8
 71
3
 72
8
 73
4
 74
0
 40
0
 40
0
 40
0
 40
0
 40
1
 40
1
 40
1
 40
1
 10
200.700000
 20
115.200000
 30
0.0
 10
198.400000
 20
112.700000
 30
0.0
 10
198.600000
 20
111.400000
 30
0.0
 10
201.200000
 20
109.600000
 30
0.0
  0
SPLINE
  5
252
100
AcDbEntity
  8
0
 62
7
100
AcDbSpline
 70
8
 71
3
 72
8
 73
4
 74
0
 40
0
 40
0
 40
0
 40
0
 40
1
 40
1
 40
1
 40
1
 10
201.200000
 20
109.600000
 30
0.0
 10
204.200000
 20
107.500000
 30
0.0
 10
207.300000
 20
107.600000
 30
0.0
 10
209.300000
 20
109.800000
 30
0.0
  0
SPLINE
  5
253
100
AcDbEntity
  8
0
 62
7
100
AcDbSpline
 70
8
 71
3
 72
8
 73
4
 74
0
 40
0
 40
0
 40
0
 40
0
 40
1
 40
1
 40
1
 40
1
 10
209.300000
 20
109.800000
 30
0.0
 10
211.400000
 20
112.100000
 30
0.0
 10
211.400000
 20
113.400000
 30
0.0
 10
209.400000
 20
115.400000
 30
0.0
  0
SPLINE
  5
254
100
AcDbEntity
  8
0
 62
7
100
AcDbSpline
 70
8
 71
3
 72
8
 73
4
 74
0
 40
0
 40
0
 40
0
 40
0
 40
1
 40
1
 40
1
 40
1
 10
209.400000
 20
115.400000
 30
0.0
 10
207.300000
 20
117.600000
 30
0.0
 10
202.700000
 20
117.400000
 30
0.0
 10
200.700000
 20
115.200000
 30
0.0
  0
LWPOLYLINE
  5
255
100
AcDbEntity
  8
0
 62
7
100
AcDbPolyline
 90
1
 70
1
 10
188.800000
 20
112.200000
 30
0.0
  0
SPLINE
  5
256
100
AcDbEntity
  8
0
 62
7
100
AcDbSpline
 70
8
 71
3
 72
8
 73
4
 74
0
 40
0
 40
0
 40
0
 40
0
 40
1
 40
1
 40
1
 40
1
 10
207.200000
 20
114.000000
 30
0.0
 10
209.000000
 20
112.400000
 30
0.0
 10
209.100000
 20
112.000000
 30
0.0
 10
207.800000
 20
112.000000
 30
0.0
  0
SPLINE
  5
257
100
AcDbEntity
  8
0
 62
7
100
AcDbSpline
 70
8
 71
3
 72
8
 73
4
 74
0
 40
0
 40
0
 40
0
 40
0
 40
1
 40
1
 40
1
 40
1
 10
207.800000
 20
112.000000
 30
0.0
 10
206.900000
 20
112.000000
 30
0.0
 10
206.000000
 20
111.400000
 30
0.0
 10
205.800000
 20
110.800000
 30
0.0
  0
SPLINE
  5
258
100
AcDbEntity
  8
0
 62
7
100
AcDbSpline
 70
8
 71
3
 72
8
 73
4
 74
0
 40
0
 40
0
 40
0
 40
0
 40
1
 40
1
 40
1
 40
1
 10
205.800000
 20
110.800000
 30
0.0
 10
205.500000
 20
109.900000
 30
0.0
 10
204.900000
 20
110.000000
 30
0.0
 10
203.700000
 20
111.200000
 30
0.0
  0
SPLINE
  5
259
100
AcDbEntity
  8
0
 62
7
100
AcDbSpline
 70
8
 71
3
 72
8
 73
4
 74
0
 40
0
 40
0
 40
0
 40
0
 40
1
 40
1
 40
1
 40
1
 10
203.700000
 20
111.200000
 30
0.0
 10
201.800000
 20
113.000000
 30
0.0
 10
201.400000
 20
114.500000
 30
0.0
 10
203.000000
 20
113.500000
 30
0.0
  0
SPLINE
  5
25a
100
AcDbEntity
  8
0
 62
7
100
AcDbSpline
 70
8
 71
3
 72
8
 73
4
 74
0
 40
0
 40
0
 40
0
 40
0
 40
1
 40
1
 40
1
 40
1
 10
203.000000
 20
113.500000
 30
0.0
 10
203.600000
 20
113.200000
 30
0.0
 10
204.000000
 20
113.600000
 30
0.0
 10
204.000000
 20
114.400000
 30
0.0
  0
SPLINE
  5
25b
100
AcDbEntity
  8
0
 62
7
100
AcDbSpline
 70
8
 71
3
 72
8
 73
4
 74
0
 40
0
 40
0
 40
0
 40
0
 40
1
 40
1
 40
1
 40
1
 10
204.000000
 20
114.400000
 30
0.0
 10
204.000000
 20
116.500000
 30
0.0
 10
204.600000
 20
116.400000
 30
0.0
 10
207.200000
 20
114.000000
 30
0.0
  0
LWPOLYLINE
  5
25c
100
AcDbEntity
  8
0
 62
7
100
AcDbPolyline
 90
1
 70
1
 10
200.700000
 20
115.200000
 30
0.0
  0
SPLINE
  5
25d
100
AcDbEntity
  8
0
 62
7
100
AcDbSpline
 70
8
 71
3
 72
8
 73
4
 74
0
 40
0
 40
0
 40
0
 40
0
 40
1
 40
1
 40
1
 40
1
 10
159.800000
 20
110.900000
 30
0.0
 10
157.300000
 20
109.500000
 30
0.0
 10
157.600000
 20
105.400000
 30
0.0
 10
160.200000
 20
103.600000
 30
0.0
  0
SPLINE
  5
25e
100
AcDbEntity
  8
0
 62
7
100
AcDbSpline
 70
8
 71
3
 72
8
 73
4
 74
0
 40
0
 40
0
 40
0
 40
0
 40
1
 40
1
 40
1
 40
1
 10
160.200000
 20
103.600000
 30
0.0
 10
162.100000
 20
102.300000
 30
0.0
 10
162.700000
 20
102.200000
 30
0.0
 10
164.500000
 20
103.400000
 30
0.0
  0
SPLINE
  5
25f
100
AcDbEntity
  8
0
 62
7
100
AcDbSpline
 70
8
 71
3
 72
8
 73
4
 74
0
 40
0
 40
0
 40
0
 40
0
 40
1
 40
1
 40
1
 40
1
 10
164.500000
 20
103.400000
 30
0.0
 10
167.100000
 20
105.100000
 30
0.0
 10
167.600000
 20
108.300000
 30
0.0
 10
165.500000
 20
110.400000
 30
0.0
  0
SPLINE
  5
260
100
AcDbEntity
  8
0
 62
7
100
AcDbSpline
 70
8
 71
3
 72
8
 73
4
 74
0
 40
0
 40
0
 40
0
 40
0
 40
1
 40
1
 40
1
 40
1
 10
165.500000
 20
110.400000
 30
0.0
 10
163.600000
 20
112.200000
 30
0.0
 10
162.200000
 20
112.400000
 30
0.0
 10
159.800000
 20
110.900000
 30
0.0
  0
LWPOLYLINE
  5
261
100
AcDbEntity
  8
0
 62
7
100
AcDbPolyline
 90
1
 70
1
 10
207.200000
 20
114.000000
 30
0.0
  0
SPLINE
  5
262
100
AcDbEntity
  8
0
 62
7
100
AcDbSpline
 70
8
 71
3
 72
8
 73
4
 74
0
 40
0
 40
0
 40
0
 40
0
 40
1
 40
1
 40
1
 40
1
 10
165.000000
 20
109.500000
 30
0.0
 10
165.600000
 20
108.700000
 30
0.0
 10
165.900000
 20
107.200000
 30
0.0
 10
165.500000
 20
106.000000
 30
0.0
  0
SPLINE
  5
263
100
AcDbEntity
  8
0
 62
7
100
AcDbSpline
 70
8
 71
3
 72
8
 73
4
 74
0
 40
0
 40
0
 40
0
 40
0
 40
1
 40
1
 40
1
 40
1
 10
165.500000
 20
106.000000
 30
0.0
 10
164.700000
 20
103.400000
 30
0.0
 10
161.200000
 20
103.600000
 30
0.0
 10
159.600000
 20
106.300000
 30
0.0
  0
SPLINE
  5
264
100
AcDbEntity
  8
0
 62
7
100
AcDbSpline
 70
8
 71
3
 72
8
 73
4
 74
0
 40
0
 40
0
 40
0
 40
0
 40
1
 40
1
 40
1
 40
1
 10
159.600000
 20
106.300000
 30
0.0
 10
158.700000
 20
107.800000
 30
0.0
 10
158.900000
 20
108.400000
 30
0.0
 10
160.400000
 20
109.600000
 30
0.0
  0
SPLINE
  5
265
100
AcDbEntity
  8
0
 62
7
100
AcDbSpline
 70
8
 71
3
 72
8
 73
4
 74
0
 40
0
 40
0
 40
0
 40
0
 40
1
 40
1
 40
1
 40
1
 10
160.400000
 20
109.600000
 30
0.0
 10
162.900000
 20
111.400000
 30
0.0
 10
163.500000
 20
111.400000
 30
0.0
 10
165.000000
 20
109.500000
 30
0.0
  0
LWPOLYLINE
  5
266
100
AcDbEntity
  8
0
 62
7
100
AcDbPolyline
 90
1
 70
1
 10
159.800000
 20
110.900000
 30
0.0
  0
SPLINE
  5
267
100
AcDbEntity
  8
0
 62
7
100
AcDbSpline
 70
8
 71
3
 72
8
 73
4
 74
0
 40
0
 40
0
 40
0
 40
0
 40
1
 40
1
 40
1
 40
1
 10
136.000000
 20
75.100000
 30
0.0
 10
127.900000
 20
72.600000
 30
0.0
 10
120.100000
 20
65.000000
 30
0.0
 10
118.000000
 20
57.500000
 30
0.0
  0
SPLINE
  5
268
100
AcDbEntity
  8
0
 62
7
100
AcDbSpline
 70
8
 71
3
 72
8
 73
4
 74
0
 40
0
 40
0
 40
0
 40
0
 40
1
 40
1
 40
1
 40
1
 10
118.000000
 20
57.500000
 30
0.0
 10
116.500000
 20
52.000000
 30
0.0
 10
117.200000
 20
42.500000
 30
0.0
 10
119.400000
 20
38.100000
 30
0.0
  0
SPLINE
  5
269
100
AcDbEntity
  8
0
 62
7
100
AcDbSpline
 70
8
 71
3
 72
8
 73
4
 74
0
 40
0
 40
0
 40
0
 40
0
 40
1
 40
1
 40
1
 40
1
 10
119.400000
 20
38.100000
 30
0.0
 10
125.700000
 20
26.000000
 30
0.0
 10
141.300000
 20
20.700000
 30
0.0
 10
153.600000
 20
26.400000
 30
0.0
  0
SPLINE
  5
26a
100
AcDbEntity
  8
0
 62
7
100
AcDbSpline
 70
8
 71
3
 72
8
 73
4
 74
0
 40
0
 40
0
 40
0
 40
0
 40
1
 40
1
 40
1
 40
1
 10
153.600000
 20
26.400000
 30
0.0
 10
162.200000
 20
30.400000
 30
0.0
 10
169.000000
 20
40.800000
 30
0.0
 10
169.000000
 20
50.000000
 30
0.0
  0
SPLINE
  5
26b
100
AcDbEntity
  8
0
 62
7
100
AcDbSpline
 70
8
 71
3
 72
8
 73
4
 74
0
 40
0
 40
0
 40
0
 40
0
 40
1
 40
1
 40
1
 40
1
 10
169.000000
 20
50.000000
 30
0.0
 10
169.000000
 20
66.300000
 30
0.0
 10
151.300000
 20
79.700000
 30
0.0
 10
136.000000
 20
75.100000
 30
0.0
  0
LWPOLYLINE
  5
26c
100
AcDbEntity
  8
0
 62
7
100
AcDbPolyline
 90
1
 70
1
 10
165.000000
 20
109.500000
 30
0.0
  0
SPLINE
  5
26d
100
AcDbEntity
  8
0
 62
7
100
AcDbSpline
 70
8
 71
3
 72
8
 73
4
 74
0
 40
0
 40
0
 40
0
 40
0
 40
1
 40
1
 40
1
 40
1
 10
155.600000
 20
70.400000
 30
0.0
 10
172.200000
 20
60.200000
 30
0.0
 10
170.100000
 20
34.800000
 30
0.0
 10
152.100000
 20
27.300000
 30
0.0
  0
SPLINE
  5
26e
100
AcDbEntity
  8
0
 62
7
100
AcDbSpline
 70
8
 71
3
 72
8
 73
4
 74
0
 40
0
 40
0
 40
0
 40
0
 40
1
 40
1
 40
1
 40
1
 10
152.100000
 20
27.300000
 30
0.0
 10
147.300000
 20
25.300000
 30
0.0
 10
138.400000
 20
25.300000
 30
0.0
 10
133.500000
 20
27.400000
 30
0.0
  0
SPLINE
  5
26f
100
AcDbEntity
  8
0
 62
7
100
AcDbSpline
 70
8
 71
3
 72
8
 73
4
 74
0
 40
0
 40
0
 40
0
 40
0
 40
1
 40
1
 40
1
 40
1
 10
133.500000
 20
27.400000
 30
0.0
 10
117.100000
 20
34.400000
 30
0.0
 10
113.500000
 20
56.900000
 30
0.0
 10
127.000000
 20
68.200000
 30
0.0
  0
SPLINE
  5
270
100
AcDbEntity
  8
0
 62
7
100
AcDbSpline
 70
8
 71
3
 72
8
 73
4
 74
0
 40
0
 40
0
 40
0
 40
0
 40
1
 40
1
 40
1
 40
1
 10
127.000000
 20
68.200000
 30
0.0
 10
132.300000
 20
72.700000
 30
0.0
 10
136.400000
 20
74.000000
 30
0.0
 10
144.100000
 20
73.700000
 30
0.0
  0
SPLINE
  5
271
100
AcDbEntity
  8
0
 62
7
100
AcDbSpline
 70
8
 71
3
 72
8
 73
4
 74
0
 40
0
 40
0
 40
0
 40
0
 40
1
 40
1
 40
1
 40
1
 10
144.100000
 20
73.700000
 30
0.0
 10
149.500000
 20
73.500000
 30
0.0
 10
151.700000
 20
72.900000
 30
0.0
 10
155.600000
 20
70.400000
 30
0.0
  0
LWPOLYLINE
  5
272
100
AcDbEntity
  8
0
 62
7
100
AcDbPolyline
 90
1
 70
1
 10
136.000000
 20
75.100000
 30
0.0
  0
SPLINE
  5
273
100
AcDbEntity
  8
0
 62
7
100
AcDbSpline
 70
8
 71
3
 72
8
 73
4
 74
0
 40
0
 40
0
 40
0
 40
0
 40
1
 40
1
 40
1
 40
1
 10
138.300000
 20
53.400000
 30
0.0
 10
136.800000
 20
51.000000
 30
0.0
 10
136.800000
 20
50.500000
 30
0.0
 10
138.100000
 20
48.100000
 30
0.0
  0
SPLINE
  5
274
100
AcDbEntity
  8
0
 62
7
100
AcDbSpline
 70
8
 71
3
 72
8
 73
4
 74
0
 40
0
 40
0
 40
0
 40
0
 40
1
 40
1
 40
1
 40
1
 10
138.100000
 20
48.100000
 30
0.0
 10
140.100000
 20
44.500000
 30
0.0
 10
145.200000
 20
44.000000
 30
0.0
 10
147.400000
 20
47.200000
 30
0.0
  0
SPLINE
  5
275
100
AcDbEntity
  8
0
 62
7
100
AcDbSpline
 70
8
 71
3
 72
8
 73
4
 74
0
 40
0
 40
0
 40
0
 40
0
 40
1
 40
1
 40
1
 40
1
 10
147.400000
 20
47.200000
 30
0.0
 10
149.500000
 20
50.200000
 30
0.0
 10
149.400000
 20
51.600000
 30
0.0
 10
147.000000
 20
54.000000
 30
0.0
  0
SPLINE
  5
276
100
AcDbEntity
  8
0
 62
7
100
AcDbSpline
 70
8
 71
3
 72
8
 73
4
 74
0
 40
0
 40
0
 40
0
 40
0
 40
1
 40
1
 40
1
 40
1
 10
147.000000
 20
54.000000
 30
0.0
 10
144.200000
 20
56.800000
 30
0.0
 10
140.400000
 20
56.600000
 30
0.0
 10
138.300000
 20
53.400000
 30
0.0
  0
LWPOLYLINE
  5
277
100
AcDbEntity
  8
0
 62
7
100
AcDbPolyline
 90
1
 70
1
 10
155.600000
 20
70.400000
 30
0.0
  0
LWPOLYLINE
  5
278
100
AcDbEntity
  8
0
 62
7
100
AcDbPolyline
 90
1
 70
1
 10
138.300000
 20
53.400000
 30
0.0
  0
ENDSEC
  0
SECTION
  2
OBJECTS
  0
DICTIONARY
  5
C
330
0
100
AcDbDictionary
  3
ACAD_GROUP
350
D
  3
ACAD_MLINESTYLE
350
17
  0
DICTIONARY
  5
D
330
C
100
AcDbDictionary
  0
DICTIONARY
  5
1A
330
C
100
AcDbDictionary
  0
DICTIONARY
  5
17
330
C
100
AcDbDictionary
  3
STANDARD
350
18
  0
DICTIONARY
  5
19
330
C
100
AcDbDictionary
  0
ENDSEC
  0
EOF
